<svg width="60" height="60" viewBox="0 0 60 60" fill="none" xmlns="http://www.w3.org/2000/svg">
<rect width="60" height="60" fill="white"/>
<path d="M38 25.4138L33.6552 25.7241L30.2414 15.1724L20.931 13L11 20.1379L15.0345 30.6897L24.6552 34.7241L23.1034 40L33.6552 49L44.5172 45.8965L49.1724 32.2414L38 25.4138Z" fill="white"/>
<path d="M20.7447 14L12.3442 19.9943L19.654 22.204L28.1489 15.5897L20.7447 14ZM29.3679 16.3606L20.3584 23.1929L24.2561 33.1499L24.9075 32.5837L25.2303 31.3907C25.0117 31.249 24.8244 31.0186 24.6987 30.7367C24.5729 30.4548 24.516 30.138 24.5373 29.8376C24.5582 29.5458 24.6516 29.2859 24.8031 29.0977C24.9547 28.9094 25.1562 28.8031 25.3766 28.795C25.4678 28.7917 25.5607 28.8052 25.6529 28.8353C25.7339 28.8621 25.8136 28.9015 25.8905 28.9525L26.4965 26.7136C26.5038 26.6867 26.5128 26.6604 26.5234 26.6346L26.5278 26.6249C26.5352 26.6072 26.5434 26.5898 26.5523 26.5728L26.5591 26.5612C26.5679 26.545 26.5773 26.5292 26.5874 26.5138C26.6 26.4948 26.6136 26.4765 26.6281 26.4589L26.6332 26.4532C26.6462 26.4376 26.66 26.4225 26.6744 26.4081C26.6902 26.3923 26.7067 26.3773 26.724 26.3631C26.7354 26.3541 26.7474 26.3452 26.7594 26.337C26.7661 26.3318 26.7728 26.3269 26.7797 26.322C26.7922 26.314 26.805 26.3064 26.818 26.2992C26.8248 26.2951 26.8317 26.2911 26.8386 26.2873C26.8497 26.2817 26.8609 26.2764 26.8722 26.2715C26.8818 26.2668 26.8914 26.2622 26.9012 26.258C26.9122 26.2538 26.9233 26.25 26.9345 26.2464C26.9449 26.2426 26.9553 26.2389 26.9658 26.2356C26.9761 26.2328 26.9863 26.2303 26.9967 26.228C27.0085 26.2248 27.0205 26.2219 27.0325 26.2193C27.0455 26.2172 27.0584 26.2154 27.0715 26.214C27.0809 26.2125 27.0903 26.2113 27.0997 26.2102L27.1012 26.21L29.6674 25.9918C29.7262 25.7737 29.8303 25.5898 29.9689 25.4592C30.1075 25.3286 30.2755 25.2561 30.4555 25.2492C30.5467 25.2459 30.6397 25.2594 30.732 25.2895C30.9807 25.3713 31.2122 25.5692 31.3828 25.8459L32.3782 25.7614L29.3679 16.3606ZM20.6265 16.9383C20.9495 16.945 21.2232 17.0147 21.4012 17.1356C21.5792 17.2565 21.6506 17.4211 21.6033 17.6016C21.549 17.8091 21.3421 18.0216 21.0281 18.1925C20.7141 18.3634 20.3187 18.4786 19.929 18.5128C19.736 18.5298 19.5502 18.5263 19.3822 18.5027C19.2142 18.479 19.0672 18.4356 18.9498 18.3749C18.8324 18.3143 18.7467 18.2375 18.6977 18.1491C18.6488 18.0607 18.6374 17.9623 18.6643 17.8595C18.6912 17.7568 18.7558 17.6517 18.8545 17.5503C18.9532 17.4489 19.084 17.3532 19.2395 17.2686C19.395 17.1839 19.5721 17.1121 19.7607 17.0571C19.9493 17.0021 20.1457 16.9651 20.3387 16.9482C20.4367 16.9396 20.5332 16.9363 20.6265 16.9383ZM28.276 18.7244C28.3672 18.721 28.4603 18.7346 28.5525 18.7646C28.823 18.8527 29.0723 19.0777 29.2457 19.3902C29.419 19.7027 29.5022 20.077 29.4769 20.4309C29.4643 20.6061 29.4255 20.7711 29.3627 20.9163C29.2998 21.0615 29.2141 21.1841 29.1105 21.2772C29.0069 21.3702 28.8875 21.4319 28.7589 21.4587C28.6303 21.4854 28.4952 21.4768 28.3613 21.4331C28.2273 21.3895 28.0972 21.3119 27.9782 21.2045C27.8593 21.0972 27.7538 20.9623 27.668 20.8076C27.5821 20.6529 27.5175 20.4813 27.4779 20.3027C27.4382 20.1242 27.4242 19.9421 27.4367 19.7668C27.4576 19.4751 27.551 19.2152 27.7026 19.0269C27.8542 18.8387 28.0556 18.7324 28.276 18.7244ZM12 21.319L15.5865 29.9865L22.7786 33.0533L19.2688 23.5165L12 21.319ZM23.2868 22.6428C23.378 22.6394 23.471 22.6529 23.5632 22.6829C23.8337 22.771 24.083 22.996 24.2563 23.3085C24.4297 23.621 24.5128 23.9953 24.4875 24.3492C24.4749 24.5244 24.4361 24.6893 24.3733 24.8345C24.3104 24.9797 24.2248 25.1024 24.1212 25.1954C24.0176 25.2885 23.8981 25.3502 23.7696 25.377C23.641 25.4037 23.5059 25.3951 23.372 25.3514C23.1015 25.2634 22.8521 25.0383 22.6788 24.7259C22.5054 24.4134 22.4222 24.039 22.4476 23.6851C22.4685 23.3935 22.5618 23.1336 22.7134 22.9453C22.865 22.7571 23.0664 22.6508 23.2868 22.6428ZM17.5533 23.6313C17.7425 23.621 17.9797 23.7325 18.2188 23.9441C18.4579 24.1557 18.6819 24.4524 18.8474 24.7764C18.935 24.9481 19.0037 25.1225 19.0495 25.2898C19.0953 25.4571 19.1173 25.6139 19.1143 25.7513C19.1113 25.8887 19.0833 26.004 19.0319 26.0907C18.9806 26.1773 18.9068 26.2336 18.8149 26.2563C18.6293 26.302 18.381 26.2082 18.1246 25.9954C17.8682 25.7826 17.6247 25.4684 17.4478 25.1217C17.2709 24.7752 17.1749 24.4247 17.181 24.1472C17.1871 23.8698 17.2947 23.6882 17.4801 23.6422C17.5035 23.6364 17.5279 23.6327 17.5533 23.6313ZM37.6557 26.6852L29.1 27.4125L37.7824 33.4828L46.4523 32.195L37.6557 26.6852ZM15.5566 27.4185C15.7457 27.4082 15.9829 27.5197 16.2221 27.7313C16.4612 27.9429 16.6853 28.2396 16.8507 28.5637C17.0277 28.9103 17.1237 29.261 17.1176 29.5385C17.1116 29.816 17.0039 29.9976 16.8183 30.0435C16.6327 30.0892 16.3843 29.9954 16.128 29.7826C15.8716 29.5699 15.6281 29.2556 15.4512 28.9089C15.2742 28.5623 15.1782 28.2118 15.1843 27.9343C15.1904 27.6568 15.298 27.4752 15.4836 27.4293C15.5069 27.4236 15.5311 27.4199 15.5566 27.4185ZM27.5678 28.0119L24.3976 39.7222L33.2215 47.2756L36.8198 34.4806L27.5678 28.0119ZM37.2595 28.8601C37.4964 28.8645 37.757 28.8998 38.0189 28.9631C38.2808 29.0264 38.5361 29.1158 38.7625 29.2234C38.9454 29.3103 39.1055 29.4072 39.2337 29.5086C39.3618 29.61 39.4555 29.7139 39.5094 29.8144C39.5633 29.9148 39.5764 30.0099 39.5479 30.0941C39.5193 30.1783 39.4497 30.25 39.3431 30.3052C39.2365 30.3603 39.0949 30.3979 38.9264 30.4156C38.7579 30.4333 38.5658 30.4308 38.3611 30.4084C38.1564 30.386 37.9431 30.344 37.7333 30.2848C37.5235 30.2256 37.3214 30.1504 37.1385 30.0635C36.7691 29.888 36.5005 29.6754 36.3915 29.4725C36.2826 29.2697 36.3424 29.0931 36.5577 28.9817C36.7213 28.8971 36.966 28.8546 37.2595 28.8601ZM47.3793 33.4396L38.1536 34.8099L34.5801 47.5172L43.456 45.1044L47.3793 33.4396ZM33.5036 34.2598C33.6113 34.2599 33.7202 34.284 33.827 34.3314C33.9823 34.4003 34.1308 34.5173 34.2642 34.6757C34.3976 34.8341 34.5132 35.0307 34.6044 35.2544C34.6957 35.4782 34.7607 35.7245 34.7959 35.9795C34.8311 36.2345 34.8357 36.4931 34.8095 36.7405C34.7565 37.2401 34.5812 37.664 34.322 37.9189C34.0629 38.1737 33.9435 38.2113 33.4277 38.0994C33.2725 38.0305 33.1239 37.9135 32.9905 37.7552C32.8571 37.5968 32.7415 37.4001 32.6502 37.1764C32.559 36.9527 32.4939 36.7063 32.4587 36.4514C32.4235 36.1964 32.4189 35.9378 32.4451 35.6904C32.4888 35.2785 32.616 34.9157 32.8071 34.6573C32.9983 34.399 33.2429 34.2593 33.5036 34.2598ZM45.2635 35.1435C45.5126 35.1362 45.719 35.2467 45.8492 35.4572C46.0021 35.7045 46.0384 36.071 45.95 36.476C45.8616 36.881 45.6558 37.2913 45.3778 37.6168C45.0998 37.9422 44.7725 38.156 44.4679 38.2113C44.1632 38.2665 43.9061 38.1586 43.7532 37.9113C43.6002 37.664 43.5639 37.2976 43.6523 36.8926C43.7407 36.4876 43.9465 36.0772 44.2244 35.7518C44.3823 35.567 44.5578 35.4163 44.7377 35.311C44.9177 35.2056 45.0974 35.1484 45.2635 35.1435ZM40.0206 35.9534C40.2696 35.9461 40.476 36.0567 40.6061 36.2671C40.7591 36.5144 40.7953 36.8809 40.7069 37.2859C40.6186 37.6909 40.4127 38.1012 40.1348 38.4267C39.8568 38.7521 39.5295 38.9659 39.2248 39.0212C38.9201 39.0764 38.6631 38.9685 38.5101 38.7211C38.3572 38.4738 38.321 38.1074 38.4094 37.7024C38.4978 37.2974 38.7036 36.8871 38.9816 36.5616C39.1394 36.3768 39.3149 36.2261 39.4948 36.1208C39.6748 36.0155 39.8544 35.9583 40.0206 35.9534ZM26.7411 36.9639C26.8489 36.9641 26.9578 36.9882 27.0647 37.0357C27.2199 37.1046 27.3685 37.2216 27.5019 37.38C27.6352 37.5384 27.7508 37.7351 27.8421 37.9588C27.9333 38.1825 27.9983 38.4288 28.0335 38.6838C28.0687 38.9388 28.0733 39.1974 28.0471 39.4448C28.0209 39.6922 27.9643 39.9236 27.8807 40.1258C27.797 40.328 27.6879 40.4971 27.5596 40.6233C27.4313 40.7495 27.2863 40.8304 27.1328 40.8613C26.9793 40.8923 26.8205 40.8728 26.6652 40.8038C26.51 40.7349 26.3614 40.6179 26.228 40.4595C26.0946 40.3011 25.979 40.1045 25.8878 39.8808C25.7965 39.6571 25.7315 39.4107 25.6963 39.1557C25.6611 38.9007 25.6565 38.6421 25.6827 38.3947C25.7264 37.9829 25.8535 37.62 26.0446 37.3616C26.2357 37.1032 26.4804 36.9635 26.7411 36.9639ZM42.9423 41.5869C43.1912 41.5796 43.3975 41.6902 43.5277 41.9006C43.6807 42.1478 43.7169 42.5143 43.6286 42.9193C43.5402 43.3243 43.3344 43.7346 43.0565 44.0601C42.7785 44.3855 42.4512 44.5993 42.1465 44.6545C41.8418 44.7097 41.5848 44.6018 41.4319 44.3545C41.2789 44.1072 41.2426 43.7407 41.331 43.3357C41.4194 42.9307 41.6252 42.5204 41.9031 42.1949C42.061 42.0101 42.2365 41.8594 42.4164 41.7541C42.5964 41.6488 42.7761 41.5917 42.9423 41.5869ZM37.5745 43.067C37.8235 43.0597 38.0298 43.1703 38.1599 43.3808C38.3129 43.6281 38.3491 43.9945 38.2608 44.3995C38.1724 44.8045 37.9666 45.2148 37.6887 45.5403C37.5511 45.7014 37.3998 45.8369 37.2437 45.9388C37.0876 46.0408 36.9296 46.1074 36.7787 46.1347C36.6278 46.162 36.4871 46.1496 36.3645 46.0981C36.2418 46.0466 36.1398 45.957 36.0641 45.8345C35.9111 45.5872 35.8749 45.2208 35.9633 44.8158C36.0517 44.4108 36.2575 44.0005 36.5354 43.675C36.6933 43.4902 36.8688 43.3395 37.0487 43.2342C37.2287 43.1289 37.4084 43.0718 37.5745 43.067Z" fill="url(#paint0_linear_1311_3156)" fill-opacity="0.8"/>
<path d="M35.5556 19.0588H38.6667V22L42.5556 19.0588H46.4444C46.857 19.0588 47.2527 18.9349 47.5444 18.7142C47.8361 18.4936 48 18.1944 48 17.8824V13.1765C48 12.8645 47.8361 12.5652 47.5444 12.3446C47.2527 12.1239 46.857 12 46.4444 12H35.5556C35.143 12 34.7473 12.1239 34.4556 12.3446C34.1639 12.5652 34 12.8645 34 13.1765V17.8824C34 18.1944 34.1639 18.4936 34.4556 18.7142C34.7473 18.9349 35.143 19.0588 35.5556 19.0588Z" stroke="#B19ADE" stroke-linecap="round" stroke-linejoin="round"/>
<path d="M18.5 39L18.2825 38.7842C17.51 38.0207 17 37.5155 17 36.8992C17 36.394 17.363 36 17.825 36C18.086 36 18.3365 36.1324 18.5 36.3401C18.6635 36.1324 18.914 36 19.175 36C19.637 36 20 36.394 20 36.8992C20 37.5155 19.49 38.0207 18.7175 38.7842L18.5 39Z" fill="#B19ADE"/>
<path d="M39.8 16C40.3803 16 40.85 15.5527 40.85 15C40.85 14.4473 40.3803 14 39.8 14C39.2197 14 38.75 14.4473 38.75 15C38.75 15.5527 39.2197 16 39.8 16ZM40.52 16.2857H40.4422C40.2472 16.375 40.0306 16.4286 39.8 16.4286C39.5694 16.4286 39.3538 16.375 39.1578 16.2857H39.08C38.4838 16.2857 38 16.7464 38 17.3143V17.5714C38 17.808 38.2016 18 38.45 18H41.15C41.3984 18 41.6 17.808 41.6 17.5714V17.3143C41.6 16.7464 41.1162 16.2857 40.52 16.2857ZM42.5 16C42.9969 16 43.4 15.6161 43.4 15.1429C43.4 14.6696 42.9969 14.2857 42.5 14.2857C42.0031 14.2857 41.6 14.6696 41.6 15.1429C41.6 15.6161 42.0031 16 42.5 16ZM42.95 16.2857H42.9144C42.7841 16.3286 42.6463 16.3571 42.5 16.3571C42.3538 16.3571 42.2159 16.3286 42.0856 16.2857H42.05C41.8588 16.2857 41.6825 16.3384 41.5278 16.4232C41.7566 16.658 41.9 16.9696 41.9 17.3143V17.6571C41.9 17.6768 41.8953 17.6955 41.8944 17.7143H43.55C43.7984 17.7143 44 17.5223 44 17.2857C44 16.733 43.5303 16.2857 42.95 16.2857Z" fill="#B19ADE"/>
<path d="M38 25.4138L33.6552 25.7241L30.2414 15.1724L20.931 13L11 20.1379L15.0345 30.6897L24.6552 34.7241L23.1034 40L33.6552 49L44.5172 45.8965L49.1724 32.2414L38 25.4138Z" fill="white"/>
<path d="M20.7447 14L12.3442 19.9943L19.654 22.204L28.1489 15.5897L20.7447 14ZM29.3679 16.3606L20.3584 23.1929L24.2561 33.1499L24.9075 32.5837L25.2303 31.3907C25.0117 31.249 24.8244 31.0186 24.6987 30.7367C24.5729 30.4548 24.516 30.138 24.5373 29.8376C24.5582 29.5458 24.6516 29.2859 24.8031 29.0977C24.9547 28.9094 25.1562 28.8031 25.3766 28.795C25.4678 28.7917 25.5607 28.8052 25.6529 28.8353C25.7339 28.8621 25.8136 28.9015 25.8905 28.9525L26.4965 26.7136C26.5038 26.6867 26.5128 26.6604 26.5234 26.6346L26.5278 26.6249C26.5352 26.6072 26.5434 26.5898 26.5523 26.5728L26.5591 26.5612C26.5679 26.545 26.5773 26.5292 26.5874 26.5138C26.6 26.4948 26.6136 26.4765 26.6281 26.4589L26.6332 26.4532C26.6462 26.4376 26.66 26.4225 26.6744 26.4081C26.6902 26.3923 26.7067 26.3773 26.724 26.3631C26.7354 26.3541 26.7474 26.3452 26.7594 26.337C26.7661 26.3318 26.7728 26.3269 26.7797 26.322C26.7922 26.314 26.805 26.3064 26.818 26.2992C26.8248 26.2951 26.8317 26.2911 26.8386 26.2873C26.8497 26.2817 26.8609 26.2764 26.8722 26.2715C26.8818 26.2668 26.8914 26.2622 26.9012 26.258C26.9122 26.2538 26.9233 26.25 26.9345 26.2464C26.9449 26.2426 26.9553 26.2389 26.9658 26.2356C26.9761 26.2328 26.9863 26.2303 26.9967 26.228C27.0085 26.2248 27.0205 26.2219 27.0325 26.2193C27.0455 26.2172 27.0584 26.2154 27.0715 26.214C27.0809 26.2125 27.0903 26.2113 27.0997 26.2102L27.1012 26.21L29.6674 25.9918C29.7262 25.7737 29.8303 25.5898 29.9689 25.4592C30.1075 25.3286 30.2755 25.2561 30.4555 25.2492C30.5467 25.2459 30.6397 25.2594 30.732 25.2895C30.9807 25.3713 31.2122 25.5692 31.3828 25.8459L32.3782 25.7614L29.3679 16.3606ZM20.6265 16.9383C20.9495 16.945 21.2232 17.0147 21.4012 17.1356C21.5792 17.2565 21.6506 17.4211 21.6033 17.6016C21.549 17.8091 21.3421 18.0216 21.0281 18.1925C20.7141 18.3634 20.3187 18.4786 19.929 18.5128C19.736 18.5298 19.5502 18.5263 19.3822 18.5027C19.2142 18.479 19.0672 18.4356 18.9498 18.3749C18.8324 18.3143 18.7467 18.2375 18.6977 18.1491C18.6488 18.0607 18.6374 17.9623 18.6643 17.8595C18.6912 17.7568 18.7558 17.6517 18.8545 17.5503C18.9532 17.4489 19.084 17.3532 19.2395 17.2686C19.395 17.1839 19.5721 17.1121 19.7607 17.0571C19.9493 17.0021 20.1457 16.9651 20.3387 16.9482C20.4367 16.9396 20.5332 16.9363 20.6265 16.9383ZM28.276 18.7244C28.3672 18.721 28.4603 18.7346 28.5525 18.7646C28.823 18.8527 29.0723 19.0777 29.2457 19.3902C29.419 19.7027 29.5022 20.077 29.4769 20.4309C29.4643 20.6061 29.4255 20.7711 29.3627 20.9163C29.2998 21.0615 29.2141 21.1841 29.1105 21.2772C29.0069 21.3702 28.8875 21.4319 28.7589 21.4587C28.6303 21.4854 28.4952 21.4768 28.3613 21.4331C28.2273 21.3895 28.0972 21.3119 27.9782 21.2045C27.8593 21.0972 27.7538 20.9623 27.668 20.8076C27.5821 20.6529 27.5175 20.4813 27.4779 20.3027C27.4382 20.1242 27.4242 19.9421 27.4367 19.7668C27.4576 19.4751 27.551 19.2152 27.7026 19.0269C27.8542 18.8387 28.0556 18.7324 28.276 18.7244ZM12 21.319L15.5865 29.9865L22.7786 33.0533L19.2688 23.5165L12 21.319ZM23.2868 22.6428C23.378 22.6394 23.471 22.6529 23.5632 22.6829C23.8337 22.771 24.083 22.996 24.2563 23.3085C24.4297 23.621 24.5128 23.9953 24.4875 24.3492C24.4749 24.5244 24.4361 24.6893 24.3733 24.8345C24.3104 24.9797 24.2248 25.1024 24.1212 25.1954C24.0176 25.2885 23.8981 25.3502 23.7696 25.377C23.641 25.4037 23.5059 25.3951 23.372 25.3514C23.1015 25.2634 22.8521 25.0383 22.6788 24.7259C22.5054 24.4134 22.4222 24.039 22.4476 23.6851C22.4685 23.3935 22.5618 23.1336 22.7134 22.9453C22.865 22.7571 23.0664 22.6508 23.2868 22.6428ZM17.5533 23.6313C17.7425 23.621 17.9797 23.7325 18.2188 23.9441C18.4579 24.1557 18.6819 24.4524 18.8474 24.7764C18.935 24.9481 19.0037 25.1225 19.0495 25.2898C19.0953 25.4571 19.1173 25.6139 19.1143 25.7513C19.1113 25.8887 19.0833 26.004 19.0319 26.0907C18.9806 26.1773 18.9068 26.2336 18.8149 26.2563C18.6293 26.302 18.381 26.2082 18.1246 25.9954C17.8682 25.7826 17.6247 25.4684 17.4478 25.1217C17.2709 24.7752 17.1749 24.4247 17.181 24.1472C17.1871 23.8698 17.2947 23.6882 17.4801 23.6422C17.5035 23.6364 17.5279 23.6327 17.5533 23.6313ZM37.6557 26.6852L29.1 27.4125L37.7824 33.4828L46.4523 32.195L37.6557 26.6852ZM15.5566 27.4185C15.7457 27.4082 15.9829 27.5197 16.2221 27.7313C16.4612 27.9429 16.6853 28.2396 16.8507 28.5637C17.0277 28.9103 17.1237 29.261 17.1176 29.5385C17.1116 29.816 17.0039 29.9976 16.8183 30.0435C16.6327 30.0892 16.3843 29.9954 16.128 29.7826C15.8716 29.5699 15.6281 29.2556 15.4512 28.9089C15.2742 28.5623 15.1782 28.2118 15.1843 27.9343C15.1904 27.6568 15.298 27.4752 15.4836 27.4293C15.5069 27.4236 15.5311 27.4199 15.5566 27.4185ZM27.5678 28.0119L24.3976 39.7222L33.2215 47.2756L36.8198 34.4806L27.5678 28.0119ZM37.2595 28.8601C37.4964 28.8645 37.757 28.8998 38.0189 28.9631C38.2808 29.0264 38.5361 29.1158 38.7625 29.2234C38.9454 29.3103 39.1055 29.4072 39.2337 29.5086C39.3618 29.61 39.4555 29.7139 39.5094 29.8144C39.5633 29.9148 39.5764 30.0099 39.5479 30.0941C39.5193 30.1783 39.4497 30.25 39.3431 30.3052C39.2365 30.3603 39.0949 30.3979 38.9264 30.4156C38.7579 30.4333 38.5658 30.4308 38.3611 30.4084C38.1564 30.386 37.9431 30.344 37.7333 30.2848C37.5235 30.2256 37.3214 30.1504 37.1385 30.0635C36.7691 29.888 36.5005 29.6754 36.3915 29.4725C36.2826 29.2697 36.3424 29.0931 36.5577 28.9817C36.7213 28.8971 36.966 28.8546 37.2595 28.8601ZM47.3793 33.4396L38.1536 34.8099L34.5801 47.5172L43.456 45.1044L47.3793 33.4396ZM33.5036 34.2598C33.6113 34.2599 33.7202 34.284 33.827 34.3314C33.9823 34.4003 34.1308 34.5173 34.2642 34.6757C34.3976 34.8341 34.5132 35.0307 34.6044 35.2544C34.6957 35.4782 34.7607 35.7245 34.7959 35.9795C34.8311 36.2345 34.8357 36.4931 34.8095 36.7405C34.7565 37.2401 34.5812 37.664 34.322 37.9189C34.0629 38.1737 33.9435 38.2113 33.4277 38.0994C33.2725 38.0305 33.1239 37.9135 32.9905 37.7552C32.8571 37.5968 32.7415 37.4001 32.6502 37.1764C32.559 36.9527 32.4939 36.7063 32.4587 36.4514C32.4235 36.1964 32.4189 35.9378 32.4451 35.6904C32.4888 35.2785 32.616 34.9157 32.8071 34.6573C32.9983 34.399 33.2429 34.2593 33.5036 34.2598ZM45.2635 35.1435C45.5126 35.1362 45.719 35.2467 45.8492 35.4572C46.0021 35.7045 46.0384 36.071 45.95 36.476C45.8616 36.881 45.6558 37.2913 45.3778 37.6168C45.0998 37.9422 44.7725 38.156 44.4679 38.2113C44.1632 38.2665 43.9061 38.1586 43.7532 37.9113C43.6002 37.664 43.5639 37.2976 43.6523 36.8926C43.7407 36.4876 43.9465 36.0772 44.2244 35.7518C44.3823 35.567 44.5578 35.4163 44.7377 35.311C44.9177 35.2056 45.0974 35.1484 45.2635 35.1435ZM40.0206 35.9534C40.2696 35.9461 40.476 36.0567 40.6061 36.2671C40.7591 36.5144 40.7953 36.8809 40.7069 37.2859C40.6186 37.6909 40.4127 38.1012 40.1348 38.4267C39.8568 38.7521 39.5295 38.9659 39.2248 39.0212C38.9201 39.0764 38.6631 38.9685 38.5101 38.7211C38.3572 38.4738 38.321 38.1074 38.4094 37.7024C38.4978 37.2974 38.7036 36.8871 38.9816 36.5616C39.1394 36.3768 39.3149 36.2261 39.4948 36.1208C39.6748 36.0155 39.8544 35.9583 40.0206 35.9534ZM26.7411 36.9639C26.8489 36.9641 26.9578 36.9882 27.0647 37.0357C27.2199 37.1046 27.3685 37.2216 27.5019 37.38C27.6352 37.5384 27.7508 37.7351 27.8421 37.9588C27.9333 38.1825 27.9983 38.4288 28.0335 38.6838C28.0687 38.9388 28.0733 39.1974 28.0471 39.4448C28.0209 39.6922 27.9643 39.9236 27.8807 40.1258C27.797 40.328 27.6879 40.4971 27.5596 40.6233C27.4313 40.7495 27.2863 40.8304 27.1328 40.8613C26.9793 40.8923 26.8205 40.8728 26.6652 40.8038C26.51 40.7349 26.3614 40.6179 26.228 40.4595C26.0946 40.3011 25.979 40.1045 25.8878 39.8808C25.7965 39.6571 25.7315 39.4107 25.6963 39.1557C25.6611 38.9007 25.6565 38.6421 25.6827 38.3947C25.7264 37.9829 25.8535 37.62 26.0446 37.3616C26.2357 37.1032 26.4804 36.9635 26.7411 36.9639ZM42.9423 41.5869C43.1912 41.5796 43.3975 41.6902 43.5277 41.9006C43.6807 42.1478 43.7169 42.5143 43.6286 42.9193C43.5402 43.3243 43.3344 43.7346 43.0565 44.0601C42.7785 44.3855 42.4512 44.5993 42.1465 44.6545C41.8418 44.7097 41.5848 44.6018 41.4319 44.3545C41.2789 44.1072 41.2426 43.7407 41.331 43.3357C41.4194 42.9307 41.6252 42.5204 41.9031 42.1949C42.061 42.0101 42.2365 41.8594 42.4164 41.7541C42.5964 41.6488 42.7761 41.5917 42.9423 41.5869ZM37.5745 43.067C37.8235 43.0597 38.0298 43.1703 38.1599 43.3808C38.3129 43.6281 38.3491 43.9945 38.2608 44.3995C38.1724 44.8045 37.9666 45.2148 37.6887 45.5403C37.5511 45.7014 37.3998 45.8369 37.2437 45.9388C37.0876 46.0408 36.9296 46.1074 36.7787 46.1347C36.6278 46.162 36.4871 46.1496 36.3645 46.0981C36.2418 46.0466 36.1398 45.957 36.0641 45.8345C35.9111 45.5872 35.8749 45.2208 35.9633 44.8158C36.0517 44.4108 36.2575 44.0005 36.5354 43.675C36.6933 43.4902 36.8688 43.3395 37.0487 43.2342C37.2287 43.1289 37.4084 43.0718 37.5745 43.067Z" fill="url(#paint1_linear_1311_3156)" fill-opacity="0.8"/>
<path d="M20.9231 34H16.0769C15.7913 34 15.5174 34.1532 15.3154 34.426C15.1135 34.6988 15 35.0688 15 35.4545V39.0909C15 39.4767 15.1135 39.8466 15.3154 40.1194C15.5174 40.3922 15.7913 40.5455 16.0769 40.5455H19.0385L20.6538 42V40.5455H20.9231C21.2087 40.5455 21.4826 40.3922 21.6846 40.1194C21.8865 39.8466 22 39.4767 22 39.0909V35.4545C22 35.0688 21.8865 34.6988 21.6846 34.426C21.4826 34.1532 21.2087 34 20.9231 34Z" stroke="#B19ADE" stroke-width="0.6" stroke-linecap="round" stroke-linejoin="round"/>
<defs>
<linearGradient id="paint0_linear_1311_3156" x1="12" y1="30.7586" x2="47.3793" y2="30.7586" gradientUnits="userSpaceOnUse">
<stop stop-color="#B28EF8"/>
<stop offset="1" stop-color="#F476E5"/>
</linearGradient>
<linearGradient id="paint1_linear_1311_3156" x1="12" y1="30.7586" x2="47.3793" y2="30.7586" gradientUnits="userSpaceOnUse">
<stop stop-color="#B28EF8"/>
<stop offset="1" stop-color="#F476E5"/>
</linearGradient>
</defs>
</svg>
