<svg width="125" height="125" viewBox="0 0 125 125" fill="none" xmlns="http://www.w3.org/2000/svg">
<circle cx="62.501" cy="62.5" r="62.5" fill="#B19ADE" fill-opacity="0.5"/>
<circle cx="62.501" cy="62.5" r="61" stroke="white" stroke-opacity="0.7" stroke-width="3"/>
<circle cx="62.501" cy="62.5" r="42.5" fill="#B19ADE" fill-opacity="0.5"/>
<circle cx="62.501" cy="62.5" r="40" stroke="white" stroke-opacity="0.7" stroke-width="5"/>
<path d="M60.3008 73.3579C61.0078 73.9431 61.7452 74.478 62.5 75C63.2565 74.4849 63.9902 73.937 64.6992 73.3579C65.881 72.3843 66.9932 71.3287 68.0277 70.1989C70.4123 67.583 73 63.7908 73 59.5339C73 58.1506 72.7284 56.7808 72.2007 55.5027C71.6731 54.2247 70.8996 53.0635 69.9246 52.0853C68.9496 51.1071 67.7921 50.3312 66.5182 49.8018C65.2443 49.2725 63.8789 49 62.5 49C61.1211 49 59.7557 49.2725 58.4818 49.8018C57.2079 50.3312 56.0504 51.1071 55.0754 52.0853C54.1004 53.0635 53.3269 54.2247 52.7993 55.5027C52.2716 56.7808 52 58.1506 52 59.5339C52 63.7908 54.5877 67.5818 56.9723 70.1989C58.0067 71.3291 59.119 72.384 60.3008 73.3579ZM62.5 63.3378C61.4944 63.3378 60.53 62.937 59.8189 62.2237C59.1078 61.5103 58.7083 60.5428 58.7083 59.5339C58.7083 58.525 59.1078 57.5575 59.8189 56.8441C60.53 56.1308 61.4944 55.73 62.5 55.73C63.5056 55.73 64.47 56.1308 65.1811 56.8441C65.8922 57.5575 66.2917 58.525 66.2917 59.5339C66.2917 60.5428 65.8922 61.5103 65.1811 62.2237C64.47 62.937 63.5056 63.3378 62.5 63.3378Z" fill="white" fill-opacity="0.7"/>
</svg>
