<svg width="76" height="63" viewBox="0 0 76 63" fill="none" xmlns="http://www.w3.org/2000/svg">
<path d="M61.3332 7.99984C61.3332 7.64622 61.1927 7.30708 60.9426 7.05703C60.6926 6.80698 60.3535 6.6665 59.9998 6.6665C59.6462 6.6665 59.3071 6.80698 59.057 7.05703C58.807 7.30708 58.6665 7.64622 58.6665 7.99984V14.6665H51.9998C51.6462 14.6665 51.3071 14.807 51.057 15.057C50.807 15.3071 50.6665 15.6462 50.6665 15.9998C50.6665 16.3535 50.807 16.6926 51.057 16.9426C51.3071 17.1927 51.6462 17.3332 51.9998 17.3332H58.6665V23.9998C58.6665 24.3535 58.807 24.6926 59.057 24.9426C59.3071 25.1927 59.6462 25.3332 59.9998 25.3332C60.3535 25.3332 60.6926 25.1927 60.9426 24.9426C61.1927 24.6926 61.3332 24.3535 61.3332 23.9998V17.3332H67.9998C68.3535 17.3332 68.6926 17.1927 68.9426 16.9426C69.1927 16.6926 69.3332 16.3535 69.3332 15.9998C69.3332 15.6462 69.1927 15.3071 68.9426 15.057C68.6926 14.807 68.3535 14.6665 67.9998 14.6665H61.3332V7.99984Z" fill="url(#paint0_linear_303_4857)"/>
<path d="M16.066 4L0.632388 14.5517L14.0622 18.4414L29.6693 6.79828L16.066 4ZM31.9088 8.15538L15.3564 20.1822L22.5174 37.7093L23.714 36.7127L24.3071 34.6126C23.9056 34.3632 23.5614 33.9576 23.3304 33.4614C23.0993 32.9653 22.9949 32.4076 23.0339 31.8787C23.0723 31.3652 23.2438 30.9077 23.5223 30.5762C23.8008 30.2448 24.1709 30.0577 24.5759 30.0435C24.7434 30.0376 24.9141 30.0615 25.0835 30.1143C25.2323 30.1616 25.3789 30.2309 25.52 30.3208L26.6334 26.3796C26.6469 26.3323 26.6634 26.2859 26.6829 26.2405L26.691 26.2234C26.7046 26.1923 26.7196 26.1617 26.7359 26.1318L26.7485 26.1114C26.7646 26.0829 26.7819 26.055 26.8004 26.0278C26.8236 25.9944 26.8486 25.9622 26.8752 25.9312L26.8845 25.9213C26.9085 25.8937 26.9338 25.8672 26.9602 25.8419C26.9892 25.814 27.0196 25.7876 27.0514 25.7626C27.0723 25.7467 27.0944 25.7312 27.1164 25.7166C27.1287 25.7076 27.1411 25.6988 27.1537 25.6903C27.1767 25.6762 27.2002 25.6628 27.2241 25.6501C27.2366 25.6429 27.2492 25.6359 27.262 25.6292C27.2823 25.6194 27.3028 25.6101 27.3237 25.6014C27.3412 25.593 27.359 25.5851 27.377 25.5776C27.3972 25.5703 27.4176 25.5635 27.4382 25.5572C27.4572 25.5504 27.4764 25.544 27.4957 25.5381C27.5145 25.5332 27.5334 25.5288 27.5524 25.5247C27.5742 25.5191 27.5962 25.514 27.6183 25.5095C27.642 25.5057 27.6659 25.5026 27.6898 25.5001C27.707 25.4976 27.7243 25.4953 27.7417 25.4935H27.7431L27.7445 25.4931L32.4592 25.109C32.5672 24.7251 32.7584 24.4014 33.013 24.1715C33.2676 23.9417 33.5763 23.814 33.9071 23.8019C34.0746 23.796 34.2455 23.8198 34.415 23.8727C34.872 24.0167 35.2973 24.3651 35.6106 24.8523L37.4395 24.7035L31.9088 8.15538ZM15.849 9.17223C16.4423 9.184 16.9451 9.30669 17.2722 9.5195C17.5992 9.73232 17.7304 10.0222 17.6435 10.3399C17.5437 10.7051 17.1635 11.0792 16.5866 11.38C16.0098 11.6808 15.2834 11.8837 14.5674 11.9439C14.2128 11.9737 13.8714 11.9676 13.5628 11.926C13.2541 11.8843 12.9842 11.8079 12.7684 11.7011C12.5527 11.5944 12.3953 11.4593 12.3053 11.3036C12.2153 11.1479 12.1945 10.9747 12.2439 10.7939C12.2933 10.6131 12.412 10.4281 12.5933 10.2496C12.7746 10.0711 13.015 9.90259 13.3006 9.75361C13.5863 9.60464 13.9116 9.47815 14.2581 9.38138C14.6046 9.28461 14.9655 9.21944 15.3201 9.18961C15.5001 9.17456 15.6775 9.16873 15.849 9.17223ZM29.9029 12.3162C30.0703 12.3104 30.2414 12.3342 30.4107 12.3871C30.9077 12.5421 31.3658 12.9382 31.6843 13.4883C32.0028 14.0384 32.1556 14.6973 32.1091 15.3203C32.086 15.6287 32.0147 15.919 31.8992 16.1746C31.7837 16.4302 31.6263 16.6461 31.436 16.8099C31.2457 16.9737 31.0262 17.0823 30.79 17.1294C30.5538 17.1765 30.3056 17.1612 30.0595 17.0844C29.8134 17.0077 29.5742 16.871 29.3557 16.6821C29.1371 16.4931 28.9435 16.2557 28.7857 15.9833C28.628 15.711 28.5093 15.409 28.4364 15.0946C28.3635 14.7803 28.3378 14.4597 28.3609 14.1513C28.3992 13.6378 28.5708 13.1803 28.8493 12.8489C29.1279 12.5175 29.4978 12.3304 29.9029 12.3162ZM0 16.8835L6.58918 32.1408L19.8029 37.5393L13.3545 20.7517L0 16.8835ZM20.7365 19.2137C20.904 19.2078 21.0748 19.2315 21.2443 19.2843C21.7412 19.4394 22.1993 19.8356 22.5177 20.3857C22.8362 20.9357 22.9889 21.5946 22.9424 22.2175C22.9193 22.526 22.848 22.8163 22.7326 23.0719C22.6171 23.3275 22.4597 23.5433 22.2694 23.7072C22.0791 23.871 21.8596 23.9796 21.6234 24.0267C21.3872 24.0738 21.139 24.0586 20.8929 23.9818C20.396 23.8268 19.9379 23.4307 19.6194 22.8806C19.3009 22.3305 19.1481 21.6716 19.1946 21.0486C19.233 20.5352 19.4045 20.0778 19.683 19.7464C19.9614 19.4149 20.3315 19.2279 20.7365 19.2137ZM10.2028 20.9539C10.5503 20.9358 10.986 21.1321 11.4253 21.5046C11.8646 21.877 12.2762 22.3992 12.5802 22.9696C12.7412 23.2718 12.8674 23.5789 12.9515 23.8733C13.0357 24.1677 13.0762 24.4438 13.0706 24.6857C13.0651 24.9276 13.0137 25.1306 12.9193 25.2831C12.8249 25.4356 12.6894 25.5347 12.5206 25.5746C12.1795 25.6551 11.7233 25.4899 11.2523 25.1154C10.7812 24.7408 10.334 24.1876 10.0088 23.5774C9.68385 22.9674 9.50755 22.3504 9.5187 21.862C9.52985 21.3737 9.72753 21.0539 10.0683 20.9731C10.1112 20.9628 10.156 20.9564 10.2028 20.9539ZM47.1355 26.3296L31.4167 27.6099L47.3683 38.2953L63.2969 36.0284L47.1355 26.3296ZM6.53421 27.6205C6.88176 27.6023 7.31752 27.7985 7.75689 28.171C8.19625 28.5435 8.6079 29.0657 8.91191 29.6363C9.23707 30.2465 9.41347 30.8637 9.40229 31.3522C9.39112 31.8407 9.19328 32.1604 8.85232 32.2411C8.51127 32.3216 8.05505 32.1565 7.58401 31.7819C7.11297 31.4074 6.66569 30.8542 6.34057 30.244C6.01549 29.6339 5.83914 29.0168 5.85031 28.5284C5.86149 28.0399 6.05927 27.7202 6.40016 27.6395C6.44307 27.6294 6.48744 27.6229 6.53421 27.6205ZM28.6016 28.665L22.7772 49.2785L38.9888 62.5746L45.5997 40.0517L28.6016 28.665ZM46.4076 30.1581C46.8427 30.1658 47.3216 30.228 47.8028 30.3394C48.2839 30.4509 48.7529 30.6081 49.169 30.7975C49.505 30.9505 49.7991 31.1211 50.0345 31.2996C50.27 31.4781 50.4421 31.661 50.5412 31.8378C50.6402 32.0147 50.6642 32.182 50.6118 32.3302C50.5594 32.4784 50.4315 32.6047 50.2356 32.7018C50.0398 32.7989 49.7796 32.8649 49.4701 32.8961C49.1605 32.9273 48.8076 32.923 48.4315 32.8835C48.0554 32.844 47.6634 32.7701 47.278 32.6659C46.8926 32.5617 46.5213 32.4294 46.1852 32.2764C45.5067 31.9674 45.013 31.5933 44.8129 31.2361C44.6128 30.879 44.7226 30.5682 45.1182 30.3721C45.4188 30.2231 45.8684 30.1485 46.4076 30.1581ZM65 38.2192L48.0503 40.6314L41.4848 63L57.7919 58.7526L65 38.2192ZM39.507 39.6631C39.7051 39.6633 39.905 39.7057 40.1013 39.7891C40.3865 39.9105 40.6594 40.1164 40.9045 40.3952C41.1496 40.674 41.362 41.0202 41.5296 41.414C41.6972 41.8077 41.8168 42.2414 41.8814 42.6903C41.946 43.1391 41.9545 43.5943 41.9063 44.0298C41.809 44.9094 41.4868 45.6555 41.0108 46.1041C40.5347 46.5527 39.9436 46.667 39.3677 46.4219C39.0824 46.3006 38.8095 46.0947 38.5644 45.8159C38.3193 45.5372 38.1069 45.191 37.9392 44.7972C37.7716 44.4034 37.6521 43.9697 37.5874 43.5209C37.5228 43.072 37.5143 42.6168 37.5625 42.1813C37.6427 41.4564 37.8763 40.8176 38.2275 40.3629C38.5787 39.9081 39.0281 39.6623 39.507 39.6631ZM61.1128 41.2187C61.5704 41.2058 61.9496 41.4004 62.1887 41.7708C62.4697 42.2062 62.5364 42.8513 62.374 43.5642C62.2116 44.2771 61.8334 44.9995 61.3228 45.5723C60.8121 46.1452 60.2107 46.5216 59.651 46.6188C59.0912 46.716 58.6189 46.5261 58.3379 46.0908C58.0569 45.6555 57.9903 45.0104 58.1527 44.2975C58.315 43.5847 58.6931 42.8623 59.2038 42.2894C59.4938 41.9641 59.8162 41.6988 60.1468 41.5134C60.4774 41.3281 60.8075 41.2272 61.1128 41.2187ZM51.4803 42.6444C51.9378 42.6315 52.3169 42.8261 52.5561 43.1965C52.8371 43.6319 52.9037 44.277 52.7413 44.9899C52.5789 45.7028 52.2008 46.4251 51.6901 46.998C51.1794 47.5708 50.5781 47.9472 50.0183 48.0444C49.4585 48.1417 48.9862 47.9517 48.7053 47.5163C48.4243 47.081 48.3578 46.4359 48.5202 45.723C48.6826 45.0101 49.0608 44.2878 49.5714 43.715C49.8615 43.3897 50.1838 43.1244 50.5144 42.939C50.8449 42.7536 51.1751 42.6529 51.4803 42.6444ZM27.0828 44.4231C27.2809 44.4234 27.4809 44.4659 27.6773 44.5495C27.9625 44.6708 28.2354 44.8768 28.4805 45.1556C28.7256 45.4344 28.9379 45.7806 29.1055 46.1743C29.2731 46.5681 29.3927 47.0018 29.4573 47.4506C29.5219 47.8995 29.5304 48.3546 29.4822 48.7901C29.434 49.2257 29.3301 49.6331 29.1765 49.989C29.0228 50.3449 28.8224 50.6425 28.5866 50.8646C28.3509 51.0868 28.0844 51.2292 27.8025 51.2837C27.5205 51.3382 27.2286 51.3038 26.9434 51.1824C26.6582 51.0611 26.3852 50.8551 26.1402 50.5763C25.8951 50.2976 25.6827 49.9514 25.5151 49.5576C25.3475 49.1638 25.2279 48.7301 25.1633 48.2813C25.0986 47.8325 25.0902 47.3773 25.1384 46.9417C25.2185 46.2168 25.4521 45.578 25.8032 45.1231C26.1544 44.6682 26.6039 44.4224 27.0828 44.4231ZM56.8482 52.5609C57.3055 52.5481 57.6846 52.7427 57.9237 53.113C58.2047 53.5483 58.2714 54.1934 58.109 54.9063C57.9467 55.6191 57.5686 56.3415 57.058 56.9144C56.5473 57.4872 55.9459 57.8636 55.3862 57.9608C54.8264 58.058 54.3541 57.868 54.0731 57.4326C53.7922 56.9973 53.7255 56.3522 53.8879 55.6393C54.0503 54.9264 54.4284 54.2041 54.939 53.6312C55.2291 53.3059 55.5514 53.0406 55.882 52.8552C56.2126 52.6698 56.5429 52.5694 56.8482 52.5609ZM46.9863 55.1663C47.4437 55.1535 47.8227 55.3482 48.0618 55.7187C48.3428 56.154 48.4095 56.799 48.2471 57.5119C48.0848 58.2248 47.7067 58.9471 47.1961 59.52C46.9432 59.8037 46.6654 60.042 46.3785 60.2216C46.0917 60.4011 45.8014 60.5182 45.5242 60.5663C45.247 60.6144 44.9884 60.5925 44.7632 60.5019C44.5379 60.4112 44.3503 60.2536 44.2112 60.0379C43.9303 59.6026 43.8637 58.9575 44.0261 58.2447C44.1885 57.5318 44.5666 56.8094 45.0772 56.2366C45.3673 55.9113 45.6897 55.646 46.0203 55.4606C46.3509 55.2753 46.681 55.1747 46.9863 55.1663Z" fill="url(#paint1_linear_303_4857)" fill-opacity="0.8"/>
<defs>
<linearGradient id="paint0_linear_303_4857" x1="50.6665" y1="15.9998" x2="69.3332" y2="15.9998" gradientUnits="userSpaceOnUse">
<stop stop-color="#B28EF8"/>
<stop offset="1" stop-color="#F476E5"/>
</linearGradient>
<linearGradient id="paint1_linear_303_4857" x1="0" y1="33.5" x2="65" y2="33.5" gradientUnits="userSpaceOnUse">
<stop stop-color="#B28EF8"/>
<stop offset="1" stop-color="#F476E5"/>
</linearGradient>
</defs>
</svg>
