<svg width="74" height="62" viewBox="0 0 74 62" fill="none" xmlns="http://www.w3.org/2000/svg">
<path d="M16.066 3L0.632388 13.5517L14.0622 17.4414L29.6693 5.79828L16.066 3ZM31.9088 7.15538L15.3564 19.1822L22.5174 36.7093L23.714 35.7127L24.3071 33.6126C23.9056 33.3632 23.5614 32.9576 23.3304 32.4614C23.0993 31.9653 22.9949 31.4076 23.0339 30.8787C23.0723 30.3652 23.2438 29.9077 23.5223 29.5762C23.8008 29.2448 24.1709 29.0577 24.5759 29.0435C24.7434 29.0376 24.9141 29.0615 25.0835 29.1143C25.2323 29.1616 25.3789 29.2309 25.52 29.3208L26.6334 25.3796C26.6469 25.3323 26.6634 25.2859 26.6829 25.2405L26.691 25.2234C26.7046 25.1923 26.7196 25.1617 26.7359 25.1318L26.7485 25.1114C26.7646 25.0829 26.7819 25.055 26.8004 25.0278C26.8236 24.9944 26.8486 24.9622 26.8752 24.9312L26.8845 24.9213C26.9085 24.8937 26.9338 24.8672 26.9602 24.8419C26.9892 24.814 27.0196 24.7876 27.0514 24.7626C27.0723 24.7467 27.0944 24.7312 27.1164 24.7166C27.1287 24.7076 27.1411 24.6988 27.1537 24.6903C27.1767 24.6762 27.2002 24.6628 27.2241 24.6501C27.2366 24.6429 27.2492 24.6359 27.262 24.6292C27.2823 24.6194 27.3028 24.6101 27.3237 24.6014C27.3412 24.593 27.359 24.5851 27.377 24.5776C27.3972 24.5703 27.4176 24.5635 27.4382 24.5572C27.4572 24.5504 27.4764 24.544 27.4957 24.5381C27.5145 24.5332 27.5334 24.5288 27.5524 24.5247C27.5742 24.5191 27.5962 24.514 27.6183 24.5095C27.642 24.5057 27.6659 24.5026 27.6898 24.5001C27.707 24.4976 27.7243 24.4953 27.7417 24.4935H27.7431L27.7445 24.4931L32.4592 24.109C32.5672 23.7251 32.7584 23.4014 33.013 23.1715C33.2676 22.9417 33.5763 22.814 33.9071 22.8019C34.0746 22.796 34.2455 22.8198 34.415 22.8727C34.872 23.0167 35.2973 23.3651 35.6106 23.8523L37.4395 23.7035L31.9088 7.15538ZM15.849 8.17223C16.4423 8.184 16.9451 8.30669 17.2722 8.5195C17.5992 8.73232 17.7304 9.02216 17.6435 9.33988C17.5437 9.70506 17.1635 10.0792 16.5866 10.38C16.0098 10.6808 15.2834 10.8837 14.5674 10.9439C14.2128 10.9737 13.8714 10.9676 13.5628 10.926C13.2541 10.8843 12.9842 10.8079 12.7684 10.7011C12.5527 10.5944 12.3953 10.4593 12.3053 10.3036C12.2153 10.1479 12.1945 9.97474 12.2439 9.7939C12.2933 9.61307 12.412 9.42812 12.5933 9.24963C12.7746 9.07114 13.015 8.90259 13.3006 8.75361C13.5863 8.60464 13.9116 8.47815 14.2581 8.38138C14.6046 8.28461 14.9655 8.21944 15.3201 8.18961C15.5001 8.17456 15.6775 8.16873 15.849 8.17223ZM29.9029 11.3162C30.0703 11.3104 30.2414 11.3342 30.4107 11.3871C30.9077 11.5421 31.3658 11.9382 31.6843 12.4883C32.0028 13.0384 32.1556 13.6973 32.1091 14.3203C32.086 14.6287 32.0147 14.919 31.8992 15.1746C31.7837 15.4302 31.6263 15.6461 31.436 15.8099C31.2457 15.9737 31.0262 16.0823 30.79 16.1294C30.5538 16.1765 30.3056 16.1612 30.0595 16.0844C29.8134 16.0077 29.5742 15.871 29.3557 15.6821C29.1371 15.4931 28.9435 15.2557 28.7857 14.9833C28.628 14.711 28.5093 14.409 28.4364 14.0946C28.3635 13.7803 28.3378 13.4597 28.3609 13.1513C28.3992 12.6378 28.5708 12.1803 28.8493 11.8489C29.1279 11.5175 29.4978 11.3304 29.9029 11.3162ZM0 15.8835L6.58918 31.1408L19.8029 36.5393L13.3545 19.7517L0 15.8835ZM20.7365 18.2137C20.904 18.2078 21.0748 18.2315 21.2443 18.2843C21.7412 18.4394 22.1993 18.8356 22.5177 19.3857C22.8362 19.9357 22.9889 20.5946 22.9424 21.2175C22.9193 21.526 22.848 21.8163 22.7326 22.0719C22.6171 22.3275 22.4597 22.5433 22.2694 22.7072C22.0791 22.871 21.8596 22.9796 21.6234 23.0267C21.3872 23.0738 21.139 23.0586 20.8929 22.9818C20.396 22.8268 19.9379 22.4307 19.6194 21.8806C19.3009 21.3305 19.1481 20.6716 19.1946 20.0486C19.233 19.5352 19.4045 19.0778 19.683 18.7464C19.9614 18.4149 20.3315 18.2279 20.7365 18.2137ZM10.2028 19.9539C10.5503 19.9358 10.986 20.1321 11.4253 20.5046C11.8646 20.877 12.2762 21.3992 12.5802 21.9696C12.7412 22.2718 12.8674 22.5789 12.9515 22.8733C13.0357 23.1677 13.0762 23.4438 13.0706 23.6857C13.0651 23.9276 13.0137 24.1306 12.9193 24.2831C12.8249 24.4356 12.6894 24.5347 12.5206 24.5746C12.1795 24.6551 11.7233 24.4899 11.2523 24.1154C10.7812 23.7408 10.3339 23.1876 10.0088 22.5774C9.68385 21.9674 9.50755 21.3504 9.5187 20.862C9.52985 20.3737 9.72753 20.0539 10.0683 19.9731C10.1112 19.9628 10.156 19.9564 10.2028 19.9539ZM47.1355 25.3296L31.4167 26.6099L47.3683 37.2953L63.2969 35.0284L47.1355 25.3296ZM6.53421 26.6205C6.88176 26.6023 7.31752 26.7985 7.75689 27.171C8.19625 27.5435 8.6079 28.0657 8.91191 28.6363C9.23707 29.2465 9.41347 29.8637 9.40229 30.3522C9.39112 30.8407 9.19328 31.1604 8.85232 31.2411C8.51127 31.3216 8.05505 31.1565 7.58401 30.7819C7.11297 30.4074 6.66569 29.8542 6.34057 29.244C6.01549 28.6339 5.83914 28.0168 5.85031 27.5284C5.86149 27.0399 6.05927 26.7202 6.40016 26.6395C6.44307 26.6294 6.48744 26.6229 6.53421 26.6205ZM28.6016 27.665L22.7772 48.2785L38.9888 61.5746L45.5997 39.0517L28.6016 27.665ZM46.4076 29.1581C46.8427 29.1658 47.3216 29.228 47.8028 29.3394C48.2839 29.4509 48.7529 29.6081 49.169 29.7975C49.505 29.9505 49.7991 30.1211 50.0345 30.2996C50.27 30.4781 50.4421 30.661 50.5412 30.8378C50.6402 31.0147 50.6642 31.182 50.6118 31.3302C50.5594 31.4784 50.4315 31.6047 50.2356 31.7018C50.0398 31.7989 49.7796 31.8649 49.4701 31.8961C49.1605 31.9273 48.8076 31.923 48.4315 31.8835C48.0554 31.844 47.6634 31.7701 47.278 31.6659C46.8926 31.5617 46.5213 31.4294 46.1852 31.2764C45.5067 30.9674 45.013 30.5933 44.8129 30.2361C44.6128 29.879 44.7226 29.5682 45.1182 29.3721C45.4189 29.2231 45.8684 29.1485 46.4076 29.1581ZM65 37.2192L48.0503 39.6314L41.4848 62L57.7919 57.7526L65 37.2192ZM39.507 38.6631C39.7051 38.6633 39.905 38.7057 40.1013 38.7891C40.3865 38.9105 40.6594 39.1164 40.9045 39.3952C41.1496 39.674 41.362 40.0202 41.5296 40.414C41.6972 40.8077 41.8168 41.2414 41.8814 41.6903C41.946 42.1391 41.9545 42.5943 41.9063 43.0298C41.809 43.9094 41.4868 44.6555 41.0108 45.1041C40.5347 45.5527 39.9436 45.667 39.3677 45.4219C39.0824 45.3006 38.8095 45.0947 38.5644 44.8159C38.3193 44.5372 38.1069 44.191 37.9392 43.7972C37.7716 43.4034 37.6521 42.9697 37.5874 42.5209C37.5228 42.072 37.5143 41.6168 37.5625 41.1813C37.6427 40.4564 37.8763 39.8176 38.2275 39.3629C38.5787 38.9081 39.0281 38.6623 39.507 38.6631ZM61.1128 40.2187C61.5704 40.2058 61.9495 40.4004 62.1887 40.7708C62.4697 41.2062 62.5364 41.8513 62.374 42.5642C62.2116 43.2771 61.8334 43.9995 61.3228 44.5723C60.8121 45.1452 60.2107 45.5216 59.651 45.6188C59.0912 45.716 58.6189 45.5261 58.3379 45.0908C58.0569 44.6555 57.9903 44.0104 58.1527 43.2975C58.315 42.5847 58.6931 41.8623 59.2038 41.2894C59.4938 40.9641 59.8162 40.6988 60.1468 40.5134C60.4774 40.3281 60.8075 40.2272 61.1128 40.2187ZM51.4803 41.6444C51.9378 41.6315 52.3169 41.8261 52.5561 42.1965C52.8371 42.6319 52.9037 43.277 52.7413 43.9899C52.5789 44.7028 52.2008 45.4251 51.6901 45.998C51.1794 46.5708 50.5781 46.9472 50.0183 47.0444C49.4585 47.1417 48.9862 46.9517 48.7053 46.5163C48.4243 46.081 48.3578 45.4359 48.5202 44.723C48.6826 44.0101 49.0608 43.2878 49.5714 42.715C49.8615 42.3897 50.1838 42.1244 50.5144 41.939C50.845 41.7536 51.1751 41.6529 51.4803 41.6444ZM27.0828 43.4231C27.2809 43.4234 27.4809 43.4659 27.6773 43.5495C27.9625 43.6708 28.2354 43.8768 28.4805 44.1556C28.7256 44.4344 28.9379 44.7806 29.1055 45.1743C29.2731 45.5681 29.3927 46.0018 29.4573 46.4506C29.5219 46.8995 29.5304 47.3546 29.4822 47.7901C29.434 48.2257 29.3301 48.6331 29.1765 48.989C29.0228 49.3449 28.8224 49.6425 28.5866 49.8646C28.3509 50.0868 28.0844 50.2292 27.8025 50.2837C27.5205 50.3382 27.2286 50.3038 26.9434 50.1824C26.6582 50.0611 26.3852 49.8551 26.1402 49.5763C25.8951 49.2976 25.6827 48.9514 25.5151 48.5576C25.3475 48.1638 25.2279 47.7301 25.1633 47.2813C25.0986 46.8325 25.0902 46.3773 25.1384 45.9417C25.2185 45.2168 25.4521 44.578 25.8032 44.1231C26.1544 43.6682 26.6039 43.4224 27.0828 43.4231ZM56.8482 51.5609C57.3055 51.5481 57.6846 51.7427 57.9237 52.113C58.2047 52.5483 58.2714 53.1934 58.109 53.9063C57.9467 54.6191 57.5686 55.3415 57.058 55.9144C56.5473 56.4872 55.9459 56.8636 55.3862 56.9608C54.8264 57.058 54.3541 56.868 54.0731 56.4326C53.7922 55.9973 53.7255 55.3522 53.8879 54.6393C54.0503 53.9264 54.4284 53.2041 54.939 52.6312C55.2291 52.3059 55.5514 52.0406 55.882 51.8552C56.2126 51.6698 56.5429 51.5694 56.8482 51.5609ZM46.9863 54.1663C47.4437 54.1535 47.8227 54.3482 48.0618 54.7187C48.3428 55.154 48.4095 55.799 48.2471 56.5119C48.0848 57.2248 47.7067 57.9471 47.1961 58.52C46.9432 58.8037 46.6654 59.042 46.3785 59.2216C46.0917 59.4011 45.8014 59.5182 45.5242 59.5663C45.247 59.6144 44.9884 59.5925 44.7632 59.5019C44.5379 59.4112 44.3503 59.2536 44.2112 59.0379C43.9303 58.6026 43.8637 57.9575 44.0261 57.2447C44.1885 56.5318 44.5666 55.8094 45.0772 55.2366C45.3673 54.9113 45.6897 54.646 46.0203 54.4606C46.3509 54.2753 46.681 54.1747 46.9863 54.1663Z" fill="url(#paint0_linear_303_4856)" fill-opacity="0.8"/>
<path d="M55.2708 20.6667C52.9243 20.6667 50.9386 19.8538 49.3137 18.228C47.6888 16.6022 46.8759 14.6165 46.875 12.2708C46.8741 9.92517 47.687 7.93944 49.3137 6.31367C50.9403 4.68789 52.926 3.875 55.2708 3.875C57.6156 3.875 59.6018 4.68789 61.2293 6.31367C62.8568 7.93944 63.6693 9.92517 63.6667 12.2708C63.6667 13.2181 63.516 14.1115 63.2146 14.951C62.9132 15.7906 62.5042 16.5333 61.9875 17.1792L69.2208 24.4125C69.4576 24.6493 69.576 24.9507 69.576 25.3167C69.576 25.6826 69.4576 25.984 69.2208 26.2208C68.984 26.4576 68.6826 26.576 68.3167 26.576C67.9507 26.576 67.6493 26.4576 67.4125 26.2208L60.1792 18.9875C59.5333 19.5042 58.7906 19.9132 57.951 20.2146C57.1115 20.516 56.2181 20.6667 55.2708 20.6667ZM55.2708 18.0833C56.8854 18.0833 58.258 17.5184 59.3887 16.3887C60.5193 15.2589 61.0842 13.8863 61.0833 12.2708C61.0825 10.6554 60.5176 9.28321 59.3887 8.15429C58.2598 7.02538 56.8871 6.46006 55.2708 6.45833C53.6545 6.45661 52.2823 7.02193 51.1543 8.15429C50.0262 9.28665 49.4609 10.6588 49.4583 12.2708C49.4558 13.8828 50.0211 15.2554 51.1543 16.3887C52.2875 17.5219 53.6597 18.0868 55.2708 18.0833Z" fill="url(#paint1_linear_303_4856)"/>
<defs>
<linearGradient id="paint0_linear_303_4856" x1="0" y1="32.5" x2="65" y2="32.5" gradientUnits="userSpaceOnUse">
<stop stop-color="#B28EF8"/>
<stop offset="1" stop-color="#F476E5"/>
</linearGradient>
<linearGradient id="paint1_linear_303_4856" x1="46.875" y1="15.2255" x2="69.576" y2="15.2255" gradientUnits="userSpaceOnUse">
<stop stop-color="#B28EF8"/>
<stop offset="1" stop-color="#F476E5"/>
</linearGradient>
</defs>
</svg>
