<svg width="25" height="25" viewBox="0 0 25 25" fill="none" xmlns="http://www.w3.org/2000/svg">
<path d="M10.5365 22.7201C11.1677 23.241 11.826 23.717 12.5 24.1816C13.1754 23.7232 13.8305 23.2355 14.4635 22.7201C15.5188 21.8537 16.5118 20.9142 17.4354 19.9087C19.5646 17.5805 21.875 14.2055 21.875 10.417C21.875 9.18585 21.6325 7.96676 21.1614 6.82934C20.6902 5.69191 19.9997 4.65842 19.1291 3.78787C18.2586 2.91732 17.2251 2.22676 16.0877 1.75562C14.9502 1.28448 13.7311 1.04199 12.5 1.04199C11.2689 1.04199 10.0498 1.28448 8.91234 1.75562C7.77492 2.22676 6.74142 2.91732 5.87087 3.78787C5.00032 4.65842 4.30977 5.69191 3.83863 6.82934C3.36749 7.96676 3.125 9.18585 3.125 10.417C3.125 14.2055 5.43542 17.5795 7.56458 19.9087C8.48815 20.9146 9.48121 21.8533 10.5365 22.7201ZM12.5 13.8024C11.6021 13.8024 10.741 13.4457 10.1061 12.8108C9.47126 12.176 9.11458 11.3149 9.11458 10.417C9.11458 9.51912 9.47126 8.65803 10.1061 8.02314C10.741 7.38825 11.6021 7.03158 12.5 7.03158C13.3979 7.03158 14.259 7.38825 14.8939 8.02314C15.5287 8.65803 15.8854 9.51912 15.8854 10.417C15.8854 11.3149 15.5287 12.176 14.8939 12.8108C14.259 13.4457 13.3979 13.8024 12.5 13.8024Z" fill="white"/>
</svg>
