<svg width="360" height="800" viewBox="0 0 360 800" fill="none" xmlns="http://www.w3.org/2000/svg">
<g clip-path="url(#clip0_220_10226)">
<rect width="360" height="800" fill="white"/>
<g opacity="0.3" filter="url(#filter0_d_220_10226)">
<path d="M183.354 260.81C106.64 207.44 29.8203 217.643 1 229.416V800H383V391.094C348.416 369.903 260.068 314.179 183.354 260.81Z" fill="url(#paint0_linear_220_10226)"/>
</g>
<g opacity="0.25" filter="url(#filter1_d_220_10226)">
<path d="M97.7789 115.039C48.5106 113.784 14.5847 143.277 3.78022 158.18C-9.18512 253.091 -50.6373 474.501 -8.4999 568C44.1718 684.873 179.095 690.696 296 580.5C410.603 472.473 365.189 370.748 344.12 314.273C323.052 257.797 159.364 116.608 97.7789 115.039Z" fill="url(#paint1_linear_220_10226)"/>
</g>
<g opacity="0.35" filter="url(#filter2_d_220_10226)">
<path d="M84.6563 319.22C63.2701 347.463 18.6106 365.508 -1.04585 371L-38 -15L253.702 -4.01626C266.282 -3.75474 295.688 10.5764 312.671 65.8089C333.9 134.85 289.084 193.691 224.61 212.52C160.137 231.35 111.389 283.915 84.6563 319.22Z" fill="url(#paint2_linear_220_10226)"/>
</g>
<g filter="url(#filter3_i_220_10226)">
<path d="M316 250.5C316 325.887 254.887 387 179.5 387C104.113 387 43 325.887 43 250.5C43 175.113 104.113 114 179.5 114C254.887 114 316 175.113 316 250.5Z" stroke="#7F7F7F" stroke-width="6"/>
</g>
<g filter="url(#filter4_d_220_10226)">
<path d="M40 250.5C40 327.544 102.456 390 179.5 390C256.544 390 319 327.544 319 250.5C319 173.456 256.544 111 179.5 111" stroke="url(#paint3_linear_220_10226)" stroke-width="15" stroke-linecap="round"/>
</g>
<g filter="url(#filter5_f_220_10226)">
<path d="M40 250.5C40 327.544 102.456 390 179.5 390C256.544 390 319 327.544 319 250.5C319 173.456 256.544 111 179.5 111" stroke="white" stroke-width="2.5" stroke-linecap="round"/>
</g>
<g filter="url(#filter6_d_220_10226)">
<circle cx="180" cy="250" r="119" fill="white"/>
<circle cx="180" cy="250" r="117.5" stroke="#B19ADE" stroke-width="3"/>
</g>
<path d="M137.277 179L97.6248 204.574L132.129 214.002L172.227 185.782L137.277 179ZM177.981 189.072L135.454 218.221L153.852 260.702L156.927 258.287L158.451 253.197C157.419 252.592 156.535 251.609 155.941 250.407C155.347 249.204 155.079 247.852 155.18 246.57C155.278 245.326 155.719 244.217 156.434 243.414C157.15 242.61 158.101 242.157 159.141 242.122C159.571 242.108 160.01 242.166 160.445 242.294C160.828 242.409 161.204 242.577 161.567 242.794L164.427 233.242C164.462 233.127 164.504 233.015 164.554 232.905L164.575 232.864C164.61 232.788 164.649 232.714 164.691 232.642L164.723 232.592C164.764 232.523 164.809 232.455 164.856 232.389C164.916 232.309 164.98 232.23 165.049 232.155L165.072 232.131C165.134 232.064 165.199 232 165.267 231.939C165.342 231.871 165.42 231.807 165.501 231.747C165.555 231.708 165.612 231.67 165.668 231.635C165.7 231.613 165.732 231.592 165.764 231.571C165.823 231.537 165.884 231.505 165.945 231.474C165.977 231.457 166.01 231.44 166.042 231.423C166.094 231.399 166.147 231.377 166.201 231.356C166.246 231.336 166.292 231.316 166.338 231.298C166.39 231.281 166.442 231.264 166.495 231.249C166.544 231.232 166.593 231.217 166.643 231.203C166.691 231.191 166.74 231.18 166.788 231.17C166.844 231.156 166.901 231.144 166.958 231.133C167.019 231.124 167.08 231.117 167.141 231.111C167.186 231.104 167.23 231.099 167.275 231.094H167.278L167.282 231.093L179.395 230.162C179.673 229.232 180.164 228.447 180.818 227.89C181.472 227.333 182.265 227.024 183.115 226.994C183.546 226.98 183.985 227.038 184.42 227.166C185.594 227.515 186.687 228.359 187.492 229.54L192.191 229.18L177.981 189.072ZM136.72 191.536C138.244 191.565 139.536 191.862 140.376 192.378C141.216 192.894 141.554 193.596 141.33 194.366C141.074 195.251 140.097 196.158 138.615 196.887C137.133 197.616 135.267 198.108 133.427 198.254C132.516 198.326 131.639 198.311 130.846 198.21C130.053 198.109 129.359 197.924 128.805 197.665C128.251 197.407 127.846 197.079 127.615 196.702C127.384 196.325 127.33 195.905 127.458 195.467C127.584 195.028 127.889 194.58 128.355 194.147C128.821 193.715 129.438 193.306 130.172 192.945C130.906 192.584 131.742 192.278 132.632 192.043C133.523 191.808 134.45 191.651 135.361 191.578C135.823 191.542 136.279 191.528 136.72 191.536ZM172.827 199.156C173.258 199.142 173.697 199.2 174.132 199.328C175.409 199.704 176.586 200.664 177.404 201.997C178.223 203.33 178.615 204.927 178.496 206.437C178.436 207.185 178.253 207.889 177.956 208.508C177.66 209.128 177.255 209.651 176.766 210.048C176.277 210.445 175.713 210.708 175.107 210.822C174.5 210.936 173.862 210.899 173.23 210.713C172.597 210.527 171.983 210.196 171.422 209.738C170.86 209.28 170.362 208.705 169.957 208.044C169.552 207.384 169.247 206.652 169.06 205.89C168.872 205.128 168.806 204.352 168.866 203.604C168.964 202.359 169.405 201.251 170.121 200.447C170.836 199.644 171.787 199.191 172.827 199.156ZM96 210.226L112.929 247.206L146.878 260.29L130.311 219.602L96 210.226ZM149.277 215.874C149.707 215.86 150.146 215.917 150.582 216.045C151.858 216.421 153.035 217.381 153.853 218.714C154.671 220.048 155.064 221.645 154.944 223.154C154.885 223.902 154.702 224.606 154.405 225.225C154.109 225.845 153.704 226.368 153.215 226.765C152.726 227.162 152.162 227.425 151.556 227.539C150.949 227.654 150.311 227.617 149.679 227.431C148.402 227.055 147.225 226.095 146.407 224.761C145.588 223.428 145.196 221.831 145.315 220.321C145.414 219.077 145.855 217.968 146.57 217.165C147.286 216.362 148.236 215.908 149.277 215.874ZM122.213 220.092C123.106 220.048 124.226 220.523 125.354 221.426C126.483 222.329 127.54 223.595 128.321 224.977C128.735 225.71 129.059 226.454 129.276 227.167C129.492 227.881 129.596 228.55 129.581 229.136C129.567 229.723 129.435 230.215 129.193 230.584C128.95 230.954 128.602 231.194 128.168 231.291C127.292 231.486 126.12 231.086 124.91 230.178C123.699 229.27 122.55 227.929 121.715 226.45C120.88 224.972 120.427 223.476 120.456 222.293C120.484 221.109 120.992 220.334 121.868 220.138C121.978 220.113 122.093 220.098 122.213 220.092ZM217.102 233.121L176.717 236.224L217.7 262.122L258.624 256.628L217.102 233.121ZM112.788 236.25C113.681 236.206 114.8 236.681 115.929 237.584C117.058 238.487 118.116 239.753 118.897 241.135C119.732 242.614 120.185 244.11 120.157 245.294C120.128 246.478 119.62 247.253 118.744 247.449C117.867 247.644 116.695 247.244 115.485 246.336C114.275 245.428 113.126 244.087 112.29 242.608C111.455 241.13 111.002 239.634 111.031 238.45C111.06 237.266 111.568 236.491 112.443 236.296C112.554 236.271 112.668 236.255 112.788 236.25ZM169.484 238.781L154.52 288.743L196.171 320.969L213.156 266.38L169.484 238.781ZM215.232 242.4C216.35 242.419 217.58 242.57 218.816 242.84C220.053 243.11 221.257 243.491 222.326 243.95C223.19 244.321 223.945 244.734 224.55 245.167C225.155 245.599 225.597 246.043 225.852 246.471C226.106 246.9 226.168 247.305 226.033 247.665C225.899 248.024 225.57 248.33 225.067 248.565C224.564 248.801 223.895 248.961 223.1 249.036C222.305 249.112 221.398 249.102 220.432 249.006C219.465 248.91 218.458 248.731 217.468 248.478C216.478 248.226 215.524 247.905 214.661 247.534C212.917 246.786 211.649 245.879 211.135 245.013C210.621 244.147 210.903 243.394 211.919 242.919C212.692 242.558 213.846 242.377 215.232 242.4ZM263 261.938L219.452 267.785L202.584 322L244.481 311.706L263 261.938ZM197.503 265.438C198.011 265.438 198.525 265.541 199.029 265.743C199.762 266.037 200.463 266.536 201.093 267.212C201.723 267.888 202.269 268.727 202.699 269.681C203.13 270.636 203.437 271.687 203.603 272.775C203.769 273.863 203.791 274.966 203.667 276.021C203.417 278.153 202.589 279.962 201.366 281.049C200.143 282.136 198.624 282.413 197.145 281.819C196.412 281.525 195.71 281.026 195.081 280.35C194.451 279.675 193.905 278.836 193.475 277.881C193.044 276.927 192.737 275.876 192.571 274.788C192.405 273.7 192.383 272.597 192.507 271.541C192.713 269.784 193.313 268.236 194.215 267.134C195.118 266.031 196.272 265.436 197.503 265.438ZM253.013 269.208C254.188 269.177 255.163 269.648 255.777 270.546C256.499 271.601 256.67 273.165 256.253 274.893C255.836 276.621 254.864 278.372 253.552 279.76C252.24 281.148 250.695 282.061 249.257 282.296C247.819 282.532 246.605 282.072 245.884 281.017C245.162 279.962 244.99 278.398 245.408 276.67C245.825 274.942 246.796 273.192 248.108 271.803C248.853 271.015 249.682 270.372 250.531 269.922C251.38 269.473 252.229 269.229 253.013 269.208ZM228.265 272.663C229.44 272.632 230.414 273.104 231.029 274.002C231.751 275.057 231.922 276.62 231.505 278.348C231.087 280.076 230.116 281.827 228.804 283.216C227.492 284.604 225.947 285.516 224.509 285.752C223.07 285.987 221.857 285.527 221.135 284.472C220.413 283.417 220.242 281.853 220.66 280.125C221.077 278.397 222.048 276.647 223.36 275.258C224.106 274.47 224.934 273.827 225.783 273.378C226.632 272.928 227.481 272.684 228.265 272.663ZM165.582 276.975C166.091 276.975 166.605 277.078 167.109 277.281C167.842 277.575 168.543 278.074 169.173 278.75C169.803 279.426 170.348 280.265 170.779 281.219C171.209 282.174 171.517 283.225 171.683 284.313C171.849 285.4 171.87 286.504 171.747 287.559C171.623 288.615 171.356 289.602 170.961 290.465C170.566 291.328 170.051 292.049 169.446 292.587C168.84 293.126 168.155 293.471 167.431 293.603C166.707 293.735 165.957 293.652 165.224 293.357C164.491 293.063 163.79 292.564 163.16 291.888C162.53 291.213 161.985 290.374 161.554 289.419C161.123 288.465 160.816 287.414 160.65 286.326C160.484 285.238 160.462 284.135 160.586 283.079C160.792 281.322 161.392 279.774 162.294 278.671C163.197 277.569 164.352 276.973 165.582 276.975ZM242.056 296.698C243.231 296.667 244.205 297.139 244.819 298.037C245.541 299.092 245.713 300.655 245.296 302.383C244.878 304.111 243.907 305.862 242.595 307.25C241.283 308.638 239.738 309.551 238.3 309.786C236.862 310.022 235.648 309.561 234.926 308.506C234.204 307.451 234.033 305.888 234.45 304.16C234.868 302.432 235.839 300.681 237.151 299.293C237.896 298.504 238.724 297.861 239.574 297.412C240.423 296.962 241.272 296.719 242.056 296.698ZM216.719 303.013C217.894 302.982 218.868 303.454 219.482 304.352C220.204 305.407 220.375 306.97 219.958 308.698C219.541 310.426 218.57 312.177 217.258 313.565C216.608 314.253 215.894 314.831 215.157 315.266C214.42 315.701 213.674 315.985 212.962 316.101C212.25 316.218 211.586 316.165 211.007 315.945C210.428 315.725 209.946 315.343 209.589 314.821C208.867 313.766 208.696 312.202 209.113 310.474C209.53 308.746 210.502 306.996 211.814 305.607C212.559 304.819 213.387 304.176 214.237 303.727C215.086 303.277 215.934 303.034 216.719 303.013Z" fill="url(#paint4_linear_220_10226)" fill-opacity="0.8"/>
<g filter="url(#filter7_d_220_10226)">
<path d="M24 434H335V768C335 770.761 332.761 773 330 773H29C26.2386 773 24 770.761 24 768V434Z" fill="white"/>
</g>
<path d="M24 434H335V491C335 493.761 332.761 496 330 496H29C26.2386 496 24 493.761 24 491V434Z" fill="#B19ADE"/>
<g filter="url(#filter8_d_220_10226)">
<circle cx="111.354" cy="540.952" r="26.9518" fill="white"/>
<circle cx="111.354" cy="540.952" r="25.9518" stroke="url(#paint5_linear_220_10226)" stroke-width="2"/>
</g>
<path d="M111.33 523.328C110.825 523.328 110.32 523.445 109.928 523.68L97.4306 531.166C96.6476 531.635 96.6476 532.377 97.4306 532.846L109.928 540.333C110.711 540.802 111.949 540.802 112.732 540.333L125.23 532.846C126.013 532.377 126.013 531.635 125.23 531.166L112.732 523.68C112.341 523.445 111.835 523.328 111.33 523.328ZM111.263 527.828C112 527.836 112.663 528.011 113.252 528.353C113.654 528.586 113.918 528.853 114.043 529.152C114.163 529.449 114.17 529.841 114.064 530.327L113.933 530.81C113.846 531.156 113.828 531.405 113.879 531.557C113.926 531.706 114.041 531.835 114.226 531.942L114.503 532.103L111.784 533.68L111.482 533.505C111.145 533.31 110.93 533.089 110.837 532.843C110.74 532.594 110.756 532.198 110.886 531.656L111.01 531.169C111.083 530.879 111.09 530.641 111.032 530.456C110.978 530.267 110.857 530.118 110.668 530.009C110.381 529.842 110.036 529.782 109.635 529.829C109.229 529.873 108.811 530.021 108.379 530.271C107.972 530.507 107.603 530.803 107.27 531.158C106.934 531.51 106.645 531.914 106.404 532.368L104.469 531.245C104.904 530.793 105.332 530.397 105.752 530.058C106.172 529.719 106.615 529.414 107.082 529.143C108.307 528.432 109.447 528.01 110.5 527.875C110.753 527.842 111.008 527.826 111.263 527.828L111.263 527.828ZM115.416 532.632L117.609 533.905L114.89 535.482L112.696 534.21L115.416 532.632ZM96.5961 534.264C96.1254 534.251 95.8054 534.632 95.8054 535.305V548.666C95.8054 549.602 96.4248 550.713 97.2077 551.181L109.229 558.37C110.012 558.838 110.631 558.468 110.631 557.532V544.17C110.631 543.234 110.012 542.124 109.229 541.655L97.2077 534.466C96.9877 534.335 96.7803 534.269 96.5961 534.264V534.264ZM126.113 534.264C125.929 534.27 125.722 534.335 125.501 534.467L113.48 541.655C112.697 542.124 112.078 543.234 112.078 544.171V557.532C112.078 558.468 112.697 558.839 113.48 558.37L125.502 551.182C126.285 550.713 126.904 549.603 126.904 548.666V535.305C126.904 534.632 126.584 534.252 126.113 534.265V534.264ZM99.8055 539.666C100.342 539.782 100.831 539.923 101.274 540.091C101.719 540.259 102.148 540.466 102.557 540.711C103.638 541.358 104.462 542.094 105.03 542.921C105.597 543.743 105.88 544.62 105.88 545.551C105.88 546.029 105.794 546.406 105.621 546.683C105.448 546.955 105.154 547.184 104.737 547.369L104.312 547.532C104.01 547.654 103.813 547.78 103.72 547.91C103.627 548.034 103.581 548.206 103.581 548.426V548.755L101.182 547.32V546.962C101.181 546.562 101.255 546.252 101.401 546.032C101.547 545.808 101.855 545.597 102.325 545.4L102.75 545.23C103.003 545.127 103.186 544.998 103.302 544.843C103.421 544.69 103.481 544.502 103.481 544.277C103.481 543.936 103.375 543.607 103.162 543.289C102.949 542.967 102.652 542.692 102.271 542.464C101.912 542.25 101.525 542.101 101.108 542.017C100.692 541.929 100.257 541.911 99.8055 541.963V539.666ZM121.858 540.395C121.983 540.395 122.098 540.409 122.204 540.437C122.772 540.581 123.055 541.118 123.055 542.05C123.055 542.527 122.969 543.008 122.796 543.492C122.623 543.971 122.328 544.552 121.912 545.235L121.487 545.906C121.185 546.388 120.988 546.75 120.895 546.991C120.802 547.227 120.756 547.455 120.756 547.674V548.003L118.356 549.438V549.08C118.356 548.68 118.429 548.282 118.576 547.888C118.722 547.488 119.03 546.909 119.499 546.15L119.925 545.472C120.177 545.067 120.361 544.718 120.476 544.425C120.596 544.129 120.656 543.869 120.656 543.645C120.656 543.303 120.549 543.101 120.337 543.038C120.124 542.97 119.827 543.05 119.446 543.278C119.087 543.493 118.7 543.808 118.283 544.222C117.867 544.632 117.432 545.133 116.98 545.725V543.428C117.517 542.903 118.006 542.459 118.449 542.097C118.892 541.734 119.32 541.43 119.732 541.184C120.61 540.658 121.319 540.395 121.858 540.395L121.858 540.395ZM101.181 548.403L103.581 549.838V552.442L101.182 551.007V548.403L101.181 548.403ZM120.756 549.086V551.69L118.356 553.124V550.521L120.756 549.086Z" fill="#B28EF8"/>
<g filter="url(#filter9_i_220_10226)">
<rect x="74.0366" y="525.404" width="2.07321" height="32.1348" rx="1.03661" fill="#B19ADE"/>
</g>
<circle cx="75.0732" cy="562.722" r="2.07321" fill="#B19ADE"/>
<circle cx="75.0732" cy="520.221" r="2.07321" fill="#B19ADE"/>
<g filter="url(#filter10_d_220_10226)">
<circle cx="249.354" cy="540.952" r="26.9518" fill="white"/>
<circle cx="249.354" cy="540.952" r="25.9518" stroke="url(#paint6_linear_220_10226)" stroke-width="2"/>
</g>
<path d="M249.33 523.328C248.825 523.328 248.32 523.445 247.928 523.68L235.431 531.166C234.648 531.635 234.648 532.377 235.431 532.846L247.928 540.333C248.711 540.802 249.949 540.802 250.732 540.333L263.23 532.846C264.013 532.377 264.013 531.635 263.23 531.166L250.732 523.68C250.341 523.445 249.835 523.328 249.33 523.328ZM249.263 527.828C250 527.836 250.663 528.011 251.252 528.353C251.654 528.586 251.918 528.853 252.043 529.152C252.163 529.449 252.17 529.841 252.064 530.327L251.933 530.81C251.846 531.156 251.828 531.405 251.879 531.557C251.926 531.706 252.041 531.835 252.226 531.942L252.503 532.103L249.784 533.68L249.482 533.505C249.145 533.31 248.93 533.089 248.837 532.843C248.74 532.594 248.756 532.198 248.886 531.656L249.01 531.169C249.083 530.879 249.09 530.641 249.032 530.456C248.978 530.267 248.857 530.118 248.668 530.009C248.381 529.842 248.036 529.782 247.635 529.829C247.229 529.873 246.811 530.021 246.379 530.271C245.972 530.507 245.603 530.803 245.27 531.158C244.934 531.51 244.645 531.914 244.404 532.368L242.469 531.245C242.904 530.793 243.332 530.397 243.752 530.058C244.172 529.719 244.615 529.414 245.082 529.143C246.307 528.432 247.447 528.01 248.5 527.875C248.753 527.842 249.008 527.826 249.263 527.828L249.263 527.828ZM253.416 532.632L255.609 533.905L252.89 535.482L250.696 534.21L253.416 532.632ZM234.596 534.264C234.125 534.251 233.805 534.632 233.805 535.305V548.666C233.805 549.602 234.425 550.713 235.208 551.181L247.229 558.37C248.012 558.838 248.631 558.468 248.631 557.532V544.17C248.631 543.234 248.012 542.124 247.229 541.655L235.208 534.466C234.988 534.335 234.78 534.269 234.596 534.264V534.264ZM264.113 534.264C263.929 534.27 263.722 534.335 263.501 534.467L251.48 541.655C250.697 542.124 250.078 543.234 250.078 544.171V557.532C250.078 558.468 250.697 558.839 251.48 558.37L263.502 551.182C264.285 550.713 264.904 549.603 264.904 548.666V535.305C264.904 534.632 264.584 534.252 264.113 534.265V534.264ZM237.806 539.666C238.342 539.782 238.831 539.923 239.274 540.091C239.719 540.259 240.148 540.466 240.557 540.711C241.638 541.358 242.462 542.094 243.03 542.921C243.597 543.743 243.88 544.62 243.88 545.551C243.88 546.029 243.794 546.406 243.621 546.683C243.448 546.955 243.154 547.184 242.737 547.369L242.312 547.532C242.01 547.654 241.813 547.78 241.72 547.91C241.627 548.034 241.581 548.206 241.581 548.426V548.755L239.182 547.32V546.962C239.181 546.562 239.255 546.252 239.401 546.032C239.547 545.808 239.855 545.597 240.325 545.4L240.75 545.23C241.003 545.127 241.186 544.998 241.302 544.843C241.421 544.69 241.481 544.502 241.481 544.277C241.481 543.936 241.375 543.607 241.162 543.289C240.949 542.967 240.652 542.692 240.271 542.464C239.912 542.25 239.525 542.101 239.108 542.017C238.692 541.929 238.257 541.911 237.806 541.963V539.666ZM259.858 540.395C259.983 540.395 260.098 540.409 260.204 540.437C260.772 540.581 261.055 541.118 261.055 542.05C261.055 542.527 260.969 543.008 260.796 543.492C260.623 543.971 260.328 544.552 259.912 545.235L259.487 545.906C259.185 546.388 258.988 546.75 258.895 546.991C258.802 547.227 258.756 547.455 258.756 547.674V548.003L256.356 549.438V549.08C256.356 548.68 256.429 548.282 256.576 547.888C256.722 547.488 257.03 546.909 257.499 546.15L257.925 545.472C258.177 545.067 258.361 544.718 258.476 544.425C258.596 544.129 258.656 543.869 258.656 543.645C258.656 543.303 258.549 543.101 258.337 543.038C258.124 542.97 257.827 543.05 257.446 543.278C257.087 543.493 256.7 543.808 256.283 544.222C255.867 544.632 255.432 545.133 254.98 545.725V543.428C255.517 542.903 256.006 542.459 256.449 542.097C256.892 541.734 257.32 541.43 257.732 541.184C258.61 540.658 259.319 540.395 259.858 540.395L259.858 540.395ZM239.181 548.403L241.581 549.838V552.442L239.182 551.007V548.403L239.181 548.403ZM258.756 549.086V551.69L256.356 553.124V550.521L258.756 549.086Z" fill="#B28EF8"/>
<g filter="url(#filter11_i_220_10226)">
<rect x="212.037" y="525.404" width="2.07321" height="32.1348" rx="1.03661" fill="#B19ADE"/>
</g>
<circle cx="213.073" cy="562.722" r="2.07321" fill="#B19ADE"/>
<circle cx="213.073" cy="520.221" r="2.07321" fill="#B19ADE"/>
<g filter="url(#filter12_d_220_10226)">
<circle cx="110.354" cy="630.952" r="26.9518" fill="white"/>
<circle cx="110.354" cy="630.952" r="25.9518" stroke="url(#paint7_linear_220_10226)" stroke-width="2"/>
</g>
<path d="M110.33 613.328C109.825 613.328 109.32 613.445 108.928 613.68L96.4306 621.166C95.6476 621.635 95.6476 622.377 96.4306 622.846L108.928 630.333C109.711 630.802 110.949 630.802 111.732 630.333L124.23 622.846C125.013 622.377 125.013 621.635 124.23 621.166L111.732 613.68C111.341 613.445 110.835 613.328 110.33 613.328ZM110.263 617.828C111 617.836 111.663 618.011 112.252 618.353C112.654 618.586 112.918 618.853 113.043 619.152C113.163 619.449 113.17 619.841 113.064 620.327L112.933 620.81C112.846 621.156 112.828 621.405 112.879 621.557C112.926 621.706 113.041 621.835 113.226 621.942L113.503 622.103L110.784 623.68L110.482 623.505C110.145 623.31 109.93 623.089 109.837 622.843C109.74 622.594 109.756 622.198 109.886 621.656L110.01 621.169C110.083 620.879 110.09 620.641 110.032 620.456C109.978 620.267 109.857 620.118 109.668 620.009C109.381 619.842 109.036 619.782 108.635 619.829C108.229 619.873 107.811 620.021 107.379 620.271C106.972 620.507 106.603 620.803 106.27 621.158C105.934 621.51 105.645 621.914 105.404 622.368L103.469 621.245C103.904 620.793 104.332 620.397 104.752 620.058C105.172 619.719 105.615 619.414 106.082 619.143C107.307 618.432 108.447 618.01 109.5 617.875C109.753 617.842 110.008 617.826 110.263 617.828L110.263 617.828ZM114.416 622.632L116.609 623.905L113.89 625.482L111.696 624.21L114.416 622.632ZM95.5961 624.264C95.1254 624.251 94.8054 624.632 94.8054 625.305V638.666C94.8054 639.602 95.4248 640.713 96.2077 641.181L108.229 648.37C109.012 648.838 109.631 648.468 109.631 647.532V634.17C109.631 633.234 109.012 632.124 108.229 631.655L96.2077 624.466C95.9877 624.335 95.7803 624.269 95.5961 624.264V624.264ZM125.113 624.264C124.929 624.27 124.722 624.335 124.501 624.467L112.48 631.655C111.697 632.124 111.078 633.234 111.078 634.171V647.532C111.078 648.468 111.697 648.839 112.48 648.37L124.502 641.182C125.285 640.713 125.904 639.603 125.904 638.666V625.305C125.904 624.632 125.584 624.252 125.113 624.265V624.264ZM98.8055 629.666C99.3417 629.782 99.8314 629.923 100.274 630.091C100.719 630.259 101.148 630.466 101.557 630.711C102.638 631.358 103.462 632.094 104.03 632.921C104.597 633.743 104.88 634.62 104.88 635.551C104.88 636.029 104.794 636.406 104.621 636.683C104.448 636.955 104.154 637.184 103.737 637.369L103.312 637.532C103.01 637.654 102.813 637.78 102.72 637.91C102.627 638.034 102.581 638.206 102.581 638.426V638.755L100.182 637.32V636.962C100.181 636.562 100.255 636.252 100.401 636.032C100.547 635.808 100.855 635.597 101.325 635.4L101.75 635.23C102.003 635.127 102.186 634.998 102.302 634.843C102.421 634.69 102.481 634.502 102.481 634.277C102.481 633.936 102.375 633.607 102.162 633.289C101.949 632.967 101.652 632.692 101.271 632.464C100.912 632.25 100.525 632.101 100.108 632.017C99.6917 631.929 99.2575 631.911 98.8055 631.963V629.666ZM120.858 630.395C120.983 630.395 121.098 630.409 121.204 630.437C121.772 630.581 122.055 631.118 122.055 632.05C122.055 632.527 121.969 633.008 121.796 633.492C121.623 633.971 121.328 634.552 120.912 635.235L120.487 635.906C120.185 636.388 119.988 636.75 119.895 636.991C119.802 637.227 119.756 637.455 119.756 637.674V638.003L117.356 639.438V639.08C117.356 638.68 117.429 638.282 117.576 637.888C117.722 637.488 118.03 636.909 118.499 636.15L118.925 635.472C119.177 635.067 119.361 634.718 119.476 634.425C119.596 634.129 119.656 633.869 119.656 633.645C119.656 633.303 119.549 633.101 119.337 633.038C119.124 632.97 118.827 633.05 118.446 633.278C118.087 633.493 117.7 633.808 117.283 634.222C116.867 634.632 116.432 635.133 115.98 635.725V633.428C116.517 632.903 117.006 632.459 117.449 632.097C117.892 631.734 118.32 631.43 118.732 631.184C119.61 630.658 120.319 630.395 120.858 630.395L120.858 630.395ZM100.181 638.403L102.581 639.838V642.442L100.182 641.007V638.403L100.181 638.403ZM119.756 639.086V641.69L117.356 643.124V640.521L119.756 639.086Z" fill="#B28EF8"/>
<g filter="url(#filter13_i_220_10226)">
<rect x="73.0366" y="615.404" width="2.07321" height="32.1348" rx="1.03661" fill="#B19ADE"/>
</g>
<circle cx="74.0732" cy="652.722" r="2.07321" fill="#B19ADE"/>
<circle cx="74.0732" cy="610.221" r="2.07321" fill="#B19ADE"/>
<g filter="url(#filter14_d_220_10226)">
<circle cx="110.354" cy="721.952" r="26.9518" fill="white"/>
<circle cx="110.354" cy="721.952" r="25.9518" stroke="url(#paint8_linear_220_10226)" stroke-width="2"/>
</g>
<path d="M110.33 704.328C109.825 704.328 109.32 704.445 108.928 704.68L96.4306 712.166C95.6476 712.635 95.6476 713.377 96.4306 713.846L108.928 721.333C109.711 721.802 110.949 721.802 111.732 721.333L124.23 713.846C125.013 713.377 125.013 712.635 124.23 712.166L111.732 704.68C111.341 704.445 110.835 704.328 110.33 704.328ZM110.263 708.828C111 708.836 111.663 709.011 112.252 709.353C112.654 709.586 112.918 709.853 113.043 710.152C113.163 710.449 113.17 710.841 113.064 711.327L112.933 711.81C112.846 712.156 112.828 712.405 112.879 712.557C112.926 712.706 113.041 712.835 113.226 712.942L113.503 713.103L110.784 714.68L110.482 714.505C110.145 714.31 109.93 714.089 109.837 713.843C109.74 713.594 109.756 713.198 109.886 712.656L110.01 712.169C110.083 711.879 110.09 711.641 110.032 711.456C109.978 711.267 109.857 711.118 109.668 711.009C109.381 710.842 109.036 710.782 108.635 710.829C108.229 710.873 107.811 711.021 107.379 711.271C106.972 711.507 106.603 711.803 106.27 712.158C105.934 712.51 105.645 712.914 105.404 713.368L103.469 712.245C103.904 711.793 104.332 711.397 104.752 711.058C105.172 710.719 105.615 710.414 106.082 710.143C107.307 709.432 108.447 709.01 109.5 708.875C109.753 708.842 110.008 708.826 110.263 708.828L110.263 708.828ZM114.416 713.632L116.609 714.905L113.89 716.482L111.696 715.21L114.416 713.632ZM95.5961 715.264C95.1254 715.251 94.8054 715.632 94.8054 716.305V729.666C94.8054 730.602 95.4248 731.713 96.2077 732.181L108.229 739.37C109.012 739.838 109.631 739.468 109.631 738.532V725.17C109.631 724.234 109.012 723.124 108.229 722.655L96.2077 715.466C95.9877 715.335 95.7803 715.269 95.5961 715.264V715.264ZM125.113 715.264C124.929 715.27 124.722 715.335 124.501 715.467L112.48 722.655C111.697 723.124 111.078 724.234 111.078 725.171V738.532C111.078 739.468 111.697 739.839 112.48 739.37L124.502 732.182C125.285 731.713 125.904 730.603 125.904 729.666V716.305C125.904 715.632 125.584 715.252 125.113 715.265V715.264ZM98.8055 720.666C99.3417 720.782 99.8314 720.923 100.274 721.091C100.719 721.259 101.148 721.466 101.557 721.711C102.638 722.358 103.462 723.094 104.03 723.921C104.597 724.743 104.88 725.62 104.88 726.551C104.88 727.029 104.794 727.406 104.621 727.683C104.448 727.955 104.154 728.184 103.737 728.369L103.312 728.532C103.01 728.654 102.813 728.78 102.72 728.91C102.627 729.034 102.581 729.206 102.581 729.426V729.755L100.182 728.32V727.962C100.181 727.562 100.255 727.252 100.401 727.032C100.547 726.808 100.855 726.597 101.325 726.4L101.75 726.23C102.003 726.127 102.186 725.998 102.302 725.843C102.421 725.69 102.481 725.502 102.481 725.277C102.481 724.936 102.375 724.607 102.162 724.289C101.949 723.967 101.652 723.692 101.271 723.464C100.912 723.25 100.525 723.101 100.108 723.017C99.6917 722.929 99.2575 722.911 98.8055 722.963V720.666ZM120.858 721.395C120.983 721.395 121.098 721.409 121.204 721.437C121.772 721.581 122.055 722.118 122.055 723.05C122.055 723.527 121.969 724.008 121.796 724.492C121.623 724.971 121.328 725.552 120.912 726.235L120.487 726.906C120.185 727.388 119.988 727.75 119.895 727.991C119.802 728.227 119.756 728.455 119.756 728.674V729.003L117.356 730.438V730.08C117.356 729.68 117.429 729.282 117.576 728.888C117.722 728.488 118.03 727.909 118.499 727.15L118.925 726.472C119.177 726.067 119.361 725.718 119.476 725.425C119.596 725.129 119.656 724.869 119.656 724.645C119.656 724.303 119.549 724.101 119.337 724.038C119.124 723.97 118.827 724.05 118.446 724.278C118.087 724.493 117.7 724.808 117.283 725.222C116.867 725.632 116.432 726.133 115.98 726.725V724.428C116.517 723.903 117.006 723.459 117.449 723.097C117.892 722.734 118.32 722.43 118.732 722.184C119.61 721.658 120.319 721.395 120.858 721.395L120.858 721.395ZM100.181 729.403L102.581 730.838V733.442L100.182 732.007V729.403L100.181 729.403ZM119.756 730.086V732.69L117.356 734.124V731.521L119.756 730.086Z" fill="#B28EF8"/>
<g filter="url(#filter15_i_220_10226)">
<rect x="73.0366" y="706.404" width="2.07321" height="32.1348" rx="1.03661" fill="#B19ADE"/>
</g>
<circle cx="74.0732" cy="743.722" r="2.07321" fill="#B19ADE"/>
<circle cx="74.0732" cy="701.221" r="2.07321" fill="#B19ADE"/>
<g filter="url(#filter16_d_220_10226)">
<circle cx="249.085" cy="630.952" r="26.9518" fill="white"/>
<circle cx="249.085" cy="630.952" r="25.9518" stroke="url(#paint9_linear_220_10226)" stroke-width="2"/>
</g>
<path d="M249.061 613.328C248.556 613.328 248.05 613.445 247.659 613.68L235.161 621.166C234.378 621.635 234.378 622.377 235.161 622.846L247.659 630.333C248.442 630.802 249.68 630.802 250.463 630.333L262.96 622.846C263.743 622.377 263.743 621.635 262.96 621.166L250.463 613.68C250.071 613.445 249.566 613.328 249.061 613.328ZM248.994 617.828C249.731 617.836 250.394 618.011 250.982 618.353C251.385 618.586 251.649 618.853 251.773 619.152C251.894 619.449 251.901 619.841 251.795 620.327L251.664 620.81C251.577 621.156 251.559 621.405 251.61 621.557C251.656 621.706 251.772 621.835 251.957 621.942L252.234 622.103L249.515 623.68L249.213 623.505C248.876 623.31 248.661 623.089 248.568 622.843C248.471 622.594 248.487 622.198 248.616 621.656L248.741 621.169C248.814 620.879 248.821 620.641 248.762 620.456C248.709 620.267 248.588 620.118 248.399 620.009C248.111 619.842 247.767 619.782 247.366 619.829C246.96 619.873 246.541 620.021 246.11 620.271C245.703 620.507 245.333 620.803 245.001 621.158C244.665 621.51 244.376 621.914 244.135 622.368L242.2 621.245C242.635 620.793 243.063 620.397 243.482 620.058C243.902 619.719 244.346 619.414 244.813 619.143C246.038 618.432 247.178 618.01 248.231 617.875C248.484 617.842 248.739 617.826 248.994 617.828L248.994 617.828ZM253.146 622.632L255.34 623.905L252.621 625.482L250.427 624.21L253.146 622.632ZM234.327 624.264C233.856 624.251 233.536 624.632 233.536 625.305V638.666C233.536 639.602 234.155 640.713 234.938 641.181L246.96 648.37C247.743 648.838 248.362 648.468 248.362 647.532V634.17C248.362 633.234 247.743 632.124 246.96 631.655L234.938 624.466C234.718 624.335 234.511 624.269 234.327 624.264V624.264ZM263.844 624.264C263.66 624.27 263.452 624.335 263.232 624.467L251.211 631.655C250.428 632.124 249.808 633.234 249.808 634.171V647.532C249.808 648.468 250.428 648.839 251.211 648.37L263.232 641.182C264.015 640.713 264.634 639.603 264.634 638.666V625.305C264.634 624.632 264.314 624.252 263.844 624.265V624.264ZM237.536 629.666C238.072 629.782 238.562 629.923 239.005 630.091C239.449 630.259 239.879 630.466 240.288 630.711C241.369 631.358 242.193 632.094 242.76 632.921C243.327 633.743 243.611 634.62 243.611 635.551C243.611 636.029 243.525 636.406 243.352 636.683C243.179 636.955 242.884 637.184 242.468 637.369L242.043 637.532C241.741 637.654 241.544 637.78 241.451 637.91C241.358 638.034 241.311 638.206 241.311 638.426V638.755L238.912 637.32V636.962C238.912 636.562 238.985 636.252 239.132 636.032C239.278 635.808 239.586 635.597 240.055 635.4L240.481 635.23C240.733 635.127 240.917 634.998 241.032 634.843C241.152 634.69 241.212 634.502 241.212 634.277C241.212 633.936 241.105 633.607 240.893 633.289C240.68 632.967 240.383 632.692 240.002 632.464C239.643 632.25 239.255 632.101 238.839 632.017C238.422 631.929 237.988 631.911 237.536 631.963V629.666ZM259.589 630.395C259.713 630.395 259.829 630.409 259.935 630.437C260.502 630.581 260.786 631.118 260.786 632.05C260.786 632.527 260.699 633.008 260.527 633.492C260.354 633.971 260.059 634.552 259.643 635.235L259.217 635.906C258.916 636.388 258.719 636.75 258.626 636.991C258.533 637.227 258.486 637.455 258.486 637.674V638.003L256.087 639.438V639.08C256.087 638.68 256.16 638.282 256.306 637.888C256.453 637.488 256.761 636.909 257.23 636.15L257.656 635.472C257.908 635.067 258.092 634.718 258.207 634.425C258.327 634.129 258.386 633.869 258.386 633.645C258.386 633.303 258.28 633.101 258.068 633.038C257.855 632.97 257.558 633.05 257.177 633.278C256.818 633.493 256.43 633.808 256.014 634.222C255.597 634.632 255.163 635.133 254.711 635.725V633.428C255.247 632.903 255.737 632.459 256.18 632.097C256.623 631.734 257.051 631.43 257.463 631.184C258.341 630.658 259.05 630.395 259.589 630.395L259.589 630.395ZM238.912 638.403L241.311 639.838V642.442L238.912 641.007V638.403L238.912 638.403ZM258.486 639.086V641.69L256.087 643.124V640.521L258.486 639.086Z" fill="#B28EF8"/>
<g filter="url(#filter17_i_220_10226)">
<rect x="212.368" y="615.404" width="2.07321" height="32.1348" rx="1.03661" fill="#B19ADE"/>
</g>
<circle cx="213.404" cy="652.722" r="2.07321" fill="#B19ADE"/>
<circle cx="213.404" cy="610.221" r="2.07321" fill="#B19ADE"/>
<g filter="url(#filter18_d_220_10226)">
<circle cx="249.085" cy="721.952" r="26.9518" fill="white"/>
<circle cx="249.085" cy="721.952" r="25.9518" stroke="url(#paint10_linear_220_10226)" stroke-width="2"/>
</g>
<path d="M249.061 704.328C248.556 704.328 248.05 704.445 247.659 704.68L235.161 712.166C234.378 712.635 234.378 713.377 235.161 713.846L247.659 721.333C248.442 721.802 249.68 721.802 250.463 721.333L262.96 713.846C263.743 713.377 263.743 712.635 262.96 712.166L250.463 704.68C250.071 704.445 249.566 704.328 249.061 704.328ZM248.993 708.828C249.731 708.836 250.394 709.011 250.982 709.353C251.385 709.586 251.649 709.853 251.773 710.152C251.894 710.449 251.901 710.841 251.795 711.327L251.664 711.81C251.577 712.156 251.559 712.405 251.61 712.557C251.656 712.706 251.772 712.835 251.957 712.942L252.234 713.103L249.515 714.68L249.213 714.505C248.876 714.31 248.661 714.089 248.568 713.843C248.471 713.594 248.487 713.198 248.616 712.656L248.741 712.169C248.814 711.879 248.821 711.641 248.762 711.456C248.709 711.267 248.588 711.118 248.399 711.009C248.111 710.842 247.767 710.782 247.365 710.829C246.96 710.873 246.541 711.021 246.11 711.271C245.703 711.507 245.333 711.803 245.001 712.158C244.665 712.51 244.376 712.914 244.135 713.368L242.2 712.245C242.635 711.793 243.062 711.397 243.482 711.058C243.902 710.719 244.346 710.414 244.813 710.143C246.038 709.432 247.178 709.01 248.231 708.875C248.484 708.842 248.739 708.826 248.994 708.828L248.993 708.828ZM253.146 713.632L255.34 714.905L252.621 716.482L250.427 715.21L253.146 713.632ZM234.327 715.264C233.856 715.251 233.536 715.632 233.536 716.305V729.666C233.536 730.602 234.155 731.713 234.938 732.181L246.96 739.37C247.743 739.838 248.362 739.468 248.362 738.532V725.17C248.362 724.234 247.743 723.124 246.96 722.655L234.938 715.466C234.718 715.335 234.511 715.269 234.327 715.264V715.264ZM263.844 715.264C263.66 715.27 263.452 715.335 263.232 715.467L251.211 722.655C250.428 723.124 249.808 724.234 249.808 725.171V738.532C249.808 739.468 250.428 739.839 251.211 739.37L263.232 732.182C264.015 731.713 264.634 730.603 264.634 729.666V716.305C264.634 715.632 264.314 715.252 263.844 715.265V715.264ZM237.536 720.666C238.072 720.782 238.562 720.923 239.005 721.091C239.449 721.259 239.879 721.466 240.288 721.711C241.369 722.358 242.193 723.094 242.76 723.921C243.327 724.743 243.611 725.62 243.611 726.551C243.611 727.029 243.525 727.406 243.352 727.683C243.179 727.955 242.884 728.184 242.468 728.369L242.042 728.532C241.741 728.654 241.544 728.78 241.451 728.91C241.358 729.034 241.311 729.206 241.311 729.426V729.755L238.912 728.32V727.962C238.912 727.562 238.985 727.252 239.131 727.032C239.278 726.808 239.586 726.597 240.055 726.4L240.481 726.23C240.733 726.127 240.917 725.998 241.032 725.843C241.152 725.69 241.212 725.502 241.212 725.277C241.212 724.936 241.105 724.607 240.893 724.289C240.68 723.967 240.383 723.692 240.002 723.464C239.643 723.25 239.255 723.101 238.839 723.017C238.422 722.929 237.988 722.911 237.536 722.963V720.666ZM259.589 721.395C259.713 721.395 259.829 721.409 259.935 721.437C260.502 721.581 260.786 722.118 260.786 723.05C260.786 723.527 260.699 724.008 260.527 724.492C260.354 724.971 260.059 725.552 259.643 726.235L259.217 726.906C258.916 727.388 258.719 727.75 258.626 727.991C258.533 728.227 258.486 728.455 258.486 728.674V729.003L256.087 730.438V730.08C256.087 729.68 256.16 729.282 256.306 728.888C256.453 728.488 256.76 727.909 257.23 727.15L257.655 726.472C257.908 726.067 258.092 725.718 258.207 725.425C258.327 725.129 258.386 724.869 258.386 724.645C258.386 724.303 258.28 724.101 258.068 724.038C257.855 723.97 257.558 724.05 257.177 724.278C256.818 724.493 256.43 724.808 256.014 725.222C255.597 725.632 255.163 726.133 254.711 726.725V724.428C255.247 723.903 255.737 723.459 256.18 723.097C256.623 722.734 257.051 722.43 257.463 722.184C258.341 721.658 259.05 721.395 259.589 721.395L259.589 721.395ZM238.912 729.403L241.311 730.838V733.442L238.912 732.007V729.403L238.912 729.403ZM258.486 730.086V732.69L256.087 734.124V731.521L258.486 730.086Z" fill="#B28EF8"/>
<g filter="url(#filter19_i_220_10226)">
<rect x="212.368" y="706.404" width="2.07321" height="32.1348" rx="1.03661" fill="#B19ADE"/>
</g>
<circle cx="213.404" cy="743.722" r="2.07321" fill="#B19ADE"/>
<circle cx="213.404" cy="701.221" r="2.07321" fill="#B19ADE"/>
<path d="M32.8333 466C32.8333 467.473 34.0272 468.667 35.5 468.667C36.9728 468.667 38.1667 467.473 38.1667 466C38.1667 464.527 36.9728 463.333 35.5 463.333C34.0272 463.333 32.8333 464.527 32.8333 466ZM99.5 465.5H35.5V466.5H99.5V465.5Z" fill="white"/>
<path d="M105.808 470.672V462.234C105.808 462.234 107.756 462.234 111.652 462.234C112.736 462.234 113.664 462.645 114.436 463.465C115.217 464.285 115.607 465.271 115.607 466.424C115.607 467.615 115.222 468.621 114.45 469.441C113.679 470.262 112.746 470.672 111.652 470.672H105.808ZM106.862 469.617H111.652C112.443 469.617 113.117 469.31 113.674 468.694C114.24 468.079 114.523 467.322 114.523 466.424C114.523 465.564 114.24 464.827 113.674 464.212C113.117 463.597 112.443 463.289 111.652 463.289H106.862V469.617ZM104.753 471.727H111.652C113.039 471.727 114.226 471.214 115.212 470.188C116.198 469.153 116.691 467.898 116.691 466.424C116.691 464.979 116.193 463.743 115.197 462.718C114.211 461.692 113.029 461.18 111.652 461.18H104.753V471.727ZM103.698 472.781V460.125H111.652C113.322 460.125 114.758 460.745 115.959 461.985C117.17 463.216 117.775 464.695 117.775 466.424C117.775 468.191 117.175 469.695 115.974 470.936C114.772 472.166 113.332 472.781 111.652 472.781H103.698ZM102.644 473.836H111.652C112.941 473.836 114.138 473.509 115.241 472.854C116.345 472.2 117.224 471.302 117.878 470.159C118.532 469.017 118.859 467.771 118.859 466.424C118.859 465.105 118.532 463.88 117.878 462.747C117.224 461.614 116.34 460.721 115.227 460.066C114.123 459.402 112.932 459.07 111.652 459.07H102.644V473.836ZM101.589 474.891V458.016H111.652C113.127 458.016 114.499 458.392 115.769 459.144C117.048 459.896 118.063 460.921 118.815 462.22C119.567 463.509 119.943 464.91 119.943 466.424C119.943 467.957 119.567 469.378 118.815 470.687C118.063 471.985 117.048 473.011 115.769 473.763C114.499 474.515 113.127 474.891 111.652 474.891H101.589ZM100.534 475.945H111.652C113.322 475.945 114.875 475.525 116.311 474.686C117.746 473.836 118.889 472.679 119.738 471.214C120.598 469.749 121.027 468.152 121.027 466.424C121.027 464.725 120.598 463.147 119.738 461.692C118.889 460.228 117.741 459.075 116.296 458.235C114.86 457.386 113.312 456.961 111.652 456.961H100.534V475.945ZM111.652 477H99.4795V455.906H111.652C113.508 455.906 115.236 456.38 116.838 457.327C118.449 458.265 119.729 459.544 120.676 461.165C121.633 462.776 122.111 464.529 122.111 466.424C122.111 467.859 121.828 469.231 121.262 470.54C120.705 471.849 119.953 472.977 119.006 473.924C118.068 474.861 116.955 475.608 115.666 476.165C114.377 476.722 113.039 477 111.652 477ZM130.798 455.906H131.853V477H130.798V455.906ZM128.688 455.906H129.743V477H128.688V455.906ZM126.579 455.906H127.634V477H126.579V455.906ZM124.47 455.906H125.524V477H124.47V455.906ZM149.782 463.172L148.933 463.816C148.083 462.762 146.989 462.234 145.651 462.234C144.489 462.234 143.493 462.649 142.663 463.479C141.843 464.3 141.433 465.291 141.433 466.453C141.433 467.615 141.843 468.611 142.663 469.441C143.493 470.262 144.489 470.672 145.651 470.672C146.306 470.672 146.916 470.53 147.482 470.247C148.059 469.964 148.547 469.573 148.947 469.075L149.768 469.764C149.279 470.379 148.674 470.862 147.951 471.214C147.229 471.556 146.462 471.727 145.651 471.727C144.196 471.727 142.951 471.214 141.916 470.188C140.891 469.153 140.378 467.908 140.378 466.453C140.378 464.998 140.891 463.758 141.916 462.732C142.951 461.697 144.196 461.18 145.651 461.18C146.472 461.18 147.243 461.36 147.966 461.722C148.688 462.073 149.294 462.557 149.782 463.172ZM151.423 461.854L150.588 462.498C150.002 461.756 149.274 461.175 148.405 460.755C147.546 460.335 146.628 460.125 145.651 460.125C143.903 460.125 142.409 460.745 141.169 461.985C139.938 463.226 139.323 464.715 139.323 466.453C139.323 468.191 139.938 469.681 141.169 470.921C142.409 472.161 143.903 472.781 145.651 472.781C146.628 472.781 147.551 472.571 148.42 472.151C149.289 471.722 150.017 471.136 150.603 470.394L151.408 471.067C150.725 471.927 149.88 472.605 148.874 473.104C147.868 473.592 146.794 473.836 145.651 473.836C144.313 473.836 143.078 473.509 141.945 472.854C140.812 472.19 139.914 471.292 139.25 470.159C138.596 469.026 138.269 467.791 138.269 466.453C138.269 465.115 138.596 463.88 139.25 462.747C139.914 461.614 140.812 460.721 141.945 460.066C143.078 459.402 144.313 459.07 145.651 459.07C146.794 459.07 147.868 459.319 148.874 459.817C149.89 460.306 150.739 460.984 151.423 461.854ZM153.078 460.535L152.258 461.194C151.467 460.208 150.495 459.432 149.343 458.865C148.19 458.299 146.96 458.016 145.651 458.016C144.509 458.016 143.415 458.24 142.37 458.689C141.335 459.129 140.437 459.729 139.675 460.491C138.923 461.243 138.322 462.142 137.873 463.187C137.434 464.222 137.214 465.311 137.214 466.453C137.214 467.596 137.434 468.689 137.873 469.734C138.322 470.77 138.923 471.668 139.675 472.43C140.437 473.182 141.335 473.782 142.37 474.231C143.415 474.671 144.509 474.891 145.651 474.891C146.96 474.891 148.19 474.607 149.343 474.041C150.495 473.475 151.467 472.698 152.258 471.712L153.049 472.4C152.16 473.504 151.071 474.373 149.782 475.008C148.493 475.633 147.116 475.945 145.651 475.945C144.362 475.945 143.132 475.696 141.96 475.198C140.788 474.69 139.777 474.017 138.928 473.177C138.088 472.327 137.414 471.316 136.906 470.145C136.408 468.973 136.159 467.742 136.159 466.453C136.159 465.164 136.408 463.934 136.906 462.762C137.414 461.59 138.088 460.584 138.928 459.744C139.777 458.895 140.788 458.221 141.96 457.723C143.132 457.215 144.362 456.961 145.651 456.961C147.126 456.961 148.508 457.278 149.797 457.913C151.096 458.548 152.189 459.422 153.078 460.535ZM154.719 459.217L153.869 459.847C152.883 458.626 151.672 457.664 150.236 456.961C148.811 456.258 147.282 455.906 145.651 455.906C144.226 455.906 142.858 456.185 141.55 456.741C140.251 457.298 139.128 458.05 138.181 458.997C137.243 459.935 136.496 461.058 135.939 462.366C135.383 463.665 135.104 465.027 135.104 466.453C135.104 467.879 135.383 469.246 135.939 470.555C136.496 471.854 137.243 472.977 138.181 473.924C139.128 474.861 140.251 475.608 141.55 476.165C142.858 476.722 144.226 477 145.651 477C147.282 477 148.811 476.648 150.236 475.945C151.672 475.242 152.883 474.28 153.869 473.06L154.704 473.704C153.62 475.052 152.287 476.116 150.705 476.897C149.133 477.669 147.448 478.055 145.651 478.055C144.079 478.055 142.575 477.747 141.14 477.132C139.714 476.517 138.483 475.691 137.448 474.656C136.413 473.621 135.588 472.391 134.973 470.965C134.357 469.529 134.05 468.025 134.05 466.453C134.05 464.881 134.357 463.382 134.973 461.956C135.588 460.521 136.413 459.285 137.448 458.25C138.483 457.215 139.714 456.39 141.14 455.774C142.575 455.159 144.079 454.852 145.651 454.852C147.448 454.852 149.138 455.242 150.72 456.023C152.302 456.795 153.635 457.859 154.719 459.217ZM161.999 477H160.944V455.906H161.999V477ZM159.89 477H158.835V455.906H159.89V477ZM157.78 477H156.726V455.906H157.78V477ZM164.108 471.727H174.201V472.781H164.108V473.836H174.201V474.891H164.108V475.945H174.201V477H163.054V455.906H174.201V456.961H164.108V458.016H174.201V459.07H164.108V460.125H174.201V461.18H164.108V463.802H173.615V464.856H164.108V465.911H173.615V466.966H164.108V468.021H173.615V469.075H164.108V471.727ZM179.519 453.797V452.742H195.339V453.797H179.519ZM179.519 455.906V454.852H195.339V455.906H179.519ZM179.519 458.016V456.961H195.339V458.016H191.12V477H190.065V458.016H189.011V477H187.956V458.016H186.901V477H185.847V458.016H184.792V477H183.737V458.016H179.519ZM212.712 466.6C212.712 465.35 212.326 464.383 211.555 463.699C210.783 463.016 209.763 462.674 208.493 462.674C207.419 462.674 206.496 463.045 205.725 463.787C204.953 464.529 204.567 465.418 204.567 466.453C204.567 467.039 204.646 467.566 204.802 468.035C204.958 468.494 205.168 468.88 205.432 469.192C205.705 469.495 206.027 469.749 206.398 469.954C206.77 470.149 207.155 470.291 207.556 470.379C207.966 470.467 208.4 470.511 208.859 470.511C209.973 470.511 210.988 470.237 211.906 469.69V470.745C210.959 471.243 209.938 471.492 208.845 471.492C208.142 471.492 207.478 471.399 206.853 471.214C206.237 471.019 205.676 470.73 205.168 470.35C204.66 469.959 204.255 469.432 203.952 468.768C203.659 468.094 203.513 467.322 203.513 466.453C203.513 465.105 203.986 463.963 204.934 463.025C205.881 462.088 207.067 461.619 208.493 461.619C210.065 461.619 211.335 462.063 212.302 462.952C213.278 463.831 213.767 465.047 213.767 466.6V477H212.712V466.6ZM215.876 466.6V477H214.821V466.6C214.821 464.754 214.23 463.289 213.049 462.205C211.867 461.111 210.349 460.564 208.493 460.564C206.774 460.564 205.339 461.136 204.187 462.278C203.034 463.421 202.458 464.812 202.458 466.453C202.458 467.449 202.629 468.343 202.971 469.134C203.322 469.925 203.796 470.56 204.392 471.038C204.987 471.517 205.651 471.883 206.384 472.137C207.126 472.381 207.907 472.503 208.728 472.503C209.841 472.503 210.9 472.244 211.906 471.727V472.84C210.852 473.279 209.787 473.499 208.713 473.499C207.746 473.499 206.828 473.353 205.959 473.06C205.09 472.757 204.313 472.322 203.63 471.756C202.946 471.18 202.404 470.438 202.004 469.529C201.604 468.611 201.403 467.586 201.403 466.453C201.403 464.529 202.082 462.894 203.439 461.546C204.807 460.188 206.491 459.51 208.493 459.51C209.899 459.51 211.159 459.798 212.272 460.374C213.386 460.94 214.265 461.766 214.909 462.85C215.554 463.934 215.876 465.184 215.876 466.6ZM217.985 466.6V477H216.931V466.6C216.931 464.988 216.56 463.562 215.817 462.322C215.085 461.072 214.079 460.115 212.8 459.451C211.521 458.787 210.085 458.455 208.493 458.455C206.979 458.455 205.598 458.816 204.348 459.539C203.098 460.252 202.116 461.219 201.403 462.439C200.7 463.66 200.349 464.998 200.349 466.453C200.349 467.703 200.578 468.846 201.037 469.881C201.496 470.906 202.111 471.751 202.883 472.415C203.664 473.079 204.548 473.597 205.534 473.968C206.53 474.329 207.57 474.51 208.654 474.51C209.758 474.51 210.842 474.28 211.906 473.821V474.891C210.793 475.311 209.699 475.521 208.625 475.521C206.936 475.521 205.383 475.14 203.967 474.378C202.551 473.616 201.418 472.537 200.568 471.141C199.719 469.744 199.294 468.182 199.294 466.453C199.294 465.223 199.528 464.051 199.997 462.938C200.476 461.824 201.12 460.862 201.931 460.052C202.741 459.241 203.718 458.597 204.86 458.118C206.003 457.64 207.214 457.4 208.493 457.4C210.28 457.4 211.892 457.781 213.327 458.543C214.772 459.305 215.91 460.389 216.74 461.795C217.57 463.201 217.985 464.803 217.985 466.6ZM220.095 466.6V477H219.04V466.6C219.04 464.607 218.576 462.83 217.648 461.268C216.721 459.695 215.456 458.484 213.854 457.635C212.253 456.775 210.466 456.346 208.493 456.346C206.599 456.346 204.865 456.8 203.293 457.708C201.721 458.616 200.485 459.847 199.587 461.399C198.688 462.942 198.239 464.627 198.239 466.453C198.239 467.654 198.43 468.797 198.811 469.881C199.201 470.955 199.729 471.897 200.393 472.708C201.066 473.509 201.838 474.202 202.707 474.788C203.586 475.374 204.528 475.818 205.534 476.121C206.55 476.424 207.58 476.575 208.625 476.575C209.777 476.575 210.871 476.355 211.906 475.916V477C210.822 477.381 209.709 477.571 208.566 477.571C207.385 477.571 206.232 477.405 205.109 477.073C203.996 476.741 202.961 476.253 202.004 475.608C201.057 474.954 200.222 474.188 199.499 473.309C198.776 472.42 198.21 471.385 197.8 470.203C197.39 469.021 197.185 467.771 197.185 466.453C197.185 464.939 197.468 463.499 198.034 462.132C198.61 460.755 199.392 459.568 200.378 458.572C201.374 457.566 202.575 456.771 203.981 456.185C205.397 455.589 206.901 455.291 208.493 455.291C210.114 455.291 211.638 455.564 213.063 456.111C214.489 456.658 215.72 457.42 216.755 458.396C217.79 459.363 218.605 460.555 219.201 461.971C219.797 463.387 220.095 464.93 220.095 466.6ZM222.702 455.906H223.757V477H222.702V455.906ZM229.03 455.906H230.085V471.727H237.863V472.781H230.085V473.836H237.863V474.891H230.085V475.945H237.863V477H229.03V455.906ZM226.921 455.906H227.976V477H226.921V455.906ZM224.812 455.906H225.866V477H224.812V455.906ZM262.355 455.906L256.481 466.541L262.268 477H261.096L255.31 466.541L261.184 455.906H262.355ZM259.997 455.906L254.123 466.541L259.909 477H258.737L252.951 466.541L258.825 455.906H259.997ZM257.639 455.906L251.765 466.541L257.551 477H256.379L250.593 466.541L256.467 455.906H257.639ZM255.28 455.906L249.392 466.541L255.192 477H254.021L248.22 466.541L254.108 455.906H255.28ZM246.521 455.906V477H247.575V455.906H246.521ZM244.411 455.906V477H245.466V455.906H244.411ZM242.302 455.906V477H243.356V455.906H242.302ZM240.192 455.906V477H241.247V455.906H240.192Z" fill="white"/>
<path d="M78.4264 470L72.253 473.935L77.6249 475.385L83.8677 471.043L78.4264 470ZM84.7635 471.549L78.1426 476.034L81.007 482.57L81.4856 482.198L81.7229 481.415C81.5622 481.322 81.4246 481.171 81.3322 480.986C81.2397 480.801 81.1979 480.593 81.2136 480.395C81.2289 480.204 81.2975 480.033 81.4089 479.91C81.5203 479.786 81.6684 479.716 81.8304 479.711C81.8974 479.709 81.9657 479.718 82.0334 479.738C82.0929 479.755 82.1515 479.781 82.208 479.815L82.6533 478.345C82.6588 478.327 82.6654 478.31 82.6731 478.293L82.6764 478.287C82.6818 478.275 82.6878 478.264 82.6943 478.253L82.6994 478.245C82.7058 478.234 82.7128 478.224 82.7201 478.214C82.7295 478.201 82.7394 478.189 82.7501 478.178L82.7538 478.174C82.7634 478.164 82.7735 478.154 82.7841 478.144C82.7957 478.134 82.8079 478.124 82.8205 478.115C82.8289 478.109 82.8378 478.103 82.8466 478.098C82.8515 478.094 82.8564 478.091 82.8615 478.088C82.8707 478.083 82.8801 478.078 82.8896 478.073C82.8946 478.07 82.8997 478.068 82.9048 478.065C82.9129 478.061 82.9211 478.058 82.9295 478.055C82.9365 478.052 82.9436 478.049 82.9508 478.046C82.9589 478.043 82.967 478.041 82.9753 478.038C82.9829 478.036 82.9906 478.033 82.9983 478.031C83.0058 478.029 83.0134 478.028 83.0209 478.026C83.0297 478.024 83.0385 478.022 83.0473 478.02C83.0568 478.019 83.0663 478.018 83.0759 478.017C83.0828 478.016 83.0897 478.015 83.0967 478.015H83.0972L83.0978 478.014L84.9837 477.871C85.0269 477.728 85.1034 477.607 85.2052 477.522C85.307 477.436 85.4305 477.388 85.5628 477.384C85.6299 477.382 85.6982 477.39 85.766 477.41C85.9488 477.464 86.1189 477.594 86.2442 477.775L86.9758 477.72L84.7635 471.549ZM78.3396 471.929C78.5769 471.933 78.778 471.979 78.9089 472.058C79.0397 472.137 79.0922 472.246 79.0574 472.364C79.0175 472.5 78.8654 472.64 78.6347 472.752C78.4039 472.864 78.1134 472.94 77.8269 472.962C77.6851 472.973 77.5486 472.971 77.4251 472.955C77.3016 472.94 77.1937 472.911 77.1074 472.872C77.0211 472.832 76.9581 472.781 76.9221 472.723C76.8861 472.665 76.8778 472.601 76.8976 472.533C76.9173 472.466 76.9648 472.397 77.0373 472.33C77.1099 472.264 77.206 472.201 77.3202 472.145C77.4345 472.09 77.5647 472.043 77.7033 472.007C77.8419 471.971 77.9862 471.946 78.128 471.935C78.2001 471.929 78.271 471.927 78.3396 471.929ZM83.9611 473.101C84.0281 473.099 84.0965 473.108 84.1643 473.127C84.3631 473.185 84.5463 473.333 84.6737 473.538C84.8011 473.743 84.8622 473.989 84.8436 474.221C84.8344 474.336 84.8059 474.444 84.7597 474.54C84.7135 474.635 84.6505 474.715 84.5744 474.777C84.4983 474.838 84.4105 474.878 84.316 474.896C84.2215 474.913 84.1222 474.908 84.0238 474.879C83.9254 474.85 83.8297 474.799 83.7423 474.729C83.6549 474.658 83.5774 474.57 83.5143 474.468C83.4512 474.367 83.4037 474.254 83.3746 474.137C83.3454 474.02 83.3351 473.9 83.3443 473.785C83.3597 473.594 83.4283 473.423 83.5397 473.3C83.6511 473.176 83.7991 473.106 83.9611 473.101ZM72 474.804L74.6357 480.493L79.9211 482.506L77.3418 476.246L72 474.804ZM80.2946 475.673C80.3616 475.671 80.4299 475.68 80.4977 475.699C80.6965 475.757 80.8797 475.905 81.0071 476.11C81.1345 476.315 81.1956 476.561 81.177 476.793C81.1677 476.908 81.1392 477.016 81.093 477.112C81.0468 477.207 80.9839 477.287 80.9078 477.348C80.8316 477.41 80.7438 477.45 80.6494 477.468C80.5549 477.485 80.4556 477.479 80.3572 477.451C80.1584 477.393 79.9751 477.245 79.8477 477.04C79.7203 476.835 79.6592 476.589 79.6778 476.357C79.6932 476.166 79.7618 475.995 79.8732 475.872C79.9846 475.748 80.1326 475.678 80.2946 475.673ZM76.0811 476.322C76.2201 476.315 76.3944 476.388 76.5701 476.527C76.7459 476.666 76.9105 476.861 77.0321 477.073C77.0965 477.186 77.147 477.301 77.1806 477.41C77.2143 477.52 77.2305 477.623 77.2283 477.713C77.226 477.803 77.2055 477.879 77.1677 477.936C77.13 477.993 77.0758 478.03 77.0082 478.045C76.8718 478.075 76.6893 478.013 76.5009 477.874C76.3125 477.734 76.1336 477.528 76.0035 477.3C75.8735 477.073 75.803 476.843 75.8075 476.66C75.8119 476.478 75.891 476.359 76.0273 476.329C76.0445 476.325 76.0624 476.323 76.0811 476.322ZM90.8542 478.326L84.5667 478.804L90.9473 482.788L97.3188 481.943L90.8542 478.326ZM74.6137 478.808C74.7527 478.801 74.927 478.874 75.1028 479.013C75.2785 479.152 75.4432 479.347 75.5648 479.559C75.6948 479.787 75.7654 480.017 75.7609 480.199C75.7564 480.381 75.6773 480.5 75.5409 480.531C75.4045 480.561 75.222 480.499 75.0336 480.359C74.8452 480.22 74.6663 480.013 74.5362 479.786C74.4062 479.558 74.3357 479.328 74.3401 479.146C74.3446 478.964 74.4237 478.845 74.5601 478.815C74.5772 478.811 74.595 478.809 74.6137 478.808ZM83.4407 479.197L81.1109 486.884L87.5955 491.841L90.2399 483.443L83.4407 479.197ZM90.5631 479.754C90.7371 479.757 90.9286 479.78 91.1211 479.821C91.3136 479.863 91.5012 479.922 91.6676 479.992C91.802 480.049 91.9196 480.113 92.0138 480.18C92.108 480.246 92.1769 480.314 92.2165 480.38C92.2561 480.446 92.2657 480.509 92.2447 480.564C92.2237 480.619 92.1726 480.666 92.0942 480.702C92.0159 480.739 91.9118 480.763 91.788 480.775C91.6642 480.786 91.523 480.785 91.3726 480.77C91.2222 480.755 91.0654 480.728 90.9112 480.689C90.757 480.65 90.6085 480.601 90.4741 480.544C90.2027 480.429 90.0052 480.289 89.9252 480.156C89.8451 480.023 89.889 479.907 90.0473 479.834C90.1675 479.778 90.3474 479.75 90.5631 479.754ZM98 482.76L91.2201 483.659L88.5939 492L95.1168 490.416L98 482.76ZM87.8028 483.298C87.882 483.298 87.962 483.314 88.0405 483.345C88.1546 483.39 88.2638 483.467 88.3618 483.571C88.4598 483.675 88.5448 483.804 88.6118 483.951C88.6789 484.098 88.7267 484.26 88.7526 484.427C88.7784 484.594 88.7818 484.764 88.7625 484.926C88.7236 485.254 88.5947 485.533 88.4043 485.7C88.2139 485.867 87.9775 485.91 87.7471 485.818C87.633 485.773 87.5238 485.696 87.4258 485.592C87.3277 485.488 87.2428 485.359 87.1757 485.213C87.1086 485.066 87.0608 484.904 87.035 484.737C87.0091 484.569 87.0057 484.399 87.025 484.237C87.0571 483.967 87.1505 483.729 87.291 483.559C87.4315 483.389 87.6113 483.298 87.8028 483.298ZM96.4451 483.878C96.6281 483.873 96.7798 483.946 96.8755 484.084C96.9879 484.246 97.0145 484.487 96.9496 484.753C96.8846 485.019 96.7334 485.288 96.5291 485.502C96.3248 485.715 96.0843 485.856 95.8604 485.892C95.6365 485.928 95.4476 485.857 95.3352 485.695C95.2228 485.533 95.1961 485.292 95.2611 485.026C95.326 484.76 95.4773 484.491 95.6815 484.277C95.7975 484.156 95.9265 484.057 96.0587 483.988C96.191 483.919 96.323 483.881 96.4451 483.878ZM92.5921 484.41C92.7751 484.405 92.9268 484.478 93.0224 484.616C93.1348 484.778 93.1615 485.019 93.0965 485.284C93.0316 485.55 92.8803 485.82 92.676 486.033C92.4718 486.247 92.2312 486.387 92.0073 486.423C91.7834 486.46 91.5945 486.389 91.4821 486.226C91.3697 486.064 91.3431 485.824 91.4081 485.558C91.4731 485.292 91.6243 485.023 91.8286 484.809C91.9446 484.688 92.0735 484.589 92.2058 484.52C92.338 484.451 92.47 484.413 92.5921 484.41ZM82.8331 485.073C82.9124 485.073 82.9924 485.089 83.0709 485.12C83.185 485.165 83.2942 485.242 83.3922 485.346C83.4902 485.45 83.5752 485.579 83.6422 485.726C83.7093 485.873 83.7571 486.035 83.7829 486.202C83.8088 486.369 83.8122 486.539 83.7929 486.701C83.7736 486.864 83.7321 487.016 83.6706 487.148C83.6091 487.281 83.5289 487.392 83.4346 487.475C83.3403 487.558 83.2338 487.611 83.121 487.631C83.0082 487.652 82.8914 487.639 82.7774 487.593C82.6633 487.548 82.5541 487.471 82.4561 487.367C82.358 487.263 82.2731 487.134 82.206 486.988C82.139 486.841 82.0912 486.679 82.0653 486.512C82.0395 486.344 82.0361 486.175 82.0553 486.012C82.0874 485.742 82.1808 485.504 82.3213 485.334C82.4617 485.164 82.6416 485.073 82.8331 485.073ZM94.7393 488.107C94.9222 488.103 95.0738 488.175 95.1695 488.313C95.2819 488.476 95.3086 488.716 95.2436 488.982C95.1787 489.248 95.0274 489.517 94.8232 489.731C94.6189 489.944 94.3784 490.085 94.1545 490.121C93.9306 490.157 93.7416 490.086 93.6293 489.924C93.5169 489.762 93.4902 489.521 93.5552 489.255C93.6201 488.99 93.7713 488.72 93.9756 488.507C94.0916 488.385 94.2206 488.286 94.3528 488.217C94.4851 488.148 94.6172 488.111 94.7393 488.107ZM90.7945 489.079C90.9775 489.074 91.1291 489.147 91.2247 489.285C91.3371 489.447 91.3638 489.688 91.2989 489.954C91.2339 490.219 91.0827 490.489 90.8784 490.702C90.7773 490.808 90.6662 490.897 90.5514 490.964C90.4367 491.031 90.3206 491.075 90.2097 491.093C90.0988 491.11 89.9954 491.102 89.9053 491.068C89.8152 491.035 89.7401 490.976 89.6845 490.896C89.5721 490.733 89.5455 490.493 89.6104 490.227C89.6754 489.961 89.8266 489.692 90.0309 489.478C90.1469 489.357 90.2759 489.258 90.4081 489.189C90.5404 489.12 90.6724 489.082 90.7945 489.079Z" fill="white"/>
<path d="M269.426 442L263.253 445.935L268.625 447.385L274.868 443.043L269.426 442ZM275.764 443.549L269.143 448.034L272.007 454.57L272.486 454.198L272.723 453.415C272.562 453.322 272.425 453.171 272.332 452.986C272.24 452.801 272.198 452.593 272.214 452.395C272.229 452.204 272.298 452.033 272.409 451.91C272.52 451.786 272.668 451.716 272.83 451.711C272.897 451.709 272.966 451.718 273.033 451.738C273.093 451.755 273.152 451.781 273.208 451.815L273.653 450.345C273.659 450.327 273.665 450.31 273.673 450.293L273.676 450.287C273.682 450.275 273.688 450.264 273.694 450.253L273.699 450.245C273.706 450.234 273.713 450.224 273.72 450.214C273.729 450.201 273.739 450.189 273.75 450.178L273.754 450.174C273.763 450.164 273.774 450.154 273.784 450.144C273.796 450.134 273.808 450.124 273.821 450.115C273.829 450.109 273.838 450.103 273.847 450.098C273.851 450.094 273.856 450.091 273.861 450.088C273.871 450.083 273.88 450.078 273.89 450.073C273.895 450.07 273.9 450.068 273.905 450.065C273.913 450.061 273.921 450.058 273.929 450.055C273.936 450.052 273.944 450.049 273.951 450.046C273.959 450.043 273.967 450.041 273.975 450.038C273.983 450.036 273.991 450.033 273.998 450.031C274.006 450.029 274.013 450.028 274.021 450.026C274.03 450.024 274.038 450.022 274.047 450.02C274.057 450.019 274.066 450.018 274.076 450.017C274.083 450.016 274.09 450.015 274.097 450.015H274.097L274.098 450.014L275.984 449.871C276.027 449.728 276.103 449.607 276.205 449.522C276.307 449.436 276.431 449.388 276.563 449.384C276.63 449.382 276.698 449.39 276.766 449.41C276.949 449.464 277.119 449.594 277.244 449.775L277.976 449.72L275.764 443.549ZM269.34 443.929C269.577 443.933 269.778 443.979 269.909 444.058C270.04 444.137 270.092 444.246 270.057 444.364C270.017 444.5 269.865 444.64 269.635 444.752C269.404 444.864 269.113 444.94 268.827 444.962C268.685 444.973 268.549 444.971 268.425 444.955C268.302 444.94 268.194 444.911 268.107 444.872C268.021 444.832 267.958 444.781 267.922 444.723C267.886 444.665 267.878 444.601 267.898 444.533C267.917 444.466 267.965 444.397 268.037 444.33C268.11 444.264 268.206 444.201 268.32 444.145C268.435 444.09 268.565 444.043 268.703 444.007C268.842 443.971 268.986 443.946 269.128 443.935C269.2 443.929 269.271 443.927 269.34 443.929ZM274.961 445.101C275.028 445.099 275.097 445.108 275.164 445.127C275.363 445.185 275.546 445.333 275.674 445.538C275.801 445.743 275.862 445.989 275.844 446.221C275.834 446.336 275.806 446.444 275.76 446.54C275.713 446.635 275.651 446.715 275.574 446.777C275.498 446.838 275.41 446.878 275.316 446.896C275.222 446.913 275.122 446.908 275.024 446.879C274.925 446.85 274.83 446.799 274.742 446.729C274.655 446.658 274.577 446.57 274.514 446.468C274.451 446.367 274.404 446.254 274.375 446.137C274.345 446.02 274.335 445.9 274.344 445.785C274.36 445.594 274.428 445.423 274.54 445.3C274.651 445.176 274.799 445.106 274.961 445.101ZM263 446.804L265.636 452.493L270.921 454.506L268.342 448.246L263 446.804ZM271.295 447.673C271.362 447.671 271.43 447.68 271.498 447.699C271.697 447.757 271.88 447.905 272.007 448.11C272.134 448.315 272.196 448.561 272.177 448.793C272.168 448.908 272.139 449.016 272.093 449.112C272.047 449.207 271.984 449.287 271.908 449.348C271.832 449.41 271.744 449.45 271.649 449.468C271.555 449.485 271.456 449.479 271.357 449.451C271.158 449.393 270.975 449.245 270.848 449.04C270.72 448.835 270.659 448.589 270.678 448.357C270.693 448.166 270.762 447.995 270.873 447.872C270.985 447.748 271.133 447.678 271.295 447.673ZM267.081 448.322C267.22 448.315 267.394 448.388 267.57 448.527C267.746 448.666 267.91 448.861 268.032 449.073C268.096 449.186 268.147 449.301 268.181 449.41C268.214 449.52 268.23 449.623 268.228 449.713C268.226 449.803 268.205 449.879 268.168 449.936C268.13 449.993 268.076 450.03 268.008 450.045C267.872 450.075 267.689 450.013 267.501 449.874C267.312 449.734 267.134 449.528 267.004 449.3C266.874 449.073 266.803 448.843 266.807 448.66C266.812 448.478 266.891 448.359 267.027 448.329C267.044 448.325 267.062 448.323 267.081 448.322ZM281.854 450.326L275.567 450.804L281.947 454.788L288.319 453.943L281.854 450.326ZM265.614 450.808C265.753 450.801 265.927 450.874 266.103 451.013C266.279 451.152 266.443 451.347 266.565 451.559C266.695 451.787 266.765 452.017 266.761 452.199C266.756 452.381 266.677 452.5 266.541 452.531C266.405 452.561 266.222 452.499 266.034 452.359C265.845 452.22 265.666 452.013 265.536 451.786C265.406 451.558 265.336 451.328 265.34 451.146C265.345 450.964 265.424 450.845 265.56 450.815C265.577 450.811 265.595 450.809 265.614 450.808ZM274.441 451.197L272.111 458.884L278.596 463.841L281.24 455.443L274.441 451.197ZM281.563 451.754C281.737 451.757 281.929 451.78 282.121 451.821C282.314 451.863 282.501 451.922 282.668 451.992C282.802 452.049 282.92 452.113 283.014 452.18C283.108 452.246 283.177 452.314 283.216 452.38C283.256 452.446 283.266 452.509 283.245 452.564C283.224 452.619 283.173 452.666 283.094 452.702C283.016 452.739 282.912 452.763 282.788 452.775C282.664 452.786 282.523 452.785 282.373 452.77C282.222 452.755 282.065 452.728 281.911 452.689C281.757 452.65 281.609 452.601 281.474 452.544C281.203 452.429 281.005 452.289 280.925 452.156C280.845 452.023 280.889 451.907 281.047 451.834C281.168 451.778 281.347 451.75 281.563 451.754ZM289 454.76L282.22 455.659L279.594 464L286.117 462.416L289 454.76ZM278.803 455.298C278.882 455.298 278.962 455.314 279.041 455.345C279.155 455.39 279.264 455.467 279.362 455.571C279.46 455.675 279.545 455.804 279.612 455.951C279.679 456.098 279.727 456.26 279.753 456.427C279.778 456.594 279.782 456.764 279.763 456.926C279.724 457.254 279.595 457.533 279.404 457.7C279.214 457.867 278.977 457.91 278.747 457.818C278.633 457.773 278.524 457.696 278.426 457.592C278.328 457.488 278.243 457.359 278.176 457.213C278.109 457.066 278.061 456.904 278.035 456.737C278.009 456.569 278.006 456.399 278.025 456.237C278.057 455.967 278.151 455.729 278.291 455.559C278.431 455.389 278.611 455.298 278.803 455.298ZM287.445 455.878C287.628 455.873 287.78 455.946 287.875 456.084C287.988 456.246 288.015 456.487 287.95 456.753C287.885 457.019 287.733 457.288 287.529 457.502C287.325 457.715 287.084 457.856 286.86 457.892C286.636 457.928 286.448 457.857 286.335 457.695C286.223 457.533 286.196 457.292 286.261 457.026C286.326 456.76 286.477 456.491 286.682 456.277C286.798 456.156 286.926 456.057 287.059 455.988C287.191 455.919 287.323 455.881 287.445 455.878ZM283.592 456.41C283.775 456.405 283.927 456.478 284.022 456.616C284.135 456.778 284.161 457.019 284.097 457.284C284.032 457.55 283.88 457.82 283.676 458.033C283.472 458.247 283.231 458.387 283.007 458.423C282.783 458.46 282.594 458.389 282.482 458.226C282.37 458.064 282.343 457.824 282.408 457.558C282.473 457.292 282.624 457.023 282.829 456.809C282.945 456.688 283.074 456.589 283.206 456.52C283.338 456.451 283.47 456.413 283.592 456.41ZM273.833 457.073C273.912 457.073 273.992 457.089 274.071 457.12C274.185 457.165 274.294 457.242 274.392 457.346C274.49 457.45 274.575 457.579 274.642 457.726C274.709 457.873 274.757 458.035 274.783 458.202C274.809 458.369 274.812 458.539 274.793 458.701C274.774 458.864 274.732 459.016 274.671 459.148C274.609 459.281 274.529 459.392 274.435 459.475C274.34 459.558 274.234 459.611 274.121 459.631C274.008 459.652 273.891 459.639 273.777 459.593C273.663 459.548 273.554 459.471 273.456 459.367C273.358 459.263 273.273 459.134 273.206 458.988C273.139 458.841 273.091 458.679 273.065 458.512C273.039 458.344 273.036 458.175 273.055 458.012C273.087 457.742 273.181 457.504 273.321 457.334C273.462 457.164 273.642 457.073 273.833 457.073ZM285.739 460.107C285.922 460.103 286.074 460.175 286.169 460.313C286.282 460.476 286.309 460.716 286.244 460.982C286.179 461.248 286.027 461.517 285.823 461.731C285.619 461.944 285.378 462.085 285.154 462.121C284.931 462.157 284.742 462.086 284.629 461.924C284.517 461.762 284.49 461.521 284.555 461.255C284.62 460.99 284.771 460.72 284.976 460.507C285.092 460.385 285.221 460.286 285.353 460.217C285.485 460.148 285.617 460.111 285.739 460.107ZM281.795 461.079C281.977 461.074 282.129 461.147 282.225 461.285C282.337 461.447 282.364 461.688 282.299 461.954C282.234 462.219 282.083 462.489 281.878 462.702C281.777 462.808 281.666 462.897 281.551 462.964C281.437 463.031 281.321 463.075 281.21 463.093C281.099 463.11 280.995 463.102 280.905 463.068C280.815 463.035 280.74 462.976 280.684 462.896C280.572 462.733 280.545 462.493 280.61 462.227C280.675 461.961 280.827 461.692 281.031 461.478C281.147 461.357 281.276 461.258 281.408 461.189C281.54 461.12 281.672 461.082 281.795 461.079Z" fill="white"/>
<path d="M323.667 466C323.667 467.473 322.473 468.667 321 468.667C319.527 468.667 318.333 467.473 318.333 466C318.333 464.527 319.527 463.333 321 463.333C322.473 463.333 323.667 464.527 323.667 466ZM256 465.5H321V466.5H256V465.5Z" fill="white"/>
<path d="M101.553 66L97.053 40.44H103.413L105.833 57.98L106.253 60.78H106.593L107.053 57.98L109.673 41.02H117.333L119.933 57.98L120.373 60.78H120.733L121.173 57.98L123.633 40.44H129.913L125.473 66H116.573L114.353 50.66L113.653 46.16H113.333L112.633 50.66L110.453 66H101.553ZM141.296 66.5C137.723 66.5 135.083 65.7067 133.376 64.12C131.669 62.52 130.816 60.1933 130.816 57.14V55.1C130.816 52.0867 131.616 49.78 133.216 48.18C134.816 46.5667 137.143 45.76 140.196 45.76C142.249 45.76 143.956 46.1133 145.316 46.82C146.689 47.5133 147.716 48.5067 148.396 49.8C149.089 51.0933 149.436 52.6467 149.436 54.46V55.12C149.436 55.6267 149.409 56.1467 149.356 56.68C149.316 57.2 149.256 57.6867 149.176 58.14H143.656C143.709 57.3667 143.743 56.64 143.756 55.96C143.769 55.2667 143.776 54.64 143.776 54.08C143.776 53.2667 143.649 52.5867 143.396 52.04C143.143 51.48 142.749 51.0533 142.216 50.76C141.696 50.4667 141.023 50.32 140.196 50.32C138.969 50.32 138.069 50.6533 137.496 51.32C136.936 51.9733 136.656 52.9067 136.656 54.12V55.92L136.696 56.58V57.98C136.696 58.4867 136.776 58.9667 136.936 59.42C137.109 59.8733 137.403 60.2733 137.816 60.62C138.243 60.9533 138.823 61.22 139.556 61.42C140.303 61.6067 141.249 61.7 142.396 61.7C143.609 61.7 144.776 61.5867 145.896 61.36C147.016 61.12 148.089 60.8 149.116 60.4L148.616 65C147.709 65.4667 146.636 65.8333 145.396 66.1C144.156 66.3667 142.789 66.5 141.296 66.5ZM134.056 58.14V54.36H147.936V58.14H134.056ZM152.767 66V39.58H158.887V66H152.767ZM171.461 66.52C168.341 66.52 166.028 65.7 164.521 64.06C163.015 62.42 162.261 60.1133 162.261 57.14V55.1C162.261 52.18 163.015 49.9 164.521 48.26C166.028 46.62 168.335 45.8 171.441 45.8C172.241 45.8 172.988 45.86 173.681 45.98C174.375 46.0867 175.015 46.24 175.601 46.44C176.188 46.64 176.701 46.8533 177.141 47.08L177.641 52.14C176.988 51.7667 176.268 51.46 175.481 51.22C174.695 50.9667 173.808 50.84 172.821 50.84C171.275 50.84 170.155 51.2133 169.461 51.96C168.768 52.7067 168.421 53.7867 168.421 55.2V56.9C168.421 58.34 168.788 59.4467 169.521 60.22C170.255 60.9933 171.401 61.38 172.961 61.38C173.935 61.38 174.808 61.2667 175.581 61.04C176.368 60.8 177.115 60.4933 177.821 60.12L177.341 65.2C176.648 65.5733 175.795 65.8867 174.781 66.14C173.768 66.3933 172.661 66.52 171.461 66.52ZM189.46 66.56C186.286 66.56 183.886 65.7733 182.26 64.2C180.646 62.6133 179.84 60.3867 179.84 57.52V54.94C179.84 52.0333 180.653 49.78 182.28 48.18C183.906 46.5667 186.3 45.76 189.46 45.76C192.62 45.76 195.006 46.5667 196.62 48.18C198.246 49.78 199.06 52.0333 199.06 54.94V57.52C199.06 60.3867 198.253 62.6133 196.64 64.2C195.026 65.7733 192.633 66.56 189.46 66.56ZM189.46 61.74C190.593 61.74 191.453 61.4 192.04 60.72C192.64 60.0267 192.94 59.0467 192.94 57.78V54.68C192.94 53.3467 192.64 52.3333 192.04 51.64C191.453 50.9467 190.593 50.6 189.46 50.6C188.326 50.6 187.46 50.9467 186.86 51.64C186.273 52.3333 185.98 53.3467 185.98 54.68V57.78C185.98 59.0467 186.273 60.0267 186.86 60.72C187.46 61.4 188.326 61.74 189.46 61.74ZM226.515 66V54.28C226.515 53.5867 226.428 52.9933 226.255 52.5C226.095 51.9933 225.815 51.6067 225.415 51.34C225.028 51.0733 224.488 50.94 223.795 50.94C223.208 50.94 222.695 51.0533 222.255 51.28C221.815 51.4933 221.448 51.7933 221.155 52.18C220.861 52.5533 220.641 52.98 220.495 53.46L219.915 50.6H220.455C220.668 49.72 221.008 48.9267 221.475 48.22C221.941 47.5 222.588 46.9333 223.415 46.52C224.241 46.0933 225.301 45.88 226.595 45.88C227.995 45.88 229.135 46.16 230.015 46.72C230.908 47.2667 231.568 48.0933 231.995 49.2C232.421 50.2933 232.635 51.66 232.635 53.3V66H226.515ZM202.435 66V46.34H208.515L208.315 51.64L208.555 51.84V66H202.435ZM214.475 66V54.28C214.475 53.5867 214.388 52.9933 214.215 52.5C214.055 51.9933 213.775 51.6067 213.375 51.34C212.975 51.0733 212.435 50.94 211.755 50.94C211.155 50.94 210.635 51.0533 210.195 51.28C209.755 51.4933 209.388 51.7933 209.095 52.18C208.815 52.5533 208.601 52.98 208.455 53.46L207.515 50.6H208.555C208.755 49.7067 209.081 48.9067 209.535 48.2C210.001 47.4933 210.641 46.9333 211.455 46.52C212.268 46.0933 213.295 45.88 214.535 45.88C216.361 45.88 217.735 46.3533 218.655 47.3C219.588 48.2333 220.175 49.5933 220.415 51.38C220.455 51.6467 220.495 51.9733 220.535 52.36C220.575 52.7467 220.595 53.0933 220.595 53.4V66H214.475ZM246.296 66.5C242.723 66.5 240.083 65.7067 238.376 64.12C236.669 62.52 235.816 60.1933 235.816 57.14V55.1C235.816 52.0867 236.616 49.78 238.216 48.18C239.816 46.5667 242.143 45.76 245.196 45.76C247.249 45.76 248.956 46.1133 250.316 46.82C251.689 47.5133 252.716 48.5067 253.396 49.8C254.089 51.0933 254.436 52.6467 254.436 54.46V55.12C254.436 55.6267 254.409 56.1467 254.356 56.68C254.316 57.2 254.256 57.6867 254.176 58.14H248.656C248.709 57.3667 248.743 56.64 248.756 55.96C248.769 55.2667 248.776 54.64 248.776 54.08C248.776 53.2667 248.649 52.5867 248.396 52.04C248.143 51.48 247.749 51.0533 247.216 50.76C246.696 50.4667 246.023 50.32 245.196 50.32C243.969 50.32 243.069 50.6533 242.496 51.32C241.936 51.9733 241.656 52.9067 241.656 54.12V55.92L241.696 56.58V57.98C241.696 58.4867 241.776 58.9667 241.936 59.42C242.109 59.8733 242.403 60.2733 242.816 60.62C243.243 60.9533 243.823 61.22 244.556 61.42C245.303 61.6067 246.249 61.7 247.396 61.7C248.609 61.7 249.776 61.5867 250.896 61.36C252.016 61.12 253.089 60.8 254.116 60.4L253.616 65C252.709 65.4667 251.636 65.8333 250.396 66.1C249.156 66.3667 247.789 66.5 246.296 66.5ZM239.056 58.14V54.36H252.936V58.14H239.056Z" fill="black"/>
</g>
<defs>
<filter id="filter0_d_220_10226" x="-3.5" y="219.5" width="391" height="589" filterUnits="userSpaceOnUse" color-interpolation-filters="sRGB">
<feFlood flood-opacity="0" result="BackgroundImageFix"/>
<feColorMatrix in="SourceAlpha" type="matrix" values="0 0 0 0 0 0 0 0 0 0 0 0 0 0 0 0 0 0 127 0" result="hardAlpha"/>
<feOffset dy="4"/>
<feGaussianBlur stdDeviation="2.25"/>
<feComposite in2="hardAlpha" operator="out"/>
<feColorMatrix type="matrix" values="0 0 0 0 0 0 0 0 0 0 0 0 0 0 0 0 0 0 0.25 0"/>
<feBlend mode="normal" in2="BackgroundImageFix" result="effect1_dropShadow_220_10226"/>
<feBlend mode="normal" in="SourceGraphic" in2="effect1_dropShadow_220_10226" result="shape"/>
</filter>
<filter id="filter1_d_220_10226" x="-31.9458" y="114" width="407.888" height="554.54" filterUnits="userSpaceOnUse" color-interpolation-filters="sRGB">
<feFlood flood-opacity="0" result="BackgroundImageFix"/>
<feColorMatrix in="SourceAlpha" type="matrix" values="0 0 0 0 0 0 0 0 0 0 0 0 0 0 0 0 0 0 127 0" result="hardAlpha"/>
<feOffset dy="4"/>
<feGaussianBlur stdDeviation="2.5"/>
<feComposite in2="hardAlpha" operator="out"/>
<feColorMatrix type="matrix" values="0 0 0 0 0 0 0 0 0 0 0 0 0 0 0 0 0 0 0.25 0"/>
<feBlend mode="normal" in2="BackgroundImageFix" result="effect1_dropShadow_220_10226"/>
<feBlend mode="normal" in="SourceGraphic" in2="effect1_dropShadow_220_10226" result="shape"/>
</filter>
<filter id="filter2_d_220_10226" x="-44.2" y="-17.2" width="368.4" height="398.4" filterUnits="userSpaceOnUse" color-interpolation-filters="sRGB">
<feFlood flood-opacity="0" result="BackgroundImageFix"/>
<feColorMatrix in="SourceAlpha" type="matrix" values="0 0 0 0 0 0 0 0 0 0 0 0 0 0 0 0 0 0 127 0" result="hardAlpha"/>
<feOffset dy="4"/>
<feGaussianBlur stdDeviation="3.1"/>
<feComposite in2="hardAlpha" operator="out"/>
<feColorMatrix type="matrix" values="0 0 0 0 0 0 0 0 0 0 0 0 0 0 0 0 0 0 0.25 0"/>
<feBlend mode="normal" in2="BackgroundImageFix" result="effect1_dropShadow_220_10226"/>
<feBlend mode="normal" in="SourceGraphic" in2="effect1_dropShadow_220_10226" result="shape"/>
</filter>
<filter id="filter3_i_220_10226" x="40" y="111" width="279" height="283" filterUnits="userSpaceOnUse" color-interpolation-filters="sRGB">
<feFlood flood-opacity="0" result="BackgroundImageFix"/>
<feBlend mode="normal" in="SourceGraphic" in2="BackgroundImageFix" result="shape"/>
<feColorMatrix in="SourceAlpha" type="matrix" values="0 0 0 0 0 0 0 0 0 0 0 0 0 0 0 0 0 0 127 0" result="hardAlpha"/>
<feOffset dy="4"/>
<feGaussianBlur stdDeviation="2"/>
<feComposite in2="hardAlpha" operator="arithmetic" k2="-1" k3="1"/>
<feColorMatrix type="matrix" values="0 0 0 0 0 0 0 0 0 0 0 0 0 0 0 0 0 0 0.25 0"/>
<feBlend mode="normal" in2="shape" result="effect1_innerShadow_220_10226"/>
</filter>
<filter id="filter4_d_220_10226" x="28.5" y="103.5" width="302" height="302" filterUnits="userSpaceOnUse" color-interpolation-filters="sRGB">
<feFlood flood-opacity="0" result="BackgroundImageFix"/>
<feColorMatrix in="SourceAlpha" type="matrix" values="0 0 0 0 0 0 0 0 0 0 0 0 0 0 0 0 0 0 127 0" result="hardAlpha"/>
<feOffset dy="4"/>
<feGaussianBlur stdDeviation="2"/>
<feComposite in2="hardAlpha" operator="out"/>
<feColorMatrix type="matrix" values="0 0 0 0 0 0 0 0 0 0 0 0 0 0 0 0 0 0 0.25 0"/>
<feBlend mode="normal" in2="BackgroundImageFix" result="effect1_dropShadow_220_10226"/>
<feBlend mode="normal" in="SourceGraphic" in2="effect1_dropShadow_220_10226" result="shape"/>
</filter>
<filter id="filter5_f_220_10226" x="35.95" y="106.95" width="287.1" height="287.1" filterUnits="userSpaceOnUse" color-interpolation-filters="sRGB">
<feFlood flood-opacity="0" result="BackgroundImageFix"/>
<feBlend mode="normal" in="SourceGraphic" in2="BackgroundImageFix" result="shape"/>
<feGaussianBlur stdDeviation="1.4" result="effect1_foregroundBlur_220_10226"/>
</filter>
<filter id="filter6_d_220_10226" x="57" y="131" width="246" height="246" filterUnits="userSpaceOnUse" color-interpolation-filters="sRGB">
<feFlood flood-opacity="0" result="BackgroundImageFix"/>
<feColorMatrix in="SourceAlpha" type="matrix" values="0 0 0 0 0 0 0 0 0 0 0 0 0 0 0 0 0 0 127 0" result="hardAlpha"/>
<feOffset dy="4"/>
<feGaussianBlur stdDeviation="2"/>
<feComposite in2="hardAlpha" operator="out"/>
<feColorMatrix type="matrix" values="0 0 0 0 0 0 0 0 0 0 0 0 0 0 0 0 0 0 0.25 0"/>
<feBlend mode="normal" in2="BackgroundImageFix" result="effect1_dropShadow_220_10226"/>
<feBlend mode="normal" in="SourceGraphic" in2="effect1_dropShadow_220_10226" result="shape"/>
</filter>
<filter id="filter7_d_220_10226" x="20" y="434" width="319" height="347" filterUnits="userSpaceOnUse" color-interpolation-filters="sRGB">
<feFlood flood-opacity="0" result="BackgroundImageFix"/>
<feColorMatrix in="SourceAlpha" type="matrix" values="0 0 0 0 0 0 0 0 0 0 0 0 0 0 0 0 0 0 127 0" result="hardAlpha"/>
<feOffset dy="4"/>
<feGaussianBlur stdDeviation="2"/>
<feComposite in2="hardAlpha" operator="out"/>
<feColorMatrix type="matrix" values="0 0 0 0 0 0 0 0 0 0 0 0 0 0 0 0 0 0 0.25 0"/>
<feBlend mode="normal" in2="BackgroundImageFix" result="effect1_dropShadow_220_10226"/>
<feBlend mode="normal" in="SourceGraphic" in2="effect1_dropShadow_220_10226" result="shape"/>
</filter>
<filter id="filter8_d_220_10226" x="80.4027" y="514" width="61.9036" height="61.9033" filterUnits="userSpaceOnUse" color-interpolation-filters="sRGB">
<feFlood flood-opacity="0" result="BackgroundImageFix"/>
<feColorMatrix in="SourceAlpha" type="matrix" values="0 0 0 0 0 0 0 0 0 0 0 0 0 0 0 0 0 0 127 0" result="hardAlpha"/>
<feOffset dy="4"/>
<feGaussianBlur stdDeviation="2"/>
<feComposite in2="hardAlpha" operator="out"/>
<feColorMatrix type="matrix" values="0 0 0 0 0 0 0 0 0 0 0 0 0 0 0 0 0 0 0.25 0"/>
<feBlend mode="normal" in2="BackgroundImageFix" result="effect1_dropShadow_220_10226"/>
<feBlend mode="normal" in="SourceGraphic" in2="effect1_dropShadow_220_10226" result="shape"/>
</filter>
<filter id="filter9_i_220_10226" x="74.0366" y="525.404" width="2.07324" height="34.1348" filterUnits="userSpaceOnUse" color-interpolation-filters="sRGB">
<feFlood flood-opacity="0" result="BackgroundImageFix"/>
<feBlend mode="normal" in="SourceGraphic" in2="BackgroundImageFix" result="shape"/>
<feColorMatrix in="SourceAlpha" type="matrix" values="0 0 0 0 0 0 0 0 0 0 0 0 0 0 0 0 0 0 127 0" result="hardAlpha"/>
<feMorphology radius="2" operator="dilate" in="SourceAlpha" result="effect1_innerShadow_220_10226"/>
<feOffset dy="4"/>
<feGaussianBlur stdDeviation="2"/>
<feComposite in2="hardAlpha" operator="arithmetic" k2="-1" k3="1"/>
<feColorMatrix type="matrix" values="0 0 0 0 0 0 0 0 0 0 0 0 0 0 0 0 0 0 0.25 0"/>
<feBlend mode="normal" in2="shape" result="effect1_innerShadow_220_10226"/>
</filter>
<filter id="filter10_d_220_10226" x="218.403" y="514" width="61.9036" height="61.9033" filterUnits="userSpaceOnUse" color-interpolation-filters="sRGB">
<feFlood flood-opacity="0" result="BackgroundImageFix"/>
<feColorMatrix in="SourceAlpha" type="matrix" values="0 0 0 0 0 0 0 0 0 0 0 0 0 0 0 0 0 0 127 0" result="hardAlpha"/>
<feOffset dy="4"/>
<feGaussianBlur stdDeviation="2"/>
<feComposite in2="hardAlpha" operator="out"/>
<feColorMatrix type="matrix" values="0 0 0 0 0 0 0 0 0 0 0 0 0 0 0 0 0 0 0.25 0"/>
<feBlend mode="normal" in2="BackgroundImageFix" result="effect1_dropShadow_220_10226"/>
<feBlend mode="normal" in="SourceGraphic" in2="effect1_dropShadow_220_10226" result="shape"/>
</filter>
<filter id="filter11_i_220_10226" x="212.037" y="525.404" width="2.07324" height="34.1348" filterUnits="userSpaceOnUse" color-interpolation-filters="sRGB">
<feFlood flood-opacity="0" result="BackgroundImageFix"/>
<feBlend mode="normal" in="SourceGraphic" in2="BackgroundImageFix" result="shape"/>
<feColorMatrix in="SourceAlpha" type="matrix" values="0 0 0 0 0 0 0 0 0 0 0 0 0 0 0 0 0 0 127 0" result="hardAlpha"/>
<feMorphology radius="2" operator="dilate" in="SourceAlpha" result="effect1_innerShadow_220_10226"/>
<feOffset dy="4"/>
<feGaussianBlur stdDeviation="2"/>
<feComposite in2="hardAlpha" operator="arithmetic" k2="-1" k3="1"/>
<feColorMatrix type="matrix" values="0 0 0 0 0 0 0 0 0 0 0 0 0 0 0 0 0 0 0.25 0"/>
<feBlend mode="normal" in2="shape" result="effect1_innerShadow_220_10226"/>
</filter>
<filter id="filter12_d_220_10226" x="79.4027" y="604" width="61.9036" height="61.9033" filterUnits="userSpaceOnUse" color-interpolation-filters="sRGB">
<feFlood flood-opacity="0" result="BackgroundImageFix"/>
<feColorMatrix in="SourceAlpha" type="matrix" values="0 0 0 0 0 0 0 0 0 0 0 0 0 0 0 0 0 0 127 0" result="hardAlpha"/>
<feOffset dy="4"/>
<feGaussianBlur stdDeviation="2"/>
<feComposite in2="hardAlpha" operator="out"/>
<feColorMatrix type="matrix" values="0 0 0 0 0 0 0 0 0 0 0 0 0 0 0 0 0 0 0.25 0"/>
<feBlend mode="normal" in2="BackgroundImageFix" result="effect1_dropShadow_220_10226"/>
<feBlend mode="normal" in="SourceGraphic" in2="effect1_dropShadow_220_10226" result="shape"/>
</filter>
<filter id="filter13_i_220_10226" x="73.0366" y="615.404" width="2.07324" height="34.1348" filterUnits="userSpaceOnUse" color-interpolation-filters="sRGB">
<feFlood flood-opacity="0" result="BackgroundImageFix"/>
<feBlend mode="normal" in="SourceGraphic" in2="BackgroundImageFix" result="shape"/>
<feColorMatrix in="SourceAlpha" type="matrix" values="0 0 0 0 0 0 0 0 0 0 0 0 0 0 0 0 0 0 127 0" result="hardAlpha"/>
<feMorphology radius="2" operator="dilate" in="SourceAlpha" result="effect1_innerShadow_220_10226"/>
<feOffset dy="4"/>
<feGaussianBlur stdDeviation="2"/>
<feComposite in2="hardAlpha" operator="arithmetic" k2="-1" k3="1"/>
<feColorMatrix type="matrix" values="0 0 0 0 0 0 0 0 0 0 0 0 0 0 0 0 0 0 0.25 0"/>
<feBlend mode="normal" in2="shape" result="effect1_innerShadow_220_10226"/>
</filter>
<filter id="filter14_d_220_10226" x="79.4027" y="695" width="61.9036" height="61.9033" filterUnits="userSpaceOnUse" color-interpolation-filters="sRGB">
<feFlood flood-opacity="0" result="BackgroundImageFix"/>
<feColorMatrix in="SourceAlpha" type="matrix" values="0 0 0 0 0 0 0 0 0 0 0 0 0 0 0 0 0 0 127 0" result="hardAlpha"/>
<feOffset dy="4"/>
<feGaussianBlur stdDeviation="2"/>
<feComposite in2="hardAlpha" operator="out"/>
<feColorMatrix type="matrix" values="0 0 0 0 0 0 0 0 0 0 0 0 0 0 0 0 0 0 0.25 0"/>
<feBlend mode="normal" in2="BackgroundImageFix" result="effect1_dropShadow_220_10226"/>
<feBlend mode="normal" in="SourceGraphic" in2="effect1_dropShadow_220_10226" result="shape"/>
</filter>
<filter id="filter15_i_220_10226" x="73.0366" y="706.404" width="2.07324" height="34.1348" filterUnits="userSpaceOnUse" color-interpolation-filters="sRGB">
<feFlood flood-opacity="0" result="BackgroundImageFix"/>
<feBlend mode="normal" in="SourceGraphic" in2="BackgroundImageFix" result="shape"/>
<feColorMatrix in="SourceAlpha" type="matrix" values="0 0 0 0 0 0 0 0 0 0 0 0 0 0 0 0 0 0 127 0" result="hardAlpha"/>
<feMorphology radius="2" operator="dilate" in="SourceAlpha" result="effect1_innerShadow_220_10226"/>
<feOffset dy="4"/>
<feGaussianBlur stdDeviation="2"/>
<feComposite in2="hardAlpha" operator="arithmetic" k2="-1" k3="1"/>
<feColorMatrix type="matrix" values="0 0 0 0 0 0 0 0 0 0 0 0 0 0 0 0 0 0 0.25 0"/>
<feBlend mode="normal" in2="shape" result="effect1_innerShadow_220_10226"/>
</filter>
<filter id="filter16_d_220_10226" x="218.133" y="604" width="61.9036" height="61.9033" filterUnits="userSpaceOnUse" color-interpolation-filters="sRGB">
<feFlood flood-opacity="0" result="BackgroundImageFix"/>
<feColorMatrix in="SourceAlpha" type="matrix" values="0 0 0 0 0 0 0 0 0 0 0 0 0 0 0 0 0 0 127 0" result="hardAlpha"/>
<feOffset dy="4"/>
<feGaussianBlur stdDeviation="2"/>
<feComposite in2="hardAlpha" operator="out"/>
<feColorMatrix type="matrix" values="0 0 0 0 0 0 0 0 0 0 0 0 0 0 0 0 0 0 0.25 0"/>
<feBlend mode="normal" in2="BackgroundImageFix" result="effect1_dropShadow_220_10226"/>
<feBlend mode="normal" in="SourceGraphic" in2="effect1_dropShadow_220_10226" result="shape"/>
</filter>
<filter id="filter17_i_220_10226" x="212.368" y="615.404" width="2.07324" height="34.1348" filterUnits="userSpaceOnUse" color-interpolation-filters="sRGB">
<feFlood flood-opacity="0" result="BackgroundImageFix"/>
<feBlend mode="normal" in="SourceGraphic" in2="BackgroundImageFix" result="shape"/>
<feColorMatrix in="SourceAlpha" type="matrix" values="0 0 0 0 0 0 0 0 0 0 0 0 0 0 0 0 0 0 127 0" result="hardAlpha"/>
<feMorphology radius="2" operator="dilate" in="SourceAlpha" result="effect1_innerShadow_220_10226"/>
<feOffset dy="4"/>
<feGaussianBlur stdDeviation="2"/>
<feComposite in2="hardAlpha" operator="arithmetic" k2="-1" k3="1"/>
<feColorMatrix type="matrix" values="0 0 0 0 0 0 0 0 0 0 0 0 0 0 0 0 0 0 0.25 0"/>
<feBlend mode="normal" in2="shape" result="effect1_innerShadow_220_10226"/>
</filter>
<filter id="filter18_d_220_10226" x="218.133" y="695" width="61.9036" height="61.9033" filterUnits="userSpaceOnUse" color-interpolation-filters="sRGB">
<feFlood flood-opacity="0" result="BackgroundImageFix"/>
<feColorMatrix in="SourceAlpha" type="matrix" values="0 0 0 0 0 0 0 0 0 0 0 0 0 0 0 0 0 0 127 0" result="hardAlpha"/>
<feOffset dy="4"/>
<feGaussianBlur stdDeviation="2"/>
<feComposite in2="hardAlpha" operator="out"/>
<feColorMatrix type="matrix" values="0 0 0 0 0 0 0 0 0 0 0 0 0 0 0 0 0 0 0.25 0"/>
<feBlend mode="normal" in2="BackgroundImageFix" result="effect1_dropShadow_220_10226"/>
<feBlend mode="normal" in="SourceGraphic" in2="effect1_dropShadow_220_10226" result="shape"/>
</filter>
<filter id="filter19_i_220_10226" x="212.368" y="706.404" width="2.07324" height="34.1348" filterUnits="userSpaceOnUse" color-interpolation-filters="sRGB">
<feFlood flood-opacity="0" result="BackgroundImageFix"/>
<feBlend mode="normal" in="SourceGraphic" in2="BackgroundImageFix" result="shape"/>
<feColorMatrix in="SourceAlpha" type="matrix" values="0 0 0 0 0 0 0 0 0 0 0 0 0 0 0 0 0 0 127 0" result="hardAlpha"/>
<feMorphology radius="2" operator="dilate" in="SourceAlpha" result="effect1_innerShadow_220_10226"/>
<feOffset dy="4"/>
<feGaussianBlur stdDeviation="2"/>
<feComposite in2="hardAlpha" operator="arithmetic" k2="-1" k3="1"/>
<feColorMatrix type="matrix" values="0 0 0 0 0 0 0 0 0 0 0 0 0 0 0 0 0 0 0.25 0"/>
<feBlend mode="normal" in2="shape" result="effect1_innerShadow_220_10226"/>
</filter>
<linearGradient id="paint0_linear_220_10226" x1="147.198" y1="198.806" x2="311.803" y2="833.867" gradientUnits="userSpaceOnUse">
<stop stop-color="white"/>
<stop offset="1" stop-color="#FFD6E1"/>
</linearGradient>
<linearGradient id="paint1_linear_220_10226" x1="354.655" y1="639.009" x2="-38.2478" y2="184.691" gradientUnits="userSpaceOnUse">
<stop stop-color="white"/>
<stop offset="1" stop-color="#EEC8F9"/>
</linearGradient>
<linearGradient id="paint2_linear_220_10226" x1="-52.1527" y1="-15.7846" x2="216.866" y2="294.692" gradientUnits="userSpaceOnUse">
<stop stop-color="#FCCBC9"/>
<stop offset="1" stop-color="#F5E9ED"/>
</linearGradient>
<linearGradient id="paint3_linear_220_10226" x1="40" y1="250.5" x2="319" y2="250.5" gradientUnits="userSpaceOnUse">
<stop stop-color="#B28EF8"/>
<stop offset="1" stop-color="#F476E5"/>
</linearGradient>
<linearGradient id="paint4_linear_220_10226" x1="96" y1="250.5" x2="263" y2="250.5" gradientUnits="userSpaceOnUse">
<stop stop-color="#B28EF8"/>
<stop offset="1" stop-color="#F476E5"/>
</linearGradient>
<linearGradient id="paint5_linear_220_10226" x1="84.4027" y1="540.952" x2="138.306" y2="540.952" gradientUnits="userSpaceOnUse">
<stop stop-color="#B28EF8"/>
<stop offset="1" stop-color="#F476E5"/>
</linearGradient>
<linearGradient id="paint6_linear_220_10226" x1="222.403" y1="540.952" x2="276.306" y2="540.952" gradientUnits="userSpaceOnUse">
<stop stop-color="#B28EF8"/>
<stop offset="1" stop-color="#F476E5"/>
</linearGradient>
<linearGradient id="paint7_linear_220_10226" x1="83.4027" y1="630.952" x2="137.306" y2="630.952" gradientUnits="userSpaceOnUse">
<stop stop-color="#B28EF8"/>
<stop offset="1" stop-color="#F476E5"/>
</linearGradient>
<linearGradient id="paint8_linear_220_10226" x1="83.4027" y1="721.952" x2="137.306" y2="721.952" gradientUnits="userSpaceOnUse">
<stop stop-color="#B28EF8"/>
<stop offset="1" stop-color="#F476E5"/>
</linearGradient>
<linearGradient id="paint9_linear_220_10226" x1="222.133" y1="630.952" x2="276.037" y2="630.952" gradientUnits="userSpaceOnUse">
<stop stop-color="#B28EF8"/>
<stop offset="1" stop-color="#F476E5"/>
</linearGradient>
<linearGradient id="paint10_linear_220_10226" x1="222.133" y1="721.952" x2="276.037" y2="721.952" gradientUnits="userSpaceOnUse">
<stop stop-color="#B28EF8"/>
<stop offset="1" stop-color="#F476E5"/>
</linearGradient>
<clipPath id="clip0_220_10226">
<rect width="360" height="800" fill="white"/>
</clipPath>
</defs>
</svg>
