<svg width="252" height="50" viewBox="0 0 252 50" fill="none" xmlns="http://www.w3.org/2000/svg">
<path d="M33.8076 28.6719V20.2344C33.8076 20.2344 35.7559 20.2344 39.6523 20.2344C40.7363 20.2344 41.6641 20.6445 42.4355 21.4648C43.2168 22.2852 43.6074 23.2715 43.6074 24.4238C43.6074 25.6152 43.2217 26.6211 42.4502 27.4414C41.6787 28.2617 40.7461 28.6719 39.6523 28.6719H33.8076ZM34.8623 27.6172H39.6523C40.4434 27.6172 41.1172 27.3096 41.6738 26.6943C42.2402 26.0791 42.5234 25.3223 42.5234 24.4238C42.5234 23.5645 42.2402 22.8271 41.6738 22.2119C41.1172 21.5967 40.4434 21.2891 39.6523 21.2891H34.8623V27.6172ZM32.7529 29.7266H39.6523C41.0391 29.7266 42.2256 29.2139 43.2119 28.1885C44.1982 27.1533 44.6914 25.8984 44.6914 24.4238C44.6914 22.9785 44.1934 21.7432 43.1973 20.7178C42.2109 19.6924 41.0293 19.1797 39.6523 19.1797H32.7529V29.7266ZM31.6982 30.7812V18.125H39.6523C41.3223 18.125 42.7578 18.7451 43.959 19.9854C45.1699 21.2158 45.7754 22.6953 45.7754 24.4238C45.7754 26.1914 45.1748 27.6953 43.9736 28.9355C42.7725 30.166 41.332 30.7812 39.6523 30.7812H31.6982ZM30.6436 31.8359H39.6523C40.9414 31.8359 42.1377 31.5088 43.2412 30.8545C44.3447 30.2002 45.2236 29.3018 45.8779 28.1592C46.5322 27.0166 46.8594 25.7715 46.8594 24.4238C46.8594 23.1055 46.5322 21.8799 45.8779 20.7471C45.2236 19.6143 44.3398 18.7207 43.2266 18.0664C42.123 17.4023 40.9316 17.0703 39.6523 17.0703H30.6436V31.8359ZM29.5889 32.8906V16.0156H39.6523C41.127 16.0156 42.499 16.3916 43.7686 17.1436C45.0479 17.8955 46.0635 18.9209 46.8154 20.2197C47.5674 21.5088 47.9434 22.9102 47.9434 24.4238C47.9434 25.957 47.5674 27.3779 46.8154 28.6865C46.0635 29.9854 45.0479 31.0107 43.7686 31.7627C42.499 32.5146 41.127 32.8906 39.6523 32.8906H29.5889ZM28.5342 33.9453H39.6523C41.3223 33.9453 42.875 33.5254 44.3105 32.6855C45.7461 31.8359 46.8887 30.6787 47.7383 29.2139C48.5977 27.749 49.0273 26.1523 49.0273 24.4238C49.0273 22.7246 48.5977 21.1475 47.7383 19.6924C46.8887 18.2275 45.7412 17.0752 44.2959 16.2354C42.8604 15.3857 41.3125 14.9609 39.6523 14.9609H28.5342V33.9453ZM39.6523 35H27.4795V13.9062H39.6523C41.5078 13.9062 43.2363 14.3799 44.8379 15.3271C46.4492 16.2646 47.7285 17.5439 48.6758 19.165C49.6328 20.7764 50.1113 22.5293 50.1113 24.4238C50.1113 25.8594 49.8281 27.2314 49.2617 28.54C48.7051 29.8486 47.9531 30.9766 47.0059 31.9238C46.0684 32.8613 44.9551 33.6084 43.666 34.165C42.377 34.7217 41.0391 35 39.6523 35ZM58.7979 13.9062H59.8525V35H58.7979V13.9062ZM56.6885 13.9062H57.7432V35H56.6885V13.9062ZM54.5791 13.9062H55.6338V35H54.5791V13.9062ZM52.4697 13.9062H53.5244V35H52.4697V13.9062ZM77.7822 21.1719L76.9326 21.8164C76.083 20.7617 74.9893 20.2344 73.6514 20.2344C72.4893 20.2344 71.4932 20.6494 70.6631 21.4795C69.8428 22.2998 69.4326 23.291 69.4326 24.4531C69.4326 25.6152 69.8428 26.6113 70.6631 27.4414C71.4932 28.2617 72.4893 28.6719 73.6514 28.6719C74.3057 28.6719 74.916 28.5303 75.4824 28.2471C76.0586 27.9639 76.5469 27.5732 76.9473 27.0752L77.7676 27.7637C77.2793 28.3789 76.6738 28.8623 75.9512 29.2139C75.2285 29.5557 74.4619 29.7266 73.6514 29.7266C72.1963 29.7266 70.9512 29.2139 69.916 28.1885C68.8906 27.1533 68.3779 25.9082 68.3779 24.4531C68.3779 22.998 68.8906 21.7578 69.916 20.7324C70.9512 19.6973 72.1963 19.1797 73.6514 19.1797C74.4717 19.1797 75.2432 19.3604 75.9658 19.7217C76.6885 20.0732 77.2939 20.5566 77.7822 21.1719ZM79.4229 19.8535L78.5879 20.498C78.002 19.7559 77.2744 19.1748 76.4053 18.7549C75.5459 18.335 74.6279 18.125 73.6514 18.125C71.9033 18.125 70.4092 18.7451 69.1689 19.9854C67.9385 21.2256 67.3232 22.7148 67.3232 24.4531C67.3232 26.1914 67.9385 27.6807 69.1689 28.9209C70.4092 30.1611 71.9033 30.7812 73.6514 30.7812C74.6279 30.7812 75.5508 30.5713 76.4199 30.1514C77.2891 29.7217 78.0166 29.1357 78.6025 28.3936L79.4082 29.0674C78.7246 29.9268 77.8799 30.6055 76.874 31.1035C75.8682 31.5918 74.7939 31.8359 73.6514 31.8359C72.3135 31.8359 71.0781 31.5088 69.9453 30.8545C68.8125 30.1904 67.9141 29.292 67.25 28.1592C66.5957 27.0264 66.2686 25.791 66.2686 24.4531C66.2686 23.1152 66.5957 21.8799 67.25 20.7471C67.9141 19.6143 68.8125 18.7207 69.9453 18.0664C71.0781 17.4023 72.3135 17.0703 73.6514 17.0703C74.7939 17.0703 75.8682 17.3193 76.874 17.8174C77.8896 18.3057 78.7393 18.9844 79.4229 19.8535ZM81.0781 18.5352L80.2578 19.1943C79.4668 18.208 78.4951 17.4316 77.3428 16.8652C76.1904 16.2988 74.96 16.0156 73.6514 16.0156C72.5088 16.0156 71.415 16.2402 70.3701 16.6895C69.335 17.1289 68.4365 17.7295 67.6748 18.4912C66.9229 19.2432 66.3223 20.1416 65.873 21.1865C65.4336 22.2217 65.2139 23.3105 65.2139 24.4531C65.2139 25.5957 65.4336 26.6895 65.873 27.7344C66.3223 28.7695 66.9229 29.668 67.6748 30.4297C68.4365 31.1816 69.335 31.7822 70.3701 32.2314C71.415 32.6709 72.5088 32.8906 73.6514 32.8906C74.96 32.8906 76.1904 32.6074 77.3428 32.041C78.4951 31.4746 79.4668 30.6982 80.2578 29.7119L81.0488 30.4004C80.1602 31.5039 79.0713 32.373 77.7822 33.0078C76.4932 33.6328 75.1162 33.9453 73.6514 33.9453C72.3623 33.9453 71.1318 33.6963 69.96 33.1982C68.7881 32.6904 67.7773 32.0166 66.9277 31.1768C66.0879 30.3271 65.4141 29.3164 64.9062 28.1445C64.4082 26.9727 64.1592 25.7422 64.1592 24.4531C64.1592 23.1641 64.4082 21.9336 64.9062 20.7617C65.4141 19.5898 66.0879 18.584 66.9277 17.7441C67.7773 16.8945 68.7881 16.2207 69.96 15.7227C71.1318 15.2148 72.3623 14.9609 73.6514 14.9609C75.126 14.9609 76.5078 15.2783 77.7969 15.9131C79.0957 16.5479 80.1895 17.4219 81.0781 18.5352ZM82.7188 17.2168L81.8691 17.8467C80.8828 16.626 79.6719 15.6641 78.2363 14.9609C76.8105 14.2578 75.2822 13.9062 73.6514 13.9062C72.2256 13.9062 70.8584 14.1846 69.5498 14.7412C68.251 15.2979 67.1279 16.0498 66.1807 16.9971C65.2432 17.9346 64.4961 19.0576 63.9395 20.3662C63.3828 21.665 63.1045 23.0273 63.1045 24.4531C63.1045 25.8789 63.3828 27.2461 63.9395 28.5547C64.4961 29.8535 65.2432 30.9766 66.1807 31.9238C67.1279 32.8613 68.251 33.6084 69.5498 34.165C70.8584 34.7217 72.2256 35 73.6514 35C75.2822 35 76.8105 34.6484 78.2363 33.9453C79.6719 33.2422 80.8828 32.2803 81.8691 31.0596L82.7041 31.7041C81.6201 33.0518 80.2871 34.1162 78.7051 34.8975C77.1328 35.6689 75.4482 36.0547 73.6514 36.0547C72.0791 36.0547 70.5752 35.7471 69.1396 35.1318C67.7139 34.5166 66.4834 33.6914 65.4482 32.6562C64.4131 31.6211 63.5879 30.3906 62.9727 28.9648C62.3574 27.5293 62.0498 26.0254 62.0498 24.4531C62.0498 22.8809 62.3574 21.3818 62.9727 19.9561C63.5879 18.5205 64.4131 17.2852 65.4482 16.25C66.4834 15.2148 67.7139 14.3896 69.1396 13.7744C70.5752 13.1592 72.0791 12.8516 73.6514 12.8516C75.4482 12.8516 77.1377 13.2422 78.7197 14.0234C80.3018 14.7949 81.6348 15.8594 82.7188 17.2168ZM89.999 35H88.9443V13.9062H89.999V35ZM87.8896 35H86.835V13.9062H87.8896V35ZM85.7803 35H84.7256V13.9062H85.7803V35ZM92.1084 29.7266H102.201V30.7812H92.1084V31.8359H102.201V32.8906H92.1084V33.9453H102.201V35H91.0537V13.9062H102.201V14.9609H92.1084V16.0156H102.201V17.0703H92.1084V18.125H102.201V19.1797H92.1084V21.8018H101.615V22.8564H92.1084V23.9111H101.615V24.9658H92.1084V26.0205H101.615V27.0752H92.1084V29.7266ZM107.519 11.7969V10.7422H123.339V11.7969H107.519ZM107.519 13.9062V12.8516H123.339V13.9062H107.519ZM107.519 16.0156V14.9609H123.339V16.0156H119.12V35H118.065V16.0156H117.011V35H115.956V16.0156H114.901V35H113.847V16.0156H112.792V35H111.737V16.0156H107.519ZM140.712 24.5996C140.712 23.3496 140.326 22.3828 139.555 21.6992C138.783 21.0156 137.763 20.6738 136.493 20.6738C135.419 20.6738 134.496 21.0449 133.725 21.7871C132.953 22.5293 132.567 23.418 132.567 24.4531C132.567 25.0391 132.646 25.5664 132.802 26.0352C132.958 26.4941 133.168 26.8799 133.432 27.1924C133.705 27.4951 134.027 27.749 134.398 27.9541C134.77 28.1494 135.155 28.291 135.556 28.3789C135.966 28.4668 136.4 28.5107 136.859 28.5107C137.973 28.5107 138.988 28.2373 139.906 27.6904V28.7451C138.959 29.2432 137.938 29.4922 136.845 29.4922C136.142 29.4922 135.478 29.3994 134.853 29.2139C134.237 29.0186 133.676 28.7305 133.168 28.3496C132.66 27.959 132.255 27.4316 131.952 26.7676C131.659 26.0938 131.513 25.3223 131.513 24.4531C131.513 23.1055 131.986 21.9629 132.934 21.0254C133.881 20.0879 135.067 19.6191 136.493 19.6191C138.065 19.6191 139.335 20.0635 140.302 20.9521C141.278 21.8311 141.767 23.0469 141.767 24.5996V35H140.712V24.5996ZM143.876 24.5996V35H142.821V24.5996C142.821 22.7539 142.23 21.2891 141.049 20.2051C139.867 19.1113 138.349 18.5645 136.493 18.5645C134.774 18.5645 133.339 19.1357 132.187 20.2783C131.034 21.4209 130.458 22.8125 130.458 24.4531C130.458 25.4492 130.629 26.3428 130.971 27.1338C131.322 27.9248 131.796 28.5596 132.392 29.0381C132.987 29.5166 133.651 29.8828 134.384 30.1367C135.126 30.3809 135.907 30.5029 136.728 30.5029C137.841 30.5029 138.9 30.2441 139.906 29.7266V30.8398C138.852 31.2793 137.787 31.499 136.713 31.499C135.746 31.499 134.828 31.3525 133.959 31.0596C133.09 30.7568 132.313 30.3223 131.63 29.7559C130.946 29.1797 130.404 28.4375 130.004 27.5293C129.604 26.6113 129.403 25.5859 129.403 24.4531C129.403 22.5293 130.082 20.8936 131.439 19.5459C132.807 18.1885 134.491 17.5098 136.493 17.5098C137.899 17.5098 139.159 17.7979 140.272 18.374C141.386 18.9404 142.265 19.7656 142.909 20.8496C143.554 21.9336 143.876 23.1836 143.876 24.5996ZM145.985 24.5996V35H144.931V24.5996C144.931 22.9883 144.56 21.5625 143.817 20.3223C143.085 19.0723 142.079 18.1152 140.8 17.4512C139.521 16.7871 138.085 16.4551 136.493 16.4551C134.979 16.4551 133.598 16.8164 132.348 17.5391C131.098 18.252 130.116 19.2188 129.403 20.4395C128.7 21.6602 128.349 22.998 128.349 24.4531C128.349 25.7031 128.578 26.8457 129.037 27.8809C129.496 28.9062 130.111 29.751 130.883 30.415C131.664 31.0791 132.548 31.5967 133.534 31.9678C134.53 32.3291 135.57 32.5098 136.654 32.5098C137.758 32.5098 138.842 32.2803 139.906 31.8213V32.8906C138.793 33.3105 137.699 33.5205 136.625 33.5205C134.936 33.5205 133.383 33.1396 131.967 32.3779C130.551 31.6162 129.418 30.5371 128.568 29.1406C127.719 27.7441 127.294 26.1816 127.294 24.4531C127.294 23.2227 127.528 22.0508 127.997 20.9375C128.476 19.8242 129.12 18.8623 129.931 18.0518C130.741 17.2412 131.718 16.5967 132.86 16.1182C134.003 15.6396 135.214 15.4004 136.493 15.4004C138.28 15.4004 139.892 15.7812 141.327 16.543C142.772 17.3047 143.91 18.3887 144.74 19.7949C145.57 21.2012 145.985 22.8027 145.985 24.5996ZM148.095 24.5996V35H147.04V24.5996C147.04 22.6074 146.576 20.8301 145.648 19.2676C144.721 17.6953 143.456 16.4844 141.854 15.6348C140.253 14.7754 138.466 14.3457 136.493 14.3457C134.599 14.3457 132.865 14.7998 131.293 15.708C129.721 16.6162 128.485 17.8467 127.587 19.3994C126.688 20.9424 126.239 22.627 126.239 24.4531C126.239 25.6543 126.43 26.7969 126.811 27.8809C127.201 28.9551 127.729 29.8975 128.393 30.708C129.066 31.5088 129.838 32.2021 130.707 32.7881C131.586 33.374 132.528 33.8184 133.534 34.1211C134.55 34.4238 135.58 34.5752 136.625 34.5752C137.777 34.5752 138.871 34.3555 139.906 33.916V35C138.822 35.3809 137.709 35.5713 136.566 35.5713C135.385 35.5713 134.232 35.4053 133.109 35.0732C131.996 34.7412 130.961 34.2529 130.004 33.6084C129.057 32.9541 128.222 32.1875 127.499 31.3086C126.776 30.4199 126.21 29.3848 125.8 28.2031C125.39 27.0215 125.185 25.7715 125.185 24.4531C125.185 22.9395 125.468 21.499 126.034 20.1318C126.61 18.7549 127.392 17.5684 128.378 16.5723C129.374 15.5664 130.575 14.7705 131.981 14.1846C133.397 13.5889 134.901 13.291 136.493 13.291C138.114 13.291 139.638 13.5645 141.063 14.1113C142.489 14.6582 143.72 15.4199 144.755 16.3965C145.79 17.3633 146.605 18.5547 147.201 19.9707C147.797 21.3867 148.095 22.9297 148.095 24.5996ZM150.702 13.9062H151.757V35H150.702V13.9062ZM157.03 13.9062H158.085V29.7266H165.863V30.7812H158.085V31.8359H165.863V32.8906H158.085V33.9453H165.863V35H157.03V13.9062ZM154.921 13.9062H155.976V35H154.921V13.9062ZM152.812 13.9062H153.866V35H152.812V13.9062ZM190.355 13.9062L184.481 24.541L190.268 35H189.096L183.31 24.541L189.184 13.9062H190.355ZM187.997 13.9062L182.123 24.541L187.909 35H186.737L180.951 24.541L186.825 13.9062H187.997ZM185.639 13.9062L179.765 24.541L185.551 35H184.379L178.593 24.541L184.467 13.9062H185.639ZM183.28 13.9062L177.392 24.541L183.192 35H182.021L176.22 24.541L182.108 13.9062H183.28ZM174.521 13.9062V35H175.575V13.9062H174.521ZM172.411 13.9062V35H173.466V13.9062H172.411ZM170.302 13.9062V35H171.356V13.9062H170.302ZM168.192 13.9062V35H169.247V13.9062H168.192Z" fill="white"/>
<path d="M6.42641 28L0.252955 31.9345L5.62486 33.3849L11.8677 29.0434L6.42641 28ZM12.7635 29.5495L6.14255 34.034L9.00695 40.5696L9.4856 40.1979L9.72285 39.4149C9.56223 39.3219 9.42457 39.1706 9.33215 38.9856C9.23973 38.8006 9.19795 38.5927 9.21358 38.3954C9.22892 38.204 9.29754 38.0334 9.40894 37.9098C9.52033 37.7862 9.66837 37.7164 9.83037 37.7111C9.89736 37.709 9.96566 37.7178 10.0334 37.7376C10.0929 37.7552 10.1515 37.781 10.208 37.8145L10.6533 36.3449C10.6588 36.3273 10.6654 36.31 10.6731 36.2931L10.6764 36.2867C10.6818 36.2751 10.6878 36.2637 10.6943 36.2525L10.6994 36.2449C10.7058 36.2343 10.7128 36.2239 10.7201 36.2138C10.7295 36.2013 10.7394 36.1893 10.7501 36.1777L10.7538 36.174C10.7634 36.1638 10.7735 36.1539 10.7841 36.1444C10.7957 36.134 10.8079 36.1242 10.8205 36.1149C10.8289 36.1089 10.8378 36.1032 10.8466 36.0977C10.8515 36.0944 10.8564 36.0911 10.8615 36.0879C10.8707 36.0826 10.8801 36.0776 10.8896 36.0729C10.8946 36.0702 10.8997 36.0676 10.9048 36.0651C10.9129 36.0615 10.9211 36.058 10.9295 36.0547C10.9365 36.0516 10.9436 36.0487 10.9508 36.0459C10.9589 36.0432 10.967 36.0406 10.9753 36.0383C10.9829 36.0358 10.9906 36.0334 10.9983 36.0312C11.0058 36.0293 11.0134 36.0277 11.0209 36.0262C11.0297 36.0241 11.0385 36.0222 11.0473 36.0205C11.0568 36.0191 11.0663 36.0179 11.0759 36.017C11.0828 36.016 11.0897 36.0152 11.0967 36.0145H11.0972L11.0978 36.0144L12.9837 35.8711C13.0269 35.728 13.1034 35.6073 13.2052 35.5216C13.307 35.4359 13.4305 35.3883 13.5628 35.3837C13.6299 35.3816 13.6982 35.3904 13.766 35.4102C13.9488 35.4639 14.1189 35.5938 14.2442 35.7754L14.9758 35.7199L12.7635 29.5495ZM6.33959 29.9286C6.57691 29.933 6.77803 29.9788 6.90886 30.0581C7.03969 30.1375 7.09217 30.2455 7.0574 30.364C7.01748 30.5002 6.86541 30.6397 6.63466 30.7519C6.4039 30.864 6.11336 30.9397 5.82695 30.9621C5.68512 30.9733 5.54857 30.971 5.4251 30.9555C5.30164 30.9399 5.19367 30.9114 5.10737 30.8716C5.02106 30.8318 4.95812 30.7814 4.92212 30.7234C4.88613 30.6653 4.87778 30.6007 4.89758 30.5333C4.91732 30.4659 4.96481 30.3969 5.03733 30.3304C5.10985 30.2638 5.20599 30.201 5.32025 30.1454C5.43451 30.0899 5.56466 30.0427 5.70326 30.0066C5.84185 29.9705 5.98619 29.9462 6.12803 29.9351C6.20006 29.9295 6.271 29.9273 6.33959 29.9286ZM11.9611 31.101C12.0281 31.0988 12.0965 31.1077 12.1643 31.1274C12.3631 31.1852 12.5463 31.3329 12.6737 31.538C12.8011 31.7431 12.8622 31.9888 12.8436 32.2211C12.8344 32.3361 12.8059 32.4444 12.7597 32.5397C12.7135 32.635 12.6505 32.7155 12.5744 32.7766C12.4983 32.8377 12.4105 32.8781 12.316 32.8957C12.2215 32.9133 12.1222 32.9076 12.0238 32.8789C11.9254 32.8503 11.8297 32.7994 11.7423 32.7289C11.6549 32.6585 11.5774 32.5699 11.5143 32.4684C11.4512 32.3668 11.4037 32.2542 11.3746 32.137C11.3454 32.0198 11.3351 31.9002 11.3443 31.7852C11.3597 31.5937 11.4283 31.4232 11.5397 31.2996C11.6511 31.176 11.7991 31.1062 11.9611 31.101ZM0 32.804L2.63567 38.4932L7.92115 40.5062L5.34179 34.2464L0 32.804ZM8.29458 33.6729C8.3616 33.6707 8.42994 33.6795 8.49773 33.6992C8.6965 33.7571 8.87972 33.9048 9.0071 34.1099C9.13447 34.315 9.19557 34.5607 9.17695 34.793C9.16773 34.908 9.13922 35.0162 9.09303 35.1115C9.04684 35.2069 8.98389 35.2873 8.90777 35.3484C8.83164 35.4095 8.74384 35.45 8.64937 35.4676C8.5549 35.4852 8.45561 35.4795 8.35718 35.4508C8.15839 35.393 7.97514 35.2453 7.84774 35.0402C7.72035 34.8351 7.65923 34.5894 7.67784 34.3571C7.69319 34.1657 7.76181 33.9951 7.87319 33.8715C7.98458 33.7479 8.13259 33.6782 8.29458 33.6729ZM4.08111 34.3218C4.22013 34.315 4.39441 34.3882 4.57013 34.5271C4.74586 34.666 4.91049 34.8607 5.03207 35.0734C5.09648 35.1861 5.14696 35.3006 5.18062 35.4104C5.21428 35.5202 5.23047 35.6231 5.22825 35.7133C5.22604 35.8035 5.20547 35.8792 5.16772 35.9361C5.12997 35.9929 5.07578 36.0299 5.00824 36.0448C4.87181 36.0748 4.68932 36.0132 4.5009 35.8735C4.31249 35.7339 4.13358 35.5276 4.00354 35.3C3.87354 35.0726 3.80302 34.8425 3.80748 34.6604C3.81194 34.4783 3.89101 34.3591 4.02732 34.329C4.04448 34.3251 4.06239 34.3227 4.08111 34.3218ZM18.8542 36.3263L12.5667 36.8037L18.9473 40.7881L25.3188 39.9428L18.8542 36.3263ZM2.61369 36.8076C2.75271 36.8009 2.92701 36.874 3.10275 37.0129C3.2785 37.1518 3.44316 37.3465 3.56476 37.5593C3.69483 37.7868 3.76539 38.017 3.76092 38.1991C3.75645 38.3813 3.67731 38.5005 3.54093 38.5306C3.40451 38.5606 3.22202 38.499 3.0336 38.3594C2.84519 38.2197 2.66628 38.0134 2.53623 37.7859C2.40619 37.5584 2.33566 37.3283 2.34013 37.1462C2.3446 36.964 2.42371 36.8448 2.56007 36.8147C2.57723 36.811 2.59498 36.8085 2.61369 36.8076ZM11.4407 37.1971L9.11088 44.8835L15.5955 49.8414L18.2399 41.443L11.4407 37.1971ZM18.5631 37.7539C18.7371 37.7567 18.9286 37.7799 19.1211 37.8215C19.3136 37.863 19.5012 37.9217 19.6676 37.9923C19.802 38.0493 19.9196 38.113 20.0138 38.1795C20.108 38.2461 20.1769 38.3143 20.2165 38.3802C20.2561 38.4461 20.2657 38.5085 20.2447 38.5638C20.2237 38.6191 20.1726 38.6662 20.0942 38.7024C20.0159 38.7386 19.9118 38.7632 19.788 38.7748C19.6642 38.7865 19.523 38.7849 19.3726 38.7701C19.2222 38.7554 19.0654 38.7278 18.9112 38.689C18.757 38.6501 18.6085 38.6008 18.4741 38.5437C18.2027 38.4285 18.0052 38.289 17.9252 38.1558C17.8451 38.0227 17.889 37.9068 18.0473 37.8337C18.1675 37.7781 18.3474 37.7503 18.5631 37.7539ZM26 40.7597L19.2201 41.6592L16.5939 50L23.1168 48.4162L26 40.7597ZM15.8028 41.2981C15.882 41.2982 15.962 41.314 16.0405 41.3451C16.1546 41.3903 16.2638 41.4671 16.3618 41.5711C16.4598 41.675 16.5448 41.8041 16.6118 41.951C16.6789 42.0978 16.7267 42.2595 16.7526 42.4269C16.7784 42.5942 16.7818 42.764 16.7625 42.9264C16.7236 43.2543 16.5947 43.5326 16.4043 43.6998C16.2139 43.8671 15.9775 43.9097 15.7471 43.8184C15.633 43.7731 15.5238 43.6963 15.4258 43.5924C15.3277 43.4884 15.2428 43.3594 15.1757 43.2125C15.1086 43.0657 15.0608 42.904 15.035 42.7366C15.0091 42.5692 15.0057 42.3995 15.025 42.2371C15.0571 41.9668 15.1505 41.7286 15.291 41.559C15.4315 41.3894 15.6113 41.2978 15.8028 41.2981ZM24.4451 41.8782C24.6281 41.8733 24.7798 41.9459 24.8755 42.084C24.9879 42.2464 25.0145 42.4869 24.9496 42.7527C24.8846 43.0186 24.7334 43.2879 24.5291 43.5015C24.3248 43.7151 24.0843 43.8555 23.8604 43.8918C23.6365 43.928 23.4476 43.8572 23.3352 43.6949C23.2228 43.5325 23.1961 43.292 23.2611 43.0262C23.326 42.7604 23.4773 42.491 23.6815 42.2774C23.7975 42.1561 23.9265 42.0572 24.0587 41.9881C24.191 41.9189 24.323 41.8813 24.4451 41.8782ZM20.5921 42.4098C20.7751 42.405 20.9268 42.4775 21.0224 42.6157C21.1348 42.778 21.1615 43.0185 21.0965 43.2844C21.0316 43.5502 20.8803 43.8195 20.676 44.0332C20.4718 44.2467 20.2312 44.3871 20.0073 44.4234C19.7834 44.4596 19.5945 44.3888 19.4821 44.2264C19.3697 44.0641 19.3431 43.8235 19.4081 43.5577C19.4731 43.2919 19.6243 43.0226 19.8286 42.809C19.9446 42.6877 20.0735 42.5888 20.2058 42.5196C20.338 42.4505 20.47 42.413 20.5921 42.4098ZM10.8331 43.073C10.9124 43.0731 10.9924 43.089 11.0709 43.1201C11.185 43.1654 11.2942 43.2422 11.3922 43.3462C11.4902 43.4501 11.5752 43.5792 11.6422 43.726C11.7093 43.8729 11.7571 44.0346 11.7829 44.2019C11.8088 44.3693 11.8122 44.539 11.7929 44.7014C11.7736 44.8638 11.7321 45.0157 11.6706 45.1484C11.6091 45.2812 11.5289 45.3921 11.4346 45.4749C11.3403 45.5578 11.2338 45.6109 11.121 45.6312C11.0082 45.6515 10.8914 45.6387 10.7774 45.5934C10.6633 45.5482 10.5541 45.4714 10.4561 45.3674C10.358 45.2635 10.2731 45.1344 10.206 44.9876C10.139 44.8407 10.0912 44.679 10.0653 44.5117C10.0395 44.3443 10.0361 44.1746 10.0553 44.0122C10.0874 43.7419 10.1808 43.5037 10.3213 43.334C10.4617 43.1644 10.6416 43.0728 10.8331 43.073ZM22.7393 46.1075C22.9222 46.1027 23.0738 46.1752 23.1695 46.3133C23.2819 46.4756 23.3086 46.7162 23.2436 46.982C23.1787 47.2478 23.0274 47.5172 22.8232 47.7308C22.6189 47.9444 22.3784 48.0847 22.1545 48.121C21.9306 48.1572 21.7416 48.0864 21.6293 47.924C21.5169 47.7617 21.4902 47.5212 21.5552 47.2553C21.6201 46.9895 21.7713 46.7202 21.9756 46.5066C22.0916 46.3852 22.2206 46.2863 22.3528 46.2172C22.4851 46.1481 22.6172 46.1106 22.7393 46.1075ZM18.7945 47.0789C18.9775 47.0742 19.1291 47.1468 19.2247 47.2849C19.3371 47.4472 19.3638 47.6878 19.2989 47.9536C19.2339 48.2194 19.0827 48.4888 18.8784 48.7024C18.7773 48.8081 18.6662 48.897 18.5514 48.964C18.4367 49.0309 18.3206 49.0746 18.2097 49.0925C18.0988 49.1105 17.9954 49.1023 17.9053 49.0685C17.8152 49.0347 17.7401 48.9759 17.6845 48.8955C17.5721 48.7332 17.5455 48.4926 17.6104 48.2268C17.6754 47.961 17.8266 47.6917 18.0309 47.478C18.1469 47.3567 18.2759 47.2578 18.4081 47.1887C18.5404 47.1196 18.6724 47.0821 18.7945 47.0789Z" fill="white"/>
<path d="M197.426 0L191.253 3.93452L196.625 5.38493L202.868 1.04343L197.426 0ZM203.764 1.54946L197.143 6.03404L200.007 12.5696L200.486 12.1979L200.723 11.4149C200.562 11.3219 200.425 11.1706 200.332 10.9856C200.24 10.8006 200.198 10.5927 200.214 10.3954C200.229 10.204 200.298 10.0334 200.409 9.90978C200.52 9.78619 200.668 9.71642 200.83 9.71113C200.897 9.70895 200.966 9.71784 201.033 9.73755C201.093 9.75517 201.152 9.78101 201.208 9.81452L201.653 8.34492C201.659 8.3273 201.665 8.30998 201.673 8.29308L201.676 8.2867C201.682 8.2751 201.688 8.2637 201.694 8.25255L201.699 8.24492C201.706 8.23429 201.713 8.2239 201.72 8.21376C201.729 8.20131 201.739 8.18929 201.75 8.17772L201.754 8.17403C201.763 8.16377 201.774 8.15389 201.784 8.14442C201.796 8.13405 201.808 8.12418 201.821 8.11486C201.829 8.10894 201.838 8.10315 201.847 8.09771C201.851 8.09436 201.856 8.09108 201.861 8.08789C201.871 8.08264 201.88 8.07765 201.89 8.07294C201.895 8.07025 201.9 8.06764 201.905 8.06511C201.913 8.06146 201.921 8.058 201.929 8.05474C201.936 8.05164 201.944 8.04868 201.951 8.04587C201.959 8.04315 201.967 8.04063 201.975 8.03829C201.983 8.03575 201.991 8.03337 201.998 8.03116C202.006 8.02934 202.013 8.02768 202.021 8.02618C202.03 8.02407 202.038 8.02218 202.047 8.02049C202.057 8.01909 202.066 8.01792 202.076 8.017C202.083 8.01605 202.09 8.01521 202.097 8.01451H202.097L202.098 8.01436L203.984 7.87114C204.027 7.728 204.103 7.6073 204.205 7.52159C204.307 7.43588 204.431 7.38829 204.563 7.38375C204.63 7.38156 204.698 7.39045 204.766 7.41017C204.949 7.46386 205.119 7.59377 205.244 7.77543L205.976 7.71994L203.764 1.54946ZM197.34 1.92863C197.577 1.93302 197.778 1.97876 197.909 2.05812C198.04 2.13747 198.092 2.24555 198.057 2.36402C198.017 2.50019 197.865 2.63971 197.635 2.75187C197.404 2.86404 197.113 2.93967 196.827 2.96213C196.685 2.97326 196.549 2.97099 196.425 2.95545C196.302 2.93992 196.194 2.91143 196.107 2.87161C196.021 2.83179 195.958 2.78142 195.922 2.72338C195.886 2.66533 195.878 2.60075 195.898 2.53332C195.917 2.46589 195.965 2.39693 196.037 2.33037C196.11 2.26381 196.206 2.20097 196.32 2.14541C196.435 2.08986 196.565 2.0427 196.703 2.00662C196.842 1.97053 196.986 1.94623 197.128 1.93511C197.2 1.9295 197.271 1.92732 197.34 1.92863ZM202.961 3.10097C203.028 3.09879 203.097 3.10768 203.164 3.12739C203.363 3.1852 203.546 3.3329 203.674 3.53801C203.801 3.74312 203.862 3.98884 203.844 4.22112C203.834 4.33613 203.806 4.44439 203.76 4.53969C203.713 4.635 203.651 4.7155 203.574 4.77658C203.498 4.83767 203.41 4.87815 203.316 4.89571C203.222 4.91328 203.122 4.90758 203.024 4.87895C202.925 4.85034 202.83 4.79935 202.742 4.72891C202.655 4.65846 202.577 4.56992 202.514 4.46836C202.451 4.3668 202.404 4.2542 202.375 4.13698C202.345 4.01977 202.335 3.90024 202.344 3.78522C202.36 3.59374 202.428 3.42316 202.54 3.29958C202.651 3.176 202.799 3.10624 202.961 3.10097ZM191 4.80402L193.636 10.4932L198.921 12.5062L196.342 6.2464L191 4.80402ZM199.295 5.67292C199.362 5.67069 199.43 5.67955 199.498 5.69924C199.697 5.75708 199.88 5.9048 200.007 6.1099C200.134 6.31501 200.196 6.56071 200.177 6.79297C200.168 6.90798 200.139 7.01624 200.093 7.11154C200.047 7.20685 199.984 7.28735 199.908 7.34844C199.832 7.40953 199.744 7.45002 199.649 7.46759C199.555 7.48516 199.456 7.47947 199.357 7.45085C199.158 7.39304 198.975 7.24534 198.848 7.04023C198.72 6.83511 198.659 6.5894 198.678 6.35712C198.693 6.16567 198.762 5.9951 198.873 5.87152C198.985 5.74794 199.133 5.67822 199.295 5.67292ZM195.081 6.32178C195.22 6.31505 195.394 6.38823 195.57 6.52712C195.746 6.66601 195.91 6.86071 196.032 7.07343C196.096 7.18609 196.147 7.30059 196.181 7.41038C196.214 7.52017 196.23 7.6231 196.228 7.7133C196.226 7.8035 196.205 7.8792 196.168 7.93607C196.13 7.99294 196.076 8.02988 196.008 8.04477C195.872 8.07479 195.689 8.01319 195.501 7.87353C195.312 7.73387 195.134 7.52758 195.004 7.30005C194.874 7.07259 194.803 6.84252 194.807 6.66042C194.812 6.47832 194.891 6.3591 195.027 6.32896C195.044 6.32512 195.062 6.32273 195.081 6.32178ZM209.854 8.32628L203.567 8.8037L209.947 12.7881L216.319 11.9428L209.854 8.32628ZM193.614 8.80764C193.753 8.80086 193.927 8.87403 194.103 9.01292C194.279 9.15182 194.443 9.34654 194.565 9.55929C194.695 9.78681 194.765 10.017 194.761 10.1991C194.756 10.3813 194.677 10.5005 194.541 10.5306C194.405 10.5606 194.222 10.499 194.034 10.3594C193.845 10.2197 193.666 10.0134 193.536 9.78591C193.406 9.55841 193.336 9.32829 193.34 9.14617C193.345 8.96404 193.424 8.84482 193.56 8.81472C193.577 8.81095 193.595 8.80852 193.614 8.80764ZM202.441 9.19712L200.111 16.8835L206.596 21.8414L209.24 13.443L202.441 9.19712ZM209.563 9.75386C209.737 9.75672 209.929 9.77994 210.121 9.82149C210.314 9.86304 210.501 9.92166 210.668 9.99229C210.802 10.0493 210.92 10.113 211.014 10.1795C211.108 10.2461 211.177 10.3143 211.216 10.3802C211.256 10.4461 211.266 10.5085 211.245 10.5638C211.224 10.6191 211.173 10.6662 211.094 10.7024C211.016 10.7386 210.912 10.7632 210.788 10.7748C210.664 10.7865 210.523 10.7849 210.373 10.7701C210.222 10.7554 210.065 10.7278 209.911 10.689C209.757 10.6501 209.609 10.6008 209.474 10.5437C209.203 10.4285 209.005 10.289 208.925 10.1558C208.845 10.0227 208.889 9.90679 209.047 9.83367C209.168 9.77812 209.347 9.75027 209.563 9.75386ZM217 12.7597L210.22 13.6592L207.594 22L214.117 20.4162L217 12.7597ZM206.803 13.2981C206.882 13.2982 206.962 13.314 207.041 13.3451C207.155 13.3903 207.264 13.4671 207.362 13.5711C207.46 13.675 207.545 13.8041 207.612 13.951C207.679 14.0978 207.727 14.2595 207.753 14.4269C207.778 14.5942 207.782 14.764 207.763 14.9264C207.724 15.2543 207.595 15.5326 207.404 15.6998C207.214 15.8671 206.977 15.9097 206.747 15.8184C206.633 15.7731 206.524 15.6963 206.426 15.5924C206.328 15.4884 206.243 15.3594 206.176 15.2125C206.109 15.0657 206.061 14.904 206.035 14.7366C206.009 14.5692 206.006 14.3995 206.025 14.2371C206.057 13.9668 206.151 13.7286 206.291 13.559C206.431 13.3894 206.611 13.2978 206.803 13.2981ZM215.445 13.8782C215.628 13.8733 215.78 13.9459 215.875 14.084C215.988 14.2464 216.015 14.4869 215.95 14.7527C215.885 15.0186 215.733 15.2879 215.529 15.5015C215.325 15.7151 215.084 15.8555 214.86 15.8918C214.636 15.928 214.448 15.8572 214.335 15.6949C214.223 15.5325 214.196 15.292 214.261 15.0262C214.326 14.7604 214.477 14.491 214.682 14.2774C214.798 14.1561 214.926 14.0572 215.059 13.9881C215.191 13.9189 215.323 13.8813 215.445 13.8782ZM211.592 14.4098C211.775 14.405 211.927 14.4775 212.022 14.6157C212.135 14.778 212.161 15.0185 212.097 15.2844C212.032 15.5502 211.88 15.8195 211.676 16.0332C211.472 16.2467 211.231 16.3871 211.007 16.4234C210.783 16.4596 210.594 16.3888 210.482 16.2264C210.37 16.0641 210.343 15.8235 210.408 15.5577C210.473 15.2919 210.624 15.0226 210.829 14.809C210.945 14.6877 211.074 14.5888 211.206 14.5196C211.338 14.4505 211.47 14.413 211.592 14.4098ZM201.833 15.073C201.912 15.0731 201.992 15.089 202.071 15.1201C202.185 15.1654 202.294 15.2422 202.392 15.3462C202.49 15.4501 202.575 15.5792 202.642 15.726C202.709 15.8729 202.757 16.0346 202.783 16.2019C202.809 16.3693 202.812 16.539 202.793 16.7014C202.774 16.8638 202.732 17.0157 202.671 17.1484C202.609 17.2812 202.529 17.3921 202.435 17.4749C202.34 17.5578 202.234 17.6109 202.121 17.6312C202.008 17.6515 201.891 17.6387 201.777 17.5934C201.663 17.5482 201.554 17.4714 201.456 17.3674C201.358 17.2635 201.273 17.1344 201.206 16.9876C201.139 16.8407 201.091 16.679 201.065 16.5117C201.039 16.3443 201.036 16.1746 201.055 16.0122C201.087 15.7419 201.181 15.5037 201.321 15.334C201.462 15.1644 201.642 15.0728 201.833 15.073ZM213.739 18.1075C213.922 18.1027 214.074 18.1752 214.169 18.3133C214.282 18.4756 214.309 18.7162 214.244 18.982C214.179 19.2478 214.027 19.5172 213.823 19.7308C213.619 19.9444 213.378 20.0847 213.154 20.121C212.931 20.1572 212.742 20.0864 212.629 19.924C212.517 19.7617 212.49 19.5212 212.555 19.2553C212.62 18.9895 212.771 18.7202 212.976 18.5066C213.092 18.3852 213.221 18.2863 213.353 18.2172C213.485 18.1481 213.617 18.1106 213.739 18.1075ZM209.795 19.0789C209.977 19.0742 210.129 19.1468 210.225 19.2849C210.337 19.4472 210.364 19.6878 210.299 19.9536C210.234 20.2194 210.083 20.4888 209.878 20.7024C209.777 20.8081 209.666 20.897 209.551 20.964C209.437 21.0309 209.321 21.0746 209.21 21.0925C209.099 21.1105 208.995 21.1023 208.905 21.0685C208.815 21.0347 208.74 20.9759 208.684 20.8955C208.572 20.7332 208.545 20.4926 208.61 20.2268C208.675 19.961 208.827 19.6917 209.031 19.478C209.147 19.3567 209.276 19.2578 209.408 19.1887C209.54 19.1196 209.672 19.0821 209.795 19.0789Z" fill="white"/>
<path d="M251.667 24C251.667 25.4728 250.473 26.6667 249 26.6667C247.527 26.6667 246.333 25.4728 246.333 24C246.333 22.5272 247.527 21.3333 249 21.3333C250.473 21.3333 251.667 22.5272 251.667 24ZM184 23.5H249V24.5H184V23.5Z" fill="white"/>
</svg>
