<svg width="52" height="52" viewBox="0 0 52 52" fill="none" xmlns="http://www.w3.org/2000/svg">
<path d="M19.5 3.25C13.2356 3.25 8.125 8.36062 8.125 14.625C8.125 18.5413 10.1237 22.0187 13.1528 24.0711C7.35637 26.5574 3.25 32.3099 3.25 39H6.5C6.5 31.8013 12.3013 26 19.5 26C21.7344 26 23.816 26.585 25.6441 27.5746C23.7721 29.8881 22.7505 32.7739 22.75 35.75C22.75 42.9098 28.5903 48.75 35.75 48.75C42.9098 48.75 48.75 42.9098 48.75 35.75C48.75 28.5903 42.9098 22.75 35.75 22.75C33.0113 22.7519 30.3439 23.623 28.132 25.2379C27.4024 24.7888 26.6384 24.3981 25.8472 24.0695C27.3936 23.0263 28.6605 21.6198 29.5371 19.9733C30.4136 18.3267 30.873 16.4903 30.875 14.625C30.875 8.36062 25.7644 3.25 19.5 3.25ZM19.5 6.5C24.0061 6.5 27.625 10.1189 27.625 14.625C27.625 19.1311 24.0061 22.75 19.5 22.75C14.9939 22.75 11.375 19.1311 11.375 14.625C11.375 10.1189 14.9939 6.5 19.5 6.5ZM35.75 26C41.1515 26 45.5 30.3485 45.5 35.75C45.5 41.1515 41.1515 45.5 35.75 45.5C30.3485 45.5 26 41.1515 26 35.75C26 30.3485 30.3485 26 35.75 26ZM34.125 29.25V34.125H29.25V37.375H34.125V42.25H37.375V37.375H42.25V34.125H37.375V29.25H34.125Z" fill="url(#paint0_linear_260_6196)"/>
<defs>
<linearGradient id="paint0_linear_260_6196" x1="3.25" y1="26" x2="48.75" y2="26" gradientUnits="userSpaceOnUse">
<stop stop-color="#B28EF8"/>
<stop offset="1" stop-color="#F476E5"/>
</linearGradient>
</defs>
</svg>
