<svg width="48" height="48" viewBox="0 0 48 48" fill="none" xmlns="http://www.w3.org/2000/svg">
<g clip-path="url(#clip0_260_6188)">
<path d="M37.3335 40H8.00016V10.6667H25.6268L28.2935 8H8.00016C7.29292 8 6.61464 8.28095 6.11454 8.78105C5.61445 9.28115 5.3335 9.95942 5.3335 10.6667V40C5.3335 40.7072 5.61445 41.3855 6.11454 41.8856C6.61464 42.3857 7.29292 42.6667 8.00016 42.6667H37.3335C38.0407 42.6667 38.719 42.3857 39.2191 41.8856C39.7192 41.3855 40.0002 40.7072 40.0002 40V20L37.3335 22.6667V40Z" fill="url(#paint0_linear_260_6188)"/>
<path d="M44.7068 7.78676L40.2134 3.29342C40.014 3.09346 39.7771 2.93481 39.5163 2.82657C39.2555 2.71832 38.9758 2.6626 38.6934 2.6626C38.411 2.6626 38.1314 2.71832 37.8706 2.82657C37.6098 2.93481 37.3728 3.09346 37.1734 3.29342L18.8934 21.6801L17.4134 28.0934C17.3504 28.4043 17.357 28.7253 17.4328 29.0333C17.5087 29.3413 17.6518 29.6287 17.852 29.8748C18.0522 30.1208 18.3044 30.3195 18.5905 30.4564C18.8766 30.5934 19.1896 30.6652 19.5068 30.6668C19.6707 30.6847 19.8362 30.6847 20.0001 30.6668L26.4668 29.2401L44.7068 10.8268C44.9067 10.6273 45.0654 10.3904 45.1736 10.1296C45.2819 9.86878 45.3376 9.58915 45.3376 9.30675C45.3376 9.02436 45.2819 8.74473 45.1736 8.4839C45.0654 8.22307 44.9067 7.98617 44.7068 7.78676ZM25.0801 26.7734L20.2001 27.8534L21.3334 23.0134L35.0934 9.16009L38.8534 12.9201L25.0801 26.7734ZM40.3601 11.4134L36.6001 7.65342L38.6668 5.54676L42.4534 9.33342L40.3601 11.4134Z" fill="url(#paint1_linear_260_6188)"/>
</g>
<defs>
<linearGradient id="paint0_linear_260_6188" x1="5.3335" y1="25.3333" x2="40.0002" y2="25.3333" gradientUnits="userSpaceOnUse">
<stop stop-color="#B28EF8"/>
<stop offset="1" stop-color="#F476E5"/>
</linearGradient>
<linearGradient id="paint1_linear_260_6188" x1="17.3706" y1="16.6714" x2="45.3376" y2="16.6714" gradientUnits="userSpaceOnUse">
<stop stop-color="#B28EF8"/>
<stop offset="1" stop-color="#F476E5"/>
</linearGradient>
<clipPath id="clip0_260_6188">
<rect width="48" height="48" fill="white"/>
</clipPath>
</defs>
</svg>
