<svg width="105" height="70" viewBox="0 0 105 70" fill="none" xmlns="http://www.w3.org/2000/svg">
<path d="M52.5 52.2728C52.5 52.2728 49.504 32.7945 49.504 31.4374C49.504 30.0804 50.848 28.9777 52.5 28.9777C54.152 28.9777 55.496 30.0786 55.496 31.4374C55.496 32.7963 52.5 52.2728 52.5 52.2728ZM52.5 56.8199C52.5 56.8199 55.496 76.2964 55.496 77.6552C55.496 79.0141 54.152 80.115 52.5 80.115C50.848 80.115 49.504 79.0159 49.504 77.6552C49.504 76.2946 52.5 56.8199 52.5 56.8199ZM50.309 54.5454C50.309 54.5454 31.5473 57.6556 30.24 57.6556C28.931 57.6556 27.8705 56.2622 27.8705 54.5454C27.8705 52.8305 28.931 51.4371 30.24 51.4371C31.5473 51.4371 50.309 54.5454 50.309 54.5454ZM54.691 54.5454C54.691 54.5454 73.4528 51.4371 74.7617 51.4371C76.0707 51.4371 77.1312 52.8305 77.1312 54.5454C77.1312 56.2604 76.0707 57.6556 74.7617 57.6556C73.4528 57.6556 54.691 54.5454 54.691 54.5454ZM50.9495 52.9395C50.9495 52.9395 35.5652 41.3673 34.643 40.4063C33.7172 39.4471 33.915 37.6831 35.0858 36.4696C36.2547 35.2561 37.9522 35.0508 38.878 36.01C39.8002 36.9692 50.9495 52.9395 50.9495 52.9395ZM54.0505 56.155C54.0505 56.155 69.4347 67.7272 70.357 68.6882C71.2827 69.6492 71.085 71.4114 69.9143 72.6267C68.7453 73.8402 67.0478 74.0455 66.122 73.0845C65.1998 72.1235 54.0505 56.155 54.0505 56.155ZM50.9495 56.155C50.9495 56.155 39.8002 72.1235 38.878 73.0845C37.9522 74.0455 36.2547 73.8402 35.0858 72.6267C33.915 71.4114 33.7172 69.6492 34.643 68.6882C35.5652 67.7272 50.9495 56.155 50.9495 56.155ZM54.0505 52.9395C54.0505 52.9395 65.1998 36.9692 66.122 36.01C67.0478 35.0508 68.7453 35.2561 69.9143 36.4696C71.085 37.6831 71.2827 39.4471 70.357 40.4063C69.4347 41.3673 54.0505 52.9395 54.0505 52.9395ZM51.023 50.754C51.023 50.754 35.5967 19.4129 34.7147 17.1457C33.8327 14.8785 34.3595 12.5205 35.8925 11.8774C37.4255 11.2343 39.3838 12.5513 40.2658 14.8186C41.1478 17.0821 51.023 50.754 51.023 50.754ZM53.977 58.3423C53.977 58.3423 69.4032 89.6816 70.2852 91.9506C71.1673 94.216 70.6405 96.574 69.1075 97.2153C67.5728 97.8602 65.6163 96.5449 64.7343 94.2777C63.8523 92.0105 53.977 58.3423 53.977 58.3423ZM48.8442 56.0805C48.8442 56.0805 18.6532 72.0944 16.4692 73.01C14.2852 73.9256 12.0137 73.3788 11.3942 71.7856C10.7747 70.196 12.0435 68.1613 14.2275 67.2457C16.4115 66.3301 48.8442 56.0805 48.8442 56.0805ZM56.1558 53.014C56.1558 53.014 86.3468 37.0001 88.5308 36.0845C90.7148 35.1689 92.9862 35.7175 93.6057 37.3089C94.2252 38.9003 92.9565 40.9331 90.7725 41.8487C88.5902 42.7625 56.1558 53.014 56.1558 53.014ZM48.8705 52.9486C48.8705 52.9486 16.6128 42.1122 14.4462 41.1566C12.2797 40.201 11.046 38.1482 11.6917 36.5659C12.3375 34.9872 14.6213 34.4803 16.7878 35.4359C18.9543 36.3878 48.8705 52.9486 48.8705 52.9486ZM56.1295 56.1459C56.1295 56.1459 88.3873 66.9823 90.5537 67.9361C92.7202 68.8898 93.954 70.9481 93.3083 72.5268C92.6625 74.1091 90.3788 74.616 88.2122 73.6586C86.0457 72.7048 56.1295 56.1459 56.1295 56.1459ZM50.96 58.315C50.96 58.315 40.5213 91.8016 39.6007 94.0525C38.6802 96.3015 36.701 97.5823 35.1785 96.9119C33.656 96.2397 33.1695 93.8708 34.0865 91.6218C35.0088 89.3709 50.96 58.315 50.96 58.315ZM54.04 50.7795C54.04 50.7795 64.4787 17.2929 65.3992 15.0438C66.3197 12.793 68.299 11.514 69.8215 12.1844C71.344 12.8547 71.8322 15.2219 70.9135 17.4727C69.9912 19.7236 54.04 50.7795 54.04 50.7795ZM52.5105 81.8735C52.5105 81.8735 55.51 104.553 55.51 106.133C55.51 107.714 54.1695 109 52.5157 109C50.862 109 49.5215 107.719 49.5215 106.137C49.5215 104.555 52.5105 81.8735 52.5105 81.8735ZM52.4913 25.3516C52.4913 25.3516 49.49 4.15472 49.49 2.67777C49.49 1.20082 50.8305 0 52.4842 0C54.138 0 55.4785 1.19718 55.4785 2.67595C55.4785 4.15472 52.4913 25.3516 52.4913 25.3516ZM71.1533 73.8475C71.1533 73.8475 88.7233 87.6832 89.7978 88.8005C90.8775 89.9195 90.8023 91.8089 89.6333 93.0242C88.4643 94.2378 86.6425 94.3159 85.5663 93.1986C84.4883 92.0832 71.1533 73.8475 71.1533 73.8475ZM32.6392 33.8954C32.6392 33.8954 16.079 21.1097 15.071 20.0651C14.0648 19.0187 14.196 17.1875 15.365 15.974C16.534 14.7586 18.2997 14.6224 19.306 15.6688C20.314 16.7115 32.6392 33.8954 32.6392 33.8954ZM71.1533 35.1507C71.1533 35.1507 84.4883 16.9186 85.5663 15.8014C86.6425 14.6823 88.4643 14.7604 89.6333 15.9758C90.8023 17.1911 90.8775 19.0805 89.7978 20.1977C88.7233 21.3131 71.1533 35.1507 71.1533 35.1507ZM32.6392 75.1028C32.6392 75.1028 20.314 92.2885 19.306 93.3313C18.2997 94.3777 16.534 94.2396 15.365 93.0261C14.196 91.8107 14.0648 89.9795 15.071 88.9349C16.079 87.8903 32.6392 75.1028 32.6392 75.1028ZM78.869 54.4891C78.869 54.4891 100.716 51.3753 102.24 51.3753C103.764 51.3735 105 52.7669 105 54.4818C105.002 56.1986 103.768 57.592 102.244 57.592C100.719 57.5938 78.869 54.4891 78.869 54.4891ZM24.423 54.5109C24.423 54.5109 4.0005 57.6229 2.5795 57.6247C1.15325 57.6247 0 56.2313 0 54.5163C0 52.8014 1.15325 51.4062 2.5795 51.4062C4.0005 51.4062 24.423 54.5109 24.423 54.5109Z" fill="#F476E5"/>
<path d="M7 39C8.65685 39 10 37.433 10 35.5C10 33.567 8.65685 32 7 32C5.34315 32 4 33.567 4 35.5C4 37.433 5.34315 39 7 39Z" fill="#1E1E1E"/>
<path d="M101.5 40C103.433 40 105 38.433 105 36.5C105 34.567 103.433 33 101.5 33C99.567 33 98 34.567 98 36.5C98 38.433 99.567 40 101.5 40Z" fill="#1E1E1E"/>
<path d="M74.5 11C76.433 11 78 9.433 78 7.5C78 5.567 76.433 4 74.5 4C72.567 4 71 5.567 71 7.5C71 9.433 72.567 11 74.5 11Z" fill="#1E1E1E"/>
<path d="M35.5 10C37.433 10 39 8.433 39 6.5C39 4.567 37.433 3 35.5 3C33.567 3 32 4.567 32 6.5C32 8.433 33.567 10 35.5 10Z" fill="#1E1E1E"/>
</svg>
