<svg width="182" height="213" viewBox="0 0 182 213" fill="none" xmlns="http://www.w3.org/2000/svg">
<path d="M11.7495 34.9577C11.7495 34.9577 2.13036 -25.5863 2.13036 -30.1129C2.13036 -34.6396 6.65703 -37.4688 11.7495 -37.4688C16.842 -37.4688 21.3687 -34.0738 21.3687 -29.5471C21.3687 -25.0204 11.7495 34.9577 11.7495 34.9577ZM11.7495 49.1035C11.7495 49.1035 21.3687 109.648 21.3687 114.174C21.3687 118.135 16.842 122.096 11.7495 122.096C6.65703 122.096 2.13036 118.701 2.13036 114.174C2.13036 109.648 11.7495 49.1035 11.7495 49.1035ZM4.3937 41.7477C4.3937 41.7477 -56.1503 51.3669 -60.677 51.3669C-64.6378 51.3669 -68.5986 46.8402 -68.5986 41.7477C-68.5986 36.6552 -65.2036 32.1286 -60.677 32.1286C-56.1503 32.1286 4.3937 41.7477 4.3937 41.7477ZM19.1053 41.7477C19.1053 41.7477 79.6494 32.1286 84.176 32.1286C88.1368 32.1286 92.0977 36.6552 92.0977 41.7477C92.0977 46.8402 88.7027 51.3669 84.176 51.3669C79.6494 51.3669 19.1053 41.7477 19.1053 41.7477ZM6.65703 36.6552C6.65703 36.6552 -43.1362 0.441998 -45.9654 -2.38716C-48.7945 -5.21632 -48.2287 -10.8746 -44.2679 -14.8355C-40.307 -18.7963 -35.2145 -19.3621 -31.8196 -16.533C-29.5562 -12.5721 6.65703 36.6552 6.65703 36.6552ZM16.842 46.8402C16.842 46.8402 66.6352 83.0535 69.4644 85.8826C72.2935 88.7118 71.7277 94.3701 67.7669 98.3309C63.8061 102.292 58.7136 102.858 55.3186 100.028C53.0553 96.6334 16.842 46.8402 16.842 46.8402ZM6.65703 46.8402C6.65703 46.8402 -29.5562 96.6334 -32.3854 99.4626C-35.2145 102.292 -40.8729 101.726 -44.8337 97.7651C-48.7945 93.8043 -49.3603 88.7118 -46.5312 85.3168C-43.1362 83.0535 6.65703 46.8402 6.65703 46.8402ZM16.842 36.6552C16.842 36.6552 53.0552 -13.138 55.8844 -15.9671C58.7136 -18.7963 64.3719 -18.2305 68.3327 -14.2696C72.2935 -10.3088 72.8594 -5.21633 70.0302 -1.82134C66.6352 1.00782 16.842 36.6552 16.842 36.6552Z" fill="#6ADBC6"/>
<path d="M7.22304 29.8648C7.22304 29.8648 -42.5702 -68.0241 -45.3993 -74.8141C-48.2285 -81.6041 -46.531 -88.9599 -41.4385 -91.2233C-36.346 -93.4866 -30.1219 -88.9599 -27.2927 -82.1699C-24.4635 -75.38 7.22304 29.8648 7.22304 29.8648ZM16.2764 53.6297C16.2764 53.6297 66.0696 151.519 68.8987 158.309C71.7279 165.099 70.0304 172.454 64.9379 174.718C59.8454 176.981 53.6213 172.454 50.7921 165.664C47.963 158.874 16.2764 53.6297 16.2764 53.6297ZM-0.132782 46.8398C-0.132782 46.8398 -98.0217 96.633 -104.812 99.4621C-111.602 102.291 -118.957 100.594 -121.221 95.5013C-123.484 90.4088 -118.957 84.1846 -112.167 81.3555C-104.812 78.5263 -0.132782 46.8398 -0.132782 46.8398ZM23.6322 37.2206C23.6322 37.2206 121.521 -12.5726 128.311 -15.4018C135.101 -18.2309 142.457 -16.5334 144.72 -11.4409C146.984 -6.34846 142.457 -0.124306 135.667 2.70485L23.6322 37.2206ZM-0.132782 36.6548C-0.132782 36.6548 -104.246 2.70485 -111.602 -0.124306C-118.957 -2.95347 -122.352 -9.17762 -120.089 -14.2701C-117.826 -19.3626 -110.47 -20.4943 -103.68 -17.6651C-96.89 -14.8359 -0.132782 36.6548 -0.132782 36.6548ZM23.6322 46.8398C23.6322 46.8398 127.745 80.7897 135.101 83.6188C141.891 86.448 145.852 93.238 144.154 97.7646C141.891 102.857 134.535 103.989 127.745 101.16C120.389 98.3305 23.6322 46.8398 23.6322 46.8398ZM6.65721 53.6297C6.65721 53.6297 -27.2927 157.743 -30.1219 165.099C-32.951 171.889 -39.741 175.849 -44.2677 174.152C-49.3602 171.889 -50.4918 164.533 -47.6627 157.743C-44.8335 150.387 6.65721 53.6297 6.65721 53.6297ZM16.8422 30.4306C16.8422 30.4306 50.7921 -73.6825 53.6213 -81.0383C56.4504 -88.3941 62.6746 -92.3549 67.7671 -90.0916C72.8596 -87.8283 73.9912 -80.4724 71.1621 -73.6825C68.3329 -66.3266 16.8422 30.4306 16.8422 30.4306Z" fill="#FFCE31"/>
<path d="M11.7496 127.19C11.7496 127.19 21.3687 197.919 21.3687 203.012C21.3687 208.104 16.8421 212.065 11.7496 212.065C6.65709 212.065 2.13043 208.104 2.13043 203.012C2.13043 197.919 11.7496 127.19 11.7496 127.19ZM11.7496 -48.7835C11.7496 -48.7835 2.13043 -114.986 2.13043 -119.513C2.13043 -124.039 6.09126 -128 11.7496 -128C17.4079 -128 21.3687 -124.039 21.3687 -119.513C21.3687 -114.986 11.7496 -48.7835 11.7496 -48.7835ZM72.2936 102.294C72.2936 102.294 128.877 145.297 132.838 148.692C136.233 152.087 136.233 158.311 132.272 161.706C128.311 165.101 122.653 165.667 119.258 162.272C115.297 158.877 72.2936 102.294 72.2936 102.294ZM-52.1894 -22.1894C-52.1894 -22.1894 -105.943 -61.7977 -108.773 -65.1926C-112.168 -68.5876 -111.602 -74.246 -107.641 -78.2068C-103.68 -82.1676 -98.0218 -82.1676 -94.6268 -79.3385C-92.3635 -75.9435 -52.1894 -22.1894 -52.1894 -22.1894ZM72.2936 -18.7944C72.2936 -18.7944 115.297 -75.3776 118.692 -79.3385C122.087 -82.7334 128.311 -82.7334 131.706 -78.7726C135.667 -74.8118 135.667 -69.1535 132.272 -65.7585C128.877 -61.7977 72.2936 -18.7944 72.2936 -18.7944ZM-52.1894 105.689C-52.1894 105.689 -91.7977 159.443 -95.1926 162.272C-98.5876 165.667 -104.246 165.101 -108.207 161.14C-112.168 157.179 -112.733 152.087 -109.338 149.258C-105.943 145.863 -52.1894 105.689 -52.1894 105.689ZM97.1902 41.7496C97.1902 41.7496 167.919 32.1304 173.012 32.1304C178.104 32.1304 181.499 36.0913 181.499 41.7496C181.499 46.8421 177.538 51.3687 172.446 51.3687C167.919 51.3687 97.1902 41.7496 97.1902 41.7496ZM-78.7835 41.7496C-78.7835 41.7496 -144.986 51.3687 -149.513 51.3687C-154.039 51.3687 -158 47.4079 -158 41.7496C-158 36.0913 -154.039 32.1304 -149.513 32.1304C-144.986 32.1304 -78.7835 41.7496 -78.7835 41.7496Z" fill="#42ADE2"/>
<path d="M73.9911 204.71C79.6161 204.71 84.1761 200.15 84.1761 194.525C84.1761 188.9 79.6161 184.34 73.9911 184.34C68.3661 184.34 63.8062 188.9 63.8062 194.525C63.8062 200.15 68.3661 204.71 73.9911 204.71Z" fill="#42ADE2"/>
<path d="M163.392 118.136C169.017 118.136 173.577 113.576 173.577 107.951C173.577 102.326 169.017 97.7659 163.392 97.7659C157.767 97.7659 153.208 102.326 153.208 107.951C153.208 113.576 157.767 118.136 163.392 118.136Z" fill="#42ADE2"/>
</svg>
