<svg width="174" height="245" viewBox="0 0 174 245" fill="none" xmlns="http://www.w3.org/2000/svg">
<path d="M120.381 106.923C120.622 107.537 121.215 109.189 121.77 109.535C122.437 109.976 124.734 108.862 125.4 108.497C127.52 107.375 129.245 105.587 130.327 103.389C132.456 99.0289 129.827 93.5936 124.771 94.189C119.233 94.842 118.789 102.774 120.381 106.923ZM106.324 124.765C106.825 124.323 108.176 123.248 108.325 122.595C108.528 121.788 106.806 119.867 106.287 119.31C104.621 117.563 102.454 116.353 100.12 115.968C95.4716 115.162 91.249 119.406 93.3233 124.246C95.5827 129.509 103.009 127.55 106.324 124.765ZM127.919 133.907C127.289 133.734 125.641 133.273 125.067 133.542C124.326 133.868 123.882 136.442 123.752 137.191C123.419 139.63 123.808 142.146 124.919 144.316C127.104 148.638 132.901 149.579 135.364 144.95C138.068 139.918 132.086 134.944 127.919 133.907ZM108.38 100.527C109.158 101.276 109.954 102.14 110.825 102.812C111.325 103.197 112.436 103.504 112.936 102.985C113.696 102.198 113.936 100.104 114.159 99.0865C115.214 94.4195 115.788 89.5604 115.01 84.7973L114.973 84.6437C113.788 77.1918 103.806 75.3288 100.842 82.6271L100.639 83.2032C99.2497 87.6206 100.88 92.2492 103.732 95.5718C105.213 97.3004 106.75 98.9329 108.38 100.527ZM90.6378 110.399C92.8232 110.783 95.0271 111.052 97.231 111.244C98.3052 111.34 99.4349 111.494 100.528 111.455C101.12 111.436 102.194 110.937 102.287 110.226C102.398 109.112 101.324 107.326 100.88 106.385C98.8979 102.044 96.4161 97.8765 92.9529 94.6692L92.8417 94.5539C87.4153 89.522 78.5071 94.5347 80.5814 102.159L80.7851 102.736C82.3223 107.076 86.3782 109.631 90.6378 110.399ZM78.0811 135.539C71.2101 138.036 71.1731 148.561 78.6182 150.328L79.2109 150.424C83.6372 151.096 87.7487 148.619 90.4341 145.123C91.8046 143.318 93.101 141.455 94.3234 139.534C94.916 138.593 95.5827 137.652 96.0643 136.653C96.3421 136.077 96.4347 134.886 95.8605 134.464C94.9716 133.811 92.9529 133.945 91.9343 133.888C87.3227 133.638 82.6001 133.888 78.2293 135.482L78.0811 135.539ZM122.622 171.685C125.419 168.055 125.437 163.138 123.882 158.951C123.078 156.811 122.182 154.709 121.196 152.652C120.715 151.653 120.252 150.578 119.678 149.617C119.344 149.099 118.4 148.407 117.751 148.695C116.77 149.156 115.844 151.019 115.288 151.922C112.732 155.917 110.566 160.277 109.677 164.982L109.64 165.155C108.269 172.568 116.974 177.908 122.215 172.146L122.622 171.685ZM149.68 146.506L149.81 146.602C156.181 150.251 163.793 143.337 160.126 136.365L159.811 135.847C157.348 131.967 152.847 130.411 148.551 130.642C146.328 130.757 144.124 131.007 141.939 131.352C140.883 131.506 139.735 131.621 138.698 131.909C138.105 132.063 137.179 132.793 137.253 133.503C137.364 134.617 138.809 136.096 139.439 136.941C142.309 140.686 145.624 144.182 149.68 146.506ZM137.901 111.455C138.939 111.801 140.828 111.033 141.809 110.764C146.291 109.573 150.699 107.825 154.403 104.925L154.533 104.829C160.329 100.258 157.292 90.2326 149.68 90.9048L149.088 91.0008C144.68 91.7499 141.476 95.399 139.939 99.5859C139.162 101.737 138.476 103.922 137.883 106.135C137.605 107.211 137.235 108.325 137.068 109.438C136.975 110.072 137.235 111.225 137.901 111.455Z" fill="#ED6C30"/>
<path d="M35.4287 167.288L36.0028 167.48C40.6514 168.766 46.0963 166.058 50.0041 163.715C53.6155 161.545 57.1714 159.202 60.4124 156.436C61.6718 155.342 63.0053 154.324 64.0424 152.998C64.9684 151.788 65.6351 149.445 63.709 148.792C61.0051 147.909 57.8752 148.37 55.0971 148.504C48.8744 148.812 42.133 149.061 36.3917 151.865C34.3915 152.845 32.6877 154.285 31.4839 156.455C29.2614 160.431 31.1505 165.713 35.4287 167.288ZM131.919 218.663L132.252 218.145C134.697 213.862 133.623 207.678 132.475 203.145C131.4 198.958 130.178 194.771 128.456 190.815C127.77 189.278 127.196 187.665 126.233 186.282C125.344 185.034 123.344 183.728 122.233 185.476C120.677 187.934 120.288 191.199 119.677 194.003C118.307 200.303 116.751 207.101 117.807 213.574C118.196 215.821 119.084 217.934 120.77 219.701C123.918 223.023 129.326 222.543 131.919 218.663ZM200.166 165.463C204.37 163.869 206.185 158.568 203.87 154.535L203.555 153.997C200.796 149.906 194.943 148.351 190.48 147.563C186.368 146.833 182.183 146.257 177.997 146.238C176.368 146.238 174.701 146.123 173.089 146.449C171.626 146.757 169.663 148.12 170.737 149.887C172.238 152.384 174.941 154.093 177.145 155.841C182.109 159.759 187.424 164.042 193.554 165.732C195.684 166.289 197.888 166.347 200.166 165.463ZM168.385 65.093C166.015 68.6653 163.774 72.3721 161.996 76.2901C161.311 77.8266 160.514 79.3438 160.125 81.0147C159.792 82.532 160.144 84.9327 162.163 84.6831C164.978 84.2989 167.607 82.4744 170.052 81.13C175.553 78.0954 181.535 74.8688 185.572 69.7985C186.961 68.0315 187.924 65.9765 188.109 63.4605C188.48 58.8319 184.59 54.8947 180.072 55.3941L179.479 55.4709C174.756 56.3544 170.941 61.2327 168.385 65.093ZM44.1147 98.8378C48.2076 99.7213 52.3562 100.47 56.5417 100.643C58.1715 100.701 59.8383 100.893 61.4496 100.624C62.9312 100.374 64.9499 99.1067 63.9313 97.2629C62.5238 94.7277 59.8754 92.9032 57.7455 91.0594C52.9118 86.9686 47.7631 82.4552 41.6885 80.573C39.5772 79.9008 37.3918 79.7663 35.0953 80.5346C30.8357 81.9558 28.817 87.1798 30.9838 91.3283L31.2987 91.8853C33.8915 96.0722 39.6883 97.8775 44.1147 98.8378ZM74.8397 39.626L74.7101 40.2406C73.9137 45.1573 77.0436 50.5158 79.6735 54.3377C82.1181 57.8332 84.711 61.2903 87.6927 64.3632C88.841 65.554 89.9707 66.8408 91.3412 67.7819C92.5821 68.6269 94.9156 69.0879 95.3416 67.0328C95.9527 64.152 95.1749 60.983 94.8045 58.1405C93.897 51.745 93.008 44.8116 89.7485 39.1651C88.6187 37.1869 87.0816 35.5736 84.8962 34.5365C80.8032 32.5775 75.9139 35.055 74.8397 39.626ZM110.75 26.7773L110.436 27.2958C107.713 32.0013 109.102 38.0511 110.01 43.0831C111.51 51.5145 113.436 59.8114 116.177 67.8971C116.603 69.1455 117.084 71.3926 118.492 71.8535C120.64 72.5257 120.992 69.3183 121.381 67.9739C123.177 61.7512 123.548 55.0292 124.437 48.6144C125.215 43.0831 125.752 37.4558 124.844 31.8861C124.474 29.639 123.585 27.5263 121.9 25.7594C118.77 22.4368 113.362 22.9169 110.75 26.7773ZM46.8556 58.8703C48.0595 64.2288 53.1155 67.5514 57.1529 70.5283C63.8757 75.5026 70.8208 80.0544 78.2289 83.8764C79.3586 84.4526 81.2292 85.7394 82.5441 85.0288C84.5443 83.9916 82.6367 81.4181 82.0255 80.1505C79.1549 74.4079 74.8953 69.3183 71.2283 64.0751C68.0613 59.5425 64.6721 55.106 60.2828 51.7834C58.5049 50.4197 56.4491 49.5555 54.0415 49.4979C49.5781 49.3826 46.0037 53.6271 46.726 58.2942L46.8556 58.8703ZM82.6923 166.097C81.7292 164.003 79.2105 165.924 77.9881 166.558C72.3765 169.419 67.376 173.741 62.2645 177.428C57.8381 180.617 53.4859 184.035 50.1893 188.51C48.8558 190.335 47.9669 192.428 47.8557 194.944C47.652 199.573 51.6709 203.356 56.1713 202.703L56.764 202.588C61.9311 201.436 65.2462 196.269 68.1909 192.14C73.1358 185.264 77.6548 178.158 81.4885 170.553C82.0811 169.381 83.3405 167.46 82.6923 166.097ZM100.824 177.928C96.8047 182.883 93.8785 188.913 90.6189 194.426C87.7853 199.189 85.1369 204.125 83.8405 209.598C83.3034 211.826 83.3034 214.112 84.1924 216.455C85.7851 220.795 90.9338 222.562 94.8045 220.104L95.3045 219.758C99.5827 216.551 100.62 210.424 101.731 205.411C103.583 197.057 104.991 188.683 105.583 180.117C105.676 178.792 106.083 176.526 104.954 175.546C103.25 174.067 101.694 176.852 100.824 177.928ZM23.2424 113.492C19.7976 116.43 19.7791 122.058 23.2424 125.073L23.7239 125.457C28.0206 128.665 33.9285 127.743 38.8734 127.263C47.0964 126.456 55.2083 125.169 63.2275 123.056C64.4684 122.711 66.6723 122.403 67.2279 121.001C68.0798 118.85 65.0055 118.197 63.7461 117.679C57.9493 115.278 51.4857 114.318 45.4296 112.858C40.1884 111.571 34.8175 110.534 29.4096 110.976C27.2242 111.149 25.1129 111.879 23.2424 113.492ZM138.846 76.8086C140.29 77.0775 141.698 75.2722 142.605 74.3695C148.532 68.3773 153.828 61.8665 158.792 55.01C161.774 50.8999 165.607 46.156 165.2 40.6631L165.144 40.0486C164.478 35.3815 159.829 32.4622 155.606 33.9987C153.328 34.8246 151.624 36.2842 150.328 38.128C147.124 42.699 145.198 47.9614 143.513 53.2814C141.55 59.4081 138.975 65.6116 137.92 72.0072C137.697 73.39 136.642 76.4245 138.846 76.8086ZM199.184 84.8943C193.851 85.9122 188.924 88.3706 184.165 91.021C178.683 94.0747 172.701 96.7252 167.682 100.586C166.607 101.431 163.811 102.871 165.144 104.734C166.052 105.944 168.256 105.656 169.515 105.656C177.794 105.56 185.961 104.619 194.11 103.198C198.981 102.333 204.926 101.623 208.278 97.3782L208.648 96.8788C211.26 93.0184 209.834 87.5831 205.759 85.6818C203.555 84.6254 201.351 84.4718 199.184 84.8943ZM164.181 212.748C164.774 210.309 164.515 208.023 163.737 205.891C161.811 200.629 158.607 196.039 155.254 191.66C151.384 186.609 147.791 180.962 143.235 176.545C142.235 175.585 140.364 172.992 138.846 174.701C137.845 175.815 138.512 178.024 138.753 179.33C140.309 187.742 142.661 195.904 145.476 203.971C147.143 208.792 148.884 214.745 153.495 217.396L154.032 217.665C158.181 219.643 163.089 217.223 164.181 212.748ZM189.554 187.377C185.868 183.248 181.238 180.252 176.516 177.505C171.089 174.336 165.718 170.553 159.885 168.248C158.607 167.749 155.94 166.078 155.143 168.267C154.643 169.688 156.051 171.455 156.755 172.569C161.274 179.771 166.422 186.397 171.96 192.774C175.275 196.577 179.053 201.397 184.294 202.05L184.887 202.089C189.424 202.3 193.091 198.132 192.462 193.542C192.147 191.065 191.073 189.048 189.554 187.377ZM206.111 120.656C200.777 119.619 195.332 120.08 189.998 120.771C183.813 121.578 177.312 121.827 171.293 123.575C169.978 123.959 166.867 124.286 167.496 126.514C167.904 127.973 170.052 128.53 171.256 128.991C178.997 131.987 186.943 134.138 195.054 135.848C199.888 136.885 205.704 138.421 210.297 135.713L210.797 135.387C214.575 132.755 215.13 127.147 212 123.844C210.297 122.039 208.278 121.097 206.111 120.656Z" fill="#F79329"/>
<path d="M125.882 115.66C123.178 115.66 120.993 117.945 120.993 120.73C120.993 123.534 123.178 125.801 125.882 125.801C128.586 125.801 130.771 123.534 130.771 120.73C130.771 117.945 128.586 115.66 125.882 115.66Z" fill="#ED6C30"/>
<path d="M110.251 140.47C112.951 140.47 115.14 138.2 115.14 135.4C115.14 132.599 112.951 130.329 110.251 130.329C107.55 130.329 105.361 132.599 105.361 135.4C105.361 138.2 107.55 140.47 110.251 140.47Z" fill="#ED6C30"/>
<path d="M167.404 224.862C162.737 224.862 158.977 228.78 158.977 233.601C158.977 238.44 162.755 242.339 167.404 242.339C169.639 242.339 171.782 241.418 173.362 239.78C174.943 238.141 175.83 235.918 175.83 233.601C175.83 231.283 174.943 229.06 173.362 227.421C171.782 225.782 169.639 224.862 167.404 224.862Z" fill="#FCC21B"/>
<path d="M171.497 26.0251C172.604 26.0276 173.701 25.8033 174.725 25.3651C175.748 24.9268 176.678 24.2832 177.461 23.4712C178.244 22.6593 178.865 21.6949 179.287 20.6336C179.71 19.5722 179.926 18.4347 179.924 17.2864C179.924 12.4657 176.146 8.54773 171.497 8.54773C166.83 8.54773 163.07 12.4657 163.07 17.2864C163.07 22.1263 166.849 26.0251 171.497 26.0251ZM70.8027 26.0635C75.4698 26.0635 79.2294 22.1455 79.2294 17.3248C79.2294 12.4849 75.4513 8.58614 70.8027 8.58614C69.6954 8.58361 68.5985 8.80791 67.5751 9.24618C66.5516 9.68444 65.6217 10.328 64.8387 11.14C64.0557 11.952 63.4351 12.9163 63.0125 13.9777C62.5899 15.0391 62.3736 16.1765 62.376 17.3248C62.376 22.1455 66.1356 26.0635 70.8027 26.0635Z" fill="#FCC21B"/>
<path d="M15.2792 86.8626C19.9332 86.8626 23.7059 82.9415 23.7059 78.1047C23.7059 73.2678 19.9332 69.3468 15.2792 69.3468C10.6253 69.3468 6.85254 73.2678 6.85254 78.1047C6.85254 82.9415 10.6253 86.8626 15.2792 86.8626Z" fill="#FCC21B"/>
<path d="M15.538 162.963C14.4299 162.963 13.3326 163.189 12.309 163.63C11.2854 164.07 10.3556 164.715 9.57291 165.529C8.79018 166.342 8.16986 167.308 7.74747 168.37C7.32508 169.433 7.10891 170.571 7.11135 171.72C7.11135 176.541 10.8895 180.459 15.538 180.459C20.1866 180.459 23.9647 176.541 23.9647 171.72C23.9647 166.861 20.2051 162.963 15.538 162.963Z" fill="#FCC21B"/>
<path d="M83.4335 244.491C88.0977 244.491 91.8787 240.57 91.8787 235.733C91.8787 230.897 88.0977 226.976 83.4335 226.976C78.7693 226.976 74.9883 230.897 74.9883 235.733C74.9883 240.57 78.7693 244.491 83.4335 244.491Z" fill="#FCC21B"/>
<path d="M115.659 15.1342C119.689 15.1342 122.956 11.7463 122.956 7.56712C122.956 3.38792 119.689 0 115.659 0C111.629 0 108.362 3.38792 108.362 7.56712C108.362 11.7463 111.629 15.1342 115.659 15.1342Z" fill="#FCC21B"/>
<path d="M36.6515 48.4163C40.6815 48.4163 43.9484 45.0284 43.9484 40.8492C43.9484 36.67 40.6815 33.282 36.6515 33.282C32.6215 33.282 29.3545 36.67 29.3545 40.8492C29.3545 45.0284 32.6215 48.4163 36.6515 48.4163Z" fill="#FCC21B"/>
<path d="M7.29697 127.6C11.327 127.6 14.5939 124.213 14.5939 120.033C14.5939 115.854 11.327 112.466 7.29697 112.466C3.26696 112.466 0 115.854 0 120.033C0 124.213 3.26696 127.6 7.29697 127.6Z" fill="#FCC21B"/>
<path d="M39.5035 219.757C43.5335 219.757 46.8005 216.369 46.8005 212.19C46.8005 208.011 43.5335 204.623 39.5035 204.623C35.4735 204.623 32.2065 208.011 32.2065 212.19C32.2065 216.369 35.4735 219.757 39.5035 219.757Z" fill="#FCC21B"/>
<path d="M127.159 244.437C131.189 244.437 134.456 241.049 134.456 236.87C134.456 232.691 131.189 229.303 127.159 229.303C123.129 229.303 119.862 232.691 119.862 236.87C119.862 241.049 123.129 244.437 127.159 244.437Z" fill="#FCC21B"/>
</svg>
