<svg width="98" height="131" viewBox="0 0 98 131" fill="none" xmlns="http://www.w3.org/2000/svg">
<path d="M32.3912 62.7749C32.3912 62.7749 28.6857 39.4521 28.6857 37.7083C28.6857 35.9645 30.4295 34.8747 32.3912 34.8747C34.3529 34.8747 36.0967 36.1825 36.0967 37.9263C36.0967 39.67 32.3912 62.7749 32.3912 62.7749ZM32.3912 68.2241C32.3912 68.2241 36.0967 91.5469 36.0967 93.2907C36.0967 94.8165 34.3529 96.3423 32.3912 96.3423C30.4295 96.3423 28.6857 95.0344 28.6857 93.2907C28.6857 91.5469 32.3912 68.2241 32.3912 68.2241ZM29.5576 65.3905C29.5576 65.3905 6.2348 69.096 4.49104 69.096C2.96525 69.096 1.43945 67.3522 1.43945 65.3905C1.43945 63.4288 2.74728 61.685 4.49104 61.685C6.2348 61.685 29.5576 65.3905 29.5576 65.3905ZM35.2248 65.3905C35.2248 65.3905 58.5476 61.685 60.2914 61.685C61.8172 61.685 63.3429 63.4288 63.3429 65.3905C63.3429 67.3522 62.0351 69.096 60.2914 69.096C58.5476 69.096 35.2248 65.3905 35.2248 65.3905ZM30.4295 63.4288C30.4295 63.4288 11.2481 49.4787 10.1583 48.3888C9.0684 47.299 9.28638 45.1193 10.8122 43.5935C12.338 42.0677 14.2997 41.8497 15.6075 42.9396C16.4794 44.4654 30.4295 63.4288 30.4295 63.4288ZM34.3529 67.3522C34.3529 67.3522 53.5343 81.3023 54.6241 82.3922C55.714 83.482 55.496 85.6617 53.9702 87.1875C52.4444 88.7133 50.4827 88.9313 49.1749 87.8414C48.303 86.5336 34.3529 67.3522 34.3529 67.3522ZM30.4295 67.3522C30.4295 67.3522 16.4794 86.5336 15.3895 87.6235C14.2997 88.7133 12.12 88.4953 10.5942 86.9695C9.06841 85.4438 8.85044 83.482 9.94029 82.1742C11.2481 81.3023 30.4295 67.3522 30.4295 67.3522ZM34.3529 63.4288C34.3529 63.4288 48.303 44.2474 49.3929 43.1576C50.4827 42.0677 52.6624 42.2857 54.1882 43.8115C55.714 45.3373 55.932 47.299 54.8421 48.6068C53.5343 49.6967 34.3529 63.4288 34.3529 63.4288Z" fill="#6ADBC6"/>
<path d="M30.6474 60.8128C30.6474 60.8128 11.466 23.1039 10.3762 20.4883C9.28634 17.8727 9.94026 15.0391 11.902 14.1672C13.8637 13.2953 16.2614 15.0391 17.3512 17.6547C18.4411 20.2703 30.6474 60.8128 30.6474 60.8128ZM34.1349 69.9675C34.1349 69.9675 53.3163 107.676 54.4062 110.292C55.496 112.908 54.8421 115.741 52.8804 116.613C50.9186 117.485 48.521 115.741 47.4311 113.126C46.3413 110.51 34.1349 69.9675 34.1349 69.9675ZM27.8138 67.3519C27.8138 67.3519 -9.89502 86.5332 -12.5107 87.6231C-15.1263 88.7129 -17.9599 88.059 -18.8318 86.0973C-19.7037 84.1356 -17.9599 81.7379 -15.3443 80.648C-12.5107 79.5582 27.8138 67.3519 27.8138 67.3519ZM36.9685 63.6464C36.9685 63.6464 74.6774 44.465 77.293 43.3752C79.9086 42.2853 82.7423 42.9392 83.6141 44.9009C84.486 46.8627 82.7423 49.2603 80.1266 50.3502L36.9685 63.6464ZM27.8138 63.4284C27.8138 63.4284 -12.2927 50.3502 -15.1263 49.2603C-17.9599 48.1705 -19.2677 45.7728 -18.3959 43.8111C-17.524 41.8494 -14.6904 41.4134 -12.0747 42.5033C-9.45908 43.5931 27.8138 63.4284 27.8138 63.4284ZM36.9685 67.3519C36.9685 67.3519 77.075 80.4301 79.9086 81.5199C82.5243 82.6098 84.0501 85.2254 83.3962 86.9692C82.5243 88.9309 79.6907 89.3668 77.075 88.277C74.2414 87.1871 36.9685 67.3519 36.9685 67.3519ZM30.4294 69.9675C30.4294 69.9675 17.3512 110.074 16.2614 112.908C15.1715 115.523 12.5559 117.049 10.8121 116.395C8.85041 115.523 8.41446 112.69 9.50432 110.074C10.5942 107.24 30.4294 69.9675 30.4294 69.9675ZM34.3529 61.0307C34.3529 61.0307 47.4311 20.9242 48.521 18.0906C49.6108 15.257 52.0085 13.7312 53.9702 14.6031C55.9319 15.475 56.3679 18.3086 55.278 20.9242C54.1882 23.7579 34.3529 61.0307 34.3529 61.0307Z" fill="#B28EF8"/>
<path d="M32.391 98.3045C32.391 98.3045 36.0965 125.551 36.0965 127.512C36.0965 129.474 34.3527 131 32.391 131C30.4293 131 28.6855 129.474 28.6855 127.512C28.6855 125.551 32.391 98.3045 32.391 98.3045ZM32.391 30.5158C32.391 30.5158 28.6855 5.01331 28.6855 3.26955C28.6855 1.52579 30.2113 0 32.391 0C34.5707 0 36.0965 1.52579 36.0965 3.26955C36.0965 5.01331 32.391 30.5158 32.391 30.5158ZM55.7138 88.7138C55.7138 88.7138 77.5108 105.28 79.0366 106.587C80.3444 107.895 80.3444 110.293 78.8186 111.601C77.2928 112.908 75.1131 113.126 73.8053 111.819C72.2795 110.511 55.7138 88.7138 55.7138 88.7138ZM7.7604 40.7604C7.7604 40.7604 -12.9468 25.5025 -14.0366 24.1947C-15.3444 22.8869 -15.1265 20.7072 -13.6007 19.1814C-12.0749 17.6556 -9.89518 17.6556 -8.58736 18.7454C-7.71548 20.0532 7.7604 40.7604 7.7604 40.7604ZM55.7138 42.0682C55.7138 42.0682 72.2795 20.2712 73.5873 18.7454C74.8952 17.4376 77.2928 17.4376 78.6007 18.9634C80.1264 20.4892 80.1264 22.6689 78.8186 23.9767C77.5108 25.5025 55.7138 42.0682 55.7138 42.0682ZM7.7604 90.0216C7.7604 90.0216 -7.49751 110.729 -8.80532 111.819C-10.1131 113.126 -12.2928 112.908 -13.8186 111.383C-15.3444 109.857 -15.5624 107.895 -14.2546 106.805C-12.9468 105.498 7.7604 90.0216 7.7604 90.0216ZM65.3045 65.391C65.3045 65.391 92.5507 61.6855 94.5125 61.6855C96.4742 61.6855 97.782 63.2113 97.782 65.391C97.782 67.3528 96.2562 69.0965 94.2945 69.0965C92.5507 69.0965 65.3045 65.391 65.3045 65.391ZM-2.4842 65.391C-2.4842 65.391 -27.9867 69.0965 -29.7304 69.0965C-31.4742 69.0965 -33 67.5707 -33 65.391C-33 63.2113 -31.4742 61.6855 -29.7304 61.6855C-27.9867 61.6855 -2.4842 65.391 -2.4842 65.391Z" fill="#9FC9FF"/>
<path d="M7.76038 10.6812C9.92725 10.6812 11.6838 8.92456 11.6838 6.75769C11.6838 4.59082 9.92725 2.83423 7.76038 2.83423C5.59351 2.83423 3.83691 4.59082 3.83691 6.75769C3.83691 8.92456 5.59351 10.6812 7.76038 10.6812Z" fill="#42ADE2"/>
<path d="M57.4576 10.6812C59.6245 10.6812 61.3811 8.92456 61.3811 6.75769C61.3811 4.59082 59.6245 2.83423 57.4576 2.83423C55.2908 2.83423 53.5342 4.59082 53.5342 6.75769C53.5342 8.92456 55.2908 10.6812 57.4576 10.6812Z" fill="#42ADE2"/>
<path d="M6.67053 128.167C8.8374 128.167 10.594 126.41 10.594 124.243C10.594 122.076 8.8374 120.32 6.67053 120.32C4.50367 120.32 2.74707 122.076 2.74707 124.243C2.74707 126.41 4.50367 128.167 6.67053 128.167Z" fill="#42ADE2"/>
<path d="M56.3678 128.167C58.5347 128.167 60.2913 126.41 60.2913 124.243C60.2913 122.076 58.5347 120.32 56.3678 120.32C54.2009 120.32 52.4443 122.076 52.4443 124.243C52.4443 126.41 54.2009 128.167 56.3678 128.167Z" fill="#42ADE2"/>
<path d="M90.8068 94.8167C92.9736 94.8167 94.7302 93.0601 94.7302 90.8932C94.7302 88.7264 92.9736 86.9698 90.8068 86.9698C88.6399 86.9698 86.8833 88.7264 86.8833 90.8932C86.8833 93.0601 88.6399 94.8167 90.8068 94.8167Z" fill="#42ADE2"/>
<path d="M90.8068 45.1193C92.9736 45.1193 94.7302 43.3627 94.7302 41.1959C94.7302 39.029 92.9736 37.2724 90.8068 37.2724C88.6399 37.2724 86.8833 39.029 86.8833 41.1959C86.8833 43.3627 88.6399 45.1193 90.8068 45.1193Z" fill="#42ADE2"/>
</svg>
