<svg width="68" height="70" viewBox="0 0 68 70" fill="none" xmlns="http://www.w3.org/2000/svg">
<path d="M34.4661 30.613C34.535 30.7889 34.7047 31.2618 34.8638 31.3608C35.0547 31.4873 35.7122 31.1684 35.9031 31.0639C36.5101 30.7426 37.0037 30.2307 37.3135 29.6012C37.9233 28.353 37.1704 26.7968 35.7228 26.9673C34.1373 27.1542 34.0101 29.4252 34.4661 30.613ZM30.4415 35.7214C30.5847 35.5949 30.9717 35.287 31.0142 35.1C31.0725 34.8691 30.5794 34.3192 30.4309 34.1597C29.9537 33.6593 29.3333 33.3129 28.6651 33.2029C27.3342 32.972 26.1253 34.1872 26.7191 35.5729C27.366 37.0796 29.4923 36.5187 30.4415 35.7214ZM36.6242 38.3388C36.4439 38.2893 35.972 38.1574 35.8076 38.2343C35.5955 38.3278 35.4683 39.0647 35.4311 39.2791C35.3357 39.9775 35.447 40.6978 35.7652 41.3192C36.3909 42.5564 38.0506 42.8258 38.7558 41.5006C39.53 40.0599 37.8173 38.6357 36.6242 38.3388ZM31.0301 28.7819C31.2528 28.9963 31.4808 29.2438 31.73 29.4362C31.8732 29.5462 32.1913 29.6342 32.3345 29.4857C32.5519 29.2603 32.6208 28.6609 32.6844 28.3695C32.9867 27.0332 33.1511 25.642 32.9284 24.2783L32.9178 24.2344C32.5784 22.1008 29.7203 21.5674 28.8719 23.657L28.8136 23.8219C28.4159 25.0867 28.8826 26.4119 29.6991 27.3632C30.1233 27.8581 30.5634 28.3255 31.0301 28.7819ZM25.9503 31.6083C26.576 31.7182 27.207 31.7952 27.838 31.8502C28.1455 31.8777 28.469 31.9217 28.7818 31.9107C28.9515 31.9052 29.259 31.7622 29.2855 31.5588C29.3174 31.2398 29.0098 30.7285 28.8826 30.459C28.3152 29.2163 27.6047 28.023 26.6131 27.1047L26.5813 27.0717C25.0276 25.6311 22.4771 27.0662 23.071 29.2493L23.1293 29.4142C23.5694 30.657 24.7307 31.3883 25.9503 31.6083ZM22.3552 38.8062C20.3879 39.5211 20.3773 42.5344 22.5089 43.0403L22.6786 43.0678C23.9459 43.2603 25.1231 42.5509 25.8919 41.5501C26.2843 41.0332 26.6555 40.4998 27.0055 39.95C27.1751 39.6805 27.366 39.4111 27.5039 39.1251C27.5834 38.9602 27.61 38.6193 27.4456 38.4983C27.1911 38.3113 26.6131 38.3498 26.3214 38.3333C25.0011 38.2618 23.649 38.3333 22.3976 38.7897L22.3552 38.8062ZM35.1077 49.155C35.9084 48.1157 35.9137 46.708 35.4683 45.5093C35.2381 44.8964 34.9816 44.2946 34.6994 43.7057C34.5615 43.4197 34.429 43.1118 34.2646 42.8368C34.1691 42.6884 33.8987 42.4904 33.7131 42.5729C33.4321 42.7049 33.167 43.2383 33.0079 43.4967C32.2762 44.6405 31.6558 45.8887 31.4012 47.2359L31.3906 47.2854C30.9982 49.4079 33.4904 50.9366 34.991 49.287L35.1077 49.155ZM42.8546 41.946L42.8918 41.9735C44.7158 43.0183 46.8951 41.0387 45.8452 39.0427L45.7551 38.8942C45.0499 37.7834 43.7614 37.338 42.5312 37.404C41.8949 37.437 41.2639 37.5085 40.6382 37.6075C40.3359 37.6515 40.0072 37.6845 39.7103 37.7669C39.5406 37.8109 39.2754 38.0199 39.2967 38.2233C39.3285 38.5423 39.7421 38.9657 39.9224 39.2076C40.7442 40.2799 41.6934 41.2807 42.8546 41.946ZM39.4822 31.9107C39.7792 32.0097 40.32 31.7897 40.6011 31.7127C41.8843 31.3718 43.1463 30.8714 44.2068 30.0411L44.2439 30.0136C45.9036 28.7049 45.034 25.8345 42.8546 26.027L42.685 26.0545C41.423 26.2689 40.5056 27.3137 40.0655 28.5124C39.8431 29.1283 39.6467 29.7539 39.4769 30.3875C39.3974 30.6955 39.2914 31.0144 39.2436 31.3333C39.2171 31.5148 39.2914 31.8447 39.4822 31.9107Z" fill="#F476E5"/>
<path d="M10.1438 47.8974L10.3082 47.9524C11.6391 48.3208 13.1981 47.5454 14.3169 46.8746C15.3509 46.2532 16.369 45.5824 17.2969 44.7905C17.6575 44.4771 18.0392 44.1857 18.3362 43.8062C18.6013 43.4598 18.7922 42.789 18.2407 42.602C17.4666 42.3491 16.5704 42.481 15.7751 42.5195C13.9934 42.6075 12.0633 42.679 10.4195 43.4818C9.84688 43.7623 9.35905 44.1747 9.01439 44.796C8.37809 45.9343 8.91894 47.4465 10.1438 47.8974ZM37.7698 62.6067L37.8653 62.4582C38.5652 61.232 38.2577 59.4614 37.9289 58.1637C37.6214 56.9649 37.2714 55.7662 36.7783 54.6334C36.5821 54.1935 36.4177 53.7316 36.142 53.3357C35.8874 52.9783 35.3148 52.6043 34.9966 53.1047C34.5512 53.8086 34.4399 54.7434 34.2649 55.5462C33.8725 57.3498 33.4271 59.2964 33.7293 61.1495C33.8407 61.7929 34.0952 62.3977 34.5777 62.9036C35.4792 63.8549 37.0275 63.7174 37.7698 62.6067ZM57.3095 47.375C58.5132 46.9186 59.0329 45.4009 58.37 44.2461L58.2799 44.0922C57.4898 42.9209 55.8142 42.4755 54.5363 42.2501C53.3592 42.0411 52.1608 41.8762 50.9624 41.8707C50.4958 41.8707 50.0186 41.8377 49.5573 41.9311C49.1384 42.0191 48.5763 42.4095 48.8839 42.9154C49.3134 43.6303 50.0875 44.1197 50.7185 44.6201C52.1396 45.7418 53.6614 46.9681 55.4165 47.452C56.0263 47.6114 56.6573 47.6279 57.3095 47.375ZM48.2105 18.6382C47.5317 19.6609 46.8901 20.7222 46.3811 21.844C46.1849 22.2839 45.9569 22.7183 45.8455 23.1967C45.7501 23.6311 45.8508 24.3184 46.4288 24.247C47.2348 24.137 47.9877 23.6146 48.6877 23.2297C50.2625 22.3609 51.9752 21.4371 53.1312 19.9854C53.5289 19.4795 53.8046 18.8911 53.8576 18.1708C53.9637 16.8456 52.8501 15.7183 51.5563 15.8613L51.3867 15.8833C50.0345 16.1362 48.9422 17.5329 48.2105 18.6382ZM12.6307 28.2996C13.8025 28.5525 14.9903 28.767 16.1887 28.8165C16.6553 28.833 17.1325 28.888 17.5938 28.811C18.018 28.7395 18.596 28.3766 18.3044 27.8487C17.9014 27.1228 17.1431 26.6005 16.5333 26.0726C15.1494 24.9013 13.6753 23.6091 11.9361 23.0702C11.3316 22.8778 10.7059 22.8393 10.0484 23.0592C8.8288 23.4661 8.25083 24.9618 8.87122 26.1495L8.96136 26.309C9.70371 27.5078 11.3634 28.0246 12.6307 28.2996ZM21.4275 11.3467L21.3904 11.5227C21.1624 12.9304 22.0585 14.4646 22.8115 15.5588C23.5114 16.5596 24.2538 17.5494 25.1075 18.4292C25.4362 18.7701 25.7597 19.1386 26.1521 19.408C26.5073 19.65 27.1754 19.7819 27.2974 19.1935C27.4724 18.3687 27.2497 17.4614 27.1436 16.6476C26.8838 14.8165 26.6293 12.8314 25.696 11.2148C25.3726 10.6484 24.9325 10.1865 24.3068 9.88955C23.1349 9.32868 21.7351 10.038 21.4275 11.3467ZM31.7091 7.66803L31.6189 7.8165C30.8395 9.16371 31.2372 10.8958 31.497 12.3365C31.9265 14.7505 32.4779 17.126 33.2627 19.441C33.3847 19.7984 33.5225 20.4418 33.9255 20.5737C34.5406 20.7662 34.6414 19.8479 34.7527 19.463C35.2671 17.6814 35.3731 15.7568 35.6276 13.9202C35.8503 12.3365 36.0041 10.7254 35.7443 9.13072C35.6382 8.48736 35.3837 7.88249 34.9012 7.3766C34.0051 6.4253 32.4567 6.56277 31.7091 7.66803ZM13.4155 16.8566C13.7601 18.3907 15.2077 19.342 16.3636 20.1943C18.2885 21.6185 20.2769 22.9217 22.3979 24.016C22.7213 24.181 23.2569 24.5494 23.6334 24.3459C24.206 24.049 23.6599 23.3122 23.4849 22.9492C22.663 21.3051 21.4434 19.8479 20.3935 18.3467C19.4868 17.049 18.5165 15.7788 17.2598 14.8275C16.7507 14.4371 16.1622 14.1896 15.4728 14.1731C14.1949 14.1401 13.1715 15.3554 13.3783 16.6916L13.4155 16.8566ZM23.6758 47.5564C23.4001 46.9571 22.6789 47.5069 22.329 47.6884C20.7223 48.5077 19.2906 49.745 17.8271 50.8007C16.5598 51.7135 15.3138 52.6923 14.3699 53.9736C13.9881 54.4959 13.7336 55.0953 13.7018 55.8157C13.6435 57.1409 14.7941 58.2241 16.0826 58.0372L16.2523 58.0042C17.7317 57.6743 18.6808 56.1951 19.5239 55.0128C20.9397 53.0443 22.2335 51.0097 23.3311 48.8322C23.5008 48.4967 23.8614 47.9469 23.6758 47.5564ZM28.8669 50.9437C27.7163 52.3624 26.8785 54.089 25.9453 55.6672C25.134 57.0309 24.3757 58.4441 24.0045 60.0113C23.8508 60.6491 23.8508 61.3035 24.1053 61.9743C24.5613 63.2171 26.0354 63.7229 27.1436 63.0191L27.2868 62.9201C28.5117 62.0018 28.8086 60.2477 29.1268 58.8125C29.657 56.4205 30.06 54.023 30.2297 51.5706C30.2562 51.1912 30.3729 50.5423 30.0494 50.2619C29.5616 49.8384 29.1162 50.6358 28.8669 50.9437ZM6.65477 32.4952C5.66851 33.3365 5.66321 34.9477 6.65477 35.811L6.79264 35.9209C8.02282 36.8392 9.71432 36.5753 11.1301 36.4378C13.4844 36.2069 15.8069 35.8385 18.1029 35.2336C18.4581 35.1346 19.0891 35.0466 19.2482 34.6452C19.4921 34.0293 18.6119 33.8424 18.2513 33.6939C16.5917 33.0066 14.7411 32.7316 13.0072 32.3137C11.5066 31.9453 9.96884 31.6484 8.42051 31.7748C7.79481 31.8243 7.19033 32.0333 6.65477 32.4952ZM39.753 21.9924C40.1666 22.0694 40.5695 21.5525 40.8294 21.2941C42.5262 19.5785 44.0427 17.7144 45.4638 15.7513C46.3175 14.5745 47.4151 13.2163 47.2984 11.6437L47.2825 11.4677C47.0916 10.1315 45.7607 9.29568 44.5517 9.73559C43.8995 9.97204 43.4117 10.3899 43.0405 10.9178C42.1232 12.2266 41.5717 13.7332 41.0892 15.2564C40.5271 17.0105 39.7901 18.7866 39.4878 20.6177C39.4242 21.0137 39.122 21.8825 39.753 21.9924ZM57.0285 24.3074C55.5014 24.5989 54.0909 25.3027 52.7282 26.0616C51.1586 26.9359 49.4459 27.6947 48.009 28.8C47.7014 29.0419 46.9007 29.4543 47.2825 29.9877C47.5423 30.3341 48.1733 30.2517 48.5339 30.2517C50.9041 30.2242 53.2425 29.9547 55.5756 29.5478C56.9702 29.3004 58.6723 29.0969 59.632 27.8817L59.7381 27.7387C60.4857 26.6334 60.0774 25.0773 58.9109 24.5329C58.2799 24.2305 57.6489 24.1865 57.0285 24.3074ZM47.0068 60.9131C47.1765 60.2147 47.1022 59.5603 46.8795 58.95C46.3281 57.4433 45.4107 56.1291 44.451 54.8754C43.3428 53.4292 42.3141 51.8125 41.0097 50.5478C40.7233 50.2729 40.1878 49.5305 39.753 50.0199C39.4666 50.3388 39.6575 50.9712 39.7265 51.3451C40.1719 53.7536 40.8453 56.0906 41.6513 58.4001C42.1285 59.7803 42.6269 61.4849 43.9472 62.2438L44.101 62.3208C45.2888 62.8871 46.6939 62.1943 47.0068 60.9131ZM54.2712 53.6491C53.216 52.4669 51.8904 51.6091 50.5382 50.8227C48.9846 49.9154 47.4469 48.8322 45.7766 48.1723C45.4107 48.0293 44.6472 47.5509 44.4192 48.1778C44.276 48.5847 44.679 49.0906 44.8805 49.4095C46.1743 51.4716 47.6484 53.3687 49.2338 55.1943C50.183 56.2831 51.2647 57.6633 52.7653 57.8502L52.935 57.8612C54.2341 57.9217 55.284 56.7285 55.1037 55.4142C55.0136 54.7049 54.706 54.1275 54.2712 53.6491ZM59.0116 34.5462C57.4845 34.2493 55.9256 34.3813 54.3985 34.5792C52.6274 34.8102 50.7663 34.8817 49.0429 35.3821C48.6665 35.492 47.7756 35.5855 47.9559 36.2234C48.0726 36.6413 48.6877 36.8008 49.0323 36.9327C51.2488 37.7905 53.5236 38.4064 55.8461 38.8958C57.23 39.1927 58.895 39.6326 60.21 38.8573L60.3532 38.7638C61.4349 38.0105 61.594 36.4048 60.6978 35.459C60.21 34.9422 59.632 34.6727 59.0116 34.5462Z" fill="#EDE2E0"/>
<path d="M36.041 33.1139C35.2668 33.1139 34.6411 33.7683 34.6411 34.5656C34.6411 35.3684 35.2668 36.0173 36.041 36.0173C36.8151 36.0173 37.4408 35.3684 37.4408 34.5656C37.4408 33.7683 36.8151 33.1139 36.041 33.1139Z" fill="#ED6C30"/>
<path d="M31.5659 40.2183C32.339 40.2183 32.9657 39.5683 32.9657 38.7666C32.9657 37.9648 32.339 37.3149 31.5659 37.3149C30.7928 37.3149 30.166 37.9648 30.166 38.7666C30.166 39.5683 30.7928 40.2183 31.5659 40.2183Z" fill="#ED6C30"/>
<path d="M47.9292 64.379C46.593 64.379 45.5166 65.5007 45.5166 66.8809C45.5166 68.2666 46.5983 69.3829 47.9292 69.3829C48.5691 69.3829 49.1828 69.1193 49.6352 68.6501C50.0877 68.1809 50.3419 67.5445 50.3419 66.8809C50.3419 66.2174 50.0877 65.581 49.6352 65.1118C49.1828 64.6426 48.5691 64.379 47.9292 64.379Z" fill="#FCC21B"/>
<path d="M58.6617 62.5159C59.9941 62.5159 61.0743 61.3957 61.0743 60.0139C61.0743 58.6321 59.9941 57.512 58.6617 57.512C57.3292 57.512 56.249 58.6321 56.249 60.0139C56.249 61.3957 57.3292 62.5159 58.6617 62.5159Z" fill="#FCC21B"/>
<path d="M63.6934 45.0613C63.3766 45.0613 63.0628 45.126 62.7701 45.2517C62.4774 45.3775 62.2114 45.5618 61.9874 45.7941C61.7634 46.0264 61.5857 46.3022 61.4644 46.6058C61.3432 46.9093 61.2808 47.2347 61.2808 47.5632C61.2808 47.8918 61.3432 48.2171 61.4644 48.5207C61.5857 48.8242 61.7634 49.1001 61.9874 49.3324C62.2114 49.5647 62.4774 49.749 62.7701 49.8747C63.0628 50.0005 63.3766 50.0652 63.6934 50.0652C65.0243 50.0652 66.106 48.9434 66.106 47.5632C66.106 46.1775 65.0243 45.0613 63.6934 45.0613Z" fill="#FCC21B"/>
<path d="M64.5049 26.7547C65.8374 26.7547 66.9176 25.6345 66.9176 24.2527C66.9176 22.8709 65.8374 21.7507 64.5049 21.7507C63.1725 21.7507 62.0923 22.8709 62.0923 24.2527C62.0923 25.6345 63.1725 26.7547 64.5049 26.7547Z" fill="#FCC21B"/>
<path d="M49.1012 7.45241C49.4182 7.45313 49.7323 7.38891 50.0253 7.26343C50.3184 7.13796 50.5846 6.95369 50.8088 6.72122C51.0329 6.48874 51.2106 6.21264 51.3316 5.90876C51.4526 5.60488 51.5146 5.27921 51.5139 4.95045C51.5139 3.57024 50.4321 2.44849 49.1012 2.44849C47.765 2.44849 46.6886 3.57024 46.6886 4.95045C46.6886 6.33615 47.7703 7.45241 49.1012 7.45241ZM20.2715 7.46341C21.6078 7.46341 22.6842 6.34165 22.6842 4.96144C22.6842 3.57574 21.6025 2.45948 20.2715 2.45948C19.9545 2.45876 19.6405 2.52298 19.3474 2.64846C19.0544 2.77394 18.7882 2.9582 18.564 3.19067C18.3398 3.42315 18.1621 3.69925 18.0411 4.00313C17.9201 4.30701 17.8582 4.63268 17.8589 4.96144C17.8589 6.34165 18.9353 7.46341 20.2715 7.46341Z" fill="#FCC21B"/>
<path d="M4.37455 24.8702C5.70701 24.8702 6.78719 23.7476 6.78719 22.3627C6.78719 20.9779 5.70701 19.8553 4.37455 19.8553C3.04209 19.8553 1.96191 20.9779 1.96191 22.3627C1.96191 23.7476 3.04209 24.8702 4.37455 24.8702Z" fill="#FCC21B"/>
<path d="M4.44878 46.6584C4.1315 46.6584 3.81733 46.7233 3.52427 46.8494C3.23121 46.9754 2.96501 47.1602 2.74091 47.3931C2.5168 47.6261 2.3392 47.9025 2.21827 48.2067C2.09733 48.5109 2.03544 48.8368 2.03614 49.1658C2.03614 50.5461 3.11785 51.6678 4.44878 51.6678C5.7797 51.6678 6.86141 50.5461 6.86141 49.1658C6.86141 47.7746 5.78501 46.6584 4.44878 46.6584Z" fill="#FCC21B"/>
<path d="M23.8877 69.9998C25.2231 69.9998 26.3056 68.8772 26.3056 67.4924C26.3056 66.1076 25.2231 64.9849 23.8877 64.9849C22.5523 64.9849 21.4697 66.1076 21.4697 67.4924C21.4697 68.8772 22.5523 69.9998 23.8877 69.9998Z" fill="#FCC21B"/>
<path d="M65.263 35.233C64.1071 35.233 63.1738 36.2008 63.1738 37.3941C63.1738 38.5928 64.1071 39.5661 65.263 39.5661C66.4137 39.5661 67.3469 38.5928 67.3469 37.3941C67.3522 36.2008 66.4137 35.233 65.263 35.233Z" fill="#FCC21B"/>
<path d="M57.2299 15.8299C58.3808 15.8299 59.3138 14.8599 59.3138 13.6634C59.3138 12.4668 58.3808 11.4968 57.2299 11.4968C56.079 11.4968 55.146 12.4668 55.146 13.6634C55.146 14.8599 56.079 15.8299 57.2299 15.8299Z" fill="#FCC21B"/>
<path d="M33.1141 4.33307C34.2679 4.33307 35.2033 3.36308 35.2033 2.16653C35.2033 0.96999 34.2679 0 33.1141 0C31.9603 0 31.0249 0.96999 31.0249 2.16653C31.0249 3.36308 31.9603 4.33307 33.1141 4.33307Z" fill="#FCC21B"/>
<path d="M10.4935 13.863C11.6473 13.863 12.5827 12.893 12.5827 11.6964C12.5827 10.4999 11.6473 9.52991 10.4935 9.52991C9.33966 9.52991 8.4043 10.4999 8.4043 11.6964C8.4043 12.893 9.33966 13.863 10.4935 13.863Z" fill="#FCC21B"/>
<path d="M2.08918 36.5334C3.24301 36.5334 4.17837 35.5635 4.17837 34.3669C4.17837 33.1704 3.24301 32.2004 2.08918 32.2004C0.93536 32.2004 0 33.1704 0 34.3669C0 35.5635 0.93536 36.5334 2.08918 36.5334Z" fill="#FCC21B"/>
<path d="M11.3104 62.917C12.4642 62.917 13.3996 61.9471 13.3996 60.7505C13.3996 59.554 12.4642 58.584 11.3104 58.584C10.1566 58.584 9.22119 59.554 9.22119 60.7505C9.22119 61.9471 10.1566 62.917 11.3104 62.917Z" fill="#FCC21B"/>
<path d="M36.4071 69.9829C37.5609 69.9829 38.4962 69.0129 38.4962 67.8164C38.4962 66.6198 37.5609 65.6498 36.4071 65.6498C35.2532 65.6498 34.3179 66.6198 34.3179 67.8164C34.3179 69.0129 35.2532 69.9829 36.4071 69.9829Z" fill="#FCC21B"/>
</svg>
