<svg width="71" height="40" viewBox="0 0 71 40" fill="none" xmlns="http://www.w3.org/2000/svg">
<path d="M31.122 13.56L26.1138 13.899L22.1789 2.373L11.4472 0L0 7.79699L4.65041 19.323L15.7398 23.73L13.9512 29.493L26.1138 39.3239L38.6341 35.9339L44 21.018L31.122 13.56Z" fill="white"/>
<path d="M11.7016 1.07031L2.03008 7.61945L10.4459 10.0337L20.2261 2.80713L11.7016 1.07031ZM21.6295 3.64944L11.2569 11.1142L15.7444 21.9928L16.4942 21.3742L16.8659 20.0708C16.6143 19.9159 16.3986 19.6642 16.2538 19.3562C16.109 19.0483 16.0436 18.7021 16.0681 18.3739C16.0921 18.0551 16.1996 17.7712 16.3741 17.5655C16.5486 17.3598 16.7805 17.2436 17.0344 17.2348C17.1393 17.2312 17.2463 17.246 17.3524 17.2788C17.4457 17.3081 17.5375 17.3511 17.626 17.4069L18.3237 14.9607C18.3321 14.9314 18.3425 14.9026 18.3547 14.8744L18.3598 14.8638C18.3683 14.8445 18.3777 14.8255 18.3879 14.8069L18.3958 14.7943C18.4059 14.7766 18.4167 14.7593 18.4283 14.7424C18.4429 14.7217 18.4585 14.7016 18.4752 14.6824L18.481 14.6763C18.4961 14.6592 18.5119 14.6427 18.5285 14.627C18.5467 14.6097 18.5657 14.5933 18.5856 14.5778C18.5987 14.5679 18.6126 14.5583 18.6264 14.5492C18.634 14.5436 18.6418 14.5382 18.6497 14.5329C18.6641 14.5241 18.6789 14.5158 18.6938 14.508C18.7017 14.5035 18.7096 14.4992 18.7176 14.495C18.7303 14.4889 18.7432 14.4831 18.7562 14.4777C18.7672 14.4725 18.7784 14.4676 18.7896 14.4629C18.8023 14.4584 18.8151 14.4542 18.828 14.4503C18.8399 14.4461 18.8519 14.4421 18.864 14.4384C18.8758 14.4354 18.8876 14.4327 18.8995 14.4301C18.9132 14.4266 18.927 14.4235 18.9408 14.4207C18.9557 14.4183 18.9707 14.4164 18.9857 14.4149C18.9965 14.4133 19.0073 14.4119 19.0182 14.4107L19.0199 14.4105L21.9744 14.1721C22.0421 13.9338 22.1619 13.7329 22.3215 13.5902C22.481 13.4476 22.6745 13.3684 22.8818 13.3608C22.9867 13.3572 23.0938 13.372 23.2 13.4048C23.4864 13.4942 23.7529 13.7104 23.9493 14.0128L25.0953 13.9204L21.6295 3.64944ZM11.5656 4.28058C11.9374 4.28788 12.2525 4.36403 12.4574 4.49612C12.6624 4.62821 12.7446 4.8081 12.6901 5.00531C12.6276 5.23196 12.3894 5.46419 12.0278 5.65089C11.6663 5.8376 11.2112 5.96349 10.7625 6.00088C10.5403 6.01939 10.3263 6.01562 10.1329 5.98976C9.93949 5.96391 9.77035 5.91649 9.63515 5.85021C9.49994 5.78392 9.40133 5.70008 9.34494 5.60346C9.28854 5.50684 9.27548 5.39934 9.30648 5.2871C9.33741 5.17486 9.41181 5.06007 9.52542 4.94929C9.63904 4.8385 9.78965 4.73389 9.96865 4.64143C10.1477 4.54896 10.3515 4.47045 10.5687 4.41039C10.7858 4.35033 11.0119 4.30988 11.2341 4.29136C11.347 4.28202 11.4581 4.27841 11.5656 4.28058ZM20.3725 6.23198C20.4774 6.22835 20.5846 6.24314 20.6907 6.27595C21.0022 6.37218 21.2892 6.61804 21.4888 6.95945C21.6884 7.30086 21.7842 7.70987 21.755 8.0965C21.7406 8.28795 21.6959 8.46814 21.6235 8.62678C21.5511 8.78542 21.4525 8.91941 21.3332 9.02109C21.214 9.12277 21.0764 9.19015 20.9284 9.21939C20.7804 9.24862 20.6248 9.23914 20.4706 9.19148C20.3164 9.14386 20.1666 9.05899 20.0296 8.94173C19.8926 8.82447 19.7713 8.6771 19.6724 8.50805C19.5736 8.33899 19.4992 8.15156 19.4535 7.95646C19.4078 7.76135 19.3918 7.56239 19.4062 7.37093C19.4302 7.05222 19.5378 6.76827 19.7123 6.56257C19.8868 6.35687 20.1187 6.24074 20.3725 6.23198ZM1.63379 9.06676L5.76291 18.5366L14.0433 21.8872L10.0024 11.4677L1.63379 9.06676ZM14.6283 10.5131C14.7333 10.5094 14.8404 10.5241 14.9466 10.5569C15.258 10.6532 15.545 10.899 15.7446 11.2404C15.9441 11.5819 16.0399 11.9908 16.0107 12.3774C15.9962 12.5689 15.9516 12.7491 15.8792 12.9077C15.8068 13.0664 15.7082 13.2003 15.589 13.302C15.4697 13.4037 15.3322 13.4711 15.1842 13.5004C15.0362 13.5296 14.8806 13.5201 14.7264 13.4725C14.415 13.3763 14.1279 13.1304 13.9283 12.789C13.7287 12.4476 13.633 12.0386 13.6621 11.652C13.6862 11.3333 13.7937 11.0493 13.9682 10.8437C14.1427 10.638 14.3746 10.5219 14.6283 10.5131ZM8.02738 11.5931C8.24517 11.5819 8.51821 11.7037 8.7935 11.9349C9.06879 12.1661 9.32671 12.4902 9.51719 12.8443C9.6181 13.0318 9.69717 13.2224 9.74991 13.4051C9.80264 13.5879 9.828 13.7592 9.82453 13.9094C9.82106 14.0595 9.78884 14.1855 9.7297 14.2802C9.67055 14.3748 9.58566 14.4363 9.47985 14.4611C9.26612 14.5111 8.98022 14.4085 8.68504 14.1761C8.38986 13.9436 8.10958 13.6002 7.90585 13.2215C7.7022 12.8429 7.59172 12.4599 7.5987 12.1568C7.60569 11.8537 7.72957 11.6552 7.94311 11.6051C7.96999 11.5987 7.99806 11.5947 8.02738 11.5931ZM31.1714 14.9297L21.3211 15.7244L31.3172 22.3565L41.2989 20.9495L31.1714 14.9297ZM5.72847 15.7309C5.94626 15.7196 6.21933 15.8414 6.49466 16.0726C6.76999 16.3038 7.02795 16.6279 7.21846 16.9821C7.42222 17.3608 7.53276 17.7439 7.52576 18.0471C7.51875 18.3503 7.39478 18.5487 7.18111 18.5988C6.9674 18.6488 6.6815 18.5463 6.38633 18.3138C6.09115 18.0814 5.81086 17.738 5.60712 17.3593C5.40341 16.9806 5.2929 16.5976 5.2999 16.2944C5.3069 15.9912 5.43085 15.7928 5.64447 15.7427C5.67135 15.7364 5.69916 15.7324 5.72847 15.7309ZM19.5571 16.3792L15.9072 29.1735L26.0662 37.426L30.2089 23.4466L19.5571 16.3792ZM30.7152 17.3059C30.9879 17.3107 31.288 17.3493 31.5895 17.4185C31.891 17.4877 32.1849 17.5852 32.4456 17.7028C32.6562 17.7978 32.8405 17.9037 32.988 18.0144C33.1356 18.1252 33.2435 18.2387 33.3055 18.3485C33.3676 18.4583 33.3826 18.5621 33.3498 18.6541C33.3169 18.7461 33.2368 18.8245 33.1141 18.8848C32.9913 18.945 32.8283 18.986 32.6343 19.0054C32.4403 19.0247 32.2192 19.0221 31.9835 18.9975C31.7478 18.973 31.5022 18.9271 31.2607 18.8625C31.0191 18.7978 30.7865 18.7157 30.5759 18.6207C30.1506 18.429 29.8413 18.1967 29.7159 17.9751C29.5905 17.7534 29.6593 17.5605 29.9072 17.4388C30.0956 17.3463 30.3773 17.3 30.7152 17.3059ZM42.3662 22.3093L31.7446 23.8064L27.6303 37.69L37.8492 35.0538L42.3662 22.3093ZM26.391 23.2054C26.5151 23.2056 26.6403 23.2319 26.7633 23.2837C26.9421 23.359 27.1131 23.4868 27.2667 23.6598C27.4203 23.8329 27.5534 24.0477 27.6584 24.2921C27.7635 24.5366 27.8384 24.8057 27.8789 25.0843C27.9194 25.3629 27.9247 25.6454 27.8945 25.9157C27.8335 26.4616 27.6316 26.9248 27.3333 27.2032C27.0349 27.4816 26.8975 27.5227 26.3036 27.4005C26.1249 27.3252 25.9538 27.1974 25.8002 27.0243C25.6467 26.8513 25.5135 26.6365 25.4085 26.392C25.3035 26.1476 25.2285 25.8784 25.188 25.5999C25.1475 25.3213 25.1422 25.0387 25.1724 24.7684C25.2227 24.3185 25.3691 23.922 25.5892 23.6398C25.8092 23.3575 26.0909 23.2049 26.391 23.2054ZM39.9303 24.171C40.217 24.1629 40.4546 24.2837 40.6045 24.5137C40.7806 24.7839 40.8223 25.1843 40.7206 25.6267C40.6188 26.0692 40.3818 26.5176 40.0618 26.8732C39.7418 27.2287 39.365 27.4623 39.0142 27.5227C38.6634 27.583 38.3675 27.4651 38.1914 27.1949C38.0153 26.9247 37.9735 26.5244 38.0753 26.0819C38.177 25.6394 38.414 25.1911 38.734 24.8355C38.9157 24.6336 39.1178 24.469 39.3249 24.3539C39.5321 24.2388 39.739 24.1762 39.9303 24.171ZM33.8941 25.0558C34.1807 25.0479 34.4183 25.1686 34.5682 25.3985C34.7443 25.6687 34.786 26.0691 34.6843 26.5116C34.5825 26.9541 34.3455 27.4025 34.0255 27.758C33.7055 28.1136 33.3287 28.3472 32.9779 28.4075C32.6271 28.4678 32.3311 28.3499 32.1551 28.0797C31.979 27.8095 31.9373 27.4091 32.0391 26.9667C32.1409 26.5242 32.3778 26.0759 32.6978 25.7203C32.8796 25.5184 33.0816 25.3538 33.2887 25.2387C33.4959 25.1237 33.7028 25.0611 33.8941 25.0558ZM18.6053 26.1599C18.7294 26.16 18.8548 26.1864 18.9778 26.2383C19.1566 26.3136 19.3276 26.4414 19.4812 26.6145C19.6347 26.7875 19.7678 27.0024 19.8728 27.2468C19.9779 27.4912 20.0528 27.7604 20.0933 28.039C20.1338 28.3175 20.1391 28.6 20.1089 28.8704C20.0787 29.1407 20.0136 29.3935 19.9173 29.6144C19.821 29.8354 19.6954 30.02 19.5477 30.1579C19.3999 30.2958 19.2329 30.3842 19.0563 30.418C18.8796 30.4519 18.6967 30.4305 18.5179 30.3552C18.3392 30.2799 18.1682 30.152 18.0146 29.979C17.861 29.806 17.7279 29.5911 17.6229 29.3467C17.5178 29.1023 17.4429 28.8331 17.4024 28.5545C17.3619 28.2759 17.3566 27.9934 17.3868 27.7231C17.437 27.2731 17.5834 26.8767 17.8034 26.5943C18.0235 26.312 18.3052 26.1594 18.6053 26.1599ZM37.2579 31.2108C37.5444 31.2028 37.782 31.3236 37.9318 31.5535C38.1079 31.8236 38.1497 32.224 38.0479 32.6665C37.9462 33.1089 37.7093 33.5573 37.3893 33.9129C37.0693 34.2684 36.6924 34.502 36.3417 34.5623C35.9909 34.6226 35.6949 34.5047 35.5188 34.2345C35.3428 33.9643 35.301 33.5639 35.4028 33.1215C35.5045 32.679 35.7414 32.2307 36.0614 31.8751C36.2432 31.6731 36.4452 31.5085 36.6524 31.3934C36.8596 31.2784 37.0665 31.216 37.2579 31.2108ZM31.0779 32.8278C31.3645 32.8199 31.602 32.9408 31.7518 33.1707C31.9279 33.4409 31.9697 33.8412 31.868 34.2837C31.7662 34.7262 31.5293 35.1745 31.2093 35.5301C31.0509 35.7061 30.8768 35.8541 30.697 35.9655C30.5172 36.077 30.3353 36.1497 30.1616 36.1795C29.9879 36.2094 29.8259 36.1958 29.6847 36.1395C29.5435 36.0832 29.426 35.9854 29.3389 35.8516C29.1628 35.5814 29.1211 35.181 29.2228 34.7385C29.3246 34.296 29.5615 33.8477 29.8815 33.4922C30.0633 33.2902 30.2653 33.1256 30.4725 33.0106C30.6797 32.8955 30.8866 32.8331 31.0779 32.8278Z" fill="url(#paint0_linear_1534_3150)" fill-opacity="0.8"/>
<path d="M54.9795 23L53.3877 20.6904L51.4102 17.8242H52.3818L53.915 20.0459L55.9512 23H54.9795ZM51.3809 23L53.2363 20.2412L53.7344 20.876L52.3574 23H51.3809ZM54.0518 20.5488L53.5635 19.9141L54.96 17.8242H55.9268L54.0518 20.5488ZM59.8525 23L59.7598 22.2285L62.1475 19.6357C62.3851 19.3786 62.5771 19.1589 62.7236 18.9766C62.8701 18.791 62.9759 18.612 63.041 18.4395C63.1094 18.2637 63.1436 18.0635 63.1436 17.8389C63.1436 17.3864 63.0459 17.0706 62.8506 16.8916C62.6553 16.7126 62.3444 16.623 61.918 16.623C61.5762 16.623 61.3011 16.6589 61.0928 16.7305C60.8877 16.7988 60.738 16.9323 60.6436 17.1309C60.5524 17.3262 60.5068 17.6159 60.5068 18H59.5254C59.5254 17.222 59.7337 16.667 60.1504 16.335C60.5671 15.9997 61.1318 15.832 61.8447 15.832C62.3525 15.832 62.7708 15.9215 63.0996 16.1006C63.4284 16.2764 63.6725 16.5156 63.832 16.8184C63.9915 17.1178 64.0713 17.4548 64.0713 17.8291C64.0713 18.1416 64.0322 18.415 63.9541 18.6494C63.8792 18.8805 63.7539 19.1117 63.5781 19.3428C63.4023 19.5739 63.1647 19.8473 62.8652 20.1631L60.751 22.3994L60.6582 22.2383H64.0322V23H59.8525ZM65.834 22.2432H67.792V16.5449L68.0117 16.7402L65.9658 16.96L65.8779 16.1836L67.9727 15.9395H68.7734V22.2432H70.502V23H65.834V22.2432Z" fill="black" fill-opacity="0.7"/>
<defs>
<linearGradient id="paint0_linear_1534_3150" x1="1.63379" y1="19.3802" x2="42.3662" y2="19.3802" gradientUnits="userSpaceOnUse">
<stop stop-color="#B28EF8"/>
<stop offset="1" stop-color="#F476E5"/>
</linearGradient>
</defs>
</svg>
