<svg width="63" height="35" viewBox="0 0 63 35" fill="none" xmlns="http://www.w3.org/2000/svg">
<path d="M27.6999 12.069L23.2424 12.3707L19.7401 2.11207L10.1885 0L0 6.93965L4.13906 17.1983L14.0091 21.1207L12.4172 26.25L23.2424 35L34.3861 31.9828L39.1619 18.7069L27.6999 12.069Z" fill="white"/>
<path d="M10.4151 0.952637L1.80706 6.78165L9.29748 8.93044L18.0023 2.49848L10.4151 0.952637ZM19.2514 3.24817L10.0193 9.8921L14.0134 19.5745L14.6808 19.024L15.0116 17.8638C14.7876 17.7261 14.5957 17.502 14.4668 17.2279C14.3379 16.9538 14.2797 16.6457 14.3015 16.3535C14.3229 16.0699 14.4185 15.8171 14.5739 15.634C14.7292 15.4509 14.9356 15.3476 15.1615 15.3397C15.2549 15.3365 15.3501 15.3497 15.4446 15.3789C15.5276 15.405 15.6093 15.4433 15.6881 15.4929L16.309 13.3157C16.3166 13.2896 16.3258 13.2639 16.3366 13.2389L16.3412 13.2294C16.3488 13.2122 16.3571 13.1954 16.3662 13.1788L16.3732 13.1675C16.3822 13.1518 16.3919 13.1364 16.4022 13.1214C16.4152 13.1029 16.4291 13.0851 16.4439 13.068L16.4491 13.0625C16.4625 13.0473 16.4766 13.0327 16.4913 13.0186C16.5075 13.0033 16.5245 12.9887 16.5422 12.9748C16.5539 12.9661 16.5662 12.9575 16.5785 12.9494C16.5853 12.9445 16.5922 12.9396 16.5993 12.9349C16.6121 12.9271 16.6252 12.9197 16.6385 12.9127C16.6455 12.9088 16.6525 12.9049 16.6596 12.9011C16.671 12.8957 16.6824 12.8906 16.6941 12.8858C16.7038 12.8812 16.7138 12.8768 16.7238 12.8726C16.7351 12.8686 16.7465 12.8649 16.7579 12.8614C16.7685 12.8576 16.7792 12.8541 16.79 12.8508C16.8005 12.8482 16.811 12.8457 16.8216 12.8435C16.8338 12.8403 16.846 12.8375 16.8584 12.835C16.8716 12.833 16.8849 12.8312 16.8983 12.8299C16.9079 12.8285 16.9175 12.8272 16.9272 12.8262L16.9288 12.826L19.5584 12.6138C19.6186 12.4017 19.7252 12.2229 19.8673 12.0959C20.0093 11.9689 20.1815 11.8984 20.3659 11.8917C20.4594 11.8885 20.5547 11.9016 20.6492 11.9308C20.9041 12.0104 21.1413 12.2028 21.3161 12.472L22.3361 12.3898L19.2514 3.24817ZM10.2941 3.80991C10.625 3.81641 10.9054 3.88419 11.0878 4.00175C11.2703 4.11932 11.3434 4.27943 11.295 4.45495C11.2393 4.65669 11.0273 4.86338 10.7055 5.02955C10.3837 5.19573 9.97863 5.30778 9.57926 5.34105C9.38149 5.35753 9.1911 5.35417 9.01894 5.33116C8.84678 5.30815 8.69623 5.26594 8.5759 5.20695C8.45556 5.14795 8.36779 5.07333 8.3176 4.98733C8.26741 4.90134 8.25578 4.80566 8.28337 4.70576C8.3109 4.60586 8.37711 4.5037 8.47824 4.40509C8.57936 4.30649 8.71341 4.21338 8.87273 4.13108C9.03205 4.04878 9.21353 3.97891 9.40678 3.92545C9.60004 3.87199 9.8013 3.83599 9.99907 3.81951C10.0995 3.81119 10.1984 3.80798 10.2941 3.80991ZM18.1326 5.54674C18.226 5.54351 18.3214 5.55668 18.4159 5.58588C18.693 5.67152 18.9485 5.89035 19.1262 6.19422C19.3038 6.4981 19.389 6.86213 19.3631 7.20624C19.3502 7.37664 19.3105 7.53702 19.2461 7.67822C19.1816 7.81942 19.0939 7.93867 18.9877 8.02917C18.8816 8.11967 18.7591 8.17964 18.6274 8.20566C18.4957 8.23168 18.3572 8.22324 18.2199 8.18082C18.0827 8.13844 17.9493 8.06291 17.8274 7.95854C17.7055 7.85417 17.5975 7.72301 17.5095 7.57254C17.4215 7.42207 17.3553 7.25525 17.3147 7.0816C17.274 6.90795 17.2597 6.73086 17.2725 6.56046C17.294 6.27679 17.3897 6.02406 17.545 5.84098C17.7003 5.6579 17.9067 5.55454 18.1326 5.54674ZM1.45435 8.06982L5.12944 16.4984L12.4993 19.4806L8.90277 10.2067L1.45435 8.06982ZM13.02 9.3571C13.1135 9.3538 13.2088 9.36692 13.3033 9.39609C13.5805 9.48178 13.8359 9.70062 14.0136 10.0045C14.1912 10.3084 14.2764 10.6724 14.2504 11.0165C14.2375 11.1869 14.1978 11.3472 14.1334 11.4884C14.069 11.6296 13.9812 11.7489 13.8751 11.8394C13.7689 11.9299 13.6465 11.9899 13.5148 12.0159C13.383 12.0419 13.2446 12.0335 13.1073 11.9911C12.8301 11.9055 12.5746 11.6866 12.397 11.3828C12.2194 11.0789 12.1341 10.7149 12.1601 10.3707C12.1815 10.0871 12.2772 9.83441 12.4325 9.65133C12.5878 9.46825 12.7942 9.36495 13.02 9.3571ZM7.14491 10.3184C7.33876 10.3084 7.58178 10.4168 7.8268 10.6226C8.07182 10.8284 8.30137 11.1168 8.47091 11.432C8.56072 11.5989 8.6311 11.7685 8.67804 11.9312C8.72497 12.0938 8.74754 12.2463 8.74446 12.3799C8.74137 12.5136 8.71269 12.6257 8.66005 12.71C8.60741 12.7942 8.53185 12.8489 8.43767 12.871C8.24745 12.9155 7.99298 12.8242 7.73026 12.6173C7.46754 12.4104 7.21808 12.1048 7.03675 11.7677C6.85549 11.4307 6.75716 11.0899 6.76337 10.8201C6.76959 10.5503 6.87985 10.3737 7.06991 10.329C7.09384 10.3233 7.11882 10.3198 7.14491 10.3184ZM27.7441 13.2881L18.9769 13.9954L27.8739 19.8982L36.758 18.646L27.7441 13.2881ZM5.09879 14.0012C5.29263 13.9912 5.53567 14.0996 5.78073 14.3053C6.02579 14.5111 6.25538 14.7996 6.42494 15.1148C6.6063 15.4519 6.70468 15.7928 6.69845 16.0627C6.69222 16.3325 6.58188 16.5092 6.3917 16.5537C6.20148 16.5982 5.94703 16.507 5.68431 16.3001C5.42159 16.0932 5.17212 15.7876 4.99078 15.4505C4.80947 15.1135 4.71111 14.7726 4.71734 14.5027C4.72358 14.2329 4.83389 14.0563 5.02402 14.0117C5.04795 14.0061 5.0727 14.0025 5.09879 14.0012ZM17.4068 14.5782L14.1583 25.9657L23.2002 33.3108L26.8875 20.8685L17.4068 14.5782ZM27.3381 15.403C27.5808 15.4073 27.8478 15.4417 28.1162 15.5032C28.3846 15.5648 28.6461 15.6516 28.8782 15.7563C29.0656 15.8408 29.2297 15.935 29.361 16.0336C29.4923 16.1323 29.5883 16.2333 29.6436 16.331C29.6988 16.4287 29.7122 16.5211 29.6829 16.603C29.6537 16.6849 29.5824 16.7546 29.4731 16.8083C29.3639 16.8619 29.2188 16.8984 29.0461 16.9156C28.8735 16.9328 28.6767 16.9305 28.4669 16.9086C28.2571 16.8868 28.0385 16.846 27.8235 16.7884C27.6086 16.7309 27.4015 16.6578 27.2141 16.5732C26.8356 16.4026 26.5602 16.1959 26.4486 15.9986C26.337 15.8013 26.3983 15.6296 26.6189 15.5213C26.7866 15.439 27.0373 15.3977 27.3381 15.403ZM37.7079 19.8562L28.2543 21.1888L24.5924 33.5458L33.6876 31.1994L37.7079 19.8562ZM23.4893 20.6538C23.5997 20.654 23.7112 20.6774 23.8207 20.7235C23.9798 20.7905 24.132 20.9043 24.2687 21.0583C24.4054 21.2123 24.5239 21.4035 24.6174 21.6211C24.7109 21.8386 24.7775 22.0782 24.8136 22.3261C24.8496 22.5741 24.8544 22.8255 24.8275 23.0661C24.7732 23.552 24.5935 23.9642 24.328 24.212C24.0625 24.4598 23.9401 24.4964 23.4116 24.3876C23.2525 24.3206 23.1002 24.2068 22.9635 24.0528C22.8268 23.8988 22.7084 23.7076 22.6149 23.4901C22.5214 23.2725 22.4547 23.0329 22.4186 22.785C22.3826 22.537 22.3778 22.2856 22.4047 22.045C22.4495 21.6445 22.5798 21.2916 22.7756 21.0404C22.9715 20.7892 23.2222 20.6534 23.4893 20.6538ZM35.5399 21.5132C35.7951 21.5061 36.0065 21.6136 36.14 21.8182C36.2967 22.0587 36.3338 22.4151 36.2433 22.8089C36.1527 23.2028 35.9418 23.6018 35.657 23.9183C35.3721 24.2347 35.0367 24.4427 34.7245 24.4964C34.4123 24.5501 34.1489 24.4452 33.9922 24.2047C33.8354 23.9642 33.7983 23.6079 33.8888 23.214C33.9794 22.8202 34.1903 22.4212 34.4751 22.1047C34.6369 21.925 34.8167 21.7784 35.0011 21.676C35.1855 21.5736 35.3696 21.5179 35.5399 21.5132ZM30.1674 22.3008C30.4225 22.2937 30.634 22.4012 30.7674 22.6058C30.9241 22.8463 30.9613 23.2027 30.8707 23.5965C30.7801 23.9903 30.5692 24.3894 30.2844 24.7059C29.9995 25.0223 29.6641 25.2302 29.3519 25.2839C29.0397 25.3376 28.7763 25.2327 28.6196 24.9922C28.4629 24.7517 28.4258 24.3953 28.5164 24.0015C28.607 23.6077 28.8179 23.2087 29.1027 22.8922C29.2644 22.7125 29.4442 22.566 29.6286 22.4636C29.813 22.3611 29.9971 22.3055 30.1674 22.3008ZM16.5597 23.2834C16.6702 23.2836 16.7817 23.307 16.8913 23.3532C17.0504 23.4203 17.2026 23.534 17.3393 23.688C17.4759 23.8421 17.5944 24.0333 17.6879 24.2508C17.7814 24.4684 17.848 24.7079 17.8841 24.9559C17.9201 25.2038 17.9248 25.4553 17.898 25.6959C17.8711 25.9365 17.8131 26.1615 17.7274 26.3581C17.6417 26.5548 17.5299 26.7191 17.3985 26.8419C17.267 26.9646 17.1184 27.0432 16.9611 27.0734C16.8038 27.1035 16.641 27.0845 16.482 27.0174C16.3229 26.9504 16.1706 26.8366 16.034 26.6826C15.8973 26.5286 15.7788 26.3374 15.6853 26.1198C15.5918 25.9023 15.5251 25.6627 15.4891 25.4148C15.453 25.1668 15.4483 24.9154 15.4752 24.6748C15.5199 24.2743 15.6502 23.9214 15.846 23.6701C16.0419 23.4188 16.2926 23.283 16.5597 23.2834ZM33.1613 27.7789C33.4164 27.7719 33.6278 27.8794 33.7611 28.0839C33.9179 28.3244 33.9551 28.6807 33.8645 29.0746C33.774 29.4684 33.5631 29.8674 33.2783 30.1839C32.9935 30.5004 32.658 30.7083 32.3458 30.762C32.0336 30.8156 31.7702 30.7107 31.6135 30.4702C31.4568 30.2297 31.4196 29.8734 31.5102 29.4795C31.6007 29.0857 31.8116 28.6867 32.0964 28.3702C32.2582 28.1905 32.438 28.0439 32.6224 27.9415C32.8068 27.8391 32.991 27.7836 33.1613 27.7789ZM27.6608 29.2182C27.9159 29.2112 28.1273 29.3187 28.2607 29.5234C28.4174 29.7638 28.4546 30.1202 28.3641 30.514C28.2735 30.9078 28.0626 31.3068 27.7778 31.6233C27.6368 31.78 27.4819 31.9117 27.3219 32.0109C27.1619 32.11 26.9999 32.1748 26.8454 32.2013C26.6908 32.2279 26.5465 32.2158 26.4209 32.1657C26.2952 32.1156 26.1906 32.0286 26.1131 31.9094C25.9564 31.6689 25.9192 31.3126 26.0098 30.9188C26.1004 30.525 26.3113 30.1259 26.5961 29.8095C26.7579 29.6298 26.9377 29.4832 27.122 29.3808C27.3064 29.2784 27.4906 29.2229 27.6608 29.2182Z" fill="url(#paint0_linear_1663_3151)" fill-opacity="0.8"/>
<path d="M46.9795 24L45.3877 21.6904L43.4102 18.8242H44.3818L45.915 21.0459L47.9512 24H46.9795ZM43.3809 24L45.2363 21.2412L45.7344 21.876L44.3574 24H43.3809ZM46.0518 21.5488L45.5635 20.9141L46.96 18.8242H47.9268L46.0518 21.5488ZM54.04 24.1074C53.516 24.1074 53.096 24.0391 52.7803 23.9023C52.4645 23.7624 52.2253 23.5312 52.0625 23.209C51.903 22.8867 51.7956 22.4489 51.7402 21.8955H52.6777C52.7038 22.2894 52.7656 22.5889 52.8633 22.7939C52.9642 22.9958 53.1139 23.1341 53.3125 23.209C53.5111 23.2806 53.7715 23.3164 54.0938 23.3164C54.5169 23.3164 54.8213 23.209 55.0068 22.9941C55.1956 22.7793 55.29 22.4652 55.29 22.0518C55.29 21.6872 55.2493 21.4023 55.168 21.1973C55.0898 20.9889 54.9287 20.8424 54.6846 20.7578C54.4437 20.6699 54.0791 20.626 53.5908 20.626V19.8984C53.9684 19.8984 54.263 19.874 54.4746 19.8252C54.6895 19.7731 54.8457 19.6966 54.9434 19.5957C55.041 19.4915 55.1012 19.3646 55.124 19.2148C55.1501 19.0618 55.1631 18.8861 55.1631 18.6875C55.1631 18.3555 55.0785 18.0951 54.9092 17.9062C54.7399 17.7174 54.4453 17.623 54.0254 17.623C53.7357 17.623 53.4948 17.654 53.3027 17.7158C53.1107 17.7744 52.9658 17.9014 52.8682 18.0967C52.7738 18.292 52.7266 18.5915 52.7266 18.9951H51.7891C51.7891 18.3962 51.8867 17.9421 52.082 17.6328C52.2806 17.3203 52.5492 17.1087 52.8877 16.998C53.2262 16.8874 53.6038 16.832 54.0205 16.832C54.4274 16.832 54.7855 16.8971 55.0947 17.0273C55.404 17.1543 55.6449 17.3529 55.8174 17.623C55.9932 17.8932 56.0811 18.2432 56.0811 18.6729C56.0811 19.0016 56.0371 19.2799 55.9492 19.5078C55.8646 19.7357 55.7262 19.9131 55.5342 20.04C55.3454 20.1637 55.0915 20.2402 54.7725 20.2695L54.8018 20.2256C55.1012 20.2712 55.3568 20.3574 55.5684 20.4844C55.7799 20.6113 55.9411 20.8001 56.0518 21.0508C56.1657 21.2982 56.2227 21.6335 56.2227 22.0566C56.2227 22.5059 56.1364 22.8835 55.9639 23.1895C55.7946 23.4922 55.5472 23.7217 55.2217 23.8779C54.8962 24.0309 54.5023 24.1074 54.04 24.1074ZM60.1436 24.1074C59.6195 24.1074 59.1995 24.0391 58.8838 23.9023C58.568 23.7624 58.3288 23.5312 58.166 23.209C58.0065 22.8867 57.8991 22.4489 57.8438 21.8955H58.7812C58.8073 22.2894 58.8691 22.5889 58.9668 22.7939C59.0677 22.9958 59.2174 23.1341 59.416 23.209C59.6146 23.2806 59.875 23.3164 60.1973 23.3164C60.6204 23.3164 60.9248 23.209 61.1104 22.9941C61.2992 22.7793 61.3936 22.4652 61.3936 22.0518C61.3936 21.6872 61.3529 21.4023 61.2715 21.1973C61.1934 20.9889 61.0322 20.8424 60.7881 20.7578C60.5472 20.6699 60.1826 20.626 59.6943 20.626V19.8984C60.0719 19.8984 60.3665 19.874 60.5781 19.8252C60.793 19.7731 60.9492 19.6966 61.0469 19.5957C61.1445 19.4915 61.2048 19.3646 61.2275 19.2148C61.2536 19.0618 61.2666 18.8861 61.2666 18.6875C61.2666 18.3555 61.182 18.0951 61.0127 17.9062C60.8434 17.7174 60.5488 17.623 60.1289 17.623C59.8392 17.623 59.5983 17.654 59.4062 17.7158C59.2142 17.7744 59.0693 17.9014 58.9717 18.0967C58.8773 18.292 58.8301 18.5915 58.8301 18.9951H57.8926C57.8926 18.3962 57.9902 17.9421 58.1855 17.6328C58.3841 17.3203 58.6527 17.1087 58.9912 16.998C59.3298 16.8874 59.7074 16.832 60.124 16.832C60.5309 16.832 60.889 16.8971 61.1982 17.0273C61.5075 17.1543 61.7484 17.3529 61.9209 17.623C62.0967 17.8932 62.1846 18.2432 62.1846 18.6729C62.1846 19.0016 62.1406 19.2799 62.0527 19.5078C61.9681 19.7357 61.8298 19.9131 61.6377 20.04C61.4489 20.1637 61.195 20.2402 60.876 20.2695L60.9053 20.2256C61.2048 20.2712 61.4603 20.3574 61.6719 20.4844C61.8835 20.6113 62.0446 20.8001 62.1553 21.0508C62.2692 21.2982 62.3262 21.6335 62.3262 22.0566C62.3262 22.5059 62.2399 22.8835 62.0674 23.1895C61.8981 23.4922 61.6507 23.7217 61.3252 23.8779C60.9997 24.0309 60.6058 24.1074 60.1436 24.1074Z" fill="black" fill-opacity="0.7"/>
<defs>
<linearGradient id="paint0_linear_1663_3151" x1="1.45435" y1="17.2492" x2="37.7079" y2="17.2492" gradientUnits="userSpaceOnUse">
<stop stop-color="#B28EF8"/>
<stop offset="1" stop-color="#F476E5"/>
</linearGradient>
</defs>
</svg>
