<svg width="20" height="8" viewBox="0 0 20 8" fill="none" xmlns="http://www.w3.org/2000/svg">
<path d="M3.97949 8L2.3877 5.69043L0.410156 2.82422H1.38184L2.91504 5.0459L4.95117 8H3.97949ZM0.380859 8L2.23633 5.24121L2.73438 5.87598L1.35742 8H0.380859ZM3.05176 5.54883L2.56348 4.91406L3.95996 2.82422H4.92676L3.05176 5.54883ZM8.85254 8L8.75977 7.22852L11.1475 4.63574C11.3851 4.37858 11.5771 4.15885 11.7236 3.97656C11.8701 3.79102 11.9759 3.61198 12.041 3.43945C12.1094 3.26367 12.1436 3.06348 12.1436 2.83887C12.1436 2.38639 12.0459 2.07064 11.8506 1.8916C11.6553 1.71257 11.3444 1.62305 10.918 1.62305C10.5762 1.62305 10.3011 1.65885 10.0928 1.73047C9.8877 1.79883 9.73796 1.93229 9.64355 2.13086C9.55241 2.32617 9.50684 2.61589 9.50684 3H8.52539C8.52539 2.22201 8.73372 1.66699 9.15039 1.33496C9.56706 0.999674 10.1318 0.832031 10.8447 0.832031C11.3525 0.832031 11.7708 0.921549 12.0996 1.10059C12.4284 1.27637 12.6725 1.51562 12.832 1.81836C12.9915 2.11784 13.0713 2.45475 13.0713 2.8291C13.0713 3.1416 13.0322 3.41504 12.9541 3.64941C12.8792 3.88053 12.7539 4.11165 12.5781 4.34277C12.4023 4.57389 12.1647 4.84733 11.8652 5.16309L9.75098 7.39941L9.6582 7.23828H13.0322V8H8.85254ZM14.834 7.24316H16.792V1.54492L17.0117 1.74023L14.9658 1.95996L14.8779 1.18359L16.9727 0.939453H17.7734V7.24316H19.502V8H14.834V7.24316Z" fill="black" fill-opacity="0.7"/>
</svg>
