<svg width="110" height="38" viewBox="0 0 110 38" fill="none" xmlns="http://www.w3.org/2000/svg">
<path d="M0.833333 21.5C0.833333 22.9728 2.02724 24.1667 3.5 24.1667C4.97276 24.1667 6.16667 22.9728 6.16667 21.5C6.16667 20.0272 4.97276 18.8333 3.5 18.8333C2.02724 18.8333 0.833333 20.0272 0.833333 21.5ZM44.5 21.5V22H44.8502L44.9699 21.6709L44.5 21.5ZM48.5 10.5L48.9874 10.3886L48.6096 8.73554L48.0301 10.3291L48.5 10.5ZM52.5 28L52.0126 28.1114L52.9861 28.117L52.5 28ZM59 1L59.4961 0.937983L58.5139 0.882973L59 1ZM63.5 37L63.0039 37.062L63.9948 37.0722L63.5 37ZM67 13L67.4831 12.8712L66.5052 12.9278L67 13ZM71 28L70.5169 28.1288L70.842 29.348L71.4402 28.237L71 28ZM74.5 21.5V21H74.2014L74.0598 21.263L74.5 21.5ZM103.833 21.5C103.833 22.9728 105.027 24.1667 106.5 24.1667C107.973 24.1667 109.167 22.9728 109.167 21.5C109.167 20.0272 107.973 18.8333 106.5 18.8333C105.027 18.8333 103.833 20.0272 103.833 21.5ZM3.5 22H26V21H3.5V22ZM26 22H44.5V21H26V22ZM44.9699 21.6709L48.9699 10.6709L48.0301 10.3291L44.0301 21.3291L44.9699 21.6709ZM48.0126 10.6114L52.0126 28.1114L52.9874 27.8886L48.9874 10.3886L48.0126 10.6114ZM52.9861 28.117L59.4861 1.11703L58.5139 0.882973L52.0139 27.883L52.9861 28.117ZM58.5039 1.06202L63.0039 37.062L63.9961 36.938L59.4961 0.937983L58.5039 1.06202ZM63.9948 37.0722L67.4948 13.0722L66.5052 12.9278L63.0052 36.9278L63.9948 37.0722ZM66.5169 13.1288L70.5169 28.1288L71.4831 27.8712L67.4831 12.8712L66.5169 13.1288ZM71.4402 28.237L74.9402 21.737L74.0598 21.263L70.5598 27.763L71.4402 28.237ZM74.5 22H106.5V21H74.5V22Z" fill="white"/>
</svg>
