<svg width="19" height="24" viewBox="0 0 19 24" fill="none" xmlns="http://www.w3.org/2000/svg">
<path d="M8.16406 0.66C7.86719 1.02 7.68906 1.62 7.68906 1.95C7.71875 2.37 7.39219 2.7 6.62031 3.06C5.99687 3.33 4.95781 4.14 4.30469 4.86C3.65156 5.61 2.93906 6.72 2.76094 7.38C2.52344 8.07 2.375 10.23 2.375 12.6V16.65C0.475 18.54 0 19.32 0 19.74V20.4H19C19 19.32 18.525 18.54 17.8125 17.85L16.625 16.65C16.625 10.23 16.4766 8.07 16.2391 7.38C16.0609 6.72 15.3484 5.61 14.6953 4.86C14.0422 4.14 13.0031 3.33 12.3797 3.06C11.6375 2.7 11.2812 2.37 11.2812 1.95C11.2812 1.62 11.0734 1.05 10.8359 0.66C10.5391 0.24 10.0938 0 9.5 0C8.96562 0 8.46094 0.24 8.16406 0.66ZM7.125 22.05C7.125 22.29 7.45156 22.83 7.86719 23.25C8.34219 23.73 8.93594 24 9.5 24C10.0938 24 10.6875 23.73 11.1328 23.25C11.5484 22.83 11.875 22.29 11.875 22.05C11.875 21.69 11.4 21.6 9.5 21.6C7.6 21.6 7.125 21.69 7.125 22.05Z" fill="#F9BCC1"/>
</svg>
