<svg width="20" height="24" viewBox="0 0 20 24" fill="none" xmlns="http://www.w3.org/2000/svg">
<path d="M0.745156 0.75L0.0298064 1.47L0 22.5L1.49031 24H17.6155C19.0462 22.56 19.076 22.29 19.076 19.2V15.9C16.7213 17.7 16.6915 17.73 16.6915 19.65V21.6H2.3845V2.4H16.6915C16.6915 6.27 16.7213 6.3 17.8838 7.2L19.076 8.1C19.076 1.68 19.0462 1.47 18.3308 0.75L17.5857 0H1.46051L0.745156 0.75ZM14.307 9.15V10.8H8.34575V13.2H14.307V16.5C18.7183 13.14 20 12.09 20 11.97C20 11.88 18.7183 10.83 17.1684 9.63L14.3368 7.5L14.307 9.15Z" fill="#F9BCC1"/>
</svg>
