<svg width="17" height="17" viewBox="0 0 17 17" fill="none" xmlns="http://www.w3.org/2000/svg">
<path d="M13.0688 2.86875C12.6969 3.55938 12.5021 3.66562 10.2708 4.62188L7.88021 5.63125V11.3687C12.5198 13.3344 12.6792 13.4406 13.0688 14.1313C13.4229 14.8219 13.5115 14.875 14.1667 14.875H14.875C14.875 10.1823 14.9104 9.86354 15.2292 9.42083C15.4417 9.15521 15.601 8.74792 15.601 8.5C15.601 8.25208 15.4417 7.84479 15.2292 7.57917C14.9104 7.13646 14.875 6.81771 14.875 4.60417V2.125C13.5469 2.125 13.4406 2.19583 13.0688 2.86875ZM2.56771 6.10938C2.17812 6.49896 2.14271 6.67604 2.125 8.5C2.125 10.3417 2.14271 10.4656 2.56771 10.8906C2.93958 11.2625 3.1875 11.3333 3.98438 11.3333H4.95833V14.875H6.375V5.66667C3.11667 5.66667 2.95729 5.70208 2.56771 6.10938Z" fill="white"/>
</svg>
