<svg width="15" height="15" viewBox="0 0 15 15" fill="none" xmlns="http://www.w3.org/2000/svg">
<g clip-path="url(#clip0_220_6784)">
<circle cx="7.5" cy="7.5" r="7" stroke="white"/>
<path fill-rule="evenodd" clip-rule="evenodd" d="M7.47215 2C8.47468 2 8.73924 2.055 9.63038 2.45375C10.1734 2.70125 10.9392 3.1825 11.3013 3.5125C11.7468 3.91125 12.1646 4.48875 12.4848 5.1625C12.9722 6.125 13 6.2625 13 7.5C13 8.7375 12.9722 8.88875 12.4848 9.85125C12.1646 10.5112 11.7468 11.0887 11.3013 11.4875C10.9392 11.8175 10.1734 12.2987 9.63038 12.5462C8.75316 12.945 8.46076 13 7.5 13C6.53924 13 6.24684 12.945 5.38354 12.5462C4.82658 12.2987 4.06076 11.8175 3.69873 11.4875C3.25316 11.0887 2.83544 10.5113 2.51519 9.8375C2.02785 8.875 2 8.7375 2 7.5C2 6.33125 2.04177 6.0975 2.41772 5.3C2.65443 4.805 3.12785 4.10375 3.46203 3.7325C3.89367 3.2925 4.45063 2.89375 5.20253 2.53625C6.21899 2.055 6.41392 2 7.47215 2ZM6.38608 8.94375C4.75696 7.335 4.52025 7.18375 4.35316 7.29375C4.22785 7.3625 4.04684 7.54125 3.96329 7.665C3.83797 7.87125 3.99114 8.09125 5.09114 9.1775L6.38608 10.4563C10.062 6.82625 11.1203 5.74 11.1203 5.67125C11.1203 5.61625 11.0089 5.45125 10.8835 5.3C10.7443 5.14875 10.5633 5.025 10.4937 5.025C10.4101 5.025 9.46329 5.905 8.37721 6.9775L6.38608 8.94375Z" fill="#E6543B"/>
</g>
<defs>
<clipPath id="clip0_220_6784">
<rect width="15" height="15" fill="white"/>
</clipPath>
</defs>
</svg>
