<svg width="25" height="24" viewBox="0 0 25 24" fill="none" xmlns="http://www.w3.org/2000/svg">
<path fill-rule="evenodd" clip-rule="evenodd" d="M11.3636 0H13.6364V3.42857H11.3636V0ZM17.6136 5.85714L18.4659 6.71429C19.3182 7.54286 19.375 7.71429 20.3977 14.6571C21.4205 21.4857 21.4773 21.7143 22.1023 21.7143C22.642 21.7143 22.7273 21.8571 22.7273 24H2.27273V22.8571C2.27273 21.8571 2.35795 21.7143 2.92614 21.7143C3.52273 21.7143 3.57955 21.5143 4.48864 15C4.97159 11.3143 5.56818 7.94286 5.79545 7.48571C5.99432 7.05714 6.61932 6.48571 7.13068 6.2C7.95455 5.77143 8.77841 5.71429 17.6136 5.85714ZM6.875 14.7714C6.36364 18.0286 5.96591 20.9429 5.96591 21.2286C5.96591 21.5714 6.19318 21.7143 6.67614 21.7143C7.07386 21.7143 7.38636 21.5714 7.38636 21.4286C7.38636 21.2857 7.69886 18.7429 8.09659 15.7714C8.52273 12.8286 8.94886 10.1429 9.09091 9.8C9.375 9.17143 9.48864 9.14286 13.3523 9.14286C15.5398 9.14286 17.3295 9.05714 17.3295 8.91429C17.3295 8.8 17.1875 8.54286 16.9886 8.34286C16.733 8.08572 15.4545 8 12.4716 8C9.17614 8 8.23864 8.08572 8.01136 8.4C7.86932 8.62857 7.35795 11.4857 6.875 14.7714ZM0 11.4286H3.40909V13.7143H0V11.4286ZM21.5909 11.4286H25V13.7143H21.5909V11.4286ZM4.40341 2.85714L5.34091 3.77143C6.27841 4.68571 6.30682 4.74286 5.85227 5.48571C5.59659 5.94286 5.22727 6.28571 5.02841 6.28571C4.85795 6.28571 4.26136 5.85714 2.84091 4.42857L4.40341 2.85714ZM20.5682 2.85714L22.1591 4.42857L21.25 5.37143C20.7386 5.88571 20.1705 6.31429 19.9716 6.31429C19.7727 6.31429 19.4034 5.94286 19.1477 5.51429C18.7216 4.74286 18.75 4.71429 19.6307 3.8L20.5682 2.85714Z" fill="#F9BCC1"/>
</svg>
