<svg width="18" height="19" viewBox="0 0 18 19" fill="none" xmlns="http://www.w3.org/2000/svg">
<path d="M9 0L8.43715 0.843813C8.43715 0.843813 8.064 1.37865 7.70192 2.02004C7.52054 2.34179 7.35023 2.67776 7.20416 3.01869C7.05808 3.35963 6.92308 3.67357 6.92308 4.08411C6.92308 5.25252 7.86116 6.21495 9 6.21495C10.1388 6.21495 11.0769 5.25252 11.0769 4.08411C11.0769 3.67357 10.9419 3.35963 10.7958 3.01869C10.6498 2.67776 10.4795 2.34179 10.2981 2.02004C9.936 1.37865 9.56215 0.843103 9.56215 0.843103L9 0ZM9 6.21495H6.92308V9.05607H2.76924C1.23924 9.05607 9.07271e-06 10.3275 9.07271e-06 11.8972C-0.00172285 12.5917 0.24456 13.2628 0.692316 13.7837V19H17.3077V13.7837C17.7554 13.2628 18.0017 12.5917 18 11.8972C18 10.3275 16.7608 9.05607 15.2308 9.05607H11.0769V6.21495H9ZM9 2.57477C9.04569 2.6529 9.04085 2.64721 9.08654 2.73032C9.25131 3.02153 9.42715 3.33192 9.54069 3.59544C9.65423 3.85966 9.69231 4.10329 9.69231 4.08411C9.69231 4.47832 9.38423 4.79439 9 4.79439C8.61577 4.79439 8.30769 4.47832 8.30769 4.08411C8.30769 4.10329 8.34577 3.85966 8.45931 3.59544C8.57285 3.33264 8.74869 3.02153 8.91346 2.73032C8.95915 2.64721 8.95431 2.65219 9 2.57477ZM8.30769 7.63551H9.69231V9.05607H8.30769V7.63551ZM2.76924 10.4766H15.2308C16.0553 10.4766 16.6154 11.0513 16.6154 11.8972C16.6154 12.7431 16.0553 13.3178 15.2308 13.3178C14.4062 13.3178 13.8461 12.7431 13.8461 11.8972H12.4615C12.4615 12.7431 11.9015 13.3178 11.0769 13.3178C10.2524 13.3178 9.69231 12.7431 9.69231 11.8972H8.30769C8.30769 12.7431 7.74762 13.3178 6.92308 13.3178C6.09854 13.3178 5.53847 12.7431 5.53847 11.8972H4.15385C4.15385 12.7431 3.59377 13.3178 2.76924 13.3178C1.9447 13.3178 1.38462 12.7431 1.38462 11.8972C1.38462 11.0513 1.9447 10.4766 2.76924 10.4766ZM4.84616 13.7837C5.10668 14.0847 5.42656 14.3254 5.78462 14.49C6.14268 14.6546 6.53073 14.7392 6.92308 14.7383C7.31543 14.7392 7.70348 14.6546 8.06154 14.49C8.4196 14.3254 8.73948 14.0847 9 13.7837C9.26052 14.0847 9.5804 14.3254 9.93846 14.49C10.2965 14.6546 10.6846 14.7392 11.0769 14.7383C11.4693 14.7392 11.8573 14.6546 12.2154 14.49C12.5734 14.3254 12.8933 14.0847 13.1538 13.7837C13.4144 14.0847 13.7342 14.3254 14.0923 14.49C14.4504 14.6546 14.8384 14.7392 15.2308 14.7383C15.4717 14.7383 15.7015 14.6858 15.9231 14.6275V17.5794H2.07693V14.6275C2.29847 14.6858 2.52831 14.7383 2.76924 14.7383C3.16158 14.7392 3.54964 14.6546 3.9077 14.49C4.26576 14.3254 4.58564 14.0847 4.84616 13.7837Z" fill="black" fill-opacity="0.6"/>
</svg>
