<svg width="22" height="22" viewBox="0 0 22 22" fill="none" xmlns="http://www.w3.org/2000/svg">
<path d="M2.74984 4.58333V4.125C2.62828 4.125 2.5117 4.17329 2.42575 4.25924C2.33979 4.3452 2.2915 4.46178 2.2915 4.58333H2.74984ZM19.2498 4.58333H19.7082C19.7082 4.46178 19.6599 4.3452 19.5739 4.25924C19.488 4.17329 19.3714 4.125 19.2498 4.125V4.58333ZM2.74984 5.04167H19.2498V4.125H2.74984V5.04167ZM18.7915 4.58333V15.5833H19.7082V4.58333H18.7915ZM17.4165 16.9583H4.58317V17.875H17.4165V16.9583ZM3.20817 15.5833V4.58333H2.2915V15.5833H3.20817ZM4.58317 16.9583C4.2185 16.9583 3.86876 16.8135 3.6109 16.5556C3.35304 16.2977 3.20817 15.948 3.20817 15.5833H2.2915C2.2915 16.1911 2.53295 16.774 2.96272 17.2038C3.39249 17.6336 3.97538 17.875 4.58317 17.875V16.9583ZM18.7915 15.5833C18.7915 15.948 18.6466 16.2977 18.3888 16.5556C18.1309 16.8135 17.7812 16.9583 17.4165 16.9583V17.875C18.0243 17.875 18.6072 17.6336 19.037 17.2038C19.4667 16.774 19.7082 16.1911 19.7082 15.5833H18.7915Z" fill="black" fill-opacity="0.6"/>
<path d="M2.75 4.58325L11 12.8333L19.25 4.58325" stroke="black" stroke-opacity="0.6" stroke-linecap="round" stroke-linejoin="round"/>
</svg>
