<svg width="18" height="18" viewBox="0 0 18 18" fill="none" xmlns="http://www.w3.org/2000/svg">
<g clip-path="url(#clip0_220_7875)">
<path d="M9 0.5625C9 0.413316 9.05926 0.270242 9.16475 0.164752C9.27024 0.0592632 9.41332 0 9.5625 0L14.0625 0C14.2117 0 14.3548 0.0592632 14.4602 0.164752C14.5657 0.270242 14.625 0.413316 14.625 0.5625C14.625 0.711684 14.5657 0.854758 14.4602 0.960248C14.3548 1.06574 14.2117 1.125 14.0625 1.125H12.375V16.875H14.0625C14.2117 16.875 14.3548 16.9343 14.4602 17.0398C14.5657 17.1452 14.625 17.2883 14.625 17.4375C14.625 17.5867 14.5657 17.7298 14.4602 17.8352C14.3548 17.9407 14.2117 18 14.0625 18H9.5625C9.41332 18 9.27024 17.9407 9.16475 17.8352C9.05926 17.7298 9 17.5867 9 17.4375C9 17.2883 9.05926 17.1452 9.16475 17.0398C9.27024 16.9343 9.41332 16.875 9.5625 16.875H11.25V1.125H9.5625C9.41332 1.125 9.27024 1.06574 9.16475 0.960248C9.05926 0.854758 9 0.711684 9 0.5625Z" fill="black" fill-opacity="0.6"/>
<path fill-rule="evenodd" clip-rule="evenodd" d="M6.14243 4.84878C6.09947 4.74638 6.02723 4.65895 5.93476 4.59746C5.84229 4.53598 5.73372 4.50317 5.62268 4.50317C5.51163 4.50317 5.40306 4.53598 5.31059 4.59746C5.21813 4.65895 5.14588 4.74638 5.10293 4.84878L2.29043 11.5988C2.23299 11.7365 2.23261 11.8913 2.28936 12.0293C2.34611 12.1673 2.45535 12.2771 2.59305 12.3345C2.73075 12.392 2.88562 12.3923 3.0236 12.3356C3.16158 12.2788 3.27137 12.1696 3.3288 12.0319L4.12193 10.1307H7.12568L7.9188 12.0319C7.97624 12.1696 8.08602 12.2788 8.224 12.3356C8.36198 12.3923 8.51685 12.392 8.65455 12.3345C8.79225 12.2771 8.90149 12.1673 8.95824 12.0293C9.015 11.8913 9.01461 11.7365 8.95718 11.5988L6.14468 4.84878H6.14243ZM5.62268 6.52503L6.6543 9.00003H4.59555L5.62718 6.52503H5.62268Z" fill="black" fill-opacity="0.6"/>
<path d="M9.56254 3.375C9.71173 3.375 9.8548 3.31574 9.96029 3.21025C10.0658 3.10476 10.125 2.96168 10.125 2.8125C10.125 2.66332 10.0658 2.52024 9.96029 2.41475C9.8548 2.30926 9.71173 2.25 9.56254 2.25H5.40004C3.51004 2.25 2.56504 2.25 1.84504 2.61787C1.21152 2.94259 0.696011 3.45811 0.371293 4.09162C0.003418 4.81387 0.00341797 5.75662 0.00341797 7.64662V10.3466C0.00341797 12.2366 0.003418 13.1816 0.371293 13.9016C0.696011 14.5351 1.21152 15.0507 1.84504 15.3754C2.56729 15.7432 3.51004 15.7432 5.40004 15.7432H9.56254C9.71173 15.7432 9.8548 15.684 9.96029 15.5785C10.0658 15.473 10.125 15.3299 10.125 15.1807C10.125 15.0316 10.0658 14.8885 9.96029 14.783C9.8548 14.6775 9.71173 14.6182 9.56254 14.6182H5.40004C4.43592 14.6182 3.78004 14.6182 3.27379 14.5755C2.78104 14.5361 2.52792 14.463 2.35242 14.373C1.92907 14.1573 1.58488 13.8131 1.36917 13.3897C1.27917 13.2142 1.20604 12.9622 1.16667 12.4684C1.12504 11.9621 1.12392 11.3096 1.12392 10.3421V7.64212C1.12392 6.678 1.12504 6.02212 1.16667 5.51587C1.20717 5.02312 1.28029 4.77 1.36917 4.5945C1.58517 4.1715 1.92942 3.82725 2.35242 3.61125C2.52792 3.52125 2.78104 3.44812 3.27379 3.40875C3.78004 3.36825 4.43254 3.36712 5.40004 3.36712H9.56254V3.375ZM14.0625 14.625C13.9139 14.6279 13.7723 14.6889 13.6681 14.7949C13.5638 14.9008 13.5051 15.0433 13.5045 15.192C13.5045 15.5047 13.7588 15.7579 14.0715 15.75C15.0424 15.7275 15.6578 15.6487 16.164 15.3922C16.7985 15.0688 17.3143 14.5529 17.6378 13.9185C18.0057 13.1962 18.0057 12.2535 18.0057 10.3635V7.6635C18.0057 5.7735 18.0057 4.8285 17.6378 4.1085C17.3143 3.47407 16.7985 2.95822 16.164 2.63475C15.6589 2.37712 15.0447 2.2995 14.0715 2.277C13.9974 2.2755 13.9238 2.28884 13.8549 2.31624C13.786 2.34363 13.7233 2.38453 13.6705 2.43653C13.6176 2.48853 13.5757 2.55057 13.5472 2.619C13.5187 2.68743 13.5042 2.76087 13.5045 2.835C13.5045 3.14437 13.7543 3.39412 14.0625 3.402C14.3123 3.40725 14.5343 3.41812 14.7285 3.43462C15.2213 3.474 15.4744 3.54712 15.6499 3.63712C16.0729 3.85312 16.4172 4.19737 16.6332 4.62037C16.7232 4.79587 16.7963 5.04787 16.8357 5.54175C16.8773 6.048 16.8784 6.7005 16.8784 7.668V10.368C16.8784 11.3321 16.8773 11.988 16.8357 12.4942C16.7952 12.987 16.722 13.2401 16.6332 13.4156C16.4175 13.839 16.0733 14.1832 15.6499 14.3989C15.4744 14.4889 15.2213 14.562 14.7285 14.6014C14.5335 14.6164 14.3115 14.6269 14.0625 14.6329V14.625Z" fill="black" fill-opacity="0.6"/>
</g>
<defs>
<clipPath id="clip0_220_7875">
<rect width="18" height="18" fill="white"/>
</clipPath>
</defs>
</svg>
