<svg width="20" height="20" viewBox="0 0 20 20" fill="none" xmlns="http://www.w3.org/2000/svg">
<path d="M8.4375 15C8.35462 15 8.27513 15.0329 8.21653 15.0915C8.15792 15.1501 8.125 15.2296 8.125 15.3125C8.125 15.3954 8.15792 15.4749 8.21653 15.5335C8.27513 15.5921 8.35462 15.625 8.4375 15.625H11.5625C11.6454 15.625 11.7249 15.5921 11.7835 15.5335C11.8421 15.4749 11.875 15.3954 11.875 15.3125C11.875 15.2296 11.8421 15.1501 11.7835 15.0915C11.7249 15.0329 11.6454 15 11.5625 15H8.4375ZM6.40625 1.25C5.86753 1.25 5.35087 1.46401 4.96994 1.84494C4.58901 2.22587 4.375 2.74253 4.375 3.28125V16.7188C4.375 17.2575 4.58901 17.7741 4.96994 18.1551C5.35087 18.536 5.86753 18.75 6.40625 18.75H13.5938C14.1325 18.75 14.6491 18.536 15.0301 18.1551C15.411 17.7741 15.625 17.2575 15.625 16.7188V3.28125C15.625 2.74253 15.411 2.22587 15.0301 1.84494C14.6491 1.46401 14.1325 1.25 13.5938 1.25H6.40625ZM5 3.28125C5 2.90829 5.14816 2.5506 5.41188 2.28688C5.6756 2.02316 6.03329 1.875 6.40625 1.875H13.5938C13.9667 1.875 14.3244 2.02316 14.5881 2.28688C14.8518 2.5506 15 2.90829 15 3.28125V16.7188C15 17.0917 14.8518 17.4494 14.5881 17.7131C14.3244 17.9768 13.9667 18.125 13.5938 18.125H6.40625C6.03329 18.125 5.6756 17.9768 5.41188 17.7131C5.14816 17.4494 5 17.0917 5 16.7188V3.28125Z" fill="black"/>
</svg>
