<svg width="17" height="16" viewBox="0 0 17 16" fill="none" xmlns="http://www.w3.org/2000/svg">
<path d="M6.67783 1.61224V12.3067C6.67783 12.3807 6.66467 12.4541 6.63897 12.5233L10.321 14.389V3.45824L6.67783 1.61224ZM5.46346 1.56302L1.21316 3.47793V14.4382L5.49625 12.5085C5.47429 12.4436 5.4632 12.3754 5.46346 12.3067V1.56302ZM5.7962 0.066531C5.8852 0.0207953 5.98394 -0.00200784 6.0837 0.000138665C6.18347 0.00228517 6.28117 0.0293151 6.36817 0.0788376L10.9439 2.39741L16.1463 0.0542243C16.2387 0.0126014 16.34 -0.0049531 16.4408 0.00315554C16.5417 0.0112642 16.6389 0.044779 16.7237 0.100655C16.8086 0.156532 16.8783 0.232998 16.9265 0.323109C16.9747 0.413219 17 0.514118 17 0.616637V12.9233C17 13.0423 16.9659 13.1588 16.9019 13.2587C16.8379 13.3585 16.7467 13.4373 16.6393 13.4857L11.1747 15.947C11.0927 15.9839 11.0037 16.0019 10.914 15.9998C10.8244 15.9977 10.7363 15.9754 10.6561 15.9347L6.05486 13.6038L0.853704 15.947C0.761254 15.9886 0.660007 16.0062 0.559162 15.9981C0.458316 15.99 0.361068 15.9564 0.276251 15.9006C0.191435 15.8447 0.121739 15.7682 0.0734946 15.6781C0.0252504 15.588 -1.28354e-05 15.4871 4.89257e-09 15.3846V3.07796C-1.49057e-05 2.95891 0.0340515 2.8424 0.0980693 2.74258C0.162087 2.64275 0.253307 2.56389 0.360669 2.51555L5.7962 0.066531ZM11.5353 3.47793V14.4382L15.7856 12.5233V1.56425L11.5353 3.47793Z" fill="black" fill-opacity="0.5"/>
</svg>
