<svg width="47" height="32" viewBox="0 0 47 32" fill="none" xmlns="http://www.w3.org/2000/svg">
<g filter="url(#filter0_d_220_5328)">
<path d="M31.9912 1L26.584 5.19695L22.7674 1.10654L18.9488 5.19695L14.0012 1.31962L15.9795 9H29.907L31.9912 1ZM22.756 4.67563L24.2539 6.05304L22.756 8.03347L21.2581 6.05304L22.756 4.67563ZM17.6004 6.01682C18.1145 6.01682 18.5194 6.42411 18.5194 6.94159C18.5194 7.45864 18.1146 7.86422 17.6003 7.86422C17.0861 7.86422 16.681 7.45864 16.681 6.94152C16.681 6.42441 17.0861 6.01682 17.6004 6.01682ZM28.237 6.01682C28.7511 6.01682 29.1561 6.42411 29.1561 6.94159C29.1561 7.45864 28.7512 7.86422 28.237 7.86422C27.7227 7.86422 27.3176 7.45864 27.3176 6.94152C27.3176 6.42441 27.7228 6.01682 28.237 6.01682Z" fill="url(#paint0_linear_220_5328)"/>
</g>
<g filter="url(#filter1_d_220_5328)">
<path d="M27.8104 10C26.0264 10 24.4473 10.9006 23.5038 12.2705C23.2986 12.5245 23.1131 12.7939 22.9489 13.0762C20.1537 7.82816 13.1786 9.78379 13.0045 15.3303C12.8189 21.2416 20.555 22.7388 22.949 28.6402C24.7473 23.9582 29.8596 21.8237 31.9834 18.3662C32.6437 17.4912 33.0363 16.4032 33.0363 15.226C33.0364 14.4999 32.8842 13.7819 32.5895 13.1184C32.5854 13.1072 32.5809 13.0966 32.5766 13.0855C32.5755 13.083 32.5741 13.0806 32.5731 13.0782C32.0309 11.6627 30.9194 10.7311 29.6104 10.3206L29.6049 10.3188C29.0302 10.1077 28.4227 9.99972 27.8104 10ZM27.8104 11.0951C30.0983 11.0951 31.9413 12.9381 31.9413 15.226C31.9413 16.67 31.2071 17.9376 30.0901 18.6756C30.6913 17.5008 30.5942 15.8066 29.7166 14.2865C28.7022 12.5296 26.9624 11.5598 25.4941 11.8018C26.1541 11.3554 26.9506 11.0951 27.8104 11.0951Z" fill="#6DA0E1"/>
</g>
<path fill-rule="evenodd" clip-rule="evenodd" d="M9.81125 10.1266C9.59222 10.1898 9.23381 10.3254 9.01478 10.4339C8.79575 10.5333 8.05902 11.0938 7.37206 11.6813C6.6851 12.2598 5.72934 13.0282 5.23154 13.3897C4.73375 13.7513 4.04679 14.2214 3.68838 14.4383C3.32997 14.6553 2.55341 15.053 1.96601 15.3332C0.900728 15.8213 0.890772 15.8304 1.11976 15.975C1.24918 16.0563 1.52795 16.1919 1.74698 16.2733C1.96601 16.3546 2.47376 16.4812 2.87199 16.5535C3.3001 16.6349 4.14635 16.6891 4.98264 16.6891C5.74925 16.6891 6.81453 16.6439 7.35215 16.5897C8.24818 16.4993 8.33778 16.5083 8.56677 16.671C8.72606 16.7795 8.82562 16.9512 8.84553 17.1501C8.86544 17.3761 8.81566 17.5026 8.64641 17.6473C8.51699 17.7467 7.7703 18.0721 6.97382 18.3523C6.17735 18.6416 5.46053 18.9309 5.38088 18.9941C5.25145 19.1026 5.28132 19.1478 5.62978 19.3376C5.84881 19.4551 6.3466 19.663 6.72493 19.7805C7.10325 19.9071 7.84994 20.0788 8.36765 20.1602C8.98491 20.2596 9.88095 20.3048 10.9562 20.3048C12.3998 20.2958 12.6188 20.3139 12.7682 20.4585C12.8677 20.5489 12.9474 20.6754 12.9474 20.7297C12.9474 20.7905 13.0015 20.8145 13.1311 20.8127C13.1186 20.8151 13.1072 20.8175 13.0969 20.8201C12.9874 20.8382 12.9077 20.9195 12.9276 20.9918C12.9376 21.0641 12.8679 21.1907 12.7683 21.2811C12.6389 21.4076 12.3602 21.4619 11.5538 21.5161C10.5781 21.5884 10.4586 21.6155 9.7717 21.9681C9.36352 22.1669 9.00512 22.3929 8.97525 22.4562C8.94538 22.5285 8.9852 22.6189 9.06485 22.6551C9.14449 22.7003 9.55267 22.7816 9.96085 22.8358C10.369 22.8901 11.2252 22.9534 11.8524 22.9895C12.5194 23.0166 13.525 22.9895 14.2418 22.9262C14.9287 22.863 15.546 22.7997 15.6057 22.7816C15.6853 22.7635 15.5061 22.5195 15.1676 22.185C14.859 21.8686 14.4508 21.4257 14.2716 21.1907C13.9929 20.8201 13.8933 20.7568 13.6146 20.7658C13.5819 20.7676 13.5467 20.7697 13.5102 20.7721C13.5376 20.7679 13.564 20.7639 13.589 20.7601C13.7173 20.7407 13.8102 20.7267 13.8235 20.7206C13.8334 20.7116 13.6443 20.4043 13.4053 20.0337C13.1564 19.663 12.7781 18.967 12.5591 18.497C12.3401 18.0269 12.0613 17.2947 11.9319 16.8699C11.7427 16.2191 11.7029 15.8936 11.7128 14.7908C11.7128 13.6338 11.7527 13.3897 11.9916 12.6666C12.1409 12.2237 12.4097 11.5909 12.579 11.2745L12.8976 10.7051C12.5093 10.4248 12.1111 10.2712 11.7527 10.1717C11.3942 10.0723 10.9064 10 10.6575 10C10.4086 10.009 10.0303 10.0633 9.81125 10.1266ZM35.4278 10.0904C35.2187 10.1446 34.8702 10.2621 34.6512 10.3616C34.4322 10.461 34.2231 10.5966 34.1932 10.6508C34.1634 10.7141 34.2729 11.0124 34.4322 11.3107C34.6014 11.609 34.8603 12.2237 35.0096 12.6666C35.2486 13.3807 35.2784 13.6428 35.2884 14.7908C35.2983 15.9027 35.2585 16.2191 35.0694 16.8699C34.9399 17.2947 34.6811 17.9817 34.482 18.4066C34.2928 18.8314 33.9145 19.5184 33.6457 19.9433C33.3769 20.3681 33.1678 20.7116 33.1777 20.7206C33.1911 20.7267 33.2811 20.741 33.4052 20.7579C33.3812 20.7572 33.3582 20.7568 33.3366 20.7568C33.1375 20.7568 32.9981 20.8562 32.7393 21.1907C32.5501 21.4257 32.142 21.8686 31.8333 22.185C31.4948 22.5195 31.3156 22.7635 31.3853 22.7816C31.455 22.7997 32.0723 22.863 32.7592 22.9262C33.476 22.9895 34.4815 23.0166 35.1486 22.9895C35.7758 22.9534 36.6319 22.8901 37.0401 22.8358C37.4483 22.7816 37.8565 22.7003 37.9361 22.6551C38.0158 22.6189 38.0556 22.5285 38.0257 22.4562C37.9959 22.3929 37.6375 22.1669 37.2293 21.9681C36.5423 21.6155 36.4229 21.5884 35.4472 21.5161C34.6408 21.4619 34.3621 21.4076 34.2227 21.2811C34.1331 21.1907 34.0534 21.0551 34.0534 20.9828C34.0534 20.916 33.9684 20.8415 33.8534 20.8091C34.0071 20.8089 34.06 20.7496 34.1733 20.576L34.3525 20.3048C37.0705 20.3048 38.0163 20.2596 38.5838 20.1692C39.0716 20.0879 39.6989 19.9613 39.9776 19.88C40.2464 19.7986 40.7343 19.6178 41.0429 19.4823C41.3615 19.3376 41.6402 19.184 41.6701 19.1297C41.7 19.0755 41.6602 19.0032 41.5905 18.958C41.5307 18.9128 40.8239 18.6416 40.0274 18.3523C39.2309 18.0721 38.4842 17.7557 38.3548 17.6473C38.2154 17.5298 38.1258 17.349 38.1258 17.1863C38.1258 17.0145 38.2254 16.8337 38.3847 16.6891L38.6435 16.4631C40.1767 16.6349 41.252 16.6891 42.0186 16.6891C42.8549 16.6891 43.7011 16.6349 44.1292 16.5535C44.5275 16.4812 45.0352 16.3546 45.2542 16.2733C45.4733 16.1919 45.752 16.0563 45.8815 15.975C46.1104 15.8304 46.1005 15.8213 45.0352 15.3332C44.4478 15.053 43.6712 14.6553 43.3128 14.4383C42.9544 14.2214 42.2575 13.7513 41.7697 13.3897C41.2818 13.0282 40.3161 12.2598 39.6292 11.6723C38.7132 10.8949 38.2154 10.5424 37.7375 10.3345C37.2597 10.1356 36.9212 10.0542 36.4433 10.0362C36.0849 10.0181 35.6269 10.0452 35.4178 10.0904H35.4278Z" fill="#F3F3FF"/>
<path d="M9.01478 10.4339L9.11818 10.6617L9.12573 10.6579L9.01478 10.4339ZM9.81125 10.1266L9.88064 10.3667V10.3667L9.81125 10.1266ZM7.37206 11.6813L7.5331 11.8725L7.53456 11.8713L7.37206 11.6813ZM3.68838 14.4383L3.55892 14.2244L3.68838 14.4383ZM1.96601 15.3332L2.07016 15.5605L2.07365 15.5588L1.96601 15.3332ZM1.11976 15.975L0.986254 16.1864L0.986715 16.1867L1.11976 15.975ZM1.74698 16.2733L1.83403 16.0389H1.83403L1.74698 16.2733ZM2.87199 16.5535L2.91867 16.3079L2.91666 16.3075L2.87199 16.5535ZM7.35215 16.5897L7.37724 16.8384L7.35215 16.5897ZM8.56677 16.671L8.42193 16.8749L8.42606 16.8777L8.56677 16.671ZM8.84553 17.1501L9.09458 17.1282L9.09429 17.1252L8.84553 17.1501ZM8.64641 17.6473L8.79893 17.8458L8.80883 17.8373L8.64641 17.6473ZM6.97382 18.3523L6.89085 18.1165L6.88848 18.1174L6.97382 18.3523ZM5.38088 18.9941L5.22532 18.7983L5.2203 18.8025L5.38088 18.9941ZM5.62978 19.3376L5.51018 19.5572L5.51159 19.5579L5.62978 19.3376ZM6.72493 19.7805L6.80425 19.5434L6.79908 19.5418L6.72493 19.7805ZM8.36765 20.1602L8.40741 19.9134L8.40646 19.9132L8.36765 20.1602ZM10.9562 20.3048V20.5548L10.9577 20.5548L10.9562 20.3048ZM12.7682 20.4585L12.5941 20.6382L12.6001 20.6436L12.7682 20.4585ZM13.1311 20.8127L13.1783 21.0582L13.1275 20.5627L13.1311 20.8127ZM13.0969 20.8201L13.1376 21.0667L13.1474 21.0651L13.157 21.0627L13.0969 20.8201ZM12.9276 20.9918L13.1753 20.9577L13.173 20.9414L13.1687 20.9255L12.9276 20.9918ZM12.7683 21.2811L12.6002 21.0959L12.5936 21.1023L12.7683 21.2811ZM11.5538 21.5161L11.537 21.2667L11.5353 21.2668L11.5538 21.5161ZM9.7717 21.9681L9.88122 22.1929L9.88584 22.1905L9.7717 21.9681ZM8.97525 22.4562L8.74889 22.3494L8.74418 22.3608L8.97525 22.4562ZM9.06485 22.6551L9.18824 22.4376L9.17844 22.4321L9.16819 22.4274L9.06485 22.6551ZM9.96085 22.8358L9.99378 22.588H9.99378L9.96085 22.8358ZM11.8524 22.9895L11.838 23.2391L11.8423 23.2393L11.8524 22.9895ZM14.2418 22.9262L14.2638 23.1753L14.2647 23.1752L14.2418 22.9262ZM15.6057 22.7816L15.5503 22.5378L15.5417 22.5398L15.5333 22.5423L15.6057 22.7816ZM15.1676 22.185L14.9887 22.3596L14.9919 22.3629L15.1676 22.185ZM14.2716 21.1907L14.0718 21.341L14.0728 21.3423L14.2716 21.1907ZM13.6146 20.7658L13.6065 20.5159L13.6012 20.5162L13.6146 20.7658ZM13.5102 20.7721L13.4726 20.5249L13.5268 21.0215L13.5102 20.7721ZM13.589 20.7601L13.5516 20.513H13.5516L13.589 20.7601ZM13.8235 20.7206L13.9268 20.9483L13.9625 20.9321L13.9915 20.9057L13.8235 20.7206ZM13.4053 20.0337L13.6155 19.8982L13.6129 19.8943L13.4053 20.0337ZM12.5591 18.497L12.7857 18.3914L12.5591 18.497ZM11.9319 16.8699L11.6918 16.9397L11.6927 16.9427L11.9319 16.8699ZM11.7128 14.7908L11.9628 14.7931V14.7908H11.7128ZM11.9916 12.6666L11.7547 12.5867L11.7542 12.5882L11.9916 12.6666ZM12.579 11.2745L12.3608 11.1525L12.3586 11.1566L12.579 11.2745ZM12.8976 10.7051L13.1158 10.8271L13.2245 10.6327L13.0439 10.5023L12.8976 10.7051ZM11.7527 10.1717L11.8195 9.93085L11.8195 9.93085L11.7527 10.1717ZM10.6575 10V9.74984L10.6484 9.75016L10.6575 10ZM34.6512 10.3616L34.5479 10.1339V10.1339L34.6512 10.3616ZM35.4278 10.0904L35.4905 10.3324L35.4278 9.84039V10.0904ZM34.1932 10.6508L33.9743 10.5302L33.9705 10.5371L33.9672 10.5441L34.1932 10.6508ZM34.4322 11.3107L34.2116 11.4285L34.2147 11.4341L34.4322 11.3107ZM35.0096 12.6666L35.2467 12.5873L35.2465 12.5867L35.0096 12.6666ZM35.2884 14.7908L35.0384 14.793L35.0384 14.7931L35.2884 14.7908ZM35.0694 16.8699L35.3085 16.9427L35.3094 16.9397L35.0694 16.8699ZM34.482 18.4066L34.2555 18.3005L34.2536 18.3049L34.482 18.4066ZM33.6457 19.9433L33.4344 19.8096L33.6457 19.9433ZM33.1777 20.7206L33.0097 20.9057L33.0387 20.9321L33.0744 20.9483L33.1777 20.7206ZM33.4052 20.7579L33.3976 21.0078L33.439 20.5102L33.4052 20.7579ZM32.7393 21.1907L32.9341 21.3475L32.937 21.3437L32.7393 21.1907ZM31.8333 22.185L32.0091 22.3629L32.0123 22.3596L31.8333 22.185ZM31.3853 22.7816L31.3226 23.0236H31.3226L31.3853 22.7816ZM32.7592 22.9262L32.7363 23.1752L32.7372 23.1753L32.7592 22.9262ZM35.1486 22.9895L35.1587 23.2393L35.1629 23.2391L35.1486 22.9895ZM37.0401 22.8358L37.0072 22.588L37.0401 22.8358ZM37.9361 22.6551L37.8328 22.4274L37.8225 22.4321L37.8127 22.4376L37.9361 22.6551ZM38.0257 22.4562L38.2571 22.3607L38.2518 22.3495L38.0257 22.4562ZM37.2293 21.9681L37.1151 22.1905L37.1198 22.1928L37.2293 21.9681ZM35.4472 21.5161L35.4657 21.2668L35.464 21.2667L35.4472 21.5161ZM34.2227 21.2811L34.0449 21.4573L34.0546 21.4662L34.2227 21.2811ZM33.8534 20.8091L33.8531 20.5591L33.7858 21.0498L33.8534 20.8091ZM34.1733 20.576L33.9648 20.4382L33.964 20.4394L34.1733 20.576ZM34.3525 20.3048V20.0548H34.2181L34.144 20.167L34.3525 20.3048ZM38.5838 20.1692L38.6231 20.4161L38.6249 20.4158L38.5838 20.1692ZM39.9776 19.88L40.0477 20.12L40.05 20.1193L39.9776 19.88ZM41.0429 19.4823L41.1435 19.7112L41.1462 19.7099L41.0429 19.4823ZM41.6701 19.1297L41.4511 19.0091L41.4511 19.0091L41.6701 19.1297ZM41.5905 18.958L41.4396 19.1573L41.4468 19.1628L41.4544 19.1677L41.5905 18.958ZM40.0274 18.3523L40.1127 18.1173L40.1104 18.1165L40.0274 18.3523ZM38.3548 17.6473L38.1937 17.8384L38.1942 17.8389L38.3548 17.6473ZM38.3847 16.6891L38.2202 16.5007L38.2166 16.504L38.3847 16.6891ZM38.6435 16.4631L38.6714 16.2147L38.562 16.2024L38.4791 16.2748L38.6435 16.4631ZM44.1292 16.5535L44.0846 16.3075L44.0826 16.3079L44.1292 16.5535ZM45.2542 16.2733L45.1672 16.0389V16.0389L45.2542 16.2733ZM45.8815 15.975L46.0145 16.1867L46.015 16.1864L45.8815 15.975ZM45.0352 15.3332L44.9276 15.5589L44.9311 15.5605L45.0352 15.3332ZM43.3128 14.4383L43.1834 14.6522V14.6522L43.3128 14.4383ZM39.6292 11.6723L39.7917 11.4823L39.7909 11.4817L39.6292 11.6723ZM37.7375 10.3345L37.8373 10.1052L37.8336 10.1036L37.7375 10.3345ZM36.4433 10.0362L36.4307 10.2859L36.4338 10.286L36.4433 10.0362ZM35.4178 10.0904L35.365 9.84604L35.4178 10.3404V10.0904ZM9.12573 10.6579C9.33015 10.5567 9.6745 10.4263 9.88064 10.3667L9.74187 9.88637C9.50995 9.95337 9.13747 10.0941 8.90383 10.2099L9.12573 10.6579ZM7.53456 11.8713C7.8747 11.5804 8.22687 11.2964 8.52014 11.0736C8.66686 10.9621 8.79743 10.867 8.90351 10.7944C9.01419 10.7187 9.08532 10.6764 9.11812 10.6615L8.91144 10.2062C8.83473 10.2411 8.73163 10.3062 8.6211 10.3818C8.50597 10.4606 8.36836 10.561 8.21765 10.6755C7.91605 10.9046 7.55637 11.1947 7.20956 11.4913L7.53456 11.8713ZM5.37846 13.592C5.88354 13.2252 6.84469 12.4523 7.5331 11.8725L7.21102 11.4901C6.52552 12.0674 5.57513 12.8312 5.08462 13.1875L5.37846 13.592ZM3.81783 14.6522C4.18508 14.4299 4.87857 13.9551 5.37846 13.592L5.08462 13.1875C4.58893 13.5475 3.9085 14.0128 3.55892 14.2244L3.81783 14.6522ZM2.07365 15.5588C2.66237 15.278 3.44826 14.8759 3.81783 14.6522L3.55892 14.2244C3.21167 14.4346 2.44444 14.828 1.85837 15.1076L2.07365 15.5588ZM1.25326 15.7636C1.22289 15.7444 1.20794 15.7345 1.19908 15.7277C1.18645 15.718 1.20957 15.7319 1.22851 15.7692C1.25757 15.8265 1.25647 15.8954 1.22938 15.9493C1.2117 15.9845 1.19184 15.9948 1.20882 15.9819C1.23991 15.9583 1.31223 15.9167 1.46173 15.8438C1.6056 15.7736 1.80288 15.6829 2.07015 15.5605L1.86187 15.1059C1.5965 15.2275 1.39305 15.321 1.2426 15.3944C1.09778 15.465 0.982183 15.5262 0.906246 15.5839C0.869718 15.6116 0.816561 15.6573 0.78263 15.7248C0.739283 15.811 0.738959 15.9094 0.782643 15.9955C0.8162 16.0616 0.867793 16.1037 0.89429 16.1241C0.924552 16.1474 0.959381 16.1694 0.986255 16.1864L1.25326 15.7636ZM1.83403 16.0389C1.62716 15.9621 1.36457 15.8336 1.2528 15.7633L0.986715 16.1867C1.1338 16.2791 1.42874 16.4218 1.65993 16.5076L1.83403 16.0389ZM2.91666 16.3075C2.52411 16.2362 2.03291 16.1128 1.83403 16.0389L1.65993 16.5076C1.8991 16.5965 2.42341 16.7261 2.82733 16.7995L2.91666 16.3075ZM4.98264 16.4391C4.15046 16.4391 3.32314 16.3848 2.91867 16.3079L2.82532 16.7991C3.27706 16.885 4.14224 16.9391 4.98264 16.9391V16.4391ZM7.32705 16.3409C6.80027 16.3941 5.74382 16.4391 4.98264 16.4391V16.9391C5.75467 16.9391 6.82879 16.8937 7.37724 16.8384L7.32705 16.3409ZM8.71157 16.4672C8.65036 16.4237 8.58292 16.379 8.50097 16.3455C8.41646 16.311 8.32863 16.2931 8.22688 16.286C8.03772 16.2729 7.76668 16.2966 7.32705 16.3409L7.37724 16.8384C7.83365 16.7924 8.05542 16.7753 8.19231 16.7848C8.2536 16.7891 8.2871 16.7983 8.3118 16.8084C8.33906 16.8195 8.36868 16.837 8.42196 16.8748L8.71157 16.4672ZM9.09429 17.1252C9.06737 16.8564 8.93085 16.6165 8.70748 16.4644L8.42606 16.8777C8.52127 16.9425 8.58387 17.0461 8.59678 17.175L9.09429 17.1252ZM8.80883 17.8373C8.91124 17.7498 8.9977 17.6507 9.0491 17.5219C9.1002 17.3938 9.10637 17.2621 9.09457 17.1282L8.5965 17.172C8.6046 17.2641 8.59584 17.3086 8.58471 17.3365C8.5739 17.3636 8.55083 17.4001 8.484 17.4572L8.80883 17.8373ZM7.05679 18.5882C7.46007 18.4463 7.85086 18.2929 8.15823 18.162C8.31179 18.0966 8.44615 18.0361 8.55167 17.9849C8.64911 17.9376 8.74301 17.8883 8.79872 17.8455L8.49411 17.449C8.49505 17.4483 8.49218 17.4505 8.48338 17.456C8.47511 17.4611 8.46386 17.4677 8.44926 17.4757C8.41998 17.4919 8.38124 17.5118 8.33328 17.5351C8.2375 17.5816 8.11114 17.6386 7.96229 17.702C7.66484 17.8287 7.28405 17.9782 6.89085 18.1165L7.05679 18.5882ZM5.53639 19.1899C5.52366 19.2 5.52167 19.1988 5.5522 19.1834C5.57597 19.1714 5.6096 19.1556 5.65324 19.1361C5.74017 19.0973 5.85901 19.0475 6.00201 18.9898C6.28757 18.8747 6.66313 18.7311 7.05916 18.5873L6.88848 18.1174C6.48804 18.2628 6.10696 18.4084 5.81508 18.5261C5.66936 18.5848 5.54428 18.6372 5.44951 18.6795C5.4023 18.7006 5.36064 18.72 5.32685 18.7371C5.29983 18.7507 5.25801 18.7724 5.22537 18.7984L5.53639 19.1899ZM5.74937 19.1181C5.66297 19.071 5.6034 19.0367 5.56272 19.01C5.54271 18.9969 5.53084 18.988 5.52438 18.9825C5.51731 18.9766 5.52161 18.979 5.52928 18.9897C5.53765 19.0013 5.55318 19.0274 5.55853 19.0663C5.56419 19.1073 5.55584 19.1431 5.54471 19.1682C5.53964 19.1796 5.53447 19.1878 5.5311 19.1927C5.52773 19.1975 5.52539 19.2001 5.52518 19.2003C5.52493 19.2006 5.52595 19.1995 5.52887 19.1968C5.53175 19.1941 5.53582 19.1905 5.54146 19.1857L5.2203 18.8025C5.18762 18.8299 5.12327 18.8851 5.08762 18.9655C5.06654 19.0131 5.05445 19.071 5.06322 19.1346C5.07169 19.196 5.09718 19.2451 5.12297 19.2811C5.16915 19.3455 5.2354 19.3933 5.28864 19.4282C5.34752 19.4668 5.42236 19.5093 5.51018 19.5572L5.74937 19.1181ZM6.79908 19.5418C6.43301 19.4281 5.95043 19.2259 5.74797 19.1173L5.51159 19.5579C5.74718 19.6843 6.2602 19.898 6.65077 20.0193L6.79908 19.5418ZM8.40646 19.9132C7.89805 19.8333 7.16568 19.6644 6.80423 19.5435L6.64562 20.0176C7.04082 20.1498 7.80184 20.3244 8.32884 20.4072L8.40646 19.9132ZM10.9562 20.0548C9.88441 20.0548 9.00447 20.0096 8.40741 19.9134L8.32789 20.407C8.96536 20.5097 9.87749 20.5548 10.9562 20.5548V20.0548ZM12.9421 20.2789C12.8046 20.1458 12.6408 20.0979 12.3686 20.0749C12.1009 20.0523 11.6722 20.0503 10.9546 20.0548L10.9577 20.5548C11.6838 20.5503 12.0864 20.5529 12.3265 20.5731C12.562 20.5931 12.5824 20.6266 12.5942 20.6381L12.9421 20.2789ZM13.1974 20.7297C13.1974 20.6649 13.1764 20.6093 13.1629 20.5781C13.1469 20.541 13.1263 20.5046 13.1046 20.4713C13.0613 20.4048 13.0028 20.3339 12.9362 20.2734L12.6001 20.6436C12.633 20.6735 12.6641 20.7111 12.6856 20.744C12.6962 20.7604 12.7018 20.7715 12.7038 20.7762C12.7048 20.7785 12.7038 20.7766 12.7023 20.771C12.7011 20.7665 12.6974 20.7516 12.6974 20.7297H13.1974ZM13.1275 20.5627C13.1022 20.563 13.0869 20.562 13.079 20.561C13.07 20.5599 13.0776 20.5597 13.0932 20.5667C13.1107 20.5746 13.1417 20.5933 13.1666 20.631C13.1918 20.6693 13.1974 20.7069 13.1974 20.7297H12.6974C12.6974 20.7829 12.7097 20.8463 12.7491 20.9061C12.7882 20.9654 12.8408 21.0014 12.8881 21.0227C12.9713 21.0601 13.0649 21.0636 13.1347 21.0626L13.1275 20.5627ZM13.157 21.0627C13.1621 21.0615 13.1691 21.0599 13.1783 21.0582L13.0839 20.5672C13.0682 20.5702 13.0523 20.5736 13.0368 20.5774L13.157 21.0627ZM13.1687 20.9255C13.1904 21.0045 13.1488 21.054 13.142 21.0609C13.1325 21.0705 13.13 21.068 13.1376 21.0667L13.0562 20.5734C12.9542 20.5903 12.8571 20.6374 12.7855 20.7103C12.7164 20.7806 12.6449 20.9069 12.6866 21.0582L13.1687 20.9255ZM12.9364 21.4662C13.0061 21.4029 13.0658 21.3269 13.108 21.2503C13.1443 21.1844 13.1915 21.0754 13.1753 20.9577L12.68 21.0259C12.6761 20.9981 12.6815 20.9827 12.6805 20.9862C12.6801 20.9878 12.6774 20.9957 12.6701 21.0091C12.655 21.0364 12.6301 21.0689 12.6003 21.096L12.9364 21.4662ZM11.5705 21.7655C11.9737 21.7384 12.2589 21.7106 12.4625 21.6712C12.6628 21.6324 12.8248 21.5755 12.9431 21.4598L12.5936 21.1023C12.5825 21.1132 12.5404 21.1468 12.3674 21.1803C12.1976 21.2132 11.9403 21.2395 11.537 21.2667L11.5705 21.7655ZM9.88584 22.1905C10.2297 22.014 10.4086 21.9316 10.6155 21.8794C10.8282 21.8258 11.0792 21.802 11.5722 21.7654L11.5353 21.2668C11.0527 21.3026 10.7561 21.3284 10.4934 21.3946C10.225 21.4622 10.0006 21.5696 9.65755 21.7457L9.88584 22.1905ZM9.20133 22.5629C9.18326 22.6012 9.16095 22.6182 9.17235 22.6075C9.17666 22.6035 9.18685 22.5948 9.20506 22.5811C9.24096 22.5541 9.29438 22.5181 9.36309 22.4756C9.49973 22.3911 9.68397 22.2889 9.88119 22.1928L9.6622 21.7433C9.45124 21.8461 9.2522 21.9563 9.10012 22.0504C9.02448 22.0971 8.95719 22.1419 8.90473 22.1813C8.87876 22.2008 8.85286 22.2217 8.83026 22.2429C8.81474 22.2574 8.7747 22.2954 8.74917 22.3495L9.20133 22.5629ZM9.16819 22.4274C9.18549 22.4353 9.19917 22.4492 9.20718 22.4671C9.21508 22.4847 9.22107 22.5159 9.20632 22.5516L8.74418 22.3608C8.65524 22.5761 8.77828 22.7995 8.9615 22.8827L9.16819 22.4274ZM9.99378 22.588C9.79448 22.5615 9.59589 22.5285 9.43892 22.497C9.36021 22.4811 9.29436 22.4662 9.24522 22.4531C9.18596 22.4374 9.17604 22.4307 9.18824 22.4376L8.94146 22.8725C8.99348 22.902 9.06445 22.9225 9.11688 22.9364C9.17943 22.953 9.25607 22.9702 9.34039 22.9872C9.50946 23.0211 9.71904 23.0559 9.92793 23.0837L9.99378 22.588ZM11.8668 22.7399C11.2393 22.7038 10.3916 22.6409 9.99378 22.588L9.92792 23.0837C10.3464 23.1393 11.2111 23.203 11.838 23.2391L11.8668 22.7399ZM14.2198 22.6772C13.5127 22.7396 12.5179 22.7664 11.8626 22.7397L11.8423 23.2393C12.521 23.2669 13.5373 23.2394 14.2638 23.1753L14.2198 22.6772ZM15.5333 22.5423C15.5465 22.5383 15.5492 22.539 15.5211 22.5432C15.5003 22.5463 15.4711 22.5502 15.4335 22.5548C15.3586 22.564 15.2561 22.5754 15.1328 22.5883C14.8866 22.6142 14.5617 22.6457 14.2188 22.6773L14.2647 23.1752C14.6088 23.1435 14.9359 23.1118 15.185 23.0856C15.3094 23.0726 15.4153 23.0608 15.4945 23.0511C15.5339 23.0462 15.5681 23.0417 15.5951 23.0377C15.6149 23.0347 15.65 23.0294 15.6781 23.0209L15.5333 22.5423ZM14.9919 22.3629C15.1572 22.5262 15.2761 22.6602 15.342 22.7499C15.3779 22.7988 15.3848 22.8171 15.3829 22.8115C15.3817 22.8082 15.3784 22.7984 15.3763 22.7836C15.3743 22.7695 15.3722 22.7426 15.3798 22.709C15.3881 22.6728 15.4074 22.6309 15.4444 22.5953C15.4806 22.5605 15.5205 22.5446 15.5503 22.5378L15.661 23.0254C15.7008 23.0164 15.7486 22.9964 15.7908 22.9559C15.8338 22.9146 15.8571 22.8652 15.8674 22.82C15.8854 22.7408 15.8644 22.6734 15.854 22.6441C15.8303 22.5772 15.7862 22.5102 15.745 22.454C15.6565 22.3335 15.5165 22.1783 15.3434 22.0072L14.9919 22.3629ZM14.0728 21.3423C14.2622 21.5906 14.6799 22.0431 14.9887 22.3596L15.3466 22.0104C15.0381 21.6942 14.6395 21.2608 14.4704 21.0391L14.0728 21.3423ZM13.6227 21.0157C13.7406 21.0119 13.7751 21.025 13.8076 21.046C13.8595 21.0795 13.9299 21.1523 14.0718 21.341L14.4714 21.0404C14.3346 20.8585 14.2158 20.7143 14.0786 20.6258C13.9219 20.5247 13.7673 20.5108 13.6065 20.516L13.6227 21.0157ZM13.5268 21.0215C13.5621 21.0192 13.5962 21.0172 13.6279 21.0155L13.6012 20.5162C13.5676 20.518 13.5313 20.5201 13.4937 20.5226L13.5268 21.0215ZM13.5516 20.513C13.5266 20.5167 13.5001 20.5207 13.4726 20.5249L13.5479 21.0192C13.5751 21.0151 13.6013 21.0111 13.6264 21.0073L13.5516 20.513ZM13.7201 20.493C13.7337 20.4869 13.7443 20.4836 13.7473 20.4827C13.7515 20.4814 13.7544 20.4807 13.7551 20.4805C13.7565 20.4802 13.7556 20.4804 13.7511 20.4813C13.7425 20.483 13.7287 20.4854 13.709 20.4886C13.6699 20.495 13.6163 20.5032 13.5516 20.513L13.6264 21.0073C13.6899 20.9977 13.747 20.9891 13.7897 20.9821C13.8109 20.9786 13.8309 20.9752 13.8474 20.9719C13.8555 20.9704 13.8651 20.9684 13.8746 20.966C13.8787 20.965 13.9019 20.9596 13.9268 20.9483L13.7201 20.493ZM13.1952 20.1691C13.3141 20.3535 13.4199 20.5212 13.4944 20.643C13.5319 20.7044 13.5601 20.752 13.5778 20.7836C13.5821 20.7914 13.5855 20.7976 13.588 20.8024C13.5892 20.8047 13.5902 20.8066 13.5909 20.8079C13.5916 20.8093 13.5919 20.8099 13.5918 20.8099C13.5918 20.8098 13.5917 20.8095 13.5914 20.8089C13.5911 20.8084 13.5907 20.8074 13.5902 20.8061C13.5893 20.8041 13.5871 20.7986 13.5847 20.7908C13.583 20.7857 13.577 20.7664 13.5747 20.7402C13.5736 20.727 13.5724 20.7013 13.5789 20.6696C13.5854 20.6381 13.6035 20.5827 13.6554 20.5355L13.9915 20.9057C14.0438 20.8583 14.0621 20.8025 14.0687 20.7704C14.0753 20.7382 14.0741 20.7117 14.0729 20.6977C14.0705 20.6697 14.064 20.6482 14.0614 20.6402C14.0555 20.6213 14.0482 20.6054 14.0445 20.5976C14.0359 20.5793 14.0249 20.5588 14.0141 20.5396C13.9917 20.4994 13.9595 20.4453 13.9211 20.3824C13.8437 20.2557 13.7355 20.0844 13.6154 19.8982L13.1952 20.1691ZM12.3325 18.6026C12.5551 19.0804 12.9396 19.7886 13.1978 20.173L13.6129 19.8943C13.3733 19.5375 13.0011 18.8536 12.7857 18.3914L12.3325 18.6026ZM11.6927 16.9427C11.8256 17.379 12.1086 18.1221 12.3325 18.6026L12.7857 18.3914C12.5715 17.9317 12.297 17.2104 12.171 16.797L11.6927 16.9427ZM11.4628 14.7886C11.4528 15.9047 11.4933 16.2568 11.6918 16.9397L12.1719 16.8001C11.9921 16.1813 11.953 15.8825 11.9628 14.7931L11.4628 14.7886ZM11.7542 12.5882C11.6335 12.9535 11.5578 13.2131 11.5148 13.5327C11.4725 13.8473 11.4628 14.2129 11.4628 14.7908H11.9628C11.9628 14.2117 11.9731 13.8768 12.0104 13.5993C12.047 13.3269 12.1108 13.1028 12.229 12.745L11.7542 12.5882ZM12.3586 11.1566C12.1816 11.4875 11.9075 12.1334 11.7547 12.5867L12.2285 12.7465C12.3743 12.314 12.6379 11.6944 12.7994 11.3925L12.3586 11.1566ZM12.6794 10.583L12.3608 11.1525L12.7972 11.3966L13.1158 10.8271L12.6794 10.583ZM11.6858 10.4126C12.0259 10.507 12.3943 10.6502 12.7513 10.9078L13.0439 10.5023C12.6243 10.1995 12.1962 10.0354 11.8195 9.93085L11.6858 10.4126ZM10.6575 10.25C10.8783 10.25 11.3431 10.3176 11.6858 10.4126L11.8195 9.93085C11.4454 9.82707 10.9345 9.75 10.6575 9.75V10.25ZM9.88064 10.3667C10.0763 10.3102 10.4338 10.2583 10.6666 10.2498L10.6484 9.75016C10.3834 9.75979 9.98427 9.81634 9.74187 9.88637L9.88064 10.3667ZM34.7546 10.5892C34.9584 10.4967 35.2929 10.3837 35.4905 10.3324L35.365 9.8484C35.1445 9.90561 34.7821 10.0276 34.5479 10.1339L34.7546 10.5892ZM34.4122 10.7714C34.405 10.7845 34.3984 10.7931 34.3954 10.7967C34.3937 10.7989 34.3924 10.8004 34.3916 10.8013C34.3907 10.8022 34.3902 10.8027 34.3902 10.8028C34.3901 10.8029 34.3911 10.8019 34.3935 10.7998C34.3958 10.7977 34.399 10.795 34.4033 10.7916C34.4211 10.7772 34.4487 10.7575 34.4856 10.734C34.5589 10.6873 34.6556 10.6341 34.7546 10.5892L34.5479 10.1339C34.4278 10.1885 34.3104 10.2528 34.217 10.3123C34.1705 10.3419 34.1266 10.3724 34.0899 10.4019C34.0635 10.4232 34.0081 10.4688 33.9743 10.5302L34.4122 10.7714ZM34.6527 11.1929C34.5775 11.0522 34.5155 10.9139 34.4767 10.8072C34.4571 10.7531 34.4456 10.7132 34.4404 10.6882C34.4378 10.6755 34.4381 10.6728 34.4383 10.6776C34.4384 10.6802 34.4385 10.6882 34.4369 10.6999C34.4353 10.7109 34.4313 10.7322 34.4193 10.7575L33.9672 10.5441C33.9382 10.6055 33.9377 10.6645 33.9385 10.6927C33.9396 10.727 33.9448 10.7604 33.9507 10.7891C33.9627 10.8472 33.9829 10.9124 34.0068 10.9781C34.0551 11.1109 34.1275 11.271 34.2117 11.4285L34.6527 11.1929ZM35.2465 12.5867C35.0944 12.1355 34.8296 11.5045 34.6496 11.1873L34.2147 11.4341C34.3733 11.7135 34.6262 12.3119 34.7727 12.7465L35.2465 12.5867ZM35.5384 14.7887C35.5334 14.2164 35.5236 13.8493 35.4828 13.5339C35.4412 13.2124 35.3684 12.9509 35.2467 12.5873L34.7725 12.7459C34.8898 13.0964 34.9514 13.323 34.9869 13.5981C35.0233 13.8793 35.0334 14.2173 35.0384 14.793L35.5384 14.7887ZM35.3094 16.9397C35.5079 16.2569 35.5485 15.9139 35.5384 14.7886L35.0384 14.7931C35.0482 15.8914 35.0092 16.1812 34.8293 16.8001L35.3094 16.9397ZM34.7083 18.5127C34.913 18.0761 35.176 17.3779 35.3085 16.9427L34.8302 16.797C34.7039 17.2116 34.4492 17.8874 34.2556 18.3005L34.7083 18.5127ZM33.8569 20.0769C34.1306 19.6444 34.5152 18.9466 34.7103 18.5083L34.2536 18.3049C34.0704 18.7162 33.6983 19.3925 33.4344 19.8096L33.8569 20.0769ZM33.3458 20.5355C33.4033 20.5878 33.4193 20.6498 33.4242 20.68C33.4293 20.7116 33.4271 20.7368 33.4256 20.7487C33.4227 20.773 33.4167 20.7907 33.4153 20.7949C33.4115 20.8063 33.4081 20.8128 33.4096 20.8097C33.4113 20.8061 33.4166 20.7959 33.4271 20.777C33.4474 20.7407 33.4793 20.6865 33.5212 20.6171C33.6045 20.4791 33.723 20.2887 33.8569 20.0769L33.4344 19.8096C33.2996 20.0227 33.1791 20.2164 33.0932 20.3586C33.0505 20.4293 33.0151 20.4893 32.9906 20.5332C32.9787 20.5544 32.9672 20.5759 32.9583 20.5944C32.9545 20.6025 32.9474 20.6176 32.9415 20.6353C32.939 20.6426 32.9324 20.6628 32.9292 20.6889C32.9277 20.7017 32.9254 20.7278 32.9307 20.76C32.9356 20.7907 32.9519 20.8532 33.0097 20.9057L33.3458 20.5355ZM33.439 20.5102C33.3778 20.5019 33.3267 20.4944 33.29 20.4884C33.2714 20.4854 33.2585 20.4831 33.2506 20.4815C33.2465 20.4807 33.2458 20.4805 33.2474 20.4809C33.2482 20.4811 33.2511 20.4818 33.2553 20.4831C33.2583 20.4841 33.2683 20.4872 33.2811 20.493L33.0744 20.9483C33.0983 20.9592 33.1204 20.9645 33.1251 20.9657C33.1347 20.9681 33.1442 20.9701 33.1523 20.9718C33.169 20.9751 33.1888 20.9785 33.2099 20.982C33.2526 20.9889 33.3084 20.997 33.3714 21.0056L33.439 20.5102ZM33.3366 21.0068C33.3553 21.0068 33.3758 21.0071 33.3976 21.0078L33.4128 20.508C33.3867 20.5072 33.3611 20.5068 33.3366 20.5068V21.0068ZM32.937 21.3437C33.0641 21.1795 33.1456 21.0953 33.207 21.0508C33.256 21.0153 33.2893 21.0068 33.3366 21.0068V20.5068C33.1849 20.5068 33.0489 20.548 32.9138 20.6458C32.791 20.7347 32.6733 20.8675 32.5416 21.0377L32.937 21.3437ZM32.0123 22.3596C32.3223 22.0418 32.7372 21.592 32.9341 21.3474L32.5445 21.0339C32.3631 21.2594 31.9616 21.6955 31.6544 22.0104L32.0123 22.3596ZM31.4481 22.5396C31.4844 22.549 31.5291 22.5707 31.5656 22.6137C31.6015 22.6559 31.6148 22.7014 31.6188 22.7341C31.6226 22.7651 31.6188 22.7886 31.6165 22.7997C31.614 22.8116 31.6111 22.8191 31.6104 22.8208C31.6101 22.8216 31.6202 22.8003 31.6566 22.7515C31.7244 22.6606 31.844 22.5259 32.009 22.3629L31.6576 22.0072C31.4842 22.1786 31.3449 22.3331 31.2559 22.4525C31.2139 22.5087 31.1712 22.5727 31.1463 22.6348C31.1357 22.6613 31.1136 22.7218 31.1225 22.7949C31.1277 22.8367 31.1439 22.8896 31.1847 22.9375C31.2261 22.9862 31.2775 23.0119 31.3226 23.0236L31.4481 22.5396ZM32.7821 22.6773C32.4393 22.6457 32.1143 22.6142 31.8668 22.5883C31.7429 22.5754 31.6392 22.564 31.5628 22.5547C31.4761 22.5443 31.4452 22.5389 31.4481 22.5396L31.3226 23.0236C31.3603 23.0334 31.4327 23.0427 31.5028 23.0511C31.5832 23.0608 31.6898 23.0726 31.8148 23.0856C32.0651 23.1118 32.3922 23.1435 32.7363 23.1752L32.7821 22.6773ZM35.1384 22.7397C34.483 22.7664 33.4883 22.7396 32.7812 22.6772L32.7372 23.1753C33.4637 23.2394 34.48 23.2669 35.1587 23.2393L35.1384 22.7397ZM37.0072 22.588C36.6093 22.6409 35.7617 22.7038 35.1342 22.7399L35.1629 23.2391C35.7898 23.203 36.6545 23.1393 37.073 23.0837L37.0072 22.588ZM37.8127 22.4376C37.8249 22.4307 37.815 22.4374 37.7558 22.4531C37.7066 22.4662 37.6408 22.4811 37.5621 22.497C37.4051 22.5285 37.2065 22.5615 37.0072 22.588L37.073 23.0837C37.2819 23.0559 37.4915 23.0211 37.6606 22.9872C37.7449 22.9702 37.8215 22.953 37.8841 22.9364C37.9365 22.9225 38.0075 22.902 38.0595 22.8725L37.8127 22.4376ZM37.7947 22.5516C37.7799 22.5159 37.7859 22.4847 37.7938 22.4671C37.8018 22.4492 37.8155 22.4353 37.8328 22.4274L38.0395 22.8827C38.2227 22.7995 38.3457 22.5761 38.2568 22.3608L37.7947 22.5516ZM37.1198 22.1928C37.317 22.2889 37.5012 22.3911 37.6379 22.4756C37.7066 22.5181 37.76 22.5541 37.7959 22.5811C37.8141 22.5948 37.8243 22.6035 37.8286 22.6075C37.84 22.6182 37.8177 22.6012 37.7996 22.5629L38.2518 22.3495C38.2263 22.2954 38.1862 22.2574 38.1707 22.2429C38.1481 22.2217 38.1222 22.2008 38.0962 22.1813C38.0438 22.1419 37.9765 22.0971 37.9009 22.0504C37.7488 21.9563 37.5497 21.8461 37.3388 21.7433L37.1198 22.1928ZM35.4287 21.7654C35.9218 21.802 36.1727 21.8258 36.3854 21.8794C36.5924 21.9316 36.7712 22.014 37.1151 22.1905L37.3434 21.7457C37.0004 21.5696 36.776 21.4622 36.5076 21.3946C36.2449 21.3284 35.9483 21.3026 35.4657 21.2668L35.4287 21.7654ZM34.0546 21.4662C34.1754 21.5758 34.3345 21.6321 34.5376 21.6712C34.7422 21.7106 35.0272 21.7384 35.4304 21.7655L35.464 21.2667C35.0608 21.2396 34.8033 21.2132 34.6321 21.1802C34.4593 21.147 34.4094 21.1129 34.3907 21.096L34.0546 21.4662ZM33.8034 20.9828C33.8034 21.0883 33.8527 21.1887 33.8876 21.2496C33.9289 21.3215 33.9842 21.3956 34.0451 21.4571L34.4002 21.1051C34.3716 21.0762 34.3423 21.0373 34.3213 21.0008C34.311 20.9828 34.305 20.9693 34.3021 20.9615C34.2982 20.9507 34.3034 20.9598 34.3034 20.9828H33.8034ZM33.7858 21.0498C33.8127 21.0574 33.8284 21.0681 33.8324 21.0715C33.8341 21.0731 33.8288 21.069 33.8219 21.0572C33.8151 21.0453 33.8034 21.0196 33.8034 20.9828H34.3034C34.3034 20.8454 34.2212 20.7472 34.1608 20.6945C34.0935 20.6359 34.0092 20.5932 33.9211 20.5684L33.7858 21.0498ZM33.964 20.4394C33.9361 20.4821 33.9163 20.511 33.8997 20.5323C33.8835 20.5532 33.8756 20.5598 33.8742 20.5609C33.8739 20.5611 33.875 20.5603 33.8772 20.5591C33.8794 20.558 33.8813 20.5573 33.8821 20.5571C33.8832 20.5568 33.8761 20.5591 33.8531 20.5591L33.8538 21.0591C33.9682 21.0589 34.0798 21.0351 34.1828 20.9543C34.2672 20.8881 34.3298 20.7937 34.3827 20.7127L33.964 20.4394ZM34.144 20.167L33.9648 20.4382L34.3819 20.7138L34.5611 20.4427L34.144 20.167ZM38.5445 19.9224C38.0005 20.009 37.0762 20.0548 34.3525 20.0548V20.5548C37.0648 20.5548 38.0321 20.5103 38.6231 20.4161L38.5445 19.9224ZM39.9076 19.64C39.644 19.7169 39.0292 19.8415 38.5427 19.9226L38.6249 20.4158C39.1141 20.3343 39.7537 20.2058 40.0477 20.12L39.9076 19.64ZM40.9423 19.2534C40.642 19.3853 40.1636 19.5625 39.9052 19.6407L40.05 20.1193C40.3293 20.0348 40.8265 19.8504 41.1435 19.7111L40.9423 19.2534ZM41.4511 19.0091C41.4695 18.9757 41.4899 18.9604 41.4834 18.966C41.4821 18.9671 41.476 18.9722 41.4626 18.9814C41.4363 18.9995 41.3961 19.0241 41.3428 19.0538C41.2371 19.1129 41.0943 19.1844 40.9396 19.2546L41.1462 19.7099C41.3101 19.6355 41.4659 19.5578 41.5867 19.4903C41.6467 19.4568 41.7017 19.4238 41.746 19.3933C41.768 19.3782 41.791 19.3612 41.8119 19.343C41.8276 19.3293 41.8633 19.2973 41.8891 19.2503L41.4511 19.0091ZM41.4544 19.1677C41.4593 19.1708 41.4519 19.1683 41.4431 19.1504C41.4336 19.1311 41.4157 19.0734 41.4511 19.0091L41.8891 19.2503C41.9544 19.1318 41.9315 19.0108 41.8922 18.9305C41.8535 18.8516 41.7914 18.7903 41.7265 18.7482L41.4544 19.1677ZM39.9421 18.5873C40.3393 18.7316 40.7134 18.8711 40.9951 18.9799C41.1362 19.0344 41.2527 19.0806 41.3369 19.1157C41.3792 19.1333 41.4115 19.1474 41.4339 19.1577C41.4663 19.1727 41.4577 19.171 41.4396 19.1573L41.7413 18.7586C41.7083 18.7337 41.6645 18.7135 41.6438 18.7039C41.613 18.6897 41.574 18.6729 41.5292 18.6542C41.4391 18.6167 41.318 18.5686 41.1753 18.5135C40.8895 18.4031 40.512 18.2624 40.1127 18.1174L39.9421 18.5873ZM38.1942 17.8389C38.2535 17.8886 38.3519 17.9409 38.4488 17.9883C38.5551 18.0404 38.6901 18.1008 38.8437 18.1657C39.1514 18.2956 39.542 18.4466 39.9444 18.5882L40.1104 18.1165C39.7164 17.9779 39.3354 17.8306 39.0382 17.7051C38.8894 17.6423 38.7637 17.5858 38.6687 17.5393C38.6211 17.516 38.5832 17.4961 38.5549 17.48C38.5238 17.4622 38.5138 17.4544 38.5154 17.4557L38.1942 17.8389ZM37.8758 17.1863C37.8758 17.4318 38.0053 17.6796 38.1937 17.8384L38.5159 17.4561C38.4255 17.3799 38.3758 17.2661 38.3758 17.1863H37.8758ZM38.2166 16.504C38.0254 16.6777 37.8758 16.9207 37.8758 17.1863H38.3758C38.3758 17.1083 38.4254 16.9898 38.5527 16.8742L38.2166 16.504ZM38.4791 16.2748L38.2203 16.5008L38.5491 16.8774L38.8079 16.6514L38.4791 16.2748ZM42.0186 16.4391C41.2635 16.4391 40.1978 16.3857 38.6714 16.2147L38.6157 16.7116C40.1556 16.8841 41.2404 16.9391 42.0186 16.9391V16.4391ZM44.0826 16.3079C43.6781 16.3848 42.8508 16.4391 42.0186 16.4391V16.9391C42.859 16.9391 43.7242 16.885 44.1759 16.7991L44.0826 16.3079ZM45.1672 16.0389C44.9683 16.1128 44.4771 16.2362 44.0846 16.3075L44.1739 16.7995C44.5778 16.7261 45.1021 16.5965 45.3413 16.5076L45.1672 16.0389ZM45.7484 15.7633C45.6367 15.8336 45.3741 15.9621 45.1672 16.0389L45.3413 16.5076C45.5725 16.4218 45.8674 16.2791 46.0145 16.1867L45.7484 15.7633ZM44.9311 15.5605C45.1983 15.6829 45.3956 15.7736 45.5395 15.8438C45.689 15.9167 45.7613 15.9583 45.7924 15.9819C45.8094 15.9948 45.7895 15.9845 45.7718 15.9493C45.7448 15.8954 45.7436 15.8265 45.7727 15.7692C45.7916 15.7319 45.8148 15.718 45.8021 15.7277C45.7933 15.7345 45.7783 15.7444 45.748 15.7636L46.015 16.1864C46.0418 16.1694 46.0767 16.1474 46.1069 16.1241C46.1334 16.1037 46.185 16.0616 46.2186 15.9955C46.2623 15.9094 46.2619 15.8111 46.2186 15.7248C46.1847 15.6573 46.1315 15.6116 46.095 15.5839C46.019 15.5262 45.9034 15.465 45.7586 15.3944C45.6082 15.321 45.4047 15.2275 45.1394 15.1059L44.9311 15.5605ZM43.1834 14.6522C43.553 14.8759 44.3388 15.278 44.9276 15.5588L45.1429 15.1076C44.5568 14.828 43.7895 14.4346 43.4423 14.2244L43.1834 14.6522ZM41.6208 13.5906C42.1136 13.9558 42.817 14.4304 43.1834 14.6522L43.4423 14.2244C43.0918 14.0123 42.4014 13.5468 41.9185 13.1889L41.6208 13.5906ZM39.4667 11.8623C40.1575 12.4531 41.1277 13.2251 41.6208 13.5906L41.9185 13.1889C41.4359 12.8312 40.4748 12.0666 39.7917 11.4823L39.4667 11.8623ZM37.6378 10.5637C38.0787 10.7555 38.5521 11.086 39.4674 11.8629L39.7909 11.4817C38.8744 10.7038 38.3521 10.3292 37.8373 10.1052L37.6378 10.5637ZM36.4338 10.286C36.8779 10.3028 37.1871 10.3762 37.6415 10.5653L37.8336 10.1036C37.3322 9.895 36.9644 9.80569 36.4527 9.78634L36.4338 10.286ZM35.4706 10.3347C35.6504 10.2959 36.0844 10.2684 36.4307 10.2858L36.4559 9.78647C36.0853 9.76778 35.6034 9.79451 35.365 9.84604L35.4706 10.3347ZM35.4278 9.84039H35.4178V10.3404H35.4278V9.84039Z" fill="#6DA0E1"/>
<defs>
<filter id="filter0_d_220_5328" x="13.0012" y="0" width="21.99" height="12" filterUnits="userSpaceOnUse" color-interpolation-filters="sRGB">
<feFlood flood-opacity="0" result="BackgroundImageFix"/>
<feColorMatrix in="SourceAlpha" type="matrix" values="0 0 0 0 0 0 0 0 0 0 0 0 0 0 0 0 0 0 127 0" result="hardAlpha"/>
<feOffset dx="1" dy="1"/>
<feGaussianBlur stdDeviation="1"/>
<feComposite in2="hardAlpha" operator="out"/>
<feColorMatrix type="matrix" values="0 0 0 0 1 0 0 0 0 1 0 0 0 0 1 0 0 0 0.5 0"/>
<feBlend mode="normal" in2="BackgroundImageFix" result="effect1_dropShadow_220_5328"/>
<feBlend mode="normal" in="SourceGraphic" in2="effect1_dropShadow_220_5328" result="shape"/>
</filter>
<filter id="filter1_d_220_5328" x="12.0012" y="9" width="24.0352" height="22.6406" filterUnits="userSpaceOnUse" color-interpolation-filters="sRGB">
<feFlood flood-opacity="0" result="BackgroundImageFix"/>
<feColorMatrix in="SourceAlpha" type="matrix" values="0 0 0 0 0 0 0 0 0 0 0 0 0 0 0 0 0 0 127 0" result="hardAlpha"/>
<feOffset dx="1" dy="1"/>
<feGaussianBlur stdDeviation="1"/>
<feComposite in2="hardAlpha" operator="out"/>
<feColorMatrix type="matrix" values="0 0 0 0 1 0 0 0 0 1 0 0 0 0 1 0 0 0 0.5 0"/>
<feBlend mode="normal" in2="BackgroundImageFix" result="effect1_dropShadow_220_5328"/>
<feBlend mode="normal" in="SourceGraphic" in2="effect1_dropShadow_220_5328" result="shape"/>
</filter>
<linearGradient id="paint0_linear_220_5328" x1="30" y1="5" x2="15" y2="5.5" gradientUnits="userSpaceOnUse">
<stop stop-color="#9FC9FF"/>
<stop offset="1" stop-color="#6DA0E1"/>
</linearGradient>
</defs>
</svg>
