<svg width="120" height="120" viewBox="0 0 120 120" fill="none" xmlns="http://www.w3.org/2000/svg">
<path d="M65 55.0001L90 30.0001M95 35.0001L85 25.0001L97.5 17.5001L102.5 22.5001L95 35.0001ZM20.125 44.8751C17.7245 42.4766 16.073 39.432 15.3717 36.1119C14.6704 32.7918 14.9495 29.3394 16.175 26.1751L23.285 33.2851H33.285V23.2851L26.175 16.1751C29.3396 14.9468 32.7931 14.6654 36.1148 15.3651C39.4364 16.0649 42.4829 17.7157 44.883 20.1163C47.283 22.5169 48.9331 25.5637 49.6321 28.8855C50.3312 32.2073 50.049 35.6608 48.82 38.8251L81.17 71.1801C84.3343 69.9511 87.7877 69.6689 91.1096 70.3679C94.4314 71.067 97.4782 72.7171 99.8788 75.1171C102.279 77.5172 103.93 80.5636 104.63 83.8853C105.33 87.207 105.048 90.6605 103.82 93.8251L96.715 86.7151H86.715V96.7151L93.825 103.825C90.6612 105.053 87.2086 105.335 83.8875 104.636C80.5664 103.937 77.5202 102.288 75.1199 99.8885C72.7195 97.4892 71.0686 94.4437 70.3682 91.1229C69.6678 87.8022 69.9481 84.3494 71.175 81.1851L38.815 48.8251C35.652 50.0485 32.2016 50.3264 28.8835 49.6252C25.5654 48.9239 22.5226 47.2737 20.125 44.8751Z" stroke="white" stroke-width="1.875" stroke-linecap="round" stroke-linejoin="round"/>
<path d="M61.015 72.4999L32.995 100.52C32.368 101.148 31.6233 101.646 30.8035 101.986C29.9838 102.326 29.105 102.501 28.2175 102.501C27.33 102.501 26.4512 102.326 25.6314 101.986C24.8116 101.646 24.0669 101.148 23.44 100.52L19.48 96.5599C18.8518 95.9329 18.3535 95.1882 18.0135 94.3684C17.6734 93.5487 17.4984 92.6699 17.4984 91.7824C17.4984 90.8949 17.6734 90.0161 18.0135 89.1963C18.3535 88.3765 18.8518 87.6318 19.48 87.0049L47.5 58.9849" stroke="white" stroke-width="1.875" stroke-linecap="round" stroke-linejoin="round"/>
</svg>
