<svg width="40" height="40" viewBox="0 0 40 40" fill="none" xmlns="http://www.w3.org/2000/svg">
<path d="M19.5834 1.6665C19.9149 1.6665 20.2328 1.7982 20.4673 2.03262C20.7017 2.26704 20.8334 2.58498 20.8334 2.9165V6.6665H31.72C32.42 6.6665 33.0967 6.9165 33.625 7.37484L38.9367 11.9582C39.2541 12.232 39.5087 12.571 39.6832 12.9521C39.8577 13.3331 39.9481 13.7474 39.9481 14.1665C39.9481 14.5857 39.8577 14.9999 39.6832 15.381C39.5087 15.762 39.2541 16.101 38.9367 16.3748L33.625 20.9582C33.0955 21.415 32.4194 21.6664 31.72 21.6665H20.8334V37.0832C20.8334 37.4147 20.7017 37.7326 20.4673 37.9671C20.2328 38.2015 19.9149 38.3332 19.5834 38.3332C19.2519 38.3332 18.9339 38.2015 18.6995 37.9671C18.4651 37.7326 18.3334 37.4147 18.3334 37.0832V21.6665H6.25004C5.47649 21.6665 4.73463 21.3592 4.18765 20.8122C3.64066 20.2653 3.33337 19.5234 3.33337 18.7498V9.58317C3.33337 7.9715 4.64004 6.6665 6.25004 6.6665H18.3334V2.9165C18.3334 2.58498 18.4651 2.26704 18.6995 2.03262C18.9339 1.7982 19.2519 1.6665 19.5834 1.6665ZM31.72 9.1665H6.25004C6.13953 9.1665 6.03355 9.2104 5.95541 9.28854C5.87727 9.36668 5.83337 9.47266 5.83337 9.58317V18.7498C5.83337 18.9798 6.02004 19.1665 6.25004 19.1665H31.72C31.82 19.1665 31.9167 19.1315 31.9917 19.0665L37.305 14.4832C37.3513 14.4444 37.3885 14.3959 37.414 14.3412C37.4395 14.2865 37.4527 14.2269 37.4527 14.1665C37.4527 14.1061 37.4395 14.0465 37.414 13.9918C37.3885 13.9371 37.3513 13.8886 37.305 13.8498L31.9917 9.2665C31.916 9.20177 31.8196 9.1663 31.72 9.1665Z" fill="white"/>
</svg>
