<svg width="46" height="42" viewBox="0 0 46 42" fill="none" xmlns="http://www.w3.org/2000/svg">
<path d="M11.3698 0L0.447536 7.51136L9.95168 10.2803L20.9967 1.992L11.3698 0ZM22.5816 2.95806L10.8676 11.5195L15.9354 23.9965L16.7822 23.287L17.202 21.792C16.9178 21.6145 16.6742 21.3257 16.5107 20.9725C16.3472 20.6193 16.2733 20.2224 16.3009 19.8458C16.3281 19.4803 16.4495 19.1546 16.6466 18.9187C16.8437 18.6827 17.1056 18.5495 17.3922 18.5394C17.5107 18.5353 17.6315 18.5522 17.7514 18.5899C17.8567 18.6235 17.9604 18.6728 18.0603 18.7368L18.8482 15.9312C18.8578 15.8976 18.8695 15.8645 18.8833 15.8322L18.889 15.8201C18.8986 15.7979 18.9092 15.7762 18.9208 15.7549L18.9297 15.7403C18.9411 15.72 18.9534 15.7002 18.9664 15.6808C18.9829 15.6571 19.0006 15.6341 19.0194 15.612L19.026 15.605C19.0429 15.5854 19.0608 15.5665 19.0795 15.5484C19.1001 15.5286 19.1216 15.5098 19.144 15.492C19.1589 15.4807 19.1745 15.4697 19.1901 15.4593C19.1988 15.4529 19.2076 15.4466 19.2165 15.4405C19.2328 15.4305 19.2494 15.421 19.2663 15.412C19.2751 15.4068 19.2841 15.4019 19.2931 15.397C19.3075 15.3901 19.322 15.3835 19.3368 15.3772C19.3492 15.3713 19.3618 15.3657 19.3745 15.3603C19.3888 15.3551 19.4032 15.3503 19.4178 15.3458C19.4313 15.341 19.4448 15.3364 19.4585 15.3322C19.4718 15.3287 19.4852 15.3256 19.4986 15.3227C19.514 15.3187 19.5296 15.3151 19.5452 15.3119C19.562 15.3092 19.5789 15.3069 19.5958 15.3052C19.608 15.3034 19.6203 15.3018 19.6326 15.3004L19.6345 15.3001L22.9711 15.0267C23.0475 14.7534 23.1829 14.523 23.363 14.3594C23.5432 14.1958 23.7617 14.1049 23.9958 14.0962C24.1144 14.0921 24.2353 14.109 24.3552 14.1467C24.6787 14.2492 24.9796 14.4972 25.2014 14.844L26.4956 14.7381L22.5816 2.95806ZM11.2162 3.68192C11.6361 3.6903 11.9919 3.77764 12.2234 3.92914C12.4548 4.08063 12.5477 4.28696 12.4862 4.51314C12.4155 4.77309 12.1465 5.03944 11.7382 5.25357C11.33 5.46771 10.8159 5.6121 10.3092 5.65498C10.0583 5.67622 9.8167 5.67188 9.59826 5.64223C9.37982 5.61258 9.1888 5.55819 9.03611 5.48217C8.88342 5.40615 8.77206 5.30999 8.70837 5.19917C8.64468 5.08836 8.62993 4.96507 8.66494 4.83633C8.69987 4.70761 8.78389 4.57595 8.9122 4.44889C9.04051 4.32182 9.21059 4.20184 9.41275 4.09579C9.6149 3.98974 9.84516 3.8997 10.0904 3.83081C10.3356 3.76192 10.591 3.71554 10.8419 3.6943C10.9693 3.68358 11.0949 3.67944 11.2162 3.68192ZM21.162 5.92003C21.2805 5.91587 21.4016 5.93284 21.5214 5.97047C21.8731 6.08083 22.1973 6.36281 22.4227 6.75439C22.6481 7.14596 22.7563 7.61506 22.7233 8.05849C22.707 8.27807 22.6566 8.48474 22.5748 8.66669C22.4931 8.84864 22.3817 9.00231 22.247 9.11893C22.1123 9.23555 21.957 9.31283 21.7898 9.34636C21.6227 9.37989 21.447 9.36901 21.2729 9.31435C21.0987 9.25974 20.9295 9.1624 20.7748 9.02791C20.6201 8.89342 20.4831 8.7244 20.3714 8.53051C20.2598 8.33662 20.1758 8.12165 20.1242 7.89788C20.0726 7.6741 20.0545 7.44591 20.0708 7.22633C20.0979 6.86078 20.2194 6.53512 20.4165 6.2992C20.6136 6.06327 20.8754 5.93009 21.162 5.92003ZM0 9.17131L4.66311 20.0325L14.0143 23.8754L9.45086 11.925L0 9.17131ZM14.675 10.8301C14.7936 10.8259 14.9145 10.8428 15.0344 10.8804C15.3861 10.9908 15.7103 11.2728 15.9356 11.6644C16.161 12.0559 16.2691 12.525 16.2361 12.9684C16.2198 13.188 16.1694 13.3946 16.0877 13.5766C16.006 13.7585 15.8946 13.9122 15.7599 14.0288C15.6252 14.1455 15.4699 14.2228 15.3027 14.2563C15.1356 14.2898 14.9599 14.279 14.7858 14.2243C14.4341 14.114 14.1099 13.832 13.8845 13.4404C13.6591 13.0489 13.5509 12.5798 13.5839 12.1363C13.611 11.7708 13.7324 11.4452 13.9295 11.2093C14.1266 10.9733 14.3884 10.8402 14.675 10.8301ZM7.22042 12.0688C7.46638 12.056 7.77473 12.1957 8.08562 12.4609C8.39651 12.726 8.68778 13.0977 8.9029 13.5038C9.01686 13.7189 9.10616 13.9375 9.16571 14.1471C9.22527 14.3567 9.2539 14.5532 9.24998 14.7254C9.24607 14.8976 9.20968 15.0421 9.14289 15.1507C9.0761 15.2593 8.98022 15.3298 8.86073 15.3582C8.61936 15.4155 8.29649 15.2979 7.96314 15.0313C7.62978 14.7647 7.31326 14.3708 7.08318 13.9365C6.85319 13.5022 6.72842 13.063 6.73631 12.7153C6.7442 12.3677 6.8841 12.1401 7.12526 12.0826C7.15561 12.0752 7.18731 12.0707 7.22042 12.0688ZM33.3574 15.8956L22.2333 16.8071L33.5222 24.4136L44.7947 22.7999L33.3574 15.8956ZM4.62421 16.8146C4.87017 16.8016 5.17855 16.9413 5.48949 17.2065C5.80043 17.4717 6.09174 17.8434 6.30689 18.2495C6.53701 18.6839 6.66184 19.1233 6.65393 19.471C6.64602 19.8188 6.50602 20.0464 6.26472 20.1038C6.02336 20.1612 5.7005 20.0436 5.36714 19.777C5.03379 19.5104 4.71726 19.1166 4.48717 18.6822C4.25711 18.2479 4.13231 17.8086 4.14022 17.4609C4.14813 17.1132 4.2881 16.8856 4.52935 16.8281C4.55971 16.8209 4.59111 16.8163 4.62421 16.8146ZM20.2412 17.5581L16.1193 32.2322L27.5921 41.6972L32.2706 25.6639L20.2412 17.5581ZM32.8423 18.621C33.1502 18.6265 33.4891 18.6708 33.8297 18.7501C34.1702 18.8294 34.502 18.9414 34.7965 19.0762C35.0343 19.1851 35.2424 19.3066 35.4091 19.4336C35.5757 19.5607 35.6975 19.6909 35.7676 19.8168C35.8377 19.9426 35.8547 20.0617 35.8176 20.1673C35.7805 20.2728 35.69 20.3627 35.5514 20.4318C35.4127 20.5009 35.2287 20.5479 35.0096 20.5701C34.7905 20.5923 34.5408 20.5893 34.2746 20.5611C34.0084 20.533 33.731 20.4804 33.4583 20.4062C33.1855 20.3321 32.9228 20.2379 32.6849 20.129C32.2047 19.909 31.8554 19.6427 31.7137 19.3884C31.5721 19.1342 31.6498 18.913 31.9298 18.7734C32.1426 18.6673 32.4607 18.6142 32.8423 18.621ZM46 24.3594L34.0048 26.0766L29.3585 42L40.8989 38.9765L46 24.3594ZM27.9588 25.3873C28.099 25.3874 28.2404 25.4176 28.3794 25.477C28.5812 25.5634 28.7744 25.71 28.9478 25.9085C29.1212 26.1069 29.2716 26.3533 29.3902 26.6337C29.5088 26.914 29.5934 27.2227 29.6391 27.5422C29.6849 27.8617 29.6909 28.1858 29.6568 28.4958C29.5879 29.1219 29.3599 29.6531 29.023 29.9724C28.6861 30.2917 28.2678 30.3731 27.8602 30.1987C27.6583 30.1123 27.4652 29.9657 27.2917 29.7673C27.1183 29.5688 26.9679 29.3224 26.8493 29.0421C26.7307 28.7617 26.6461 28.453 26.6003 28.1335C26.5546 27.814 26.5486 27.4899 26.5827 27.1799C26.6395 26.6638 26.8048 26.2092 27.0533 25.8854C27.3019 25.5617 27.6199 25.3867 27.9588 25.3873ZM43.2491 26.4947C43.5729 26.4855 43.8412 26.624 44.0105 26.8877C44.2094 27.1976 44.2565 27.6568 44.1416 28.1643C44.0266 28.6718 43.759 29.1861 43.3976 29.5939C43.0362 30.0016 42.6107 30.2696 42.2145 30.3388C41.8184 30.408 41.4841 30.2728 41.2853 29.9629C41.0864 29.653 41.0393 29.1939 41.1542 28.6864C41.2691 28.1789 41.5367 27.6647 41.898 27.2569C42.1033 27.0253 42.3315 26.8364 42.5654 26.7045C42.7994 26.5725 43.033 26.5007 43.2491 26.4947ZM36.4322 27.5096C36.756 27.5004 37.0243 27.6389 37.1936 27.9026C37.3924 28.2125 37.4396 28.6717 37.3246 29.1792C37.2097 29.6867 36.9421 30.2009 36.5807 30.6088C36.2193 31.0165 35.7937 31.2845 35.3976 31.3537C35.0014 31.4229 34.6672 31.2876 34.4683 30.9777C34.2695 30.6678 34.2224 30.2086 34.3374 29.7011C34.4523 29.1936 34.7199 28.6795 35.0813 28.2717C35.2866 28.0401 35.5147 27.8513 35.7486 27.7193C35.9826 27.5873 36.2162 27.5156 36.4322 27.5096ZM19.1663 28.7758C19.3065 28.776 19.448 28.8062 19.587 28.8657C19.7889 28.9521 19.982 29.0987 20.1554 29.2972C20.3289 29.4957 20.4792 29.7421 20.5978 30.0224C20.7164 30.3027 20.801 30.6115 20.8467 30.931C20.8924 31.2505 20.8984 31.5745 20.8643 31.8845C20.8302 32.1946 20.7567 32.4845 20.648 32.7379C20.5392 32.9913 20.3974 33.2031 20.2305 33.3612C20.0637 33.5194 19.8751 33.6207 19.6756 33.6596C19.4761 33.6984 19.2695 33.6739 19.0676 33.5875C18.8658 33.5011 18.6726 33.3545 18.4992 33.156C18.3258 32.9576 18.1754 32.7112 18.0568 32.4308C17.9382 32.1505 17.8536 31.8418 17.8079 31.5223C17.7621 31.2028 17.7561 30.8787 17.7902 30.5687C17.847 30.0526 18.0122 29.5979 18.2607 29.2741C18.5092 28.9503 18.8274 28.7753 19.1663 28.7758ZM40.231 34.5688C40.5547 34.5597 40.8229 34.6982 40.9922 34.9618C41.191 35.2717 41.2382 35.7309 41.1233 36.2383C41.0084 36.7458 40.7409 37.26 40.3795 37.6679C40.0181 38.0756 39.5925 38.3436 39.1964 38.4128C38.8002 38.4819 38.466 38.3467 38.2671 38.0368C38.0683 37.7269 38.0211 37.2677 38.1361 36.7602C38.251 36.2527 38.5185 35.7385 38.8799 35.3307C39.0852 35.0991 39.3133 34.9103 39.5473 34.7783C39.7813 34.6463 40.015 34.5748 40.231 34.5688ZM33.2519 36.4234C33.5755 36.4144 33.8438 36.553 34.013 36.8167C34.2118 37.1265 34.259 37.5857 34.1441 38.0932C34.0292 38.6007 33.7617 39.1149 33.4003 39.5227C33.2214 39.7246 33.0247 39.8943 32.8217 40.0221C32.6187 40.1499 32.4133 40.2333 32.2171 40.2676C32.021 40.3018 31.838 40.2862 31.6785 40.2217C31.5191 40.1571 31.3864 40.0449 31.288 39.8914C31.0891 39.5815 31.042 39.1223 31.1569 38.6148C31.2719 38.1074 31.5394 37.5932 31.9008 37.1854C32.1061 36.9538 32.3342 36.765 32.5682 36.633C32.8022 36.5011 33.0358 36.4295 33.2519 36.4234Z" fill="white"/>
</svg>
