<svg width="45" height="32" viewBox="0 0 45 32" fill="none" xmlns="http://www.w3.org/2000/svg">
<g filter="url(#filter0_d_220_5908)">
<path d="M30.9912 1L25.584 5.19695L21.7674 1.10654L17.9488 5.19695L13.0012 1.31962L14.9795 9H28.907L30.9912 1ZM21.756 4.67563L23.2539 6.05304L21.756 8.03347L20.2581 6.05304L21.756 4.67563ZM16.6004 6.01682C17.1145 6.01682 17.5194 6.42411 17.5194 6.94159C17.5194 7.45864 17.1146 7.86422 16.6003 7.86422C16.0861 7.86422 15.681 7.45864 15.681 6.94152C15.681 6.42441 16.0861 6.01682 16.6004 6.01682ZM27.237 6.01682C27.7511 6.01682 28.1561 6.42411 28.1561 6.94159C28.1561 7.45864 27.7512 7.86422 27.237 7.86422C26.7227 7.86422 26.3176 7.45864 26.3176 6.94152C26.3176 6.42441 26.7228 6.01682 27.237 6.01682Z" fill="url(#paint0_linear_220_5908)"/>
</g>
<g filter="url(#filter1_d_220_5908)">
<path d="M26.8104 10C25.0264 10 23.4473 10.9006 22.5038 12.2705C22.2986 12.5245 22.1131 12.7939 21.9489 13.0762C19.1537 7.82816 12.1786 9.78379 12.0045 15.3303C11.8189 21.2416 19.555 22.7388 21.949 28.6402C23.7473 23.9582 28.8596 21.8237 30.9834 18.3662C31.6437 17.4912 32.0363 16.4032 32.0363 15.226C32.0364 14.4999 31.8842 13.7819 31.5895 13.1184C31.5854 13.1072 31.5809 13.0966 31.5766 13.0855C31.5755 13.083 31.5741 13.0806 31.5731 13.0782C31.0309 11.6627 29.9194 10.7311 28.6104 10.3206L28.6049 10.3188C28.0302 10.1077 27.4227 9.99972 26.8104 10ZM26.8104 11.0951C29.0983 11.0951 30.9413 12.9381 30.9413 15.226C30.9413 16.67 30.2071 17.9376 29.0901 18.6756C29.6913 17.5008 29.5942 15.8066 28.7166 14.2865C27.7022 12.5296 25.9624 11.5598 24.4941 11.8018C25.1541 11.3554 25.9506 11.0951 26.8104 11.0951Z" fill="#F476E5"/>
</g>
<path d="M11.9276 20.9919C11.9077 20.9195 11.9874 20.8382 12.0969 20.8201C12.2064 20.793 12.4453 20.7749 12.6146 20.7659C12.8933 20.7568 12.9929 20.8201 13.2716 21.1907C13.4508 21.4257 13.859 21.8687 14.1676 22.185C14.5061 22.5195 14.6853 22.7636 14.6057 22.7816C14.546 22.7997 13.9287 22.863 13.2418 22.9263C12.525 22.9895 11.5194 23.0167 10.8524 22.9895C10.2252 22.9534 9.36903 22.8901 8.96085 22.8359C8.55267 22.7816 8.14449 22.7003 8.06485 22.6551C7.9852 22.6189 7.94538 22.5285 7.97525 22.4562C8.00512 22.393 8.36352 22.167 8.7717 21.9681C9.45863 21.6156 9.5781 21.5885 10.5538 21.5161C11.3602 21.4619 11.6389 21.4077 11.7683 21.2811C11.8679 21.1907 11.9376 21.0642 11.9276 20.9919Z" fill="#F3F3FF"/>
<path d="M30.8333 22.185C31.142 21.8687 31.5501 21.4257 31.7393 21.1907C31.9981 20.8563 32.1375 20.7568 32.3366 20.7568C32.486 20.7568 32.705 20.7749 32.8245 20.802C32.9539 20.8292 33.0534 20.9105 33.0534 20.9828C33.0534 21.0551 33.1331 21.1907 33.2227 21.2811C33.3621 21.4077 33.6408 21.4619 34.4472 21.5161C35.4229 21.5885 35.5423 21.6156 36.2293 21.9681C36.6375 22.167 36.9959 22.393 37.0257 22.4562C37.0556 22.5285 37.0158 22.6189 36.9361 22.6551C36.8565 22.7003 36.4483 22.7816 36.0401 22.8359C35.6319 22.8901 34.7758 22.9534 34.1486 22.9895C33.4815 23.0167 32.476 22.9895 31.7592 22.9263C31.0723 22.863 30.455 22.7997 30.3853 22.7816C30.3156 22.7636 30.4948 22.5195 30.8333 22.185Z" fill="#F3F3FF"/>
<path d="M8.01478 10.4339C8.23381 10.3254 8.59222 10.1898 8.81125 10.1266C9.03028 10.0633 9.40861 10.009 9.65751 10C9.9064 10 10.3942 10.0723 10.7527 10.1717C11.1111 10.2712 11.5093 10.4248 11.8976 10.7051L11.579 11.2745C11.4097 11.5909 11.1409 12.2237 10.9916 12.6666C10.7527 13.3897 10.7128 13.6338 10.7128 14.7908C10.7029 15.8936 10.7427 16.2191 10.9319 16.8699C11.0613 17.2947 11.3401 18.0269 11.5591 18.497C11.7781 18.967 12.1564 19.663 12.4053 20.0337C12.6443 20.4043 12.8334 20.7116 12.8235 20.7206C12.8036 20.7297 12.6044 20.7568 12.3755 20.793C12.0668 20.8291 11.9474 20.8201 11.9474 20.7297C11.9474 20.6754 11.8677 20.5489 11.7682 20.4585C11.6188 20.3139 11.3998 20.2958 9.95618 20.3048C8.88095 20.3048 7.98491 20.2596 7.36765 20.1602C6.84994 20.0788 6.10325 19.9071 5.72493 19.7805C5.3466 19.663 4.84881 19.4551 4.62978 19.3376C4.28132 19.1478 4.25145 19.1026 4.38088 18.9941C4.46053 18.9309 5.17735 18.6416 5.97382 18.3523C6.7703 18.0721 7.51699 17.7467 7.64641 17.6473C7.81566 17.5026 7.86544 17.3761 7.84553 17.1501C7.82562 16.9512 7.72606 16.7795 7.56677 16.671C7.33778 16.5083 7.24818 16.4993 6.35215 16.5897C5.81453 16.6439 4.74925 16.6891 3.98264 16.6891C3.14635 16.6891 2.3001 16.6349 1.87199 16.5535C1.47376 16.4812 0.966009 16.3546 0.746979 16.2733C0.527949 16.1919 0.249184 16.0563 0.119758 15.975C-0.109228 15.8304 -0.0992722 15.8213 0.966009 15.3332C1.55341 15.053 2.32997 14.6553 2.68838 14.4383C3.04679 14.2214 3.73375 13.7513 4.23154 13.3897C4.72934 13.0282 5.6851 12.2598 6.37206 11.6813C7.05902 11.0938 7.79575 10.5333 8.01478 10.4339Z" fill="#F3F3FF"/>
<path d="M33.6512 10.3616C33.8702 10.2621 34.2187 10.1446 34.4278 10.0904H34.4178C34.6269 10.0452 35.0849 10.0181 35.4433 10.0362C35.9212 10.0542 36.2597 10.1356 36.7375 10.3345C37.2154 10.5424 37.7132 10.8949 38.6292 11.6723C39.3161 12.2598 40.2818 13.0282 40.7697 13.3897C41.2575 13.7513 41.9544 14.2214 42.3128 14.4383C42.6712 14.6553 43.4478 15.053 44.0352 15.3332C45.1005 15.8213 45.1104 15.8304 44.8815 15.975C44.752 16.0563 44.4733 16.1919 44.2542 16.2733C44.0352 16.3546 43.5275 16.4812 43.1292 16.5535C42.7011 16.6349 41.8549 16.6891 41.0186 16.6891C40.252 16.6891 39.1767 16.6349 37.6435 16.4631L37.3847 16.6891C37.2254 16.8337 37.1258 17.0145 37.1258 17.1863C37.1258 17.349 37.2154 17.5298 37.3548 17.6473C37.4842 17.7557 38.2309 18.0721 39.0274 18.3523C39.8239 18.6416 40.5307 18.9128 40.5905 18.958C40.6602 19.0032 40.7 19.0755 40.6701 19.1297C40.6402 19.184 40.3615 19.3376 40.0429 19.4823C39.7343 19.6178 39.2464 19.7986 38.9776 19.88C38.6989 19.9613 38.0716 20.0879 37.5838 20.1692C37.0163 20.2596 36.0705 20.3048 33.3525 20.3048L33.1733 20.576C33.014 20.8201 32.9742 20.8382 32.6058 20.7839C32.3868 20.7568 32.1977 20.7297 32.1777 20.7206C32.1678 20.7116 32.3769 20.3681 32.6457 19.9433C32.9145 19.5184 33.2928 18.8314 33.482 18.4066C33.6811 17.9817 33.9399 17.2947 34.0694 16.8699C34.2585 16.2191 34.2983 15.9027 34.2884 14.7908C34.2784 13.6428 34.2486 13.3807 34.0096 12.6666C33.8603 12.2237 33.6014 11.609 33.4322 11.3107C33.2729 11.0124 33.1634 10.7141 33.1932 10.6508C33.2231 10.5966 33.4322 10.461 33.6512 10.3616Z" fill="#F3F3FF"/>
<defs>
<filter id="filter0_d_220_5908" x="12.0012" y="0" width="21.99" height="12" filterUnits="userSpaceOnUse" color-interpolation-filters="sRGB">
<feFlood flood-opacity="0" result="BackgroundImageFix"/>
<feColorMatrix in="SourceAlpha" type="matrix" values="0 0 0 0 0 0 0 0 0 0 0 0 0 0 0 0 0 0 127 0" result="hardAlpha"/>
<feOffset dx="1" dy="1"/>
<feGaussianBlur stdDeviation="1"/>
<feComposite in2="hardAlpha" operator="out"/>
<feColorMatrix type="matrix" values="0 0 0 0 1 0 0 0 0 1 0 0 0 0 1 0 0 0 0.5 0"/>
<feBlend mode="normal" in2="BackgroundImageFix" result="effect1_dropShadow_220_5908"/>
<feBlend mode="normal" in="SourceGraphic" in2="effect1_dropShadow_220_5908" result="shape"/>
</filter>
<filter id="filter1_d_220_5908" x="11.0012" y="9" width="24.0352" height="22.6406" filterUnits="userSpaceOnUse" color-interpolation-filters="sRGB">
<feFlood flood-opacity="0" result="BackgroundImageFix"/>
<feColorMatrix in="SourceAlpha" type="matrix" values="0 0 0 0 0 0 0 0 0 0 0 0 0 0 0 0 0 0 127 0" result="hardAlpha"/>
<feOffset dx="1" dy="1"/>
<feGaussianBlur stdDeviation="1"/>
<feComposite in2="hardAlpha" operator="out"/>
<feColorMatrix type="matrix" values="0 0 0 0 1 0 0 0 0 1 0 0 0 0 1 0 0 0 0.5 0"/>
<feBlend mode="normal" in2="BackgroundImageFix" result="effect1_dropShadow_220_5908"/>
<feBlend mode="normal" in="SourceGraphic" in2="effect1_dropShadow_220_5908" result="shape"/>
</filter>
<linearGradient id="paint0_linear_220_5908" x1="13.0012" y1="5" x2="30.9912" y2="5" gradientUnits="userSpaceOnUse">
<stop stop-color="#B28EF8"/>
<stop offset="1" stop-color="#F476E5"/>
</linearGradient>
</defs>
</svg>
