<svg width="34" height="34" viewBox="0 0 34 34" fill="none" xmlns="http://www.w3.org/2000/svg">
<rect x="0.5" y="0.5" width="33" height="33" rx="16.5" stroke="url(#paint0_linear_80_394)"/>
<circle cx="17" cy="17" r="14.75" stroke="url(#paint1_linear_80_394)" stroke-width="0.5"/>
<path fill-rule="evenodd" clip-rule="evenodd" d="M20.1631 10.7598C19.2606 10.322 18.2707 10.0943 17.2675 10.0938C16.325 10.0926 15.393 10.2926 14.5339 10.6802C13.6748 11.0678 12.9083 11.6342 12.2856 12.3416V11.3389C12.2856 11.2288 12.2419 11.1232 12.164 11.0454C12.0862 10.9676 11.9806 10.9238 11.8705 10.9238C11.7604 10.9238 11.6548 10.9676 11.5769 11.0454C11.4991 11.1232 11.4553 11.2288 11.4553 11.3389V13.8291C11.4553 13.9392 11.4991 14.0447 11.5769 14.1226C11.6548 14.2004 11.7604 14.2441 11.8705 14.2441H14.3614C14.4715 14.2441 14.5771 14.2004 14.655 14.1226C14.7329 14.0447 14.7766 13.9392 14.7766 13.8291C14.7766 13.719 14.7329 13.6134 14.655 13.5356C14.5771 13.4578 14.4715 13.414 14.3614 13.414H12.4974C13.1407 12.491 14.0383 11.7746 15.081 11.3517C16.1238 10.9288 17.267 10.8176 18.3717 11.0316C19.4765 11.2456 20.4954 11.7756 21.3047 12.5573C22.1139 13.339 22.6788 14.3388 22.9307 15.4352C23.1827 16.5316 23.1108 17.6776 22.7238 18.734C22.3369 19.7904 21.6515 20.7118 20.7509 21.3863C19.8503 22.0608 18.7731 22.4594 17.6503 22.5338C16.5274 22.6082 15.4071 22.3551 14.4254 21.8053L14.3531 21.7729L14.2776 21.7554C14.2255 21.7483 14.1725 21.7511 14.1215 21.7638L11.6106 22.3896L12.2383 19.882L12.2499 19.8039C12.2543 19.7253 12.2362 19.6469 12.1976 19.5782C11.5353 18.3923 11.3069 17.0128 11.5516 15.6768L11.5616 15.6362C11.6114 15.4062 11.5234 15.1456 11.2685 15.0792C11.2134 15.0659 11.1562 15.0639 11.1004 15.0733C11.0445 15.0827 10.9911 15.1033 10.9434 15.1338C10.8957 15.1644 10.8547 15.2043 10.8228 15.2511C10.7909 15.2979 10.7688 15.3507 10.7579 15.4062V15.4071C10.6698 15.8365 10.6256 16.2789 10.625 16.7343L10.6308 17.0215L10.6516 17.3386C10.7279 18.1738 10.9617 18.9869 11.3407 19.7351L11.393 19.8347L10.6375 22.8594L10.6258 22.9283V22.9964C10.6311 23.0562 10.6493 23.1142 10.6791 23.1663C10.709 23.2184 10.7498 23.2634 10.7988 23.2982C10.8477 23.333 10.9036 23.3567 10.9626 23.3678C11.0217 23.3789 11.0824 23.3771 11.1406 23.3625L14.1671 22.6071L14.2676 22.6611C15.1629 23.1134 16.149 23.3571 17.152 23.374C18.155 23.3908 19.1487 23.1804 20.0587 22.7584C20.9687 22.3365 21.7713 21.714 22.4062 20.9376C23.0412 20.1612 23.492 19.2512 23.7248 18.2758C23.9577 17.3003 23.9665 16.2848 23.7507 15.3055C23.5348 14.3262 23.0999 13.4084 22.4786 12.6211C21.8573 11.8339 21.0656 11.1975 20.1631 10.7598ZM17.1459 14.3657C17.2238 14.4435 17.2675 14.5491 17.2675 14.6592V17.5644H19.3433C19.4534 17.5644 19.559 17.6081 19.6369 17.686C19.7148 17.7638 19.7585 17.8694 19.7585 17.9794C19.7585 18.0895 19.7148 18.1951 19.6369 18.2729C19.559 18.3508 19.4534 18.3945 19.3433 18.3945H16.8524C16.7423 18.3945 16.6367 18.3508 16.5588 18.2729C16.481 18.1951 16.4372 18.0895 16.4372 17.9794V14.6592C16.4372 14.5491 16.481 14.4435 16.5588 14.3657C16.6367 14.2878 16.7423 14.2441 16.8524 14.2441C16.9625 14.2441 17.0681 14.2878 17.1459 14.3657Z" fill="url(#paint2_linear_80_394)"/>
<defs>
<linearGradient id="paint0_linear_80_394" x1="0" y1="17" x2="34" y2="17" gradientUnits="userSpaceOnUse">
<stop stop-color="#B28EF8"/>
<stop offset="1" stop-color="#F476E5"/>
</linearGradient>
<linearGradient id="paint1_linear_80_394" x1="2" y1="17" x2="32" y2="17" gradientUnits="userSpaceOnUse">
<stop stop-color="#B28EF8"/>
<stop offset="1" stop-color="#F476E5"/>
</linearGradient>
<linearGradient id="paint2_linear_80_394" x1="3.20209e-06" y1="17" x2="34" y2="17" gradientUnits="userSpaceOnUse">
<stop stop-color="#B28EF8"/>
<stop offset="1" stop-color="#F476E5"/>
</linearGradient>
</defs>
</svg>
