<svg width="34" height="34" viewBox="0 0 34 34" fill="none" xmlns="http://www.w3.org/2000/svg">
<rect width="34" height="34" rx="17" fill="url(#paint0_linear_80_351)"/>
<path d="M17.6419 10C18.6449 10.0006 19.6348 10.2283 20.5372 10.6659C21.4397 11.1036 22.2312 11.7399 22.8525 12.5272C23.4738 13.3144 23.9086 14.232 24.1244 15.2113C24.3402 16.1905 24.3314 17.2059 24.0986 18.1812C23.8658 19.1566 23.415 20.0665 22.7801 20.8428C22.1452 21.6191 21.3427 22.2416 20.4328 22.6635C19.5229 23.0854 18.5293 23.2958 17.5264 23.279C16.5235 23.2621 15.5375 23.0184 14.6423 22.5661L14.5418 22.5122L11.5156 23.2675C11.4573 23.2821 11.3966 23.2839 11.3376 23.2728C11.2786 23.2617 11.2227 23.238 11.1737 23.2032C11.1248 23.1684 11.084 23.1234 11.0541 23.0713C11.0243 23.0192 11.0061 22.9612 11.0008 22.9014V22.8334L11.0125 22.7645L11.768 19.74L11.7157 19.6404C11.3367 18.8923 11.1029 18.0793 11.0266 17.2442L11.0058 16.9271L11 16.64C11.0006 16.1846 11.0448 15.7422 11.1328 15.3128V15.312C11.1438 15.2564 11.1659 15.2036 11.1978 15.1568C11.2297 15.11 11.2707 15.0702 11.3184 15.0396C11.3661 15.0091 11.4195 14.9885 11.4753 14.9791C11.5312 14.9697 11.5884 14.9717 11.6434 14.985C11.8983 15.0514 11.9863 15.312 11.9365 15.5419L11.9265 15.5826C11.6818 16.9184 11.9102 18.2978 12.5725 19.4835C12.611 19.5523 12.6291 19.6306 12.6248 19.7093L12.6132 19.7873L11.9855 22.2947L14.4961 21.6689C14.5472 21.6563 14.6001 21.6535 14.6522 21.6606L14.7278 21.678L14.8 21.7104C15.7817 22.2602 16.9019 22.5132 18.0246 22.4389C19.1474 22.3645 20.2244 21.9659 21.1249 21.2915C22.0255 20.617 22.7108 19.6957 23.0977 18.6394C23.4846 17.5831 23.5565 16.4373 23.3046 15.341C23.0527 14.2446 22.4879 13.245 21.6787 12.4634C20.8694 11.6817 19.8507 11.1518 18.746 10.9378C17.6414 10.7238 16.4983 10.8349 15.4556 11.2578C14.413 11.6807 13.5155 12.3971 12.8722 13.32H14.7361C14.8462 13.32 14.9518 13.3637 15.0296 13.4415C15.1075 13.5194 15.1512 13.6249 15.1512 13.735C15.1512 13.845 15.1075 13.9506 15.0296 14.0284C14.9518 14.1063 14.8462 14.15 14.7361 14.15H12.2454C12.1353 14.15 12.0297 14.1063 11.9518 14.0284C11.874 13.9506 11.8302 13.845 11.8302 13.735V11.245C11.8302 11.1349 11.874 11.0294 11.9518 10.9515C12.0297 10.8737 12.1353 10.83 12.2454 10.83C12.3555 10.83 12.461 10.8737 12.5389 10.9515C12.6167 11.0294 12.6605 11.1349 12.6605 11.245V12.2476C13.2831 11.5403 14.0495 10.974 14.9086 10.5864C15.7676 10.1988 16.6995 9.99889 17.6419 10ZM17.6419 14.565C17.6419 14.4549 17.5982 14.3494 17.5203 14.2715C17.4425 14.1937 17.3369 14.15 17.2268 14.15C17.1167 14.15 17.0111 14.1937 16.9333 14.2715C16.8554 14.3494 16.8117 14.4549 16.8117 14.565V17.885C16.8117 17.995 16.8554 18.1006 16.9333 18.1784C17.0111 18.2562 17.1167 18.3 17.2268 18.3H19.7175C19.8276 18.3 19.9332 18.2562 20.0111 18.1784C20.0889 18.1006 20.1326 17.995 20.1326 17.885C20.1326 17.7749 20.0889 17.6693 20.0111 17.5915C19.9332 17.5137 19.8276 17.47 19.7175 17.47H17.6419V14.565Z" fill="white"/>
<defs>
<linearGradient id="paint0_linear_80_351" x1="0" y1="17" x2="34" y2="17" gradientUnits="userSpaceOnUse">
<stop stop-color="#B28EF8"/>
<stop offset="1" stop-color="#F476E5"/>
</linearGradient>
</defs>
</svg>
