<svg width="34" height="34" viewBox="0 0 34 34" fill="none" xmlns="http://www.w3.org/2000/svg">
<circle cx="17" cy="17" r="17" fill="url(#paint0_linear_80_393)"/>
<mask id="path-2-inside-1_80_393" fill="white">
<path d="M17.5815 10.2075L22.6585 14.3599C22.7652 14.447 22.8512 14.5571 22.9103 14.6819C22.9694 14.8068 23.0001 14.9434 23 15.0817V22.0711C23 22.3174 22.9027 22.5537 22.7296 22.7279C22.5565 22.9021 22.3217 23 22.0769 23H11.9231C11.6783 23 11.4435 22.9021 11.2704 22.7279C11.0973 22.5537 11 22.3174 11 22.0711V15.0817C11.0001 14.9435 11.0308 14.8071 11.0899 14.6824C11.1489 14.5577 11.2349 14.4479 11.3415 14.3608L16.4185 10.2075C16.5829 10.0733 16.7882 10 17 10C17.2118 10 17.4171 10.0733 17.5815 10.2075ZM22.0769 15.0817L17 10.9284L11.9231 15.0808V22.0711H22.0769V15.0817Z"/>
</mask>
<path d="M17.5815 10.2075L22.6585 14.3599C22.7652 14.447 22.8512 14.5571 22.9103 14.6819C22.9694 14.8068 23.0001 14.9434 23 15.0817V22.0711C23 22.3174 22.9027 22.5537 22.7296 22.7279C22.5565 22.9021 22.3217 23 22.0769 23H11.9231C11.6783 23 11.4435 22.9021 11.2704 22.7279C11.0973 22.5537 11 22.3174 11 22.0711V15.0817C11.0001 14.9435 11.0308 14.8071 11.0899 14.6824C11.1489 14.5577 11.2349 14.4479 11.3415 14.3608L16.4185 10.2075C16.5829 10.0733 16.7882 10 17 10C17.2118 10 17.4171 10.0733 17.5815 10.2075ZM22.0769 15.0817L17 10.9284L11.9231 15.0808V22.0711H22.0769V15.0817Z" fill="white"/>
<path d="M17.5815 10.2075L18.2146 9.43346L18.2139 9.43289L17.5815 10.2075ZM22.6585 14.3599L22.0254 15.134L22.0261 15.1345L22.6585 14.3599ZM23 15.0817L22 15.0813V15.0817H23ZM11 22.0711H10H11ZM11 15.0817L10 15.0811V15.0817H11ZM11.3415 14.3608L11.9739 15.1355L11.9747 15.1348L11.3415 14.3608ZM16.4185 10.2075L15.7861 9.43289L15.7853 9.43353L16.4185 10.2075ZM17 10V9V10ZM22.0769 15.0817H23.0769V14.6078L22.7101 14.3077L22.0769 15.0817ZM17 10.9284L17.6332 10.1544L17.0001 9.63645L16.3669 10.1543L17 10.9284ZM11.9231 15.0808L11.29 14.3067L10.9231 14.6068V15.0808H11.9231ZM11.9231 22.0711H10.9231V23.0711H11.9231V22.0711ZM22.0769 22.0711V23.0711H23.0769V22.0711H22.0769ZM16.9484 10.9816L22.0254 15.134L23.2916 13.5858L18.2146 9.43346L16.9484 10.9816ZM22.0261 15.1345C22.0173 15.1274 22.0107 15.1188 22.0064 15.1096L23.8142 14.2542C23.6917 13.9953 23.5131 13.7667 23.2909 13.5853L22.0261 15.1345ZM22.0064 15.1096C22.0021 15.1005 22 15.0909 22 15.0813L24 15.0821C24.0001 14.7959 23.9367 14.5131 23.8142 14.2542L22.0064 15.1096ZM22 15.0817V22.0711H24V15.0817H22ZM22 22.0711C22 22.0542 22.0066 22.0369 22.0203 22.0231L23.439 23.4328C23.7989 23.0706 24 22.5806 24 22.0711H22ZM22.0203 22.0231C22.0342 22.009 22.0545 22 22.0769 22V24C22.589 24 23.0788 23.7952 23.439 23.4328L22.0203 22.0231ZM22.0769 22H11.9231V24H22.0769V22ZM11.9231 22C11.9455 22 11.9658 22.009 11.9797 22.0231L10.561 23.4328C10.9212 23.7952 11.411 24 11.9231 24V22ZM11.9797 22.0231C11.9934 22.0369 12 22.0542 12 22.0711H10C10 22.5806 10.2011 23.0706 10.561 23.4328L11.9797 22.0231ZM12 22.0711V15.0817H10V22.0711H12ZM12 15.0823C12 15.0918 11.9979 15.1015 11.9936 15.1106L10.1862 14.2543C10.0637 14.5128 10.0002 14.7952 10 15.0811L12 15.0823ZM11.9936 15.1106C11.9892 15.1197 11.9827 15.1283 11.9739 15.1355L10.7091 13.5862C10.4872 13.7674 10.3087 13.9957 10.1862 14.2543L11.9936 15.1106ZM11.9747 15.1348L17.0517 10.9815L15.7853 9.43353L10.7084 13.5868L11.9747 15.1348ZM17.0509 10.9822C17.0373 10.9933 17.0193 11 17 11V9C16.5571 9 16.1285 9.15329 15.7861 9.43289L17.0509 10.9822ZM17 11C16.9807 11 16.9627 10.9933 16.9491 10.9822L18.2139 9.43289C17.8715 9.15329 17.4429 9 17 9V11ZM22.7101 14.3077L17.6332 10.1544L16.3668 11.7024L21.4437 15.8557L22.7101 14.3077ZM16.3669 10.1543L11.29 14.3067L12.5562 15.8548L17.6331 11.7025L16.3669 10.1543ZM10.9231 15.0808V22.0711H12.9231V15.0808H10.9231ZM11.9231 23.0711H22.0769V21.0711H11.9231V23.0711ZM23.0769 22.0711V15.0817H21.0769V22.0711H23.0769Z" fill="white" mask="url(#path-2-inside-1_80_393)"/>
<defs>
<linearGradient id="paint0_linear_80_393" x1="0" y1="17" x2="34" y2="17" gradientUnits="userSpaceOnUse">
<stop stop-color="#B28EF8"/>
<stop offset="1" stop-color="#F476E5"/>
</linearGradient>
</defs>
</svg>
