<svg width="34" height="34" viewBox="0 0 34 34" fill="none" xmlns="http://www.w3.org/2000/svg">
<mask id="path-1-inside-1_80_392" fill="white">
<path d="M17.5815 10.2886L22.6585 14.441C22.7652 14.5281 22.8512 14.6381 22.9103 14.763C22.9694 14.8879 23.0001 15.0244 23 15.1627V22.1521C23 22.3985 22.9027 22.6348 22.7296 22.809C22.5565 22.9832 22.3217 23.0811 22.0769 23.0811H11.9231C11.6783 23.0811 11.4435 22.9832 11.2704 22.809C11.0973 22.6348 11 22.3985 11 22.1521V15.1627C11.0001 15.0246 11.0308 14.8882 11.0899 14.7635C11.1489 14.6388 11.2349 14.5289 11.3415 14.4419L16.4185 10.2886C16.5829 10.1543 16.7882 10.0811 17 10.0811C17.2118 10.0811 17.4171 10.1543 17.5815 10.2886ZM22.0769 15.1627L17 11.0094L11.9231 15.1618V22.1521H22.0769V15.1627Z"/>
</mask>
<path d="M17.5815 10.2886L22.6585 14.441C22.7652 14.5281 22.8512 14.6381 22.9103 14.763C22.9694 14.8879 23.0001 15.0244 23 15.1627V22.1521C23 22.3985 22.9027 22.6348 22.7296 22.809C22.5565 22.9832 22.3217 23.0811 22.0769 23.0811H11.9231C11.6783 23.0811 11.4435 22.9832 11.2704 22.809C11.0973 22.6348 11 22.3985 11 22.1521V15.1627C11.0001 15.0246 11.0308 14.8882 11.0899 14.7635C11.1489 14.6388 11.2349 14.5289 11.3415 14.4419L16.4185 10.2886C16.5829 10.1543 16.7882 10.0811 17 10.0811C17.2118 10.0811 17.4171 10.1543 17.5815 10.2886ZM22.0769 15.1627L17 11.0094L11.9231 15.1618V22.1521H22.0769V15.1627Z" fill="white"/>
<path d="M17.5815 10.2886L18.2146 9.51452L18.2139 9.51395L17.5815 10.2886ZM22.6585 14.441L22.0254 15.215L22.0261 15.2156L22.6585 14.441ZM23 15.1627L22 15.1623V15.1627H23ZM11 22.1521H10H11ZM11 15.1627L10 15.1622V15.1627H11ZM11.3415 14.4419L11.9739 15.2165L11.9747 15.2159L11.3415 14.4419ZM16.4185 10.2886L15.7861 9.51395L15.7853 9.51459L16.4185 10.2886ZM17 10.0811V9.08105V10.0811ZM22.0769 15.1627H23.0769V14.6888L22.7101 14.3887L22.0769 15.1627ZM17 11.0094L17.6332 10.2354L17.0001 9.71751L16.3669 10.2354L17 11.0094ZM11.9231 15.1618L11.29 14.3878L10.9231 14.6878V15.1618H11.9231ZM11.9231 22.1521H10.9231V23.1521H11.9231V22.1521ZM22.0769 22.1521V23.1521H23.0769V22.1521H22.0769ZM16.9484 11.0627L22.0254 15.215L23.2916 13.6669L18.2146 9.51452L16.9484 11.0627ZM22.0261 15.2156C22.0173 15.2085 22.0107 15.1998 22.0064 15.1907L23.8142 14.3353C23.6917 14.0764 23.5131 13.8477 23.2909 13.6663L22.0261 15.2156ZM22.0064 15.1907C22.0021 15.1816 22 15.1719 22 15.1623L24 15.1631C24.0001 14.877 23.9367 14.5941 23.8142 14.3353L22.0064 15.1907ZM22 15.1627V22.1521H24V15.1627H22ZM22 22.1521C22 22.1353 22.0066 22.1179 22.0203 22.1041L23.439 23.5138C23.7989 23.1516 24 22.6617 24 22.1521H22ZM22.0203 22.1041C22.0342 22.0901 22.0545 22.0811 22.0769 22.0811V24.0811C22.589 24.0811 23.0788 23.8763 23.439 23.5138L22.0203 22.1041ZM22.0769 22.0811H11.9231V24.0811H22.0769V22.0811ZM11.9231 22.0811C11.9455 22.0811 11.9658 22.0901 11.9797 22.1041L10.561 23.5138C10.9212 23.8763 11.411 24.0811 11.9231 24.0811V22.0811ZM11.9797 22.1041C11.9934 22.1179 12 22.1353 12 22.1521H10C10 22.6617 10.2011 23.1516 10.561 23.5138L11.9797 22.1041ZM12 22.1521V15.1627H10V22.1521H12ZM12 15.1633C12 15.1729 11.9979 15.1826 11.9936 15.1917L10.1862 14.3353C10.0637 14.5938 10.0002 14.8763 10 15.1622L12 15.1633ZM11.9936 15.1917C11.9892 15.2008 11.9827 15.2094 11.9739 15.2165L10.7091 13.6672C10.4872 13.8485 10.3087 14.0768 10.1862 14.3353L11.9936 15.1917ZM11.9747 15.2159L17.0517 11.0626L15.7853 9.51459L10.7084 13.6679L11.9747 15.2159ZM17.0509 11.0632C17.0373 11.0743 17.0193 11.0811 17 11.0811V9.08105C16.5571 9.08105 16.1285 9.23434 15.7861 9.51395L17.0509 11.0632ZM17 11.0811C16.9807 11.0811 16.9627 11.0743 16.9491 11.0632L18.2139 9.51395C17.8715 9.23434 17.4429 9.08105 17 9.08105V11.0811ZM22.7101 14.3887L17.6332 10.2354L16.3668 11.7834L21.4437 15.9367L22.7101 14.3887ZM16.3669 10.2354L11.29 14.3878L12.5562 15.9359L17.6331 11.7835L16.3669 10.2354ZM10.9231 15.1618V22.1521H12.9231V15.1618H10.9231ZM11.9231 23.1521H22.0769V21.1521H11.9231V23.1521ZM23.0769 22.1521V15.1627H21.0769V22.1521H23.0769Z" fill="url(#paint0_linear_80_392)" mask="url(#path-1-inside-1_80_392)"/>
<circle cx="17" cy="17" r="16.5" stroke="url(#paint1_linear_80_392)"/>
<circle cx="17" cy="17" r="14.75" stroke="url(#paint2_linear_80_392)" stroke-width="0.5"/>
<defs>
<linearGradient id="paint0_linear_80_392" x1="17" y1="10.0811" x2="17" y2="23.0811" gradientUnits="userSpaceOnUse">
<stop stop-color="#B28EF8"/>
<stop offset="1" stop-color="#F476E5"/>
</linearGradient>
<linearGradient id="paint1_linear_80_392" x1="0" y1="17" x2="34" y2="17" gradientUnits="userSpaceOnUse">
<stop stop-color="#B28EF8"/>
<stop offset="1" stop-color="#F476E5"/>
</linearGradient>
<linearGradient id="paint2_linear_80_392" x1="2" y1="17" x2="32" y2="17" gradientUnits="userSpaceOnUse">
<stop stop-color="#B28EF8"/>
<stop offset="1" stop-color="#F476E5"/>
</linearGradient>
</defs>
</svg>
