<svg width="40" height="40" viewBox="0 0 40 40" fill="none" xmlns="http://www.w3.org/2000/svg">
<path d="M4.26018 9.27596C3.03963 15.1263 5.85549 18.9322 9.27002 21.0385C6.68697 20.4283 4.18783 19.5163 1.59424 18.1599C3.58643 24.2137 7.93525 25.6456 11.7431 25.2498C9.639 26.3632 7.41564 27.2265 5.18557 27.8109C10.611 31.1814 14.5692 29.0967 16.7692 26.1455C16.6083 26.0012 16.4464 25.858 16.2835 25.716C15.8778 25.4271 15.4922 25.0949 15.1289 24.723C14.6627 24.3249 14.1879 23.9187 13.7092 23.4941C11.0804 21.1631 8.39838 18.368 8.28494 14.6792L8.28479 14.6675C6.78893 12.9443 5.43541 11.1281 4.26025 9.27588L4.26018 9.27596ZM35.7399 9.27596C34.5649 11.1279 33.2111 12.9434 31.7153 14.666L31.7156 14.6721C31.824 18.2633 29.1003 21.1299 26.4056 23.5304C25.322 24.4956 24.229 25.3917 23.2881 26.221C25.4988 29.132 29.4352 31.1527 34.8146 27.8109C32.5847 27.2265 30.3631 26.3632 28.2592 25.2499C32.0667 25.6449 36.4138 24.2124 38.4057 18.1601C35.8122 19.5166 33.313 20.4285 30.7299 21.0386C34.1444 18.9322 36.9604 15.1265 35.7397 9.27611L35.7399 9.27596ZM25.3946 9.58666C23.6644 9.59994 21.8481 10.5124 20.627 12.5835L20.0189 13.6148L19.4146 12.5813C17.8932 9.98088 15.165 9.1733 12.9966 9.78838H12.9958C11.0828 10.3311 9.60627 11.8944 9.69057 14.6359C9.7833 17.6523 12.0813 20.1712 14.6421 22.442C15.9226 23.5774 17.2484 24.6391 18.3462 25.6857C18.9991 26.3082 19.5788 26.9234 20.0128 27.5718C20.4478 26.9688 21.0224 26.3888 21.6703 25.7859C22.7939 24.7403 24.1591 23.6481 25.4703 22.4801C28.0928 20.1442 30.3957 17.5492 30.3102 14.7146C30.2228 11.826 28.5349 10.1537 26.5119 9.70471C26.1451 9.62325 25.7702 9.58359 25.3945 9.5865L25.3946 9.58666Z" fill="white"/>
</svg>
