<svg width="261" height="69" viewBox="0 0 261 69" fill="none" xmlns="http://www.w3.org/2000/svg">
<path d="M10.4922 42.875V29.375C10.4922 29.375 13.6094 29.375 19.8438 29.375C21.5781 29.375 23.0625 30.0312 24.2969 31.3438C25.5469 32.6562 26.1719 34.2344 26.1719 36.0781C26.1719 37.9844 25.5547 39.5938 24.3203 40.9062C23.0859 42.2188 21.5938 42.875 19.8438 42.875H10.4922ZM12.1797 41.1875H19.8438C21.1094 41.1875 22.1875 40.6953 23.0781 39.7109C23.9844 38.7266 24.4375 37.5156 24.4375 36.0781C24.4375 34.7031 23.9844 33.5234 23.0781 32.5391C22.1875 31.5547 21.1094 31.0625 19.8438 31.0625H12.1797V41.1875ZM8.80469 44.5625H19.8438C22.0625 44.5625 23.9609 43.7422 25.5391 42.1016C27.1172 40.4453 27.9062 38.4375 27.9062 36.0781C27.9062 33.7656 27.1094 31.7891 25.5156 30.1484C23.9375 28.5078 22.0469 27.6875 19.8438 27.6875H8.80469V44.5625ZM7.11719 46.25V26H19.8438C22.5156 26 24.8125 26.9922 26.7344 28.9766C28.6719 30.9453 29.6406 33.3125 29.6406 36.0781C29.6406 38.9062 28.6797 41.3125 26.7578 43.2969C24.8359 45.2656 22.5312 46.25 19.8438 46.25H7.11719ZM5.42969 47.9375H19.8438C21.9062 47.9375 23.8203 47.4141 25.5859 46.3672C27.3516 45.3203 28.7578 43.8828 29.8047 42.0547C30.8516 40.2266 31.375 38.2344 31.375 36.0781C31.375 33.9688 30.8516 32.0078 29.8047 30.1953C28.7578 28.3828 27.3438 26.9531 25.5625 25.9062C23.7969 24.8438 21.8906 24.3125 19.8438 24.3125H5.42969V47.9375ZM3.74219 49.625V22.625H19.8438C22.2031 22.625 24.3984 23.2266 26.4297 24.4297C28.4766 25.6328 30.1016 27.2734 31.3047 29.3516C32.5078 31.4141 33.1094 33.6562 33.1094 36.0781C33.1094 38.5312 32.5078 40.8047 31.3047 42.8984C30.1016 44.9766 28.4766 46.6172 26.4297 47.8203C24.3984 49.0234 22.2031 49.625 19.8438 49.625H3.74219ZM2.05469 51.3125H19.8438C22.5156 51.3125 25 50.6406 27.2969 49.2969C29.5938 47.9375 31.4219 46.0859 32.7812 43.7422C34.1562 41.3984 34.8438 38.8438 34.8438 36.0781C34.8438 33.3594 34.1562 30.8359 32.7812 28.5078C31.4219 26.1641 29.5859 24.3203 27.2734 22.9766C24.9766 21.6172 22.5 20.9375 19.8438 20.9375H2.05469V51.3125ZM19.8438 53H0.367188V19.25H19.8438C22.8125 19.25 25.5781 20.0078 28.1406 21.5234C30.7188 23.0234 32.7656 25.0703 34.2812 27.6641C35.8125 30.2422 36.5781 33.0469 36.5781 36.0781C36.5781 38.375 36.125 40.5703 35.2188 42.6641C34.3281 44.7578 33.125 46.5625 31.6094 48.0781C30.1094 49.5781 28.3281 50.7734 26.2656 51.6641C24.2031 52.5547 22.0625 53 19.8438 53ZM50.4766 19.25H52.1641V53H50.4766V19.25ZM47.1016 19.25H48.7891V53H47.1016V19.25ZM43.7266 19.25H45.4141V53H43.7266V19.25ZM40.3516 19.25H42.0391V53H40.3516V19.25ZM80.8516 30.875L79.4922 31.9062C78.1328 30.2188 76.3828 29.375 74.2422 29.375C72.3828 29.375 70.7891 30.0391 69.4609 31.3672C68.1484 32.6797 67.4922 34.2656 67.4922 36.125C67.4922 37.9844 68.1484 39.5781 69.4609 40.9062C70.7891 42.2188 72.3828 42.875 74.2422 42.875C75.2891 42.875 76.2656 42.6484 77.1719 42.1953C78.0938 41.7422 78.875 41.1172 79.5156 40.3203L80.8281 41.4219C80.0469 42.4062 79.0781 43.1797 77.9219 43.7422C76.7656 44.2891 75.5391 44.5625 74.2422 44.5625C71.9141 44.5625 69.9219 43.7422 68.2656 42.1016C66.625 40.4453 65.8047 38.4531 65.8047 36.125C65.8047 33.7969 66.625 31.8125 68.2656 30.1719C69.9219 28.5156 71.9141 27.6875 74.2422 27.6875C75.5547 27.6875 76.7891 27.9766 77.9453 28.5547C79.1016 29.1172 80.0703 29.8906 80.8516 30.875ZM83.4766 28.7656L82.1406 29.7969C81.2031 28.6094 80.0391 27.6797 78.6484 27.0078C77.2734 26.3359 75.8047 26 74.2422 26C71.4453 26 69.0547 26.9922 67.0703 28.9766C65.1016 30.9609 64.1172 33.3438 64.1172 36.125C64.1172 38.9062 65.1016 41.2891 67.0703 43.2734C69.0547 45.2578 71.4453 46.25 74.2422 46.25C75.8047 46.25 77.2812 45.9141 78.6719 45.2422C80.0625 44.5547 81.2266 43.6172 82.1641 42.4297L83.4531 43.5078C82.3594 44.8828 81.0078 45.9688 79.3984 46.7656C77.7891 47.5469 76.0703 47.9375 74.2422 47.9375C72.1016 47.9375 70.125 47.4141 68.3125 46.3672C66.5 45.3047 65.0625 43.8672 64 42.0547C62.9531 40.2422 62.4297 38.2656 62.4297 36.125C62.4297 33.9844 62.9531 32.0078 64 30.1953C65.0625 28.3828 66.5 26.9531 68.3125 25.9062C70.125 24.8438 72.1016 24.3125 74.2422 24.3125C76.0703 24.3125 77.7891 24.7109 79.3984 25.5078C81.0234 26.2891 82.3828 27.375 83.4766 28.7656ZM86.125 26.6562L84.8125 27.7109C83.5469 26.1328 81.9922 24.8906 80.1484 23.9844C78.3047 23.0781 76.3359 22.625 74.2422 22.625C72.4141 22.625 70.6641 22.9844 68.9922 23.7031C67.3359 24.4062 65.8984 25.3672 64.6797 26.5859C63.4766 27.7891 62.5156 29.2266 61.7969 30.8984C61.0938 32.5547 60.7422 34.2969 60.7422 36.125C60.7422 37.9531 61.0938 39.7031 61.7969 41.375C62.5156 43.0312 63.4766 44.4688 64.6797 45.6875C65.8984 46.8906 67.3359 47.8516 68.9922 48.5703C70.6641 49.2734 72.4141 49.625 74.2422 49.625C76.3359 49.625 78.3047 49.1719 80.1484 48.2656C81.9922 47.3594 83.5469 46.1172 84.8125 44.5391L86.0781 45.6406C84.6562 47.4062 82.9141 48.7969 80.8516 49.8125C78.7891 50.8125 76.5859 51.3125 74.2422 51.3125C72.1797 51.3125 70.2109 50.9141 68.3359 50.1172C66.4609 49.3047 64.8438 48.2266 63.4844 46.8828C62.1406 45.5234 61.0625 43.9062 60.25 42.0312C59.4531 40.1562 59.0547 38.1875 59.0547 36.125C59.0547 34.0625 59.4531 32.0938 60.25 30.2188C61.0625 28.3438 62.1406 26.7344 63.4844 25.3906C64.8438 24.0312 66.4609 22.9531 68.3359 22.1562C70.2109 21.3438 72.1797 20.9375 74.2422 20.9375C76.6016 20.9375 78.8125 21.4453 80.875 22.4609C82.9531 23.4766 84.7031 24.875 86.125 26.6562ZM88.75 24.5469L87.3906 25.5547C85.8125 23.6016 83.875 22.0625 81.5781 20.9375C79.2969 19.8125 76.8516 19.25 74.2422 19.25C71.9609 19.25 69.7734 19.6953 67.6797 20.5859C65.6016 21.4766 63.8047 22.6797 62.2891 24.1953C60.7891 25.6953 59.5938 27.4922 58.7031 29.5859C57.8125 31.6641 57.3672 33.8438 57.3672 36.125C57.3672 38.4062 57.8125 40.5938 58.7031 42.6875C59.5938 44.7656 60.7891 46.5625 62.2891 48.0781C63.8047 49.5781 65.6016 50.7734 67.6797 51.6641C69.7734 52.5547 71.9609 53 74.2422 53C76.8516 53 79.2969 52.4375 81.5781 51.3125C83.875 50.1875 85.8125 48.6484 87.3906 46.6953L88.7266 47.7266C86.9922 49.8828 84.8594 51.5859 82.3281 52.8359C79.8125 54.0703 77.1172 54.6875 74.2422 54.6875C71.7266 54.6875 69.3203 54.1953 67.0234 53.2109C64.7422 52.2266 62.7734 50.9062 61.1172 49.25C59.4609 47.5938 58.1406 45.625 57.1562 43.3438C56.1719 41.0469 55.6797 38.6406 55.6797 36.125C55.6797 33.6094 56.1719 31.2109 57.1562 28.9297C58.1406 26.6328 59.4609 24.6562 61.1172 23C62.7734 21.3438 64.7422 20.0234 67.0234 19.0391C69.3203 18.0547 71.7266 17.5625 74.2422 17.5625C77.1172 17.5625 79.8203 18.1875 82.3516 19.4375C84.8828 20.6719 87.0156 22.375 88.75 24.5469ZM100.398 53H98.7109V19.25H100.398V53ZM97.0234 53H95.3359V19.25H97.0234V53ZM93.6484 53H91.9609V19.25H93.6484V53ZM103.773 44.5625H119.922V46.25H103.773V47.9375H119.922V49.625H103.773V51.3125H119.922V53H102.086V19.25H119.922V20.9375H103.773V22.625H119.922V24.3125H103.773V26H119.922V27.6875H103.773V31.8828H118.984V33.5703H103.773V35.2578H118.984V36.9453H103.773V38.6328H118.984V40.3203H103.773V44.5625ZM128.43 15.875V14.1875H153.742V15.875H128.43ZM128.43 19.25V17.5625H153.742V19.25H128.43ZM128.43 22.625V20.9375H153.742V22.625H146.992V53H145.305V22.625H143.617V53H141.93V22.625H140.242V53H138.555V22.625H136.867V53H135.18V22.625H128.43ZM181.539 36.3594C181.539 34.3594 180.922 32.8125 179.688 31.7188C178.453 30.625 176.82 30.0781 174.789 30.0781C173.07 30.0781 171.594 30.6719 170.359 31.8594C169.125 33.0469 168.508 34.4688 168.508 36.125C168.508 37.0625 168.633 37.9062 168.883 38.6562C169.133 39.3906 169.469 40.0078 169.891 40.5078C170.328 40.9922 170.844 41.3984 171.438 41.7266C172.031 42.0391 172.648 42.2656 173.289 42.4062C173.945 42.5469 174.641 42.6172 175.375 42.6172C177.156 42.6172 178.781 42.1797 180.25 41.3047V42.9922C178.734 43.7891 177.102 44.1875 175.352 44.1875C174.227 44.1875 173.164 44.0391 172.164 43.7422C171.18 43.4297 170.281 42.9688 169.469 42.3594C168.656 41.7344 168.008 40.8906 167.523 39.8281C167.055 38.75 166.82 37.5156 166.82 36.125C166.82 33.9688 167.578 32.1406 169.094 30.6406C170.609 29.1406 172.508 28.3906 174.789 28.3906C177.305 28.3906 179.336 29.1016 180.883 30.5234C182.445 31.9297 183.227 33.875 183.227 36.3594V53H181.539V36.3594ZM186.602 36.3594V53H184.914V36.3594C184.914 33.4062 183.969 31.0625 182.078 29.3281C180.188 27.5781 177.758 26.7031 174.789 26.7031C172.039 26.7031 169.742 27.6172 167.898 29.4453C166.055 31.2734 165.133 33.5 165.133 36.125C165.133 37.7188 165.406 39.1484 165.953 40.4141C166.516 41.6797 167.273 42.6953 168.227 43.4609C169.18 44.2266 170.242 44.8125 171.414 45.2188C172.602 45.6094 173.852 45.8047 175.164 45.8047C176.945 45.8047 178.641 45.3906 180.25 44.5625V46.3438C178.562 47.0469 176.859 47.3984 175.141 47.3984C173.594 47.3984 172.125 47.1641 170.734 46.6953C169.344 46.2109 168.102 45.5156 167.008 44.6094C165.914 43.6875 165.047 42.5 164.406 41.0469C163.766 39.5781 163.445 37.9375 163.445 36.125C163.445 33.0469 164.531 30.4297 166.703 28.2734C168.891 26.1016 171.586 25.0156 174.789 25.0156C177.039 25.0156 179.055 25.4766 180.836 26.3984C182.617 27.3047 184.023 28.625 185.055 30.3594C186.086 32.0938 186.602 34.0938 186.602 36.3594ZM189.977 36.3594V53H188.289V36.3594C188.289 33.7812 187.695 31.5 186.508 29.5156C185.336 27.5156 183.727 25.9844 181.68 24.9219C179.633 23.8594 177.336 23.3281 174.789 23.3281C172.367 23.3281 170.156 23.9062 168.156 25.0625C166.156 26.2031 164.586 27.75 163.445 29.7031C162.32 31.6562 161.758 33.7969 161.758 36.125C161.758 38.125 162.125 39.9531 162.859 41.6094C163.594 43.25 164.578 44.6016 165.812 45.6641C167.062 46.7266 168.477 47.5547 170.055 48.1484C171.648 48.7266 173.312 49.0156 175.047 49.0156C176.812 49.0156 178.547 48.6484 180.25 47.9141V49.625C178.469 50.2969 176.719 50.6328 175 50.6328C172.297 50.6328 169.812 50.0234 167.547 48.8047C165.281 47.5859 163.469 45.8594 162.109 43.625C160.75 41.3906 160.07 38.8906 160.07 36.125C160.07 34.1562 160.445 32.2812 161.195 30.5C161.961 28.7188 162.992 27.1797 164.289 25.8828C165.586 24.5859 167.148 23.5547 168.977 22.7891C170.805 22.0234 172.742 21.6406 174.789 21.6406C177.648 21.6406 180.227 22.25 182.523 23.4688C184.836 24.6875 186.656 26.4219 187.984 28.6719C189.312 30.9219 189.977 33.4844 189.977 36.3594ZM193.352 36.3594V53H191.664V36.3594C191.664 33.1719 190.922 30.3281 189.438 27.8281C187.953 25.3125 185.93 23.375 183.367 22.0156C180.805 20.6406 177.945 19.9531 174.789 19.9531C171.758 19.9531 168.984 20.6797 166.469 22.1328C163.953 23.5859 161.977 25.5547 160.539 28.0391C159.102 30.5078 158.383 33.2031 158.383 36.125C158.383 38.0469 158.688 39.875 159.297 41.6094C159.922 43.3281 160.766 44.8359 161.828 46.1328C162.906 47.4141 164.141 48.5234 165.531 49.4609C166.938 50.3984 168.445 51.1094 170.055 51.5938C171.68 52.0781 173.328 52.3203 175 52.3203C176.844 52.3203 178.594 51.9688 180.25 51.2656V53C178.516 53.6094 176.734 53.9141 174.906 53.9141C173.016 53.9141 171.172 53.6484 169.375 53.1172C167.594 52.5859 165.938 51.8047 164.406 50.7734C162.891 49.7266 161.555 48.5 160.398 47.0938C159.242 45.6719 158.336 44.0156 157.68 42.125C157.023 40.2344 156.695 38.2344 156.695 36.125C156.695 33.7031 157.148 31.3984 158.055 29.2109C158.977 27.0078 160.227 25.1094 161.805 23.5156C163.398 21.9062 165.32 20.6328 167.57 19.6953C169.836 18.7422 172.242 18.2656 174.789 18.2656C177.383 18.2656 179.82 18.7031 182.102 19.5781C184.383 20.4531 186.352 21.6719 188.008 23.2344C189.664 24.7812 190.969 26.6875 191.922 28.9531C192.875 31.2188 193.352 33.6875 193.352 36.3594ZM197.523 19.25H199.211V53H197.523V19.25ZM207.648 19.25H209.336V44.5625H221.781V46.25H209.336V47.9375H221.781V49.625H209.336V51.3125H221.781V53H207.648V19.25ZM204.273 19.25H205.961V53H204.273V19.25ZM200.898 19.25H202.586V53H200.898V19.25ZM260.969 19.25L251.57 36.2656L260.828 53H258.953L249.695 36.2656L259.094 19.25H260.969ZM257.195 19.25L247.797 36.2656L257.055 53H255.18L245.922 36.2656L255.32 19.25H257.195ZM253.422 19.25L244.023 36.2656L253.281 53H251.406L242.148 36.2656L251.547 19.25H253.422ZM249.648 19.25L240.227 36.2656L249.508 53H247.633L238.352 36.2656L247.773 19.25H249.648ZM235.633 19.25V53H237.32V19.25H235.633ZM232.258 19.25V53H233.945V19.25H232.258ZM228.883 19.25V53H230.57V19.25H228.883ZM225.508 19.25V53H227.195V19.25H225.508Z" fill="url(#paint0_linear_220_2614)"/>
<defs>
<linearGradient id="paint0_linear_220_2614" x1="-2" y1="34.5" x2="262" y2="34.5" gradientUnits="userSpaceOnUse">
<stop stop-color="#B28EF8"/>
<stop offset="1" stop-color="#F476E5"/>
</linearGradient>
</defs>
</svg>
