<svg width="260" height="253" viewBox="0 0 260 253" fill="none" xmlns="http://www.w3.org/2000/svg">
<path d="M183.902 92.3588L154.309 94.4725L131.057 22.6067L67.6423 7.81079L0 56.4259L27.4797 128.292L93.0081 155.77L82.439 191.703L154.309 253L228.293 231.863L260 138.86L183.902 92.3588Z" fill="white"/>
<path d="M66.3731 14.6216L9.15567 55.4476L58.9441 70.4976L116.805 25.4486L66.3731 14.6216ZM125.107 30.6994L63.7422 77.2329L90.2903 145.048L94.7265 141.192L96.9255 133.066C95.4368 132.101 94.1609 130.532 93.3043 128.612C92.4477 126.692 92.0605 124.535 92.2053 122.488C92.3475 120.501 92.9835 118.731 94.016 117.449C95.0484 116.167 96.4204 115.443 97.922 115.388C98.5428 115.365 99.1758 115.457 99.8038 115.662C100.355 115.845 100.899 116.113 101.422 116.461L105.55 101.211C105.6 101.029 105.661 100.849 105.733 100.673L105.763 100.607C105.814 100.487 105.869 100.369 105.93 100.253L105.976 100.174C106.036 100.063 106.1 99.9556 106.169 99.8505C106.255 99.7213 106.348 99.5965 106.446 99.4765L106.481 99.4382C106.57 99.3317 106.663 99.2292 106.761 99.131C106.869 99.0233 106.982 98.9209 107.099 98.8242C107.177 98.7628 107.259 98.7027 107.34 98.6463C107.386 98.6115 107.432 98.5775 107.479 98.5444C107.564 98.4899 107.651 98.4381 107.74 98.3892C107.786 98.3613 107.833 98.3343 107.88 98.308C107.955 98.2701 108.032 98.2342 108.109 98.2004C108.174 98.1682 108.24 98.1375 108.306 98.1083C108.381 98.0802 108.457 98.054 108.533 98.0297C108.604 98.0034 108.675 97.9787 108.747 97.9557C108.816 97.9369 108.886 97.9196 108.957 97.904C109.037 97.8822 109.119 97.8625 109.201 97.845C109.289 97.8305 109.377 97.8184 109.466 97.8088C109.53 97.7989 109.594 97.7903 109.658 97.783L109.669 97.7814L127.148 96.2953C127.548 94.81 128.257 93.5576 129.201 92.6683C130.145 91.7789 131.289 91.285 132.516 91.238C133.137 91.2152 133.77 91.3075 134.398 91.5121C136.093 92.0693 137.669 93.4172 138.831 95.3021L145.611 94.7264L125.107 30.6994ZM65.5684 34.6337C67.7679 34.6793 69.632 35.154 70.8446 35.9774C72.0571 36.8008 72.5435 37.9222 72.2213 39.1516C71.8512 40.5645 70.4419 42.0121 68.3032 43.176C66.1645 44.3399 63.4716 45.1247 60.8171 45.3578C59.5025 45.4732 58.237 45.4496 57.0926 45.2885C55.9483 45.1273 54.9476 44.8317 54.1478 44.4185C53.3479 44.0053 52.7645 43.4826 52.4309 42.8803C52.0972 42.278 52.0199 41.6079 52.2034 40.9082C52.3863 40.2086 52.8265 39.493 53.4986 38.8024C54.1708 38.1117 55.0618 37.4596 56.1208 36.8832C57.1798 36.3068 58.3861 35.8174 59.6706 35.443C60.9552 35.0686 62.293 34.8164 63.6075 34.701C64.2751 34.6428 64.9327 34.6202 65.5684 34.6337ZM117.671 46.7984C118.291 46.7757 118.925 46.868 119.553 47.0725C121.396 47.6723 123.094 49.205 124.275 51.3333C125.456 53.4616 126.022 56.0112 125.85 58.4214C125.764 59.6149 125.5 60.7381 125.072 61.7271C124.644 62.716 124.06 63.5513 123.355 64.1851C122.649 64.819 121.835 65.239 120.959 65.4212C120.084 65.6035 119.164 65.5444 118.251 65.2473C117.339 64.9504 116.452 64.4214 115.642 63.6904C114.832 62.9594 114.114 62.0408 113.529 60.9869C112.944 59.9331 112.504 58.7647 112.234 57.5484C111.964 56.3322 111.869 55.0919 111.954 53.8984C112.096 51.9116 112.732 50.1415 113.765 48.8592C114.797 47.5769 116.169 46.853 117.671 46.7984ZM6.8112 64.4698L31.2394 123.503L80.2267 144.39L56.3205 79.4365L6.8112 64.4698ZM83.6878 73.4858C84.3089 73.4627 84.9423 73.5546 85.5707 73.7589C87.4129 74.3591 89.1111 75.8918 90.2916 78.0201C91.4722 80.1484 92.0384 82.6979 91.8659 85.1078C91.7804 86.3013 91.5161 87.4245 91.0881 88.4135C90.66 89.4024 90.0765 90.2377 89.371 90.8716C88.6654 91.5055 87.8517 91.9256 86.9761 92.1079C86.1005 92.2902 85.1803 92.2312 84.268 91.9342C82.4255 91.3344 80.7271 89.8018 79.5464 87.6734C78.3656 85.5451 77.7992 82.9955 77.9717 80.5853C78.1139 78.5987 78.7499 76.8288 79.7823 75.5466C80.8146 74.2643 82.1864 73.5408 83.6878 73.4858ZM44.6361 80.2186C45.9246 80.1488 47.5399 80.9081 49.1685 82.3493C50.7972 83.7905 52.323 85.8107 53.4499 88.018C54.0469 89.187 54.5147 90.3751 54.8267 91.5143C55.1387 92.6535 55.2887 93.7216 55.2682 94.6575C55.2477 95.5934 55.057 96.3789 54.7071 96.969C54.3573 97.5592 53.855 97.9424 53.229 98.097C51.9646 98.4084 50.2732 97.7693 48.5269 96.3201C46.7806 94.8709 45.1224 92.7304 43.9172 90.3695C42.7123 88.0093 42.0587 85.622 42.1 83.7325C42.1414 81.8429 42.8743 80.6058 44.1376 80.2931C44.2966 80.2533 44.4626 80.2284 44.6361 80.2186ZM181.558 101.018L123.283 105.972L182.42 147.315L241.473 138.544L181.558 101.018ZM31.0356 106.013C32.3241 105.942 33.9396 106.702 35.5684 108.143C37.1973 109.584 38.7234 111.605 39.8505 113.812C41.056 116.173 41.7099 118.561 41.6685 120.451C41.6271 122.341 40.8936 123.578 39.6295 123.891C38.3652 124.202 36.6738 123.563 34.9275 122.114C33.1812 120.665 31.523 118.525 30.3177 116.164C29.1125 113.803 28.4587 111.415 28.5002 109.525C28.5416 107.636 29.2748 106.399 30.5386 106.086C30.6977 106.047 30.8622 106.022 31.0356 106.013ZM112.847 110.054L91.2535 189.811L151.355 241.255L175.864 154.111L112.847 110.054ZM178.859 115.831C180.472 115.861 182.247 116.102 184.031 116.533C185.815 116.964 187.554 117.572 189.096 118.305C190.342 118.897 191.432 119.557 192.305 120.248C193.178 120.938 193.816 121.646 194.183 122.33C194.551 123.014 194.64 123.662 194.445 124.235C194.251 124.809 193.777 125.297 193.051 125.673C192.324 126.049 191.36 126.304 190.212 126.425C189.065 126.546 187.756 126.529 186.362 126.376C184.968 126.223 183.515 125.937 182.086 125.534C180.657 125.131 179.28 124.619 178.035 124.027C175.519 122.832 173.689 121.384 172.947 120.002C172.205 118.62 172.612 117.418 174.079 116.659C175.193 116.083 176.86 115.794 178.859 115.831ZM247.787 147.021L184.949 156.354L160.609 242.901L221.064 226.468L247.787 147.021ZM153.276 152.607C154.01 152.608 154.752 152.772 155.479 153.095C156.537 153.565 157.549 154.361 158.457 155.44C159.366 156.519 160.153 157.858 160.775 159.382C161.396 160.905 161.839 162.583 162.079 164.32C162.318 166.056 162.35 167.818 162.171 169.503C161.81 172.906 160.616 175.793 158.851 177.528C157.086 179.264 156.273 179.52 152.76 178.758C151.702 178.289 150.69 177.492 149.782 176.414C148.873 175.335 148.085 173.996 147.464 172.472C146.843 170.948 146.399 169.27 146.16 167.534C145.92 165.797 145.889 164.036 146.067 162.351C146.365 159.546 147.231 157.074 148.533 155.315C149.835 153.555 151.501 152.604 153.276 152.607ZM233.376 158.626C235.072 158.576 236.478 159.329 237.365 160.763C238.406 162.447 238.653 164.943 238.051 167.701C237.449 170.46 236.047 173.255 234.154 175.471C232.261 177.687 230.032 179.144 227.956 179.52C225.881 179.896 224.13 179.161 223.088 177.477C222.047 175.793 221.8 173.297 222.402 170.539C223.004 167.78 224.405 164.986 226.298 162.769C227.374 161.51 228.569 160.484 229.794 159.767C231.02 159.049 232.244 158.659 233.376 158.626ZM197.665 164.142C199.361 164.093 200.767 164.846 201.653 166.279C202.695 167.963 202.942 170.459 202.34 173.217C201.738 175.976 200.336 178.771 198.443 180.987C196.55 183.204 194.32 184.66 192.245 185.036C190.17 185.412 188.419 184.677 187.377 182.993C186.336 181.308 186.089 178.812 186.691 176.054C187.293 173.296 188.695 170.501 190.588 168.285C191.663 167.026 192.858 166 194.084 165.282C195.31 164.565 196.533 164.175 197.665 164.142ZM107.216 171.025C107.95 171.026 108.692 171.19 109.42 171.513C110.477 171.983 111.489 172.78 112.397 173.859C113.306 174.937 114.093 176.277 114.715 177.8C115.336 179.324 115.779 181.002 116.019 182.738C116.258 184.475 116.29 186.236 116.111 187.921C115.932 189.606 115.547 191.183 114.978 192.56C114.408 193.937 113.665 195.088 112.791 195.948C111.917 196.807 110.929 197.358 109.884 197.569C108.838 197.78 107.756 197.647 106.699 197.177C105.642 196.708 104.63 195.911 103.721 194.832C102.813 193.754 102.025 192.414 101.404 190.891C100.782 189.367 100.339 187.689 100.099 185.952C99.8598 184.216 99.8284 182.455 100.007 180.769C100.304 177.965 101.17 175.493 102.472 173.733C103.774 171.973 105.44 171.022 107.216 171.025ZM217.566 202.511C219.261 202.461 220.666 203.214 221.553 204.647C222.595 206.331 222.842 208.827 222.24 211.585C221.638 214.344 220.236 217.138 218.343 219.355C216.45 221.571 214.22 223.028 212.145 223.404C210.07 223.78 208.319 223.045 207.277 221.36C206.236 219.676 205.989 217.18 206.591 214.422C207.193 211.663 208.594 208.869 210.487 206.652C211.563 205.393 212.758 204.367 213.984 203.65C215.209 202.932 216.434 202.544 217.566 202.511ZM181.004 212.591C182.7 212.542 184.105 213.295 184.992 214.729C186.033 216.413 186.281 218.909 185.679 221.667C185.077 224.425 183.675 227.22 181.782 229.437C180.845 230.534 179.815 231.456 178.751 232.151C177.688 232.846 176.611 233.299 175.584 233.485C174.556 233.671 173.598 233.586 172.762 233.236C171.927 232.885 171.232 232.275 170.716 231.441C169.675 229.756 169.428 227.26 170.03 224.502C170.632 221.744 172.034 218.949 173.927 216.733C175.002 215.474 176.197 214.448 177.423 213.73C178.649 213.013 179.873 212.624 181.004 212.591Z" fill="url(#paint0_linear_220_2615)"/>
<path d="M167.253 49.0763H188.443V69.1081L214.931 49.0763H241.419C244.229 49.0763 246.924 48.2321 248.911 46.7294C250.898 45.2268 252.014 43.1887 252.014 41.0636V9.01272C252.014 6.88761 250.898 4.84955 248.911 3.34687C246.924 1.84419 244.229 1 241.419 1H167.253C164.443 1 161.748 1.84419 159.761 3.34687C157.774 4.84955 156.658 6.88761 156.658 9.01272V41.0636C156.658 43.1887 157.774 45.2268 159.761 46.7294C161.748 48.2321 164.443 49.0763 167.253 49.0763Z" stroke="#B19ADE" stroke-linecap="round" stroke-linejoin="round"/>
<path d="M51.084 184.892L49.6026 183.422C44.3409 178.222 40.8672 174.781 40.8672 170.584C40.8672 167.143 43.3397 164.459 46.4865 164.459C48.2642 164.459 49.9704 165.361 51.084 166.776C52.1977 165.361 53.9039 164.459 55.6816 164.459C58.8284 164.459 61.3008 167.143 61.3008 170.584C61.3008 174.781 57.8271 178.222 52.5655 183.422L51.084 184.892Z" fill="#B19ADE"/>
<path d="M196.163 28.2433C200.115 28.2433 203.314 25.1966 203.314 21.4325C203.314 17.6683 200.115 14.6216 196.163 14.6216C192.21 14.6216 189.011 17.6683 189.011 21.4325C189.011 25.1966 192.21 28.2433 196.163 28.2433ZM201.067 30.1892H200.537C199.209 30.7973 197.733 31.1622 196.163 31.1622C194.592 31.1622 193.123 30.7973 191.789 30.1892H191.259C187.197 30.1892 183.902 33.327 183.902 37.1946V38.946C183.902 40.5575 185.275 41.8649 186.968 41.8649H205.358C207.05 41.8649 208.423 40.5575 208.423 38.946V37.1946C208.423 33.327 205.128 30.1892 201.067 30.1892ZM214.553 28.2433C217.937 28.2433 220.683 25.6284 220.683 22.4054C220.683 19.1825 217.937 16.5676 214.553 16.5676C211.169 16.5676 208.423 19.1825 208.423 22.4054C208.423 25.6284 211.169 28.2433 214.553 28.2433ZM217.618 30.1892H217.375C216.488 30.4811 215.549 30.6757 214.553 30.6757C213.557 30.6757 212.618 30.4811 211.73 30.1892H211.488C210.185 30.1892 208.985 30.548 207.931 31.1257C209.489 32.725 210.466 34.8473 210.466 37.1946V39.5298C210.466 39.6635 210.434 39.7912 210.428 39.9189H221.705C223.397 39.9189 224.77 38.6115 224.77 37C224.77 33.2358 221.571 30.1892 217.618 30.1892Z" fill="#B19ADE"/>
<path d="M183.902 92.3588L154.309 94.4725L131.057 22.6067L67.6423 7.81079L0 56.4259L27.4797 128.292L93.0081 155.77L82.439 191.703L154.309 253L228.293 231.863L260 138.86L183.902 92.3588Z" fill="white"/>
<path d="M66.3731 14.6216L9.15567 55.4476L58.9441 70.4976L116.805 25.4486L66.3731 14.6216ZM125.107 30.6994L63.7422 77.2329L90.2903 145.048L94.7265 141.192L96.9255 133.066C95.4368 132.101 94.1609 130.532 93.3043 128.612C92.4477 126.692 92.0605 124.535 92.2053 122.488C92.3475 120.501 92.9835 118.731 94.016 117.449C95.0484 116.167 96.4204 115.443 97.922 115.388C98.5428 115.365 99.1758 115.457 99.8038 115.662C100.355 115.845 100.899 116.113 101.422 116.461L105.55 101.211C105.6 101.029 105.661 100.849 105.733 100.673L105.763 100.607C105.814 100.487 105.869 100.369 105.93 100.253L105.976 100.174C106.036 100.063 106.1 99.9556 106.169 99.8505C106.255 99.7213 106.348 99.5965 106.446 99.4765L106.481 99.4382C106.57 99.3317 106.663 99.2292 106.761 99.131C106.869 99.0233 106.982 98.9209 107.099 98.8242C107.177 98.7628 107.259 98.7027 107.34 98.6463C107.386 98.6115 107.432 98.5775 107.479 98.5444C107.564 98.4899 107.651 98.4381 107.74 98.3892C107.786 98.3613 107.833 98.3343 107.88 98.308C107.955 98.2701 108.032 98.2342 108.109 98.2004C108.174 98.1682 108.24 98.1375 108.306 98.1083C108.381 98.0802 108.457 98.054 108.533 98.0297C108.604 98.0034 108.675 97.9787 108.747 97.9557C108.816 97.9369 108.886 97.9196 108.957 97.904C109.037 97.8822 109.119 97.8625 109.201 97.845C109.289 97.8305 109.377 97.8184 109.466 97.8088C109.53 97.7989 109.594 97.7903 109.658 97.783L109.669 97.7814L127.148 96.2953C127.548 94.81 128.257 93.5576 129.201 92.6683C130.145 91.7789 131.289 91.285 132.516 91.238C133.137 91.2152 133.77 91.3075 134.398 91.5121C136.093 92.0693 137.669 93.4172 138.831 95.3021L145.611 94.7264L125.107 30.6994ZM65.5684 34.6337C67.7679 34.6793 69.632 35.154 70.8446 35.9774C72.0571 36.8008 72.5435 37.9222 72.2213 39.1516C71.8512 40.5645 70.4419 42.0121 68.3032 43.176C66.1645 44.3399 63.4716 45.1247 60.8171 45.3578C59.5025 45.4732 58.237 45.4496 57.0926 45.2885C55.9483 45.1273 54.9476 44.8317 54.1478 44.4185C53.3479 44.0053 52.7645 43.4826 52.4309 42.8803C52.0972 42.278 52.0199 41.6079 52.2034 40.9082C52.3863 40.2086 52.8265 39.493 53.4986 38.8024C54.1708 38.1117 55.0618 37.4596 56.1208 36.8832C57.1798 36.3068 58.3861 35.8174 59.6706 35.443C60.9552 35.0686 62.293 34.8164 63.6075 34.701C64.2751 34.6428 64.9327 34.6202 65.5684 34.6337ZM117.671 46.7984C118.291 46.7757 118.925 46.868 119.553 47.0725C121.396 47.6723 123.094 49.205 124.275 51.3333C125.456 53.4616 126.022 56.0112 125.85 58.4214C125.764 59.6149 125.5 60.7381 125.072 61.7271C124.644 62.716 124.06 63.5513 123.355 64.1851C122.649 64.819 121.835 65.239 120.959 65.4212C120.084 65.6035 119.164 65.5444 118.251 65.2473C117.339 64.9504 116.452 64.4214 115.642 63.6904C114.832 62.9594 114.114 62.0408 113.529 60.9869C112.944 59.9331 112.504 58.7647 112.234 57.5484C111.964 56.3322 111.869 55.0919 111.954 53.8984C112.096 51.9116 112.732 50.1415 113.765 48.8592C114.797 47.5769 116.169 46.853 117.671 46.7984ZM6.8112 64.4698L31.2394 123.503L80.2267 144.39L56.3205 79.4365L6.8112 64.4698ZM83.6878 73.4858C84.3089 73.4627 84.9423 73.5546 85.5707 73.7589C87.4129 74.3591 89.1111 75.8918 90.2916 78.0201C91.4722 80.1484 92.0384 82.6979 91.8659 85.1078C91.7804 86.3013 91.5161 87.4245 91.0881 88.4135C90.66 89.4024 90.0765 90.2377 89.371 90.8716C88.6654 91.5055 87.8517 91.9256 86.9761 92.1079C86.1005 92.2902 85.1803 92.2312 84.268 91.9342C82.4255 91.3344 80.7271 89.8018 79.5464 87.6734C78.3656 85.5451 77.7992 82.9955 77.9717 80.5853C78.1139 78.5987 78.7499 76.8288 79.7823 75.5466C80.8146 74.2643 82.1864 73.5408 83.6878 73.4858ZM44.6361 80.2186C45.9246 80.1488 47.5399 80.9081 49.1685 82.3493C50.7972 83.7905 52.323 85.8107 53.4499 88.018C54.0469 89.187 54.5147 90.3751 54.8267 91.5143C55.1387 92.6535 55.2887 93.7216 55.2682 94.6575C55.2477 95.5934 55.057 96.3789 54.7071 96.969C54.3573 97.5592 53.855 97.9424 53.229 98.097C51.9646 98.4084 50.2732 97.7693 48.5269 96.3201C46.7806 94.8709 45.1224 92.7304 43.9172 90.3695C42.7123 88.0093 42.0587 85.622 42.1 83.7325C42.1414 81.8429 42.8743 80.6058 44.1376 80.2931C44.2966 80.2533 44.4626 80.2284 44.6361 80.2186ZM181.558 101.018L123.283 105.972L182.42 147.315L241.473 138.544L181.558 101.018ZM31.0356 106.013C32.3241 105.942 33.9396 106.702 35.5684 108.143C37.1973 109.584 38.7234 111.605 39.8505 113.812C41.056 116.173 41.7099 118.561 41.6685 120.451C41.6271 122.341 40.8936 123.578 39.6295 123.891C38.3652 124.202 36.6738 123.563 34.9275 122.114C33.1812 120.665 31.523 118.525 30.3177 116.164C29.1125 113.803 28.4587 111.415 28.5002 109.525C28.5416 107.636 29.2748 106.399 30.5386 106.086C30.6977 106.047 30.8622 106.022 31.0356 106.013ZM112.847 110.054L91.2535 189.811L151.355 241.255L175.864 154.111L112.847 110.054ZM178.859 115.831C180.472 115.861 182.247 116.102 184.031 116.533C185.815 116.964 187.554 117.572 189.096 118.305C190.342 118.897 191.432 119.557 192.305 120.248C193.178 120.938 193.816 121.646 194.183 122.33C194.551 123.014 194.64 123.662 194.445 124.235C194.251 124.809 193.777 125.297 193.051 125.673C192.324 126.049 191.36 126.304 190.212 126.425C189.065 126.546 187.756 126.529 186.362 126.376C184.968 126.223 183.515 125.937 182.086 125.534C180.657 125.131 179.28 124.619 178.035 124.027C175.519 122.832 173.689 121.384 172.947 120.002C172.205 118.62 172.612 117.418 174.079 116.659C175.193 116.083 176.86 115.794 178.859 115.831ZM247.787 147.021L184.949 156.354L160.609 242.901L221.064 226.468L247.787 147.021ZM153.276 152.607C154.01 152.608 154.752 152.772 155.479 153.095C156.537 153.565 157.549 154.361 158.457 155.44C159.366 156.519 160.153 157.858 160.775 159.382C161.396 160.905 161.839 162.583 162.079 164.32C162.318 166.056 162.35 167.818 162.171 169.503C161.81 172.906 160.616 175.793 158.851 177.528C157.086 179.264 156.273 179.52 152.76 178.758C151.702 178.289 150.69 177.492 149.782 176.414C148.873 175.335 148.085 173.996 147.464 172.472C146.843 170.948 146.399 169.27 146.16 167.534C145.92 165.797 145.889 164.036 146.067 162.351C146.365 159.546 147.231 157.074 148.533 155.315C149.835 153.555 151.501 152.604 153.276 152.607ZM233.376 158.626C235.072 158.576 236.478 159.329 237.365 160.763C238.406 162.447 238.653 164.943 238.051 167.701C237.449 170.46 236.047 173.255 234.154 175.471C232.261 177.687 230.032 179.144 227.956 179.52C225.881 179.896 224.13 179.161 223.088 177.477C222.047 175.793 221.8 173.297 222.402 170.539C223.004 167.78 224.405 164.986 226.298 162.769C227.374 161.51 228.569 160.484 229.794 159.767C231.02 159.049 232.244 158.659 233.376 158.626ZM197.665 164.142C199.361 164.093 200.767 164.846 201.653 166.279C202.695 167.963 202.942 170.459 202.34 173.217C201.738 175.976 200.336 178.771 198.443 180.987C196.55 183.204 194.32 184.66 192.245 185.036C190.17 185.412 188.419 184.677 187.377 182.993C186.336 181.308 186.089 178.812 186.691 176.054C187.293 173.296 188.695 170.501 190.588 168.285C191.663 167.026 192.858 166 194.084 165.282C195.31 164.565 196.533 164.175 197.665 164.142ZM107.216 171.025C107.95 171.026 108.692 171.19 109.42 171.513C110.477 171.983 111.489 172.78 112.397 173.859C113.306 174.937 114.093 176.277 114.715 177.8C115.336 179.324 115.779 181.002 116.019 182.738C116.258 184.475 116.29 186.236 116.111 187.921C115.932 189.606 115.547 191.183 114.978 192.56C114.408 193.937 113.665 195.088 112.791 195.948C111.917 196.807 110.929 197.358 109.884 197.569C108.838 197.78 107.756 197.647 106.699 197.177C105.642 196.708 104.63 195.911 103.721 194.832C102.813 193.754 102.025 192.414 101.404 190.891C100.782 189.367 100.339 187.689 100.099 185.952C99.8598 184.216 99.8284 182.455 100.007 180.769C100.304 177.965 101.17 175.493 102.472 173.733C103.774 171.973 105.44 171.022 107.216 171.025ZM217.566 202.511C219.261 202.461 220.666 203.214 221.553 204.647C222.595 206.331 222.842 208.827 222.24 211.585C221.638 214.344 220.236 217.138 218.343 219.355C216.45 221.571 214.22 223.028 212.145 223.404C210.07 223.78 208.319 223.045 207.277 221.36C206.236 219.676 205.989 217.18 206.591 214.422C207.193 211.663 208.594 208.869 210.487 206.652C211.563 205.393 212.758 204.367 213.984 203.65C215.209 202.932 216.434 202.544 217.566 202.511ZM181.004 212.591C182.7 212.542 184.105 213.295 184.992 214.729C186.033 216.413 186.281 218.909 185.679 221.667C185.077 224.425 183.675 227.22 181.782 229.437C180.845 230.534 179.815 231.456 178.751 232.151C177.688 232.846 176.611 233.299 175.584 233.485C174.556 233.671 173.598 233.586 172.762 233.236C171.927 232.885 171.232 232.275 170.716 231.441C169.675 229.756 169.428 227.26 170.03 224.502C170.632 221.744 172.034 218.949 173.927 216.733C175.002 215.474 176.197 214.448 177.423 213.73C178.649 213.013 179.873 212.624 181.004 212.591Z" fill="url(#paint1_linear_220_2615)"/>
<path d="M67.5881 150.838H34.58C32.6346 150.838 30.7688 151.882 29.3932 153.739C28.0176 155.597 27.2448 158.117 27.2448 160.744V185.511C27.2448 188.138 28.0176 190.658 29.3932 192.516C30.7688 194.374 32.6346 195.418 34.58 195.418H54.7516L65.7543 205.324V195.418H67.5881C69.5335 195.418 71.3992 194.374 72.7748 192.516C74.1504 190.658 74.9232 188.138 74.9232 185.511V160.744C74.9232 158.117 74.1504 155.597 72.7748 153.739C71.3992 151.882 69.5335 150.838 67.5881 150.838Z" stroke="#B19ADE" stroke-width="0.6" stroke-linecap="round" stroke-linejoin="round"/>
<defs>
<linearGradient id="paint0_linear_220_2615" x1="6.8112" y1="128.761" x2="247.787" y2="128.761" gradientUnits="userSpaceOnUse">
<stop stop-color="#B28EF8"/>
<stop offset="1" stop-color="#F476E5"/>
</linearGradient>
<linearGradient id="paint1_linear_220_2615" x1="6.8112" y1="128.761" x2="247.787" y2="128.761" gradientUnits="userSpaceOnUse">
<stop stop-color="#B28EF8"/>
<stop offset="1" stop-color="#F476E5"/>
</linearGradient>
</defs>
</svg>
