<svg width="34" height="34" viewBox="0 0 34 34" fill="none" xmlns="http://www.w3.org/2000/svg">
<circle cx="17" cy="17" r="17" fill="url(#paint0_linear_80_412)"/>
<mask id="path-2-inside-1_80_412" fill="white">
<path d="M17 7C15.0222 7 13.0888 7.58649 11.4443 8.6853C9.79981 9.78412 8.51809 11.3459 7.76121 13.1732C7.00433 15.0004 6.8063 17.0111 7.19215 18.9509C7.578 20.8907 8.53041 22.6725 9.92894 24.0711C11.3275 25.4696 13.1093 26.422 15.0491 26.8078C16.9889 27.1937 18.9996 26.9957 20.8268 26.2388C22.6541 25.4819 24.2159 24.2002 25.3147 22.5557C26.4135 20.9112 27 18.9778 27 17C26.9969 14.3488 25.9423 11.8071 24.0676 9.93237C22.1929 8.05768 19.6512 7.00311 17 7ZM11.4549 23.8627C12.0302 22.9061 12.8432 22.1146 13.8148 21.5651C14.7865 21.0157 15.8837 20.7269 17 20.7269C18.1163 20.7269 19.2135 21.0157 20.1852 21.5651C21.1568 22.1146 21.9698 22.9061 22.5451 23.8627C20.9768 25.1345 19.0191 25.8285 17 25.8285C14.9809 25.8285 13.0232 25.1345 11.4549 23.8627ZM13.6667 16.2157C13.6667 15.5564 13.8622 14.9119 14.2284 14.3638C14.5947 13.8156 15.1153 13.3884 15.7244 13.1361C16.3335 12.8838 17.0037 12.8178 17.6503 12.9464C18.2969 13.075 18.8909 13.3925 19.357 13.8587C19.8232 14.3248 20.1407 14.9188 20.2693 15.5654C20.3979 16.212 20.3319 16.8822 20.0796 17.4913C19.8273 18.1004 19.4001 18.621 18.8519 18.9873C18.3037 19.3535 17.6593 19.549 17 19.549C16.1159 19.549 15.2681 19.1978 14.643 18.5727C14.0179 17.9476 13.6667 17.0997 13.6667 16.2157ZM23.4226 23.0431C22.4983 21.606 21.1168 20.5222 19.501 19.9667C20.3067 19.43 20.9183 18.6483 21.2455 17.7372C21.5726 16.8261 21.5979 15.8339 21.3176 14.9073C21.0372 13.9807 20.4662 13.1689 19.6888 12.5919C18.9114 12.0149 17.9691 11.7034 17.001 11.7034C16.0329 11.7034 15.0905 12.0149 14.3132 12.5919C13.5358 13.1689 12.9647 13.9807 12.6844 14.9073C12.4041 15.8339 12.4293 16.8261 12.7565 17.7372C13.0836 18.6483 13.6953 19.43 14.501 19.9667C12.8852 20.5222 11.5037 21.606 10.5794 23.0431C9.39787 21.7893 8.60925 20.217 8.31083 18.5202C8.01241 16.8234 8.21726 15.0764 8.90011 13.4946C9.58295 11.9129 10.7139 10.5657 12.1535 9.61918C13.593 8.67268 15.2781 8.16832 17.001 8.16832C18.7238 8.16832 20.409 8.67268 21.8485 9.61918C23.288 10.5657 24.419 11.9129 25.1019 13.4946C25.7847 15.0764 25.9896 16.8234 25.6911 18.5202C25.3927 20.217 24.6041 21.7893 23.4226 23.0431Z"/>
</mask>
<path d="M17 7C15.0222 7 13.0888 7.58649 11.4443 8.6853C9.79981 9.78412 8.51809 11.3459 7.76121 13.1732C7.00433 15.0004 6.8063 17.0111 7.19215 18.9509C7.578 20.8907 8.53041 22.6725 9.92894 24.0711C11.3275 25.4696 13.1093 26.422 15.0491 26.8078C16.9889 27.1937 18.9996 26.9957 20.8268 26.2388C22.6541 25.4819 24.2159 24.2002 25.3147 22.5557C26.4135 20.9112 27 18.9778 27 17C26.9969 14.3488 25.9423 11.8071 24.0676 9.93237C22.1929 8.05768 19.6512 7.00311 17 7ZM11.4549 23.8627C12.0302 22.9061 12.8432 22.1146 13.8148 21.5651C14.7865 21.0157 15.8837 20.7269 17 20.7269C18.1163 20.7269 19.2135 21.0157 20.1852 21.5651C21.1568 22.1146 21.9698 22.9061 22.5451 23.8627C20.9768 25.1345 19.0191 25.8285 17 25.8285C14.9809 25.8285 13.0232 25.1345 11.4549 23.8627ZM13.6667 16.2157C13.6667 15.5564 13.8622 14.9119 14.2284 14.3638C14.5947 13.8156 15.1153 13.3884 15.7244 13.1361C16.3335 12.8838 17.0037 12.8178 17.6503 12.9464C18.2969 13.075 18.8909 13.3925 19.357 13.8587C19.8232 14.3248 20.1407 14.9188 20.2693 15.5654C20.3979 16.212 20.3319 16.8822 20.0796 17.4913C19.8273 18.1004 19.4001 18.621 18.8519 18.9873C18.3037 19.3535 17.6593 19.549 17 19.549C16.1159 19.549 15.2681 19.1978 14.643 18.5727C14.0179 17.9476 13.6667 17.0997 13.6667 16.2157ZM23.4226 23.0431C22.4983 21.606 21.1168 20.5222 19.501 19.9667C20.3067 19.43 20.9183 18.6483 21.2455 17.7372C21.5726 16.8261 21.5979 15.8339 21.3176 14.9073C21.0372 13.9807 20.4662 13.1689 19.6888 12.5919C18.9114 12.0149 17.9691 11.7034 17.001 11.7034C16.0329 11.7034 15.0905 12.0149 14.3132 12.5919C13.5358 13.1689 12.9647 13.9807 12.6844 14.9073C12.4041 15.8339 12.4293 16.8261 12.7565 17.7372C13.0836 18.6483 13.6953 19.43 14.501 19.9667C12.8852 20.5222 11.5037 21.606 10.5794 23.0431C9.39787 21.7893 8.60925 20.217 8.31083 18.5202C8.01241 16.8234 8.21726 15.0764 8.90011 13.4946C9.58295 11.9129 10.7139 10.5657 12.1535 9.61918C13.593 8.67268 15.2781 8.16832 17.001 8.16832C18.7238 8.16832 20.409 8.67268 21.8485 9.61918C23.288 10.5657 24.419 11.9129 25.1019 13.4946C25.7847 15.0764 25.9896 16.8234 25.6911 18.5202C25.3927 20.217 24.6041 21.7893 23.4226 23.0431Z" fill="black" fill-opacity="0.47"/>
<path d="M17 7L17.0117 -3H17V7ZM27 17H37L37 16.9883L27 17ZM11.4549 23.8627L2.88521 18.7091L-1.59349 26.1564L5.15646 31.63L11.4549 23.8627ZM17 20.7269V10.7269V20.7269ZM22.5451 23.8627L28.8435 31.63L35.5935 26.1564L31.1148 18.7091L22.5451 23.8627ZM13.6667 16.2157H3.66667H13.6667ZM23.4226 23.0431L15.0118 28.4523L21.9295 39.2087L30.7003 29.9013L23.4226 23.0431ZM19.501 19.9667L13.9575 11.6438L-2.86762 22.8503L16.2495 29.4233L19.501 19.9667ZM17.001 11.7034V21.7034V11.7034ZM14.501 19.9667L17.7524 29.4233L36.8696 22.8503L20.0445 11.6438L14.501 19.9667ZM10.5794 23.0431L3.30164 29.9013L12.0724 39.2087L18.9902 28.4523L10.5794 23.0431ZM17 -3C13.0444 -3 9.17758 -1.82702 5.8886 0.370607L17 17V17V-3ZM5.8886 0.370607C2.59961 2.56824 0.0361652 5.69181 -1.47759 9.34633L17 17H17L5.8886 0.370607ZM-1.47759 9.34633C-2.99134 13.0009 -3.38741 17.0222 -2.6157 20.9018L17 17L17 17L-1.47759 9.34633ZM-2.6157 20.9018C-1.844 24.7814 0.0608168 28.3451 2.85787 31.1421L17 17H17L-2.6157 20.9018ZM2.85787 31.1421C5.65492 33.9392 9.21858 35.844 13.0982 36.6157L17 17H17L2.85787 31.1421ZM13.0982 36.6157C16.9778 37.3874 20.9992 36.9913 24.6537 35.4776L17 17L17 17L13.0982 36.6157ZM24.6537 35.4776C28.3082 33.9638 31.4318 31.4004 33.6294 28.1114L17 17L17 17L24.6537 35.4776ZM33.6294 28.1114C35.827 24.8224 37 20.9556 37 17H17L17 17L33.6294 28.1114ZM37 16.9883C36.9938 11.6889 34.8859 6.60848 31.1387 2.8613L16.9966 17.0034C16.9988 17.0056 17 17.0086 17 17.0117L37 16.9883ZM31.1387 2.8613C27.3915 -0.885871 22.3111 -2.99377 17.0117 -2.99999L16.9883 17C16.9914 17 16.9944 17.0012 16.9966 17.0034L31.1387 2.8613ZM20.0246 29.0164C19.7108 29.5382 19.2674 29.9699 18.7374 30.2696L8.89225 12.8606C6.41895 14.2593 4.34957 16.2741 2.88521 18.7091L20.0246 29.0164ZM18.7374 30.2696C18.2074 30.5694 17.6089 30.7269 17 30.7269V10.7269C14.1586 10.7269 11.3655 11.4619 8.89225 12.8606L18.7374 30.2696ZM17 30.7269C16.3911 30.7269 15.7926 30.5694 15.2626 30.2696L25.1078 12.8606C22.6345 11.4619 19.8414 10.7269 17 10.7269V30.7269ZM15.2626 30.2696C14.7326 29.9699 14.2892 29.5382 13.9754 29.0164L31.1148 18.7091C29.6504 16.2741 27.5811 14.2593 25.1078 12.8606L15.2626 30.2696ZM16.2467 16.0955C16.4597 15.9228 16.7257 15.8285 17 15.8285V35.8285C21.3125 35.8285 25.4939 34.3462 28.8435 31.63L16.2467 16.0955ZM17 15.8285C17.2743 15.8285 17.5403 15.9228 17.7533 16.0955L5.15646 31.63C8.50607 34.3462 12.6875 35.8285 17 35.8285V15.8285ZM23.6667 16.2157C23.6667 17.5342 23.2757 18.8232 22.5431 19.9195L5.91374 8.80808C4.44865 11.0007 3.66667 13.5786 3.66667 16.2157H23.6667ZM22.5431 19.9195C21.8106 21.0158 20.7694 21.8703 19.5512 22.3749L11.8976 3.89729C9.46121 4.90646 7.37883 6.61543 5.91374 8.80808L22.5431 19.9195ZM19.5512 22.3749C18.3331 22.8795 16.9926 23.0115 15.6994 22.7543L19.6012 3.13855C17.0148 2.62408 14.3339 2.88813 11.8976 3.89729L19.5512 22.3749ZM15.6994 22.7543C14.4062 22.497 13.2183 21.8621 12.286 20.9297L26.4281 6.78759C24.5634 4.9229 22.1876 3.65302 19.6012 3.13855L15.6994 22.7543ZM12.286 20.9297C11.3536 19.9974 10.7187 18.8095 10.4614 17.5163L30.0771 13.6145C29.5627 11.0281 28.2928 8.6523 26.4281 6.78759L12.286 20.9297ZM10.4614 17.5163C10.2042 16.2231 10.3362 14.8826 10.8408 13.6645L29.3184 21.3181C30.3276 18.8818 30.5916 16.2009 30.0771 13.6145L10.4614 17.5163ZM10.8408 13.6645C11.3454 12.4463 12.1999 11.4051 13.2962 10.6726L24.4076 27.3019C26.6003 25.8369 28.3092 23.7545 29.3184 21.3181L10.8408 13.6645ZM13.2962 10.6726C14.3925 9.94001 15.6815 9.54902 17 9.54902V29.549C19.6371 29.549 22.2149 28.767 24.4076 27.3019L13.2962 10.6726ZM17 9.54902C18.7681 9.54902 20.4638 10.2514 21.714 11.5016L7.57191 25.6438C10.0724 28.1443 13.4638 29.549 17 29.549V9.54902ZM21.714 11.5016C22.9643 12.7519 23.6667 14.4476 23.6667 16.2157H3.66667C3.66667 19.7519 5.07143 23.1433 7.57191 25.6438L21.714 11.5016ZM31.8333 17.634C29.6931 14.3062 26.4941 11.7965 22.7524 10.51L16.2495 29.4233C15.7395 29.248 15.3035 28.9059 15.0118 28.4523L31.8333 17.634ZM25.0445 28.2895C27.6368 26.5629 29.6047 24.0479 30.6572 21.1165L11.8338 14.3579C12.232 13.2487 12.9766 12.2971 13.9575 11.6438L25.0445 28.2895ZM30.6572 21.1165C31.7097 18.185 31.791 14.9927 30.8891 12.0115L11.746 17.8031C11.4047 16.6751 11.4355 15.4671 11.8338 14.3579L30.6572 21.1165ZM30.8891 12.0115C29.9871 9.03022 28.1498 6.41835 25.6487 4.56202L13.7289 20.6218C12.7825 19.9194 12.0873 18.9311 11.746 17.8031L30.8891 12.0115ZM25.6487 4.56202C23.1477 2.70568 20.1157 1.70342 17.001 1.70342V21.7034C15.8225 21.7034 14.6752 21.3242 13.7289 20.6218L25.6487 4.56202ZM17.001 1.70342C13.8863 1.70342 10.8543 2.70568 8.35322 4.56202L20.2731 20.6218C19.3268 21.3242 18.1795 21.7034 17.001 21.7034V1.70342ZM8.35322 4.56202C5.85217 6.41835 4.01483 9.03022 3.11288 12.0115L22.2559 17.8031C21.9147 18.9311 21.2195 19.9194 20.2731 20.6218L8.35322 4.56202ZM3.11288 12.0115C2.21092 14.9927 2.29222 18.185 3.34476 21.1165L22.1682 14.3579C22.5665 15.4671 22.5972 16.675 22.2559 17.8031L3.11288 12.0115ZM3.34476 21.1165C4.3973 24.0479 6.36521 26.5629 8.95751 28.2895L20.0445 11.6438C21.0253 12.2971 21.7699 13.2487 22.1682 14.3579L3.34476 21.1165ZM11.2495 10.51C7.50789 11.7965 4.30886 14.3062 2.16866 17.634L18.9902 28.4523C18.6985 28.9059 18.2624 29.248 17.7524 29.4233L11.2495 10.51ZM17.8572 16.185C18.0147 16.3522 18.1199 16.5618 18.1597 16.7881L-1.53802 20.2523C-0.901392 23.8721 0.781014 27.2264 3.30164 29.9013L17.8572 16.185ZM18.1597 16.7881C18.1995 17.0143 18.1721 17.2472 18.0811 17.4581L-0.280887 9.53113C-1.73762 12.9055 -2.17464 16.6325 -1.53802 20.2523L18.1597 16.7881ZM18.0811 17.4581C17.9901 17.669 17.8393 17.8487 17.6473 17.9749L6.6596 1.26349C3.58857 3.28269 1.17585 6.15677 -0.280887 9.53113L18.0811 17.4581ZM17.6473 17.9749C17.4554 18.1011 17.2307 18.1683 17.001 18.1683V-1.83168C13.3256 -1.83168 9.73063 -0.755708 6.6596 1.26349L17.6473 17.9749ZM17.001 18.1683C16.7713 18.1683 16.5466 18.1011 16.3546 17.9749L27.3424 1.26349C24.2713 -0.755708 20.6764 -1.83168 17.001 -1.83168V18.1683ZM16.3546 17.9749C16.1627 17.8487 16.0119 17.669 15.9209 17.4581L34.2829 9.53113C32.8261 6.15677 30.4134 3.28269 27.3424 1.26349L16.3546 17.9749ZM15.9209 17.4581C15.8298 17.2472 15.8025 17.0143 15.8423 16.7881L35.54 20.2523C36.1766 16.6325 35.7396 12.9055 34.2829 9.53113L15.9209 17.4581ZM15.8423 16.7881C15.8821 16.5618 15.9872 16.3522 16.1448 16.185L30.7003 29.9013C33.2209 27.2264 34.9034 23.8721 35.54 20.2523L15.8423 16.7881Z" fill="white" mask="url(#path-2-inside-1_80_412)"/>
<defs>
<linearGradient id="paint0_linear_80_412" x1="0" y1="17" x2="34" y2="17" gradientUnits="userSpaceOnUse">
<stop stop-color="#B28EF8"/>
<stop offset="1" stop-color="#F476E5"/>
</linearGradient>
</defs>
</svg>
