<svg width="33" height="30" viewBox="0 0 33 30" fill="none" xmlns="http://www.w3.org/2000/svg">
<path d="M4.33621 1.36552C2.80821 2.35862 1.98227 3.31034 1.11503 4.96552C0.412972 6.41379 0 7.90345 0 9.02069C0 9.97241 0.371675 11.7517 0.825945 12.9103C1.28021 14.1103 2.64302 16.3862 3.79935 17.9586C4.99697 19.531 8.25945 22.8828 11.0677 25.4069C13.8346 27.931 16.3124 30 16.5189 30C16.7254 30 18.9554 28.1379 21.5159 25.8621C24.0763 23.5862 27.1736 20.5241 28.3712 19.0345C29.6101 17.5448 31.0555 15.3931 31.6337 14.2759C32.1706 13.1172 32.7487 11.1724 32.9139 9.93104C33.1204 7.98621 32.9965 7.32414 32.088 5.25517C31.1794 3.35172 30.56 2.6069 28.7016 1.44828C26.7606 0.206897 26.0586 0 23.9524 0C22.1766 0 21.0616 0.248276 19.9053 0.910345C19.0793 1.4069 17.9643 2.1931 17.4274 2.64828L16.5189 3.51724C15.0735 2.1931 13.9585 1.4069 13.0912 0.910345C11.9762 0.248276 10.9025 1.57233e-07 8.9615 0.0413795C6.77275 0.0413795 6.07069 0.248276 4.33621 1.36552Z" fill="#E6543B"/>
</svg>
