<svg width="34" height="34" viewBox="0 0 34 34" fill="none" xmlns="http://www.w3.org/2000/svg">
<circle cx="17" cy="17" r="17" fill="url(#paint0_linear_80_419)"/>
<path d="M11.6875 17.7083C11.6875 17.8962 11.7575 18.0764 11.882 18.2092C12.0065 18.342 12.1754 18.4167 12.3516 18.4167C12.5277 18.4167 12.6966 18.342 12.8211 18.2092C12.9457 18.0764 13.0156 17.8962 13.0156 17.7083C13.0156 17.5205 12.9457 17.3403 12.8211 17.2075C12.6966 17.0746 12.5277 17 12.3516 17C12.1754 17 12.0065 17.0746 11.882 17.2075C11.7575 17.3403 11.6875 17.5205 11.6875 17.7083ZM16.3359 17.7083C16.3359 17.8962 16.4059 18.0764 16.5304 18.2092C16.655 18.342 16.8239 18.4167 17 18.4167C17.1761 18.4167 17.345 18.342 17.4696 18.2092C17.5941 18.0764 17.6641 17.8962 17.6641 17.7083C17.6641 17.5205 17.5941 17.3403 17.4696 17.2075C17.345 17.0746 17.1761 17 17 17C16.8239 17 16.655 17.0746 16.5304 17.2075C16.4059 17.3403 16.3359 17.5205 16.3359 17.7083ZM20.9844 17.7083C20.9844 17.8962 21.0543 18.0764 21.1789 18.2092C21.3034 18.342 21.4723 18.4167 21.6484 18.4167C21.8246 18.4167 21.9935 18.342 22.118 18.2092C22.2425 18.0764 22.3125 17.8962 22.3125 17.7083C22.3125 17.5205 22.2425 17.3403 22.118 17.2075C21.9935 17.0746 21.8246 17 21.6484 17C21.4723 17 21.3034 17.0746 21.1789 17.2075C21.0543 17.3403 20.9844 17.5205 20.9844 17.7083Z" stroke="white" stroke-width="2.5" stroke-linecap="round" stroke-linejoin="round"/>
<defs>
<linearGradient id="paint0_linear_80_419" x1="0" y1="17" x2="34" y2="17" gradientUnits="userSpaceOnUse">
<stop stop-color="#B28EF8"/>
<stop offset="1" stop-color="#F476E5"/>
</linearGradient>
</defs>
</svg>
