<svg width="34" height="34" viewBox="0 0 34 34" fill="none" xmlns="http://www.w3.org/2000/svg">
<path d="M12 17.7083C12 17.8962 12.07 18.0764 12.1945 18.2092C12.319 18.342 12.4879 18.4167 12.6641 18.4167C12.8402 18.4167 13.0091 18.342 13.1336 18.2092C13.2582 18.0764 13.3281 17.8962 13.3281 17.7083C13.3281 17.5205 13.2582 17.3403 13.1336 17.2075C13.0091 17.0746 12.8402 17 12.6641 17C12.4879 17 12.319 17.0746 12.1945 17.2075C12.07 17.3403 12 17.5205 12 17.7083ZM16.6484 17.7083C16.6484 17.8962 16.7184 18.0764 16.8429 18.2092C16.9675 18.342 17.1364 18.4167 17.3125 18.4167C17.4886 18.4167 17.6575 18.342 17.7821 18.2092C17.9066 18.0764 17.9766 17.8962 17.9766 17.7083C17.9766 17.5205 17.9066 17.3403 17.7821 17.2075C17.6575 17.0746 17.4886 17 17.3125 17C17.1364 17 16.9675 17.0746 16.8429 17.2075C16.7184 17.3403 16.6484 17.5205 16.6484 17.7083ZM21.2969 17.7083C21.2969 17.8962 21.3668 18.0764 21.4914 18.2092C21.6159 18.342 21.7848 18.4167 21.9609 18.4167C22.1371 18.4167 22.306 18.342 22.4305 18.2092C22.555 18.0764 22.625 17.8962 22.625 17.7083C22.625 17.5205 22.555 17.3403 22.4305 17.2075C22.306 17.0746 22.1371 17 21.9609 17C21.7848 17 21.6159 17.0746 21.4914 17.2075C21.3668 17.3403 21.2969 17.5205 21.2969 17.7083Z" stroke="url(#paint0_linear_80_413)" stroke-width="2.5" stroke-linecap="round" stroke-linejoin="round"/>
<circle cx="17" cy="17" r="16.5" stroke="url(#paint1_linear_80_413)"/>
<circle cx="17" cy="17" r="15.6875" stroke="url(#paint2_linear_80_413)" stroke-width="0.5"/>
<defs>
<linearGradient id="paint0_linear_80_413" x1="12" y1="17.7083" x2="22.625" y2="17.7083" gradientUnits="userSpaceOnUse">
<stop stop-color="#B28EF8"/>
<stop offset="1" stop-color="#F476E5"/>
</linearGradient>
<linearGradient id="paint1_linear_80_413" x1="0" y1="17" x2="34" y2="17" gradientUnits="userSpaceOnUse">
<stop stop-color="#B28EF8"/>
<stop offset="1" stop-color="#F476E5"/>
</linearGradient>
<linearGradient id="paint2_linear_80_413" x1="1.0625" y1="17" x2="32.9375" y2="17" gradientUnits="userSpaceOnUse">
<stop stop-color="#B28EF8"/>
<stop offset="1" stop-color="#F476E5"/>
</linearGradient>
</defs>
</svg>
