<svg width="43" height="41" viewBox="0 0 43 41" fill="none" xmlns="http://www.w3.org/2000/svg">
<path d="M10.6283 0L0.418349 7.33252L9.30266 10.0356L19.6274 1.94457L10.6283 0ZM21.1089 2.88763L10.1588 11.2453L14.8961 23.4251L15.6877 22.7325L16.0801 21.2732C15.8145 21.0999 15.5868 20.818 15.4339 20.4732C15.2811 20.1284 15.212 19.7409 15.2378 19.3733C15.2632 19.0165 15.3767 18.6986 15.5609 18.4682C15.7452 18.2379 15.99 18.1079 16.2579 18.098C16.3687 18.094 16.4817 18.1105 16.5937 18.1473C16.6922 18.1801 16.7891 18.2283 16.8825 18.2907L17.619 15.5519C17.6279 15.5191 17.6389 15.4868 17.6517 15.4553L17.6571 15.4434C17.6661 15.4218 17.676 15.4005 17.6868 15.3797L17.6952 15.3655C17.7058 15.3457 17.7173 15.3264 17.7295 15.3075C17.7449 15.2843 17.7614 15.2619 17.779 15.2403L17.7851 15.2334C17.801 15.2143 17.8177 15.1959 17.8352 15.1782C17.8544 15.1589 17.8745 15.1405 17.8955 15.1232C17.9094 15.1121 17.924 15.1013 17.9386 15.0912C17.9467 15.0849 17.9549 15.0788 17.9632 15.0729C17.9784 15.0631 17.994 15.0538 18.0098 15.045C18.0181 15.04 18.0264 15.0351 18.0348 15.0304C18.0483 15.0236 18.0619 15.0172 18.0757 15.0111C18.0873 15.0053 18.099 14.9998 18.1109 14.9946C18.1243 14.9895 18.1378 14.9848 18.1514 14.9805C18.164 14.9757 18.1767 14.9713 18.1895 14.9672C18.2019 14.9638 18.2144 14.9607 18.2269 14.9579C18.2414 14.954 18.2559 14.9504 18.2705 14.9473C18.2863 14.9447 18.302 14.9425 18.3179 14.9408C18.3293 14.939 18.3407 14.9374 18.3522 14.9361H18.3531L18.354 14.9359L21.473 14.6689C21.5444 14.4022 21.6709 14.1772 21.8394 14.0175C22.0078 13.8578 22.212 13.7691 22.4308 13.7606C22.5417 13.7565 22.6547 13.7731 22.7668 13.8099C23.0692 13.9099 23.3505 14.152 23.5578 14.4906L24.7677 14.3872L21.1089 2.88763ZM10.4847 3.59426C10.8772 3.60244 11.2098 3.6877 11.4262 3.83559C11.6426 3.98347 11.7294 4.18489 11.6719 4.40568C11.6058 4.65945 11.3543 4.91945 10.9727 5.12849C10.5911 5.33753 10.1106 5.47848 9.63688 5.52034C9.40231 5.54107 9.17648 5.53684 8.97228 5.50789C8.76809 5.47895 8.58953 5.42585 8.4468 5.35164C8.30407 5.27743 8.19996 5.18356 8.14043 5.07538C8.0809 4.96721 8.06711 4.84685 8.09984 4.72118C8.13249 4.59552 8.21102 4.467 8.33097 4.34296C8.45091 4.21892 8.6099 4.1018 8.79887 3.99827C8.98784 3.89475 9.20308 3.80685 9.43231 3.7396C9.66153 3.67235 9.90024 3.62707 10.1348 3.60634C10.2539 3.59588 10.3713 3.59183 10.4847 3.59426ZM19.7819 5.77908C19.8927 5.77502 20.0058 5.79158 20.1179 5.82832C20.4466 5.93605 20.7497 6.21132 20.9604 6.59357C21.1711 6.97582 21.2722 7.43375 21.2414 7.86662C21.2261 8.08098 21.179 8.28272 21.1026 8.46034C21.0262 8.63796 20.922 8.78797 20.7961 8.90181C20.6702 9.01565 20.525 9.0911 20.3688 9.12383C20.2125 9.15656 20.0483 9.14594 19.8855 9.09258C19.7227 9.03927 19.5645 8.94425 19.4199 8.81296C19.2753 8.68167 19.1472 8.51668 19.0429 8.3274C18.9385 8.13813 18.86 7.92828 18.8118 7.70983C18.7636 7.49139 18.7466 7.26863 18.7618 7.05427C18.7872 6.69743 18.9007 6.37952 19.085 6.14922C19.2692 5.91891 19.5139 5.78889 19.7819 5.77908ZM0 8.95295L4.359 19.5555L13.1004 23.3069L8.8345 11.641L0 8.95295ZM13.718 10.5723C13.8288 10.5681 13.9418 10.5846 14.0539 10.6213C14.3827 10.7291 14.6857 11.0044 14.8964 11.3866C15.107 11.7689 15.2081 12.2268 15.1773 12.6596C15.162 12.874 15.1149 13.0757 15.0385 13.2533C14.9621 13.431 14.858 13.581 14.7321 13.6948C14.6062 13.8087 14.461 13.8841 14.3047 13.9169C14.1485 13.9496 13.9843 13.939 13.8215 13.8857C13.4927 13.7779 13.1897 13.5027 12.979 13.1204C12.7683 12.7382 12.6672 12.2802 12.698 11.8474C12.7234 11.4906 12.8368 11.1727 13.021 10.9424C13.2053 10.7121 13.4501 10.5821 13.718 10.5723ZM6.74952 11.7815C6.97944 11.769 7.26768 11.9053 7.5583 12.1642C7.84891 12.423 8.12119 12.7859 8.32228 13.1823C8.4288 13.3923 8.51228 13.6056 8.56795 13.8103C8.62362 14.0149 8.65039 14.2067 8.64672 14.3748C8.64306 14.5429 8.60904 14.684 8.54661 14.7899C8.48418 14.8959 8.39455 14.9648 8.28285 14.9925C8.05723 15.0485 7.75541 14.9337 7.4438 14.6734C7.13219 14.4131 6.8363 14.0287 6.62124 13.6046C6.40624 13.1807 6.28961 12.752 6.29698 12.4126C6.30436 12.0732 6.43514 11.851 6.66057 11.7949C6.68894 11.7877 6.71857 11.7833 6.74952 11.7815ZM31.182 15.5172L20.7833 16.4069L31.3359 23.8323L41.8733 22.257L31.182 15.5172ZM4.32263 16.4142C4.55255 16.4016 4.84082 16.538 5.13148 16.7968C5.42214 17.0557 5.69446 17.4186 5.89557 17.815C6.11068 18.2391 6.22737 18.668 6.21998 19.0074C6.21259 19.3469 6.08171 19.5691 5.85615 19.6252C5.63053 19.6811 5.32872 19.5664 5.01711 19.3061C4.7055 19.0458 4.40961 18.6614 4.19453 18.2374C3.97947 17.8134 3.86281 17.3845 3.87021 17.0451C3.8776 16.7057 4.00844 16.4835 4.23395 16.4274C4.26234 16.4204 4.29169 16.4159 4.32263 16.4142ZM18.9211 17.1401L15.068 31.4647L25.7926 40.7044L30.166 25.0529L18.9211 17.1401ZM30.7004 18.1776C30.9883 18.183 31.3051 18.2262 31.6234 18.3037C31.9417 18.3811 32.2519 18.4904 32.5272 18.622C32.7494 18.7283 32.944 18.8469 33.0998 18.9709C33.2555 19.095 33.3694 19.222 33.4349 19.3449C33.5005 19.4678 33.5163 19.5841 33.4816 19.6871C33.447 19.7901 33.3624 19.8779 33.2328 19.9453C33.1032 20.0128 32.9311 20.0587 32.7263 20.0804C32.5216 20.102 32.2881 20.099 32.0393 20.0716C31.7905 20.0441 31.5312 19.9928 31.2762 19.9204C31.0213 19.848 30.7756 19.756 30.5533 19.6497C30.1044 19.435 29.7778 19.175 29.6455 18.9268C29.5131 18.6786 29.5857 18.4627 29.8474 18.3264C30.0463 18.2229 30.3437 18.171 30.7004 18.1776ZM43 23.7795L31.7871 25.4557L27.4438 41L38.2316 38.0485L43 23.7795ZM26.1354 24.7828C26.2664 24.783 26.3987 24.8124 26.5285 24.8704C26.7172 24.9547 26.8978 25.0979 27.0599 25.2916C27.222 25.4853 27.3625 25.7259 27.4734 25.9995C27.5843 26.2732 27.6634 26.5746 27.7062 26.8865C27.7489 27.1984 27.7545 27.5147 27.7226 27.8173C27.6583 28.4285 27.4451 28.947 27.1302 29.2588C26.8152 29.5705 26.4242 29.65 26.0432 29.4797C25.8545 29.3954 25.674 29.2523 25.5118 29.0585C25.3497 28.8648 25.2092 28.6242 25.0983 28.3506C24.9874 28.0769 24.9083 27.7756 24.8655 27.4637C24.8228 27.1517 24.8171 26.8354 24.849 26.5328C24.9021 26.029 25.0567 25.5851 25.289 25.2691C25.5213 24.9531 25.8186 24.7823 26.1354 24.7828ZM40.4285 25.8638C40.7312 25.8549 40.982 25.9901 41.1402 26.2475C41.3261 26.5501 41.3702 26.9983 41.2628 27.4938C41.1553 27.9892 40.9052 28.4912 40.5674 28.8893C40.2295 29.2873 39.8317 29.5489 39.4614 29.6165C39.0911 29.684 38.7787 29.552 38.5928 29.2495C38.4069 28.947 38.3628 28.4988 38.4702 28.0034C38.5776 27.508 38.8278 27.006 39.1656 26.6079C39.3575 26.3818 39.5707 26.1975 39.7894 26.0687C40.0081 25.9398 40.2265 25.8698 40.4285 25.8638ZM34.0562 26.8546C34.3589 26.8456 34.6097 26.9809 34.7679 27.2383C34.9538 27.5408 34.9978 27.9891 34.8904 28.4845C34.783 28.9799 34.5328 29.4819 34.195 29.88C33.8572 30.278 33.4593 30.5396 33.089 30.6072C32.7187 30.6747 32.4063 30.5427 32.2204 30.2402C32.0346 29.9376 31.9905 29.4893 32.098 28.9939C32.2054 28.4986 32.4556 27.9966 32.7934 27.5985C32.9853 27.3725 33.1985 27.1881 33.4172 27.0593C33.6359 26.9305 33.8543 26.8605 34.0562 26.8546ZM17.9163 28.0907C18.0474 28.0908 18.1797 28.1204 18.3096 28.1784C18.4983 28.2628 18.6788 28.4059 18.8409 28.5996C19.0031 28.7934 19.1436 29.0339 19.2544 29.3076C19.3653 29.5812 19.4444 29.8826 19.4871 30.1945C19.5299 30.5064 19.5355 30.8227 19.5036 31.1254C19.4717 31.428 19.403 31.7111 19.3014 31.9585C19.1997 32.2058 19.0671 32.4126 18.9111 32.5669C18.7552 32.7213 18.5789 32.8203 18.3924 32.8581C18.2059 32.896 18.0128 32.8721 17.8241 32.7878C17.6354 32.7035 17.4548 32.5603 17.2927 32.3666C17.1306 32.1729 16.9901 31.9323 16.8792 31.6587C16.7683 31.385 16.6892 31.0836 16.6465 30.7717C16.6037 30.4598 16.5981 30.1435 16.63 29.8409C16.683 29.3371 16.8375 28.8932 17.0698 28.5771C17.3021 28.261 17.5995 28.0902 17.9163 28.0907ZM37.6073 33.7457C37.9098 33.7368 38.1606 33.872 38.3188 34.1294C38.5047 34.4319 38.5488 34.8801 38.4414 35.3755C38.334 35.8709 38.0839 36.3729 37.7461 36.771C37.4082 37.1691 37.0104 37.4306 36.6401 37.4982C36.2698 37.5657 35.9573 37.4337 35.7715 37.1311C35.5856 36.8286 35.5415 36.3804 35.6489 35.885C35.7563 35.3896 36.0065 34.8876 36.3443 34.4895C36.5362 34.2634 36.7494 34.0791 36.9681 33.9502C37.1868 33.8214 37.4053 33.7516 37.6073 33.7457ZM31.0833 35.5562C31.3858 35.5474 31.6366 35.6827 31.7947 35.9401C31.9806 36.2426 32.0247 36.6908 31.9173 37.1862C31.8099 37.6816 31.5598 38.1836 31.222 38.5817C31.0547 38.7788 30.871 38.9445 30.6812 39.0692C30.4914 39.194 30.2994 39.2754 30.116 39.3088C29.9327 39.3422 29.7616 39.327 29.6125 39.264C29.4635 39.201 29.3395 39.0915 29.2474 38.9416C29.0616 38.6391 29.0175 38.1908 29.125 37.6954C29.2324 37.2 29.4825 36.6981 29.8203 36.3C30.0122 36.0739 30.2255 35.8896 30.4442 35.7608C30.6629 35.632 30.8813 35.5621 31.0833 35.5562Z" fill="url(#paint0_linear_326_2903)" fill-opacity="0.8"/>
<defs>
<linearGradient id="paint0_linear_326_2903" x1="0" y1="20.5" x2="43" y2="20.5" gradientUnits="userSpaceOnUse">
<stop stop-color="#B28EF8"/>
<stop offset="1" stop-color="#F476E5"/>
</linearGradient>
</defs>
</svg>
