<svg width="28" height="28" viewBox="0 0 28 28" fill="none" xmlns="http://www.w3.org/2000/svg">
<path d="M20.4564 17.606C20.1248 17.606 19.7964 17.6713 19.49 17.7982C19.1836 17.9251 18.9052 18.1111 18.6707 18.3457C18.4362 18.5802 18.2501 18.8586 18.1232 19.165C17.9963 19.4714 17.931 19.7998 17.931 20.1314C17.931 20.4631 17.9963 20.7915 18.1232 21.0979C18.2501 21.4043 18.4362 21.6827 18.6707 21.9172C18.9052 22.1517 19.1836 22.3377 19.49 22.4646C19.7964 22.5916 20.1248 22.6569 20.4564 22.6569C21.1262 22.6569 21.7686 22.3908 22.2422 21.9172C22.7158 21.4436 22.9819 20.8012 22.9819 20.1314C22.9819 19.4616 22.7158 18.8193 22.2422 18.3457C21.7686 17.872 21.1262 17.606 20.4564 17.606ZM5.12061 7.64557C5.12061 6.97578 5.38668 6.33342 5.86029 5.85981C6.33391 5.38619 6.97627 5.12012 7.64606 5.12012C8.31585 5.12012 8.95821 5.38619 9.43183 5.85981C9.90544 6.33342 10.1715 6.97578 10.1715 7.64557C10.1715 8.31536 9.90544 8.95772 9.43183 9.43134C8.95821 9.90495 8.31585 10.171 7.64606 10.171C6.97627 10.171 6.33391 9.90495 5.86029 9.43134C5.38668 8.95772 5.12061 8.31536 5.12061 7.64557Z" fill="white"/>
<path fill-rule="evenodd" clip-rule="evenodd" d="M3.78818 0C2.78349 0 1.81995 0.399111 1.10953 1.10953C0.399111 1.81995 0 2.78349 0 3.78818V23.9918C0 24.9965 0.399111 25.96 1.10953 26.6705C1.81995 27.3809 2.78349 27.78 3.78818 27.78H23.9918C24.9965 27.78 25.96 27.3809 26.6705 26.6705C27.3809 25.96 27.78 24.9965 27.78 23.9918V3.78818C27.78 2.78349 27.3809 1.81995 26.6705 1.10953C25.96 0.399111 24.9965 0 23.9918 0H3.78818ZM23.9918 2.52545H3.78818C3.45329 2.52545 3.13211 2.65849 2.8953 2.8953C2.65849 3.13211 2.52545 3.45329 2.52545 3.78818V23.9918C2.52545 24.3267 2.65849 24.6479 2.8953 24.8847C3.13211 25.1215 3.45329 25.2545 3.78818 25.2545H23.9918C24.3267 25.2545 24.6479 25.1215 24.8847 24.8847C25.1215 24.6479 25.2545 24.3267 25.2545 23.9918V3.78818C25.2545 3.45329 25.1215 3.13211 24.8847 2.8953C24.6479 2.65849 24.3267 2.52545 23.9918 2.52545Z" fill="white"/>
</svg>
