<svg width="47" height="49" viewBox="0 0 47 49" fill="none" xmlns="http://www.w3.org/2000/svg">
<path d="M19.1962 24.2951C19.1962 23.1235 19.6361 22 20.4191 21.1716C21.202 20.3432 22.264 19.8778 23.3713 19.8778C24.4786 19.8778 25.5405 20.3432 26.3235 21.1716C27.1065 22 27.5463 23.1235 27.5463 24.2951C27.5463 25.4666 27.1065 26.5902 26.3235 27.4186C25.5405 28.2469 24.4786 28.7123 23.3713 28.7123C22.264 28.7123 21.202 28.2469 20.4191 27.4186C19.6361 26.5902 19.1962 25.4666 19.1962 24.2951ZM33.6941 30.6824C32.5868 30.6824 31.5249 31.1478 30.7419 31.9762C29.9589 32.8046 29.519 33.9282 29.519 35.0997C29.519 36.2712 29.9589 37.3948 30.7419 38.2232C31.5249 39.0516 32.5868 39.517 33.6941 39.517C34.8014 39.517 35.8633 39.0516 36.6463 38.2232C37.4293 37.3948 37.8691 36.2712 37.8691 35.0997C37.8691 33.9282 37.4293 32.8046 36.6463 31.9762C35.8633 31.1478 34.8014 30.6824 33.6941 30.6824ZM8.87341 13.3734C8.87341 12.2019 9.31328 11.0783 10.0963 10.2499C10.8792 9.42151 11.9412 8.95612 13.0485 8.95612C14.1558 8.95612 15.2177 9.42151 16.0007 10.2499C16.7836 11.0783 17.2235 12.2019 17.2235 13.3734C17.2235 14.5449 16.7836 15.6685 16.0007 16.4969C15.2177 17.3253 14.1558 17.7906 13.0485 17.7906C11.9412 17.7906 10.8792 17.3253 10.0963 16.4969C9.31328 15.6685 8.87341 14.5449 8.87341 13.3734Z" fill="#9FC9FF"/>
<path fill-rule="evenodd" clip-rule="evenodd" d="M0.408325 6.6259C0.408325 4.8686 1.06813 3.18328 2.24259 1.94068C3.41705 0.698084 5.00996 0 6.6709 0H40.0713C41.7322 0 43.3251 0.698084 44.4996 1.94068C45.6741 3.18328 46.3339 4.8686 46.3339 6.6259V41.964C46.3339 43.7213 45.6741 45.4067 44.4996 46.6493C43.3251 47.8918 41.7322 48.5899 40.0713 48.5899H6.6709C5.00996 48.5899 3.41705 47.8918 2.24259 46.6493C1.06813 45.4067 0.408325 43.7213 0.408325 41.964V6.6259ZM6.6709 4.41727H40.0713C40.6249 4.41727 41.1559 4.64996 41.5474 5.06416C41.9389 5.47836 42.1588 6.04013 42.1588 6.6259V41.964C42.1588 42.5498 41.9389 43.1116 41.5474 43.5258C41.1559 43.94 40.6249 44.1727 40.0713 44.1727H6.6709C6.11725 44.1727 5.58628 43.94 5.1948 43.5258C4.80331 43.1116 4.58337 42.5498 4.58337 41.964V6.6259C4.58337 6.04013 4.80331 5.47836 5.1948 5.06416C5.58628 4.64996 6.11725 4.41727 6.6709 4.41727Z" fill="#9FC9FF"/>
</svg>
