<svg width="47" height="49" viewBox="0 0 47 49" fill="none" xmlns="http://www.w3.org/2000/svg">
<path d="M33.6941 8.95612C32.5868 8.95612 31.5249 9.42151 30.7419 10.2499C29.9589 11.0783 29.519 12.2019 29.519 13.3734C29.519 14.5449 29.9589 15.6685 30.7419 16.4969C31.5249 17.3253 32.5868 17.7906 33.6941 17.7906C34.8014 17.7906 35.8633 17.3253 36.6463 16.4969C37.4293 15.6685 37.8691 14.5449 37.8691 13.3734C37.8691 12.2019 37.4293 11.0783 36.6463 10.2499C35.8633 9.42151 34.8014 8.95612 33.6941 8.95612ZM29.519 35.0997C29.519 33.9282 29.9589 32.8046 30.7419 31.9762C31.5249 31.1478 32.5868 30.6824 33.6941 30.6824C34.8014 30.6824 35.8633 31.1478 36.6463 31.9762C37.4293 32.8046 37.8691 33.9282 37.8691 35.0997C37.8691 36.2712 37.4293 37.3948 36.6463 38.2232C35.8633 39.0516 34.8014 39.517 33.6941 39.517C32.5868 39.517 31.5249 39.0516 30.7419 38.2232C29.9589 37.3948 29.519 36.2712 29.519 35.0997ZM13.0485 30.6824C11.9412 30.6824 10.8792 31.1478 10.0963 31.9762C9.31328 32.8046 8.87341 33.9282 8.87341 35.0997C8.87341 36.2712 9.31328 37.3948 10.0963 38.2232C10.8792 39.0516 11.9412 39.517 13.0485 39.517C14.1558 39.517 15.2177 39.0516 16.0007 38.2232C16.7836 37.3948 17.2235 36.2712 17.2235 35.0997C17.2235 33.9282 16.7836 32.8046 16.0007 31.9762C15.2177 31.1478 14.1558 30.6824 13.0485 30.6824ZM8.87341 13.3734C8.87341 12.7933 8.9814 12.2189 9.19122 11.683C9.40104 11.147 9.70857 10.6601 10.0963 10.2499C10.4839 9.83972 10.9442 9.51435 11.4507 9.29236C11.9573 9.07037 12.5002 8.95612 13.0485 8.95612C13.5967 8.95612 14.1396 9.07037 14.6462 9.29236C15.1527 9.51435 15.613 9.83972 16.0007 10.2499C16.3884 10.6601 16.6959 11.147 16.9057 11.683C17.1155 12.2189 17.2235 12.7933 17.2235 13.3734C17.2235 14.5449 16.7836 15.6685 16.0007 16.4969C15.2177 17.3253 14.1558 17.7906 13.0485 17.7906C11.9412 17.7906 10.8792 17.3253 10.0963 16.4969C9.31328 15.6685 8.87341 14.5449 8.87341 13.3734Z" fill="#9FC9FF"/>
<path fill-rule="evenodd" clip-rule="evenodd" d="M6.6709 0C5.00996 0 3.41705 0.698084 2.24259 1.94068C1.06813 3.18328 0.408325 4.8686 0.408325 6.6259V41.964C0.408325 43.7213 1.06813 45.4067 2.24259 46.6492C3.41705 47.8918 5.00996 48.5899 6.6709 48.5899H40.0713C41.7322 48.5899 43.3251 47.8918 44.4996 46.6492C45.6741 45.4067 46.3339 43.7213 46.3339 41.964V6.6259C46.3339 4.8686 45.6741 3.18328 44.4996 1.94068C43.3251 0.698084 41.7322 0 40.0713 0H6.6709ZM40.0713 4.41727H6.6709C6.11725 4.41727 5.58628 4.64996 5.1948 5.06416C4.80331 5.47836 4.58337 6.04013 4.58337 6.6259V41.964C4.58337 42.5498 4.80331 43.1116 5.1948 43.5258C5.58628 43.94 6.11725 44.1727 6.6709 44.1727H40.0713C40.6249 44.1727 41.1559 43.94 41.5474 43.5258C41.9389 43.1116 42.1588 42.5498 42.1588 41.964V6.6259C42.1588 6.04013 41.9389 5.47836 41.5474 5.06416C41.1559 4.64996 40.6249 4.41727 40.0713 4.41727Z" fill="#9FC9FF"/>
</svg>
