<svg width="28" height="28" viewBox="0 0 28 28" fill="none" xmlns="http://www.w3.org/2000/svg">
<path d="M17.6102 20.1355C17.6102 20.8053 17.8763 21.4477 18.3499 21.9214C18.8236 22.395 19.466 22.6611 20.1358 22.6611C20.8057 22.6611 21.4481 22.395 21.9218 21.9214C22.3954 21.4477 22.6615 20.8053 22.6615 20.1355C22.6615 19.4656 22.3954 18.8232 21.9218 18.3496C21.4481 17.8759 20.8057 17.6098 20.1358 17.6098C19.466 17.6098 18.8236 17.8759 18.3499 18.3496C17.8763 18.8232 17.6102 19.4656 17.6102 20.1355ZM20.1358 10.2387C19.466 10.2387 18.8236 9.97257 18.3499 9.49891C17.8763 9.02526 17.6102 8.38285 17.6102 7.713C17.6102 7.04315 17.8763 6.40074 18.3499 5.92709C18.8236 5.45344 19.466 5.18734 20.1358 5.18734C20.8057 5.18734 21.4481 5.45344 21.9218 5.92709C22.3954 6.40074 22.6615 7.04315 22.6615 7.713C22.6615 8.38285 22.3954 9.02526 21.9218 9.49891C21.4481 9.97257 20.8057 10.2387 20.1358 10.2387ZM5.12079 7.713C5.12079 8.38285 5.38688 9.02526 5.86054 9.49891C6.33419 9.97257 6.9766 10.2387 7.64645 10.2387C8.3163 10.2387 8.95871 9.97257 9.43236 9.49891C9.90602 9.02526 10.1721 8.38285 10.1721 7.713C10.1721 7.04315 9.90602 6.40074 9.43236 5.92709C8.95871 5.45344 8.3163 5.18734 7.64645 5.18734C6.9766 5.18734 6.33419 5.45344 5.86054 5.92709C5.38688 6.40074 5.12079 7.04315 5.12079 7.713ZM7.64645 22.6611C6.9766 22.6611 6.33419 22.395 5.86054 21.9214C5.38688 21.4477 5.12079 20.8053 5.12079 20.1355C5.12079 19.4656 5.38688 18.8232 5.86054 18.3496C6.33419 17.8759 6.9766 17.6098 7.64645 17.6098C8.3163 17.6098 8.95871 17.8759 9.43236 18.3496C9.90602 18.8232 10.1721 19.4656 10.1721 20.1355C10.1721 20.8053 9.90602 21.4477 9.43236 21.9214C8.95871 22.395 8.3163 22.6611 7.64645 22.6611ZM11.3655 13.8908C11.3655 14.5606 11.6316 15.203 12.1052 15.6767C12.5789 16.1503 13.2213 16.4164 13.8911 16.4164C14.561 16.4164 15.2034 16.1503 15.6771 15.6767C16.1507 15.203 16.4168 14.5606 16.4168 13.8908C16.4168 13.2209 16.1507 12.5785 15.6771 12.1049C15.2034 11.6312 14.561 11.3651 13.8911 11.3651C13.2213 11.3651 12.5789 11.6312 12.1052 12.1049C11.6316 12.5785 11.3655 13.2209 11.3655 13.8908Z" fill="white"/>
<path fill-rule="evenodd" clip-rule="evenodd" d="M0 23.9937C0 24.9985 0.399144 25.9621 1.10962 26.6726C1.8201 27.3831 2.78372 27.7822 3.78849 27.7822H23.9938C24.9986 27.7822 25.9622 27.3831 26.6727 26.6726C27.3831 25.9621 27.7823 24.9985 27.7823 23.9937V3.78844C27.7823 2.78367 27.3831 1.82005 26.6727 1.10957C25.9622 0.399088 24.9986 -5.53131e-05 23.9938 -5.53131e-05H3.78849C2.78372 -5.53131e-05 1.8201 0.399088 1.10962 1.10957C0.399144 1.82005 0 2.78367 0 3.78844V23.9937ZM3.78849 25.2566H23.9938C24.3287 25.2566 24.6499 25.1235 24.8867 24.8867C25.1236 24.6499 25.2566 24.3287 25.2566 23.9937V3.78844C25.2566 3.45351 25.1236 3.13231 24.8867 2.89548C24.6499 2.65865 24.3287 2.52561 23.9938 2.52561H3.78849C3.45357 2.52561 3.13236 2.65865 2.89554 2.89548C2.65871 3.13231 2.52566 3.45351 2.52566 3.78844V23.9937C2.52566 24.3287 2.65871 24.6499 2.89554 24.8867C3.13236 25.1235 3.45357 25.2566 3.78849 25.2566Z" fill="white"/>
</svg>
