<svg width="40" height="40" viewBox="0 0 40 40" fill="none" xmlns="http://www.w3.org/2000/svg">
<circle cx="20" cy="20" r="19.25" fill="white" stroke="#6DA0E1" stroke-width="1.5"/>
<path d="M24.4956 13.6864C24.0134 13.6864 23.5509 13.878 23.21 14.2189C22.869 14.5599 22.6774 15.0224 22.6774 15.5046C22.6774 15.9868 22.869 16.4493 23.21 16.7902C23.5509 17.1312 24.0134 17.3228 24.4956 17.3228C24.9778 17.3228 25.4403 17.1312 25.7813 16.7902C26.1222 16.4493 26.3138 15.9868 26.3138 15.5046C26.3138 15.0224 26.1222 14.5599 25.7813 14.2189C25.4403 13.878 24.9778 13.6864 24.4956 13.6864ZM22.6774 24.4473C22.6774 23.9651 22.869 23.5026 23.21 23.1617C23.5509 22.8207 24.0134 22.6291 24.4956 22.6291C24.9778 22.6291 25.4403 22.8207 25.7813 23.1617C26.1222 23.5026 26.3138 23.9651 26.3138 24.4473C26.3138 24.9295 26.1222 25.392 25.7813 25.733C25.4403 26.0739 24.9778 26.2655 24.4956 26.2655C24.0134 26.2655 23.5509 26.0739 23.21 25.733C22.869 25.392 22.6774 24.9295 22.6774 24.4473ZM15.5047 22.6291C15.0225 22.6291 14.56 22.8207 14.2191 23.1617C13.8781 23.5026 13.6865 23.9651 13.6865 24.4473C13.6865 24.9295 13.8781 25.392 14.2191 25.733C14.56 26.0739 15.0225 26.2655 15.5047 26.2655C15.9869 26.2655 16.4494 26.0739 16.7904 25.733C17.1313 25.392 17.3229 24.9295 17.3229 24.4473C17.3229 23.9651 17.1313 23.5026 16.7904 23.1617C16.4494 22.8207 15.9869 22.6291 15.5047 22.6291ZM13.6865 15.5046C13.6865 15.2658 13.7336 15.0294 13.8249 14.8088C13.9163 14.5882 14.0502 14.3878 14.2191 14.2189C14.3879 14.0501 14.5883 13.9162 14.8089 13.8248C15.0295 13.7334 15.2659 13.6864 15.5047 13.6864C15.7435 13.6864 15.9799 13.7334 16.2005 13.8248C16.4211 13.9162 16.6215 14.0501 16.7904 14.2189C16.9592 14.3878 17.0931 14.5882 17.1845 14.8088C17.2759 15.0294 17.3229 15.2658 17.3229 15.5046C17.3229 15.9868 17.1313 16.4493 16.7904 16.7902C16.4494 17.1312 15.9869 17.3228 15.5047 17.3228C15.0225 17.3228 14.56 17.1312 14.2191 16.7902C13.8781 16.4493 13.6865 15.9868 13.6865 15.5046ZM24.4956 18.1582C24.0134 18.1582 23.5509 18.3498 23.21 18.6908C22.869 19.0317 22.6774 19.4942 22.6774 19.9764C22.6774 20.4586 22.869 20.9211 23.21 21.2621C23.5509 21.603 24.0134 21.7946 24.4956 21.7946C24.9778 21.7946 25.4403 21.603 25.7813 21.2621C26.1222 20.9211 26.3138 20.4586 26.3138 19.9764C26.3138 19.4942 26.1222 19.0317 25.7813 18.6908C25.4403 18.3498 24.9778 18.1582 24.4956 18.1582ZM13.6865 19.9764C13.6865 19.4942 13.8781 19.0317 14.2191 18.6908C14.56 18.3498 15.0225 18.1582 15.5047 18.1582C15.9869 18.1582 16.4494 18.3498 16.7904 18.6908C17.1313 19.0317 17.3229 19.4942 17.3229 19.9764C17.3229 20.4586 17.1313 20.9211 16.7904 21.2621C16.4494 21.603 15.9869 21.7946 15.5047 21.7946C15.0225 21.7946 14.56 21.603 14.2191 21.2621C13.8781 20.9211 13.6865 20.4586 13.6865 19.9764Z" fill="#9FC9FF"/>
<path fill-rule="evenodd" clip-rule="evenodd" d="M12.7273 10C12.004 10 11.3103 10.2873 10.7988 10.7988C10.2873 11.3103 10 12.004 10 12.7273V27.2727C10 27.996 10.2873 28.6897 10.7988 29.2012C11.3103 29.7127 12.004 30 12.7273 30H27.2727C27.996 30 28.6897 29.7127 29.2012 29.2012C29.7127 28.6897 30 27.996 30 27.2727V12.7273C30 12.004 29.7127 11.3103 29.2012 10.7988C28.6897 10.2873 27.996 10 27.2727 10H12.7273ZM27.2727 11.8182H12.7273C12.4862 11.8182 12.2549 11.914 12.0844 12.0844C11.914 12.2549 11.8182 12.4862 11.8182 12.7273V27.2727C11.8182 27.5138 11.914 27.7451 12.0844 27.9156C12.2549 28.086 12.4862 28.1818 12.7273 28.1818H27.2727C27.5138 28.1818 27.7451 28.086 27.9156 27.9156C28.086 27.7451 28.1818 27.5138 28.1818 27.2727V12.7273C28.1818 12.4862 28.086 12.2549 27.9156 12.0844C27.7451 11.914 27.5138 11.8182 27.2727 11.8182Z" fill="#9FC9FF"/>
</svg>
