<svg width="28" height="28" viewBox="0 0 28 28" fill="none" xmlns="http://www.w3.org/2000/svg">
<path d="M20.1344 5.12012C19.4646 5.12012 18.8223 5.38619 18.3487 5.85981C17.8751 6.33342 17.609 6.97578 17.609 7.64557C17.609 8.31536 17.8751 8.95772 18.3487 9.43134C18.8223 9.90495 19.4646 10.171 20.1344 10.171C20.8042 10.171 21.4466 9.90495 21.9202 9.43134C22.3938 8.95772 22.6599 8.31536 22.6599 7.64557C22.6599 6.97578 22.3938 6.33342 21.9202 5.85981C21.4466 5.38619 20.8042 5.12012 20.1344 5.12012ZM17.609 20.067C17.609 19.3972 17.8751 18.7549 18.3487 18.2813C18.8223 17.8076 19.4646 17.5416 20.1344 17.5416C20.8042 17.5416 21.4466 17.8076 21.9202 18.2813C22.3938 18.7549 22.6599 19.3972 22.6599 20.067C22.6599 20.7368 22.3938 21.3792 21.9202 21.8528C21.4466 22.3264 20.8042 22.5925 20.1344 22.5925C19.4646 22.5925 18.8223 22.3264 18.3487 21.8528C17.8751 21.3792 17.609 20.7368 17.609 20.067ZM7.64606 17.5416C6.97627 17.5416 6.33391 17.8076 5.86029 18.2813C5.38668 18.7549 5.12061 19.3972 5.12061 20.067C5.12061 20.7368 5.38668 21.3792 5.86029 21.8528C6.33391 22.3264 6.97627 22.5925 7.64606 22.5925C8.31585 22.5925 8.95821 22.3264 9.43183 21.8528C9.90544 21.3792 10.1715 20.7368 10.1715 20.067C10.1715 19.3972 9.90544 18.7549 9.43183 18.2813C8.95821 17.8076 8.31585 17.5416 7.64606 17.5416ZM5.12061 7.64557C5.12061 7.31392 5.18593 6.98552 5.31284 6.67912C5.43976 6.37272 5.62578 6.09432 5.86029 5.85981C6.0948 5.6253 6.37321 5.43927 6.67961 5.31236C6.98601 5.18544 7.31441 5.12012 7.64606 5.12012C7.97771 5.12012 8.30611 5.18544 8.61251 5.31236C8.91891 5.43927 9.19732 5.6253 9.43183 5.85981C9.66634 6.09432 9.85236 6.37272 9.97928 6.67912C10.1062 6.98552 10.1715 7.31392 10.1715 7.64557C10.1715 8.31536 9.90544 8.95772 9.43183 9.43134C8.95821 9.90495 8.31585 10.171 7.64606 10.171C6.97627 10.171 6.33391 9.90495 5.86029 9.43134C5.38668 8.95772 5.12061 8.31536 5.12061 7.64557Z" fill="white"/>
<path fill-rule="evenodd" clip-rule="evenodd" d="M3.78818 0C2.78349 0 1.81995 0.399111 1.10953 1.10953C0.399111 1.81995 0 2.78349 0 3.78818V23.9918C0 24.9965 0.399111 25.96 1.10953 26.6705C1.81995 27.3809 2.78349 27.78 3.78818 27.78H23.9918C24.9965 27.78 25.96 27.3809 26.6705 26.6705C27.3809 25.96 27.78 24.9965 27.78 23.9918V3.78818C27.78 2.78349 27.3809 1.81995 26.6705 1.10953C25.96 0.399111 24.9965 0 23.9918 0H3.78818ZM23.9918 2.52545H3.78818C3.45329 2.52545 3.13211 2.65849 2.8953 2.8953C2.65849 3.13211 2.52545 3.45329 2.52545 3.78818V23.9918C2.52545 24.3267 2.65849 24.6479 2.8953 24.8847C3.13211 25.1215 3.45329 25.2545 3.78818 25.2545H23.9918C24.3267 25.2545 24.6479 25.1215 24.8847 24.8847C25.1215 24.6479 25.2545 24.3267 25.2545 23.9918V3.78818C25.2545 3.45329 25.1215 3.13211 24.8847 2.8953C24.6479 2.65849 24.3267 2.52545 23.9918 2.52545Z" fill="white"/>
</svg>
