<svg width="28" height="28" viewBox="0 0 28 28" fill="none" xmlns="http://www.w3.org/2000/svg">
<path d="M11.3655 13.8908C11.3655 14.5606 11.6316 15.203 12.1053 15.6767C12.579 16.1503 13.2214 16.4164 13.8912 16.4164C14.5611 16.4164 15.2035 16.1503 15.6771 15.6767C16.1508 15.203 16.4169 14.5606 16.4169 13.8908C16.4169 13.2209 16.1508 12.5785 15.6771 12.1049C15.2035 11.6312 14.5611 11.3651 13.8912 11.3651C13.2214 11.3651 12.579 11.6312 12.1053 12.1049C11.6316 12.5785 11.3655 13.2209 11.3655 13.8908ZM20.1359 10.2387C19.4661 10.2387 18.8237 9.97257 18.35 9.49891C17.8763 9.02526 17.6102 8.38285 17.6102 7.713C17.6102 7.04315 17.8763 6.40074 18.35 5.92709C18.8237 5.45344 19.4661 5.18734 20.1359 5.18734C20.8058 5.18734 21.4482 5.45344 21.9218 5.92709C22.3955 6.40074 22.6616 7.04315 22.6616 7.713C22.6616 8.38285 22.3955 9.02526 21.9218 9.49891C21.4482 9.97257 20.8058 10.2387 20.1359 10.2387ZM5.12085 20.1355C5.12085 20.8053 5.38695 21.4477 5.8606 21.9214C6.33425 22.395 6.97666 22.6611 7.64651 22.6611C8.31636 22.6611 8.95877 22.395 9.43242 21.9214C9.90608 21.4477 10.1722 20.8053 10.1722 20.1355C10.1722 19.4656 9.90608 18.8232 9.43242 18.3496C8.95877 17.8759 8.31636 17.6098 7.64651 17.6098C6.97666 17.6098 6.33425 17.8759 5.8606 18.3496C5.38695 18.8232 5.12085 19.4656 5.12085 20.1355Z" fill="white"/>
<path fill-rule="evenodd" clip-rule="evenodd" d="M0 23.9937C0 24.9985 0.399144 25.9621 1.10962 26.6726C1.8201 27.3831 2.78372 27.7822 3.78849 27.7822H23.9938C24.9986 27.7822 25.9622 27.3831 26.6727 26.6726C27.3831 25.9621 27.7823 24.9985 27.7823 23.9937V3.78844C27.7823 2.78367 27.3831 1.82005 26.6727 1.10957C25.9622 0.399088 24.9986 -5.53131e-05 23.9938 -5.53131e-05H3.78849C2.78372 -5.53131e-05 1.8201 0.399088 1.10962 1.10957C0.399144 1.82005 0 2.78367 0 3.78844V23.9937ZM3.78849 25.2566H23.9938C24.3287 25.2566 24.6499 25.1235 24.8867 24.8867C25.1236 24.6499 25.2566 24.3287 25.2566 23.9937V3.78844C25.2566 3.45351 25.1236 3.13231 24.8867 2.89548C24.6499 2.65865 24.3287 2.52561 23.9938 2.52561H3.78849C3.45357 2.52561 3.13236 2.65865 2.89554 2.89548C2.65871 3.13231 2.52566 3.45351 2.52566 3.78844V23.9937C2.52566 24.3287 2.65871 24.6499 2.89554 24.8867C3.13236 25.1235 3.45357 25.2566 3.78849 25.2566Z" fill="white"/>
</svg>
