<svg width="28" height="28" viewBox="0 0 28 28" fill="none" xmlns="http://www.w3.org/2000/svg">
<path d="M11.3655 13.8913C11.3655 14.5612 11.6316 15.2036 12.1052 15.6772C12.5789 16.1509 13.2213 16.417 13.8911 16.417C14.561 16.417 15.2034 16.1509 15.6771 15.6772C16.1507 15.2036 16.4168 14.5612 16.4168 13.8913C16.4168 13.2215 16.1507 12.5791 15.6771 12.1054C15.2034 11.6318 14.561 11.3657 13.8911 11.3657C13.2213 11.3657 12.5789 11.6318 12.1052 12.1054C11.6316 12.5791 11.3655 13.2215 11.3655 13.8913Z" fill="white"/>
<path fill-rule="evenodd" clip-rule="evenodd" d="M0 23.9937C0 24.9985 0.399144 25.9621 1.10962 26.6726C1.8201 27.3831 2.78372 27.7822 3.78849 27.7822H23.9938C24.9986 27.7822 25.9622 27.3831 26.6727 26.6726C27.3831 25.9621 27.7823 24.9985 27.7823 23.9937V3.78844C27.7823 2.78367 27.3831 1.82005 26.6727 1.10957C25.9622 0.399088 24.9986 -5.53131e-05 23.9938 -5.53131e-05H3.78849C2.78372 -5.53131e-05 1.8201 0.399088 1.10962 1.10957C0.399144 1.82005 0 2.78367 0 3.78844V23.9937ZM3.78849 25.2566H23.9938C24.3287 25.2566 24.6499 25.1235 24.8867 24.8867C25.1236 24.6499 25.2566 24.3287 25.2566 23.9937V3.78844C25.2566 3.45351 25.1236 3.13231 24.8867 2.89548C24.6499 2.65865 24.3287 2.52561 23.9938 2.52561H3.78849C3.45357 2.52561 3.13236 2.65865 2.89554 2.89548C2.65871 3.13231 2.52566 3.45351 2.52566 3.78844V23.9937C2.52566 24.3287 2.65871 24.6499 2.89554 24.8867C3.13236 25.1235 3.45357 25.2566 3.78849 25.2566Z" fill="white"/>
</svg>
