<svg width="40" height="40" viewBox="0 0 40 40" fill="none" xmlns="http://www.w3.org/2000/svg">
<circle cx="20" cy="20" r="19.25" fill="white" stroke="#DEC2DB" stroke-width="1.5"/>
<path d="M22.6774 15.5046C22.6774 15.0224 22.869 14.5599 23.21 14.2189C23.5509 13.878 24.0134 13.6864 24.4956 13.6864C24.9778 13.6864 25.4403 13.878 25.7813 14.2189C26.1222 14.5599 26.3138 15.0224 26.3138 15.5046C26.3138 15.9868 26.1222 16.4493 25.7813 16.7902C25.4403 17.1312 24.9778 17.3228 24.4956 17.3228C24.0134 17.3228 23.5509 17.1312 23.21 16.7902C22.869 16.4493 22.6774 15.9868 22.6774 15.5046ZM24.4956 22.6291C24.0134 22.6291 23.5509 22.8207 23.21 23.1617C22.869 23.5026 22.6774 23.9651 22.6774 24.4473C22.6774 24.9295 22.869 25.392 23.21 25.733C23.5509 26.0739 24.0134 26.2655 24.4956 26.2655C24.9778 26.2655 25.4403 26.0739 25.7813 25.733C26.1222 25.392 26.3138 24.9295 26.3138 24.4473C26.3138 23.9651 26.1222 23.5026 25.7813 23.1617C25.4403 22.8207 24.9778 22.6291 24.4956 22.6291ZM13.6865 24.4473C13.6865 23.9651 13.8781 23.5026 14.2191 23.1617C14.56 22.8207 15.0225 22.6291 15.5047 22.6291C15.9869 22.6291 16.4494 22.8207 16.7904 23.1617C17.1313 23.5026 17.3229 23.9651 17.3229 24.4473C17.3229 24.9295 17.1313 25.392 16.7904 25.733C16.4494 26.0739 15.9869 26.2655 15.5047 26.2655C15.0225 26.2655 14.56 26.0739 14.2191 25.733C13.8781 25.392 13.6865 24.9295 13.6865 24.4473ZM15.5047 13.6864C15.0225 13.6864 14.56 13.878 14.2191 14.2189C13.8781 14.5599 13.6865 15.0224 13.6865 15.5046C13.6865 15.9868 13.8781 16.4493 14.2191 16.7902C14.56 17.1312 15.0225 17.3228 15.5047 17.3228C15.9869 17.3228 16.4494 17.1312 16.7904 16.7902C17.1313 16.4493 17.3229 15.9868 17.3229 15.5046C17.3229 15.0224 17.1313 14.5599 16.7904 14.2189C16.4494 13.878 15.9869 13.6864 15.5047 13.6864ZM18.182 20C18.182 19.5178 18.3735 19.0554 18.7145 18.7144C19.0555 18.3734 19.5179 18.1819 20.0002 18.1819C20.4824 18.1819 20.9448 18.3734 21.2858 18.7144C21.6268 19.0554 21.8183 19.5178 21.8183 20C21.8183 20.4822 21.6268 20.9447 21.2858 21.2857C20.9448 21.6267 20.4824 21.8182 20.0002 21.8182C19.5179 21.8182 19.0555 21.6267 18.7145 21.2857C18.3735 20.9447 18.182 20.4822 18.182 20Z" fill="#9FC9FF"/>
<path fill-rule="evenodd" clip-rule="evenodd" d="M10 12.7273C10 12.004 10.2873 11.3103 10.7988 10.7988C11.3103 10.2873 12.004 10 12.7273 10H27.2727C27.996 10 28.6897 10.2873 29.2012 10.7988C29.7127 11.3103 30 12.004 30 12.7273V27.2727C30 27.996 29.7127 28.6897 29.2012 29.2012C28.6897 29.7127 27.996 30 27.2727 30H12.7273C12.004 30 11.3103 29.7127 10.7988 29.2012C10.2873 28.6897 10 27.996 10 27.2727V12.7273ZM12.7273 11.8182H27.2727C27.5138 11.8182 27.7451 11.914 27.9156 12.0844C28.086 12.2549 28.1818 12.4862 28.1818 12.7273V27.2727C28.1818 27.5138 28.086 27.7451 27.9156 27.9156C27.7451 28.086 27.5138 28.1818 27.2727 28.1818H12.7273C12.4862 28.1818 12.2549 28.086 12.0844 27.9156C11.914 27.7451 11.8182 27.5138 11.8182 27.2727V12.7273C11.8182 12.4862 11.914 12.2549 12.0844 12.0844C12.2549 11.914 12.4862 11.8182 12.7273 11.8182Z" fill="#9FC9FF"/>
</svg>
