<svg width="47" height="49" viewBox="0 0 47 49" fill="none" xmlns="http://www.w3.org/2000/svg">
<path d="M34.2581 30.7951C33.7099 30.7951 33.167 30.9093 32.6604 31.1313C32.1539 31.3533 31.6936 31.6787 31.3059 32.0889C30.9182 32.4991 30.6107 32.986 30.4009 33.5219C30.1911 34.0579 30.0831 34.6323 30.0831 35.2123C30.0831 35.7924 30.1911 36.3668 30.4009 36.9028C30.6107 37.4387 30.9182 37.9256 31.3059 38.3358C31.6936 38.746 32.1539 39.0714 32.6604 39.2934C33.167 39.5154 33.7099 39.6296 34.2581 39.6296C35.3654 39.6296 36.4274 39.1642 37.2103 38.3358C37.9933 37.5074 38.4332 36.3839 38.4332 35.2123C38.4332 34.0408 37.9933 32.9173 37.2103 32.0889C36.4274 31.2605 35.3654 30.7951 34.2581 30.7951ZM8.90515 13.3734C8.90515 12.2019 9.34502 11.0783 10.128 10.2499C10.911 9.42151 11.9729 8.95612 13.0802 8.95612C14.1875 8.95612 15.2494 9.42151 16.0324 10.2499C16.8154 11.0783 17.2553 12.2019 17.2553 13.3734C17.2553 14.5449 16.8154 15.6685 16.0324 16.4969C15.2494 17.3253 14.1875 17.7906 13.0802 17.7906C11.9729 17.7906 10.911 17.3253 10.128 16.4969C9.34502 15.6685 8.90515 14.5449 8.90515 13.3734Z" fill="#F9BCC1"/>
<path fill-rule="evenodd" clip-rule="evenodd" d="M6.7027 0C5.04176 0 3.44885 0.698084 2.27439 1.94068C1.09993 3.18328 0.440125 4.8686 0.440125 6.6259V41.964C0.440125 43.7213 1.09993 45.4067 2.27439 46.6492C3.44885 47.8918 5.04176 48.5899 6.7027 48.5899H40.1031C41.764 48.5899 43.3569 47.8918 44.5314 46.6492C45.7059 45.4067 46.3657 43.7213 46.3657 41.964V6.6259C46.3657 4.8686 45.7059 3.18328 44.5314 1.94068C43.3569 0.698084 41.764 0 40.1031 0H6.7027ZM40.1031 4.41727H6.7027C6.14905 4.41727 5.61808 4.64996 5.2266 5.06416C4.83511 5.47836 4.61517 6.04013 4.61517 6.6259V41.964C4.61517 42.5498 4.83511 43.1116 5.2266 43.5258C5.61808 43.94 6.14905 44.1727 6.7027 44.1727H40.1031C40.6567 44.1727 41.1877 43.94 41.5792 43.5258C41.9707 43.1116 42.1906 42.5498 42.1906 41.964V6.6259C42.1906 6.04013 41.9707 5.47836 41.5792 5.06416C41.1877 4.64996 40.6567 4.41727 40.1031 4.41727Z" fill="#F9BCC1"/>
</svg>
