<svg width="47" height="49" viewBox="0 0 47 49" fill="none" xmlns="http://www.w3.org/2000/svg">
<path d="M29.542 13.3734C29.542 12.2019 29.9819 11.0783 30.7648 10.2499C31.5478 9.42151 32.6097 8.95612 33.717 8.95612C34.8243 8.95612 35.8863 9.42151 36.6692 10.2499C37.4522 11.0783 37.8921 12.2019 37.8921 13.3734C37.8921 14.5449 37.4522 15.6685 36.6692 16.4969C35.8863 17.3253 34.8243 17.7906 33.717 17.7906C32.6097 17.7906 31.5478 17.3253 30.7648 16.4969C29.9819 15.6685 29.542 14.5449 29.542 13.3734ZM33.717 30.6824C32.6097 30.6824 31.5478 31.1478 30.7648 31.9762C29.9819 32.8046 29.542 33.9282 29.542 35.0997C29.542 36.2712 29.9819 37.3948 30.7648 38.2232C31.5478 39.0516 32.6097 39.517 33.717 39.517C34.8243 39.517 35.8863 39.0516 36.6692 38.2232C37.4522 37.3948 37.8921 36.2712 37.8921 35.0997C37.8921 33.9282 37.4522 32.8046 36.6692 31.9762C35.8863 31.1478 34.8243 30.6824 33.717 30.6824ZM8.89636 35.0997C8.89636 33.9282 9.33623 32.8046 10.1192 31.9762C10.9022 31.1478 11.9641 30.6824 13.0714 30.6824C14.1787 30.6824 15.2406 31.1478 16.0236 31.9762C16.8066 32.8046 17.2465 33.9282 17.2465 35.0997C17.2465 36.2712 16.8066 37.3948 16.0236 38.2232C15.2406 39.0516 14.1787 39.517 13.0714 39.517C11.9641 39.517 10.9022 39.0516 10.1192 38.2232C9.33623 37.3948 8.89636 36.2712 8.89636 35.0997ZM13.0714 8.95612C11.9641 8.95612 10.9022 9.42151 10.1192 10.2499C9.33623 11.0783 8.89636 12.2019 8.89636 13.3734C8.89636 14.5449 9.33623 15.6685 10.1192 16.4969C10.9022 17.3253 11.9641 17.7906 13.0714 17.7906C14.1787 17.7906 15.2406 17.3253 16.0236 16.4969C16.8066 15.6685 17.2465 14.5449 17.2465 13.3734C17.2465 12.2019 16.8066 11.0783 16.0236 10.2499C15.2406 9.42151 14.1787 8.95612 13.0714 8.95612ZM19.2192 24.2951C19.2192 23.1235 19.659 22 20.442 21.1716C21.225 20.3432 22.2869 19.8778 23.3942 19.8778C24.5015 19.8778 25.5635 20.3432 26.3464 21.1716C27.1294 22 27.5693 23.1235 27.5693 24.2951C27.5693 25.4666 27.1294 26.5902 26.3464 27.4186C25.5635 28.2469 24.5015 28.7123 23.3942 28.7123C22.2869 28.7123 21.225 28.2469 20.442 27.4186C19.659 26.5902 19.2192 25.4666 19.2192 24.2951Z" fill="#F9BCC1"/>
<path fill-rule="evenodd" clip-rule="evenodd" d="M0.431396 6.6259C0.431396 4.8686 1.0912 3.18328 2.26566 1.94068C3.44012 0.698084 5.03303 0 6.69397 0H40.0944C41.7553 0 43.3482 0.698084 44.5227 1.94068C45.6971 3.18328 46.3569 4.8686 46.3569 6.6259V41.964C46.3569 43.7213 45.6971 45.4067 44.5227 46.6492C43.3482 47.8918 41.7553 48.5899 40.0944 48.5899H6.69397C5.03303 48.5899 3.44012 47.8918 2.26566 46.6492C1.0912 45.4067 0.431396 43.7213 0.431396 41.964V6.6259ZM6.69397 4.41727H40.0944C40.648 4.41727 41.179 4.64996 41.5705 5.06416C41.962 5.47836 42.1819 6.04013 42.1819 6.6259V41.964C42.1819 42.5498 41.962 43.1116 41.5705 43.5258C41.179 43.94 40.648 44.1727 40.0944 44.1727H6.69397C6.14032 44.1727 5.60935 43.94 5.21787 43.5258C4.82638 43.1116 4.60645 42.5498 4.60645 41.964V6.6259C4.60645 6.04013 4.82638 5.47836 5.21787 5.06416C5.60935 4.64996 6.14032 4.41727 6.69397 4.41727Z" fill="#F9BCC1"/>
</svg>
