<svg width="40" height="40" viewBox="0 0 40 40" fill="none" xmlns="http://www.w3.org/2000/svg">
<circle cx="20" cy="20" r="19.25" fill="white" stroke="#DEC2DB" stroke-width="1.5"/>
<path d="M24.7274 22.6755C24.4887 22.6755 24.2522 22.7225 24.0316 22.8139C23.8111 22.9053 23.6106 23.0392 23.4418 23.208C23.273 23.3769 23.139 23.5773 23.0477 23.7979C22.9563 24.0185 22.9093 24.2549 22.9093 24.4937C22.9093 24.7324 22.9563 24.9689 23.0477 25.1895C23.139 25.4101 23.273 25.6105 23.4418 25.7793C23.6106 25.9482 23.8111 26.0821 24.0316 26.1735C24.2522 26.2648 24.4887 26.3119 24.7274 26.3119C25.2096 26.3119 25.6721 26.1203 26.0131 25.7793C26.3541 25.4383 26.5456 24.9759 26.5456 24.4937C26.5456 24.0115 26.3541 23.549 26.0131 23.208C25.6721 22.8671 25.2096 22.6755 24.7274 22.6755ZM13.6865 15.5046C13.6865 15.0224 13.8781 14.5599 14.2191 14.2189C14.56 13.878 15.0225 13.6864 15.5047 13.6864C15.9869 13.6864 16.4494 13.878 16.7904 14.2189C17.1313 14.5599 17.3229 15.0224 17.3229 15.5046C17.3229 15.9868 17.1313 16.4493 16.7904 16.7902C16.4494 17.1312 15.9869 17.3228 15.5047 17.3228C15.0225 17.3228 14.56 17.1312 14.2191 16.7902C13.8781 16.4493 13.6865 15.9868 13.6865 15.5046Z" fill="#F9BCC1"/>
<path fill-rule="evenodd" clip-rule="evenodd" d="M12.7273 10C12.004 10 11.3103 10.2873 10.7988 10.7988C10.2873 11.3103 10 12.004 10 12.7273V27.2727C10 27.996 10.2873 28.6897 10.7988 29.2012C11.3103 29.7127 12.004 30 12.7273 30H27.2727C27.996 30 28.6897 29.7127 29.2012 29.2012C29.7127 28.6897 30 27.996 30 27.2727V12.7273C30 12.004 29.7127 11.3103 29.2012 10.7988C28.6897 10.2873 27.996 10 27.2727 10H12.7273ZM27.2727 11.8182H12.7273C12.4862 11.8182 12.2549 11.914 12.0844 12.0844C11.914 12.2549 11.8182 12.4862 11.8182 12.7273V27.2727C11.8182 27.5138 11.914 27.7451 12.0844 27.9156C12.2549 28.086 12.4862 28.1818 12.7273 28.1818H27.2727C27.5138 28.1818 27.7451 28.086 27.9156 27.9156C28.086 27.7451 28.1818 27.5138 28.1818 27.2727V12.7273C28.1818 12.4862 28.086 12.2549 27.9156 12.0844C27.7451 11.914 27.5138 11.8182 27.2727 11.8182Z" fill="#F9BCC1"/>
</svg>
