<svg width="47" height="49" viewBox="0 0 47 49" fill="none" xmlns="http://www.w3.org/2000/svg">
<path d="M19.2278 24.295C19.2278 23.1234 19.6677 21.9999 20.4507 21.1715C21.2337 20.3431 22.2956 19.8777 23.4029 19.8777C24.5102 19.8777 25.5721 20.3431 26.3551 21.1715C27.1381 21.9999 27.5779 23.1234 27.5779 24.295C27.5779 25.4665 27.1381 26.59 26.3551 27.4184C25.5721 28.2468 24.5102 28.7122 23.4029 28.7122C22.2956 28.7122 21.2337 28.2468 20.4507 27.4184C19.6677 26.59 19.2278 25.4665 19.2278 24.295Z" fill="#F9BCC1"/>
<path fill-rule="evenodd" clip-rule="evenodd" d="M0.440125 6.6259C0.440125 4.8686 1.09993 3.18328 2.27439 1.94068C3.44885 0.698084 5.04176 0 6.7027 0H40.1031C41.764 0 43.3569 0.698084 44.5314 1.94068C45.7059 3.18328 46.3657 4.8686 46.3657 6.6259V41.964C46.3657 43.7213 45.7059 45.4067 44.5314 46.6492C43.3569 47.8918 41.764 48.5899 40.1031 48.5899H6.7027C5.04176 48.5899 3.44885 47.8918 2.27439 46.6492C1.09993 45.4067 0.440125 43.7213 0.440125 41.964V6.6259ZM6.7027 4.41727H40.1031C40.6567 4.41727 41.1877 4.64996 41.5792 5.06416C41.9707 5.47836 42.1906 6.04013 42.1906 6.6259V41.964C42.1906 42.5498 41.9707 43.1116 41.5792 43.5258C41.1877 43.94 40.6567 44.1727 40.1031 44.1727H6.7027C6.14905 44.1727 5.61808 43.94 5.2266 43.5258C4.83511 43.1116 4.61517 42.5498 4.61517 41.964V6.6259C4.61517 6.04013 4.83511 5.47836 5.2266 5.06416C5.61808 4.64996 6.14905 4.41727 6.7027 4.41727Z" fill="#F9BCC1"/>
</svg>
