<svg width="40" height="40" viewBox="0 0 40 40" fill="none" xmlns="http://www.w3.org/2000/svg">
<circle cx="20" cy="20" r="19.25" fill="white" stroke="#DEC2DB" stroke-width="1.5"/>
<path d="M18.1816 20.0001C18.1816 19.5179 18.3732 19.0554 18.7142 18.7144C19.0551 18.3734 19.5176 18.1819 19.9998 18.1819C20.482 18.1819 20.9445 18.3734 21.2855 18.7144C21.6264 19.0554 21.818 19.5179 21.818 20.0001C21.818 20.4823 21.6264 20.9447 21.2855 21.2857C20.9445 21.6267 20.482 21.8182 19.9998 21.8182C19.5176 21.8182 19.0551 21.6267 18.7142 21.2857C18.3732 20.9447 18.1816 20.4823 18.1816 20.0001Z" fill="#9FC9FF"/>
<path fill-rule="evenodd" clip-rule="evenodd" d="M10 12.7273C10 12.004 10.2873 11.3103 10.7988 10.7988C11.3103 10.2873 12.004 10 12.7273 10H27.2727C27.996 10 28.6897 10.2873 29.2012 10.7988C29.7127 11.3103 30 12.004 30 12.7273V27.2727C30 27.996 29.7127 28.6897 29.2012 29.2012C28.6897 29.7127 27.996 30 27.2727 30H12.7273C12.004 30 11.3103 29.7127 10.7988 29.2012C10.2873 28.6897 10 27.996 10 27.2727V12.7273ZM12.7273 11.8182H27.2727C27.5138 11.8182 27.7451 11.914 27.9156 12.0844C28.086 12.2549 28.1818 12.4862 28.1818 12.7273V27.2727C28.1818 27.5138 28.086 27.7451 27.9156 27.9156C27.7451 28.086 27.5138 28.1818 27.2727 28.1818H12.7273C12.4862 28.1818 12.2549 28.086 12.0844 27.9156C11.914 27.7451 11.8182 27.5138 11.8182 27.2727V12.7273C11.8182 12.4862 11.914 12.2549 12.0844 12.0844C12.2549 11.914 12.4862 11.8182 12.7273 11.8182Z" fill="#9FC9FF"/>
</svg>
