<svg width="47" height="49" viewBox="0 0 47 49" fill="none" xmlns="http://www.w3.org/2000/svg">
<path d="M33.717 8.95612C32.6097 8.95612 31.5478 9.42151 30.7648 10.2499C29.9819 11.0783 29.542 12.2019 29.542 13.3734C29.542 14.5449 29.9819 15.6685 30.7648 16.4969C31.5478 17.3253 32.6097 17.7906 33.717 17.7906C34.8243 17.7906 35.8863 17.3253 36.6692 16.4969C37.4522 15.6685 37.8921 14.5449 37.8921 13.3734C37.8921 12.2019 37.4522 11.0783 36.6692 10.2499C35.8863 9.42151 34.8243 8.95612 33.717 8.95612ZM29.542 35.0997C29.542 33.9282 29.9819 32.8046 30.7648 31.9762C31.5478 31.1478 32.6097 30.6824 33.717 30.6824C34.8243 30.6824 35.8863 31.1478 36.6692 31.9762C37.4522 32.8046 37.8921 33.9282 37.8921 35.0997C37.8921 36.2712 37.4522 37.3948 36.6692 38.2232C35.8863 39.0516 34.8243 39.517 33.717 39.517C32.6097 39.517 31.5478 39.0516 30.7648 38.2232C29.9819 37.3948 29.542 36.2712 29.542 35.0997ZM13.0714 30.6824C11.9641 30.6824 10.9022 31.1478 10.1192 31.9762C9.33623 32.8046 8.89636 33.9282 8.89636 35.0997C8.89636 36.2712 9.33623 37.3948 10.1192 38.2232C10.9022 39.0516 11.9641 39.517 13.0714 39.517C14.1787 39.517 15.2406 39.0516 16.0236 38.2232C16.8066 37.3948 17.2465 36.2712 17.2465 35.0997C17.2465 33.9282 16.8066 32.8046 16.0236 31.9762C15.2406 31.1478 14.1787 30.6824 13.0714 30.6824ZM8.89636 13.3734C8.89636 12.7933 9.00435 12.2189 9.21417 11.683C9.42399 11.147 9.73152 10.6601 10.1192 10.2499C10.5069 9.83972 10.9671 9.51435 11.4737 9.29236C11.9802 9.07037 12.5231 8.95612 13.0714 8.95612C13.6197 8.95612 14.1626 9.07037 14.6691 9.29236C15.1757 9.51435 15.6359 9.83972 16.0236 10.2499C16.4113 10.6601 16.7188 11.147 16.9287 11.683C17.1385 12.2189 17.2465 12.7933 17.2465 13.3734C17.2465 14.5449 16.8066 15.6685 16.0236 16.4969C15.2406 17.3253 14.1787 17.7906 13.0714 17.7906C11.9641 17.7906 10.9022 17.3253 10.1192 16.4969C9.33623 15.6685 8.89636 14.5449 8.89636 13.3734ZM33.717 19.8204C32.6097 19.8204 31.5478 20.2858 30.7648 21.1142C29.9819 21.9426 29.542 23.0661 29.542 24.2376C29.542 25.4092 29.9819 26.5327 30.7648 27.3611C31.5478 28.1895 32.6097 28.6549 33.717 28.6549C34.8243 28.6549 35.8863 28.1895 36.6692 27.3611C37.4522 26.5327 37.8921 25.4092 37.8921 24.2376C37.8921 23.0661 37.4522 21.9426 36.6692 21.1142C35.8863 20.2858 34.8243 19.8204 33.717 19.8204ZM8.89636 24.2376C8.89636 23.0661 9.33623 21.9426 10.1192 21.1142C10.9022 20.2858 11.9641 19.8204 13.0714 19.8204C14.1787 19.8204 15.2406 20.2858 16.0236 21.1142C16.8066 21.9426 17.2465 23.0661 17.2465 24.2376C17.2465 25.4092 16.8066 26.5327 16.0236 27.3611C15.2406 28.1895 14.1787 28.6549 13.0714 28.6549C11.9641 28.6549 10.9022 28.1895 10.1192 27.3611C9.33623 26.5327 8.89636 25.4092 8.89636 24.2376Z" fill="#F9BCC1"/>
<path fill-rule="evenodd" clip-rule="evenodd" d="M6.69397 0C5.03303 0 3.44012 0.698084 2.26566 1.94068C1.0912 3.18328 0.431396 4.8686 0.431396 6.6259V41.964C0.431396 43.7213 1.0912 45.4067 2.26566 46.6492C3.44012 47.8918 5.03303 48.5899 6.69397 48.5899H40.0944C41.7553 48.5899 43.3482 47.8918 44.5227 46.6492C45.6971 45.4067 46.3569 43.7213 46.3569 41.964V6.6259C46.3569 4.8686 45.6971 3.18328 44.5227 1.94068C43.3482 0.698084 41.7553 0 40.0944 0H6.69397ZM40.0944 4.41727H6.69397C6.14032 4.41727 5.60935 4.64996 5.21787 5.06416C4.82638 5.47836 4.60645 6.04013 4.60645 6.6259V41.964C4.60645 42.5498 4.82638 43.1116 5.21787 43.5258C5.60935 43.94 6.14032 44.1727 6.69397 44.1727H40.0944C40.648 44.1727 41.179 43.94 41.5705 43.5258C41.962 43.1116 42.1819 42.5498 42.1819 41.964V6.6259C42.1819 6.04013 41.962 5.47836 41.5705 5.06416C41.179 4.64996 40.648 4.41727 40.0944 4.41727Z" fill="#F9BCC1"/>
</svg>
