<svg width="63" height="62" viewBox="0 0 63 62" fill="none" xmlns="http://www.w3.org/2000/svg">
<g filter="url(#filter0_d_220_10242)">
<circle cx="31.3545" cy="26.9518" r="26.9518" fill="white"/>
<circle cx="31.3545" cy="26.9518" r="25.9518" stroke="url(#paint0_linear_220_10242)" stroke-width="2"/>
</g>
<path d="M31.3303 9.32812C30.825 9.32812 30.3196 9.44539 29.9282 9.67991L17.4306 17.1663C16.6476 17.6354 16.6476 18.3771 17.4306 18.8461L29.9282 26.3326C30.7112 26.8016 31.9493 26.8016 32.7322 26.3326L45.2298 18.8461C46.0127 18.3772 46.0127 17.6354 45.2298 17.1664L32.7322 9.67999C32.3407 9.4453 31.8355 9.32812 31.3303 9.32812ZM31.2628 13.8279C32.0003 13.8362 32.6633 14.0111 33.2518 14.3526C33.6543 14.5862 33.9179 14.8527 34.0426 15.1522C34.1632 15.4494 34.1702 15.841 34.0639 16.327L33.933 16.8104C33.8463 17.1564 33.8283 17.4052 33.879 17.5568C33.9256 17.7062 34.0412 17.8346 34.226 17.9418L34.5034 18.1027L31.7843 19.6803L31.4821 19.5051C31.1452 19.3097 30.9303 19.0889 30.8372 18.8426C30.74 18.5939 30.7562 18.1984 30.8858 17.656L31.0104 17.169C31.083 16.8789 31.0901 16.6412 31.0317 16.4557C30.9783 16.2673 30.8571 16.1183 30.6681 16.0086C30.3805 15.8418 30.0361 15.7818 29.6348 15.8288C29.2294 15.8734 28.8107 16.021 28.3789 16.2715C27.9722 16.5074 27.6027 16.8029 27.2703 17.1577C26.934 17.5103 26.6452 17.9139 26.4041 18.3683L24.4692 17.2455C24.9043 16.793 25.3318 16.3973 25.7517 16.0582C26.1717 15.7193 26.6152 15.4143 27.0822 15.1432C28.3075 14.4322 29.4469 14.0095 30.5005 13.8751C30.7533 13.8415 31.0081 13.8257 31.263 13.8279L31.2628 13.8279ZM35.4156 18.6319L37.6094 19.9049L34.8903 21.4825L32.6963 20.2096L35.4156 18.6319ZM16.5961 20.2643C16.1254 20.2511 15.8054 20.6317 15.8054 21.3047V34.6657C15.8054 35.6021 16.4248 36.713 17.2077 37.1813L29.2289 44.3701C30.0119 44.8383 30.6312 44.4681 30.6312 43.5318V30.1705C30.6312 29.2341 30.0119 28.1235 29.2289 27.6551L17.2077 20.4663C16.9877 20.3346 16.7803 20.2692 16.5961 20.2641V20.2643ZM46.1129 20.2644C45.9289 20.2695 45.7216 20.3348 45.5015 20.4665L33.4799 27.6553C32.6969 28.1236 32.0776 29.2344 32.0776 30.1708V43.5322C32.0776 44.4684 32.6969 44.8385 33.4799 44.3701L45.5015 37.1816C46.2845 36.7133 46.9036 35.6026 46.9036 34.6663V21.3049C46.9036 20.632 46.5837 20.2516 46.1129 20.2646V20.2644ZM19.8055 25.6659C20.3417 25.7817 20.8314 25.9233 21.2745 26.0907C21.7187 26.2586 22.1479 26.4663 22.5573 26.7113C23.6384 27.3577 24.4625 28.0944 25.0296 28.9211C25.5968 29.743 25.8804 30.6196 25.8804 31.551C25.8804 32.0289 25.794 32.4063 25.6212 32.6833C25.4483 32.9555 25.1537 33.184 24.7372 33.3691L24.3118 33.5318C24.0105 33.6539 23.8133 33.7799 23.7203 33.9096C23.6273 34.0343 23.5808 34.2064 23.5808 34.4258V34.755L21.1815 33.3203V32.9619C21.1815 32.562 21.2546 32.2522 21.4008 32.0324C21.547 31.8078 21.855 31.5969 22.3247 31.3998L22.7501 31.2298C23.0026 31.1273 23.1865 30.9983 23.3017 30.8429C23.4212 30.6902 23.481 30.5016 23.481 30.2772C23.481 29.936 23.3747 29.6067 23.162 29.2893C22.9493 28.9671 22.6524 28.692 22.2714 28.4641C21.9125 28.2496 21.5248 28.1007 21.1082 28.0174C20.6917 27.9293 20.2575 27.9111 19.8055 27.9628V25.6659ZM41.8581 26.3952C41.9826 26.3952 42.098 26.4091 42.2044 26.4369C42.7715 26.5806 43.0551 27.1181 43.0551 28.0496C43.0551 28.5275 42.9687 29.0082 42.7959 29.4919C42.6231 29.9707 42.3285 30.5516 41.912 31.2346L41.4865 31.9059C41.1852 32.3884 40.988 32.7501 40.895 32.991C40.802 33.227 40.7555 33.4547 40.7555 33.6742V34.0033L38.3563 35.4379V35.0795C38.3563 34.6796 38.4293 34.2824 38.5755 33.8877C38.7219 33.4882 39.0298 32.9091 39.4994 32.1505L39.9248 31.4718C40.1774 31.0672 40.3612 30.7183 40.4764 30.4251C40.5959 30.1292 40.6557 29.8691 40.6558 29.6448C40.6558 29.3035 40.5495 29.1013 40.3368 29.0383C40.1241 28.9705 39.8272 29.0504 39.4461 29.2781C39.0872 29.4928 38.6996 29.8075 38.2831 30.2223C37.8667 30.6324 37.4325 31.1334 36.9804 31.7254V29.4285C37.5166 28.9032 38.0061 28.4592 38.449 28.0967C38.8923 27.7343 39.3199 27.4299 39.7319 27.1836C40.6104 26.6583 41.3192 26.3955 41.8583 26.3951L41.8581 26.3952ZM21.1814 34.4031L23.5808 35.8375V38.4417L21.1815 37.0072V34.4032L21.1814 34.4031ZM40.7555 35.086V37.6901L38.3563 39.1245V36.5206L40.7555 35.086Z" fill="#B28EF8"/>
<defs>
<filter id="filter0_d_220_10242" x="0.40271" y="0" width="61.9036" height="61.9033" filterUnits="userSpaceOnUse" color-interpolation-filters="sRGB">
<feFlood flood-opacity="0" result="BackgroundImageFix"/>
<feColorMatrix in="SourceAlpha" type="matrix" values="0 0 0 0 0 0 0 0 0 0 0 0 0 0 0 0 0 0 127 0" result="hardAlpha"/>
<feOffset dy="4"/>
<feGaussianBlur stdDeviation="2"/>
<feComposite in2="hardAlpha" operator="out"/>
<feColorMatrix type="matrix" values="0 0 0 0 0 0 0 0 0 0 0 0 0 0 0 0 0 0 0.25 0"/>
<feBlend mode="normal" in2="BackgroundImageFix" result="effect1_dropShadow_220_10242"/>
<feBlend mode="normal" in="SourceGraphic" in2="effect1_dropShadow_220_10242" result="shape"/>
</filter>
<linearGradient id="paint0_linear_220_10242" x1="4.40271" y1="26.9518" x2="58.3063" y2="26.9518" gradientUnits="userSpaceOnUse">
<stop stop-color="#B28EF8"/>
<stop offset="1" stop-color="#F476E5"/>
</linearGradient>
</defs>
</svg>
